<?xml version="1.0" encoding="UTF-8" standalone="no"?>
<!-- Generator: Adobe Illustrator 16.0.0, SVG Export Plug-In . SVG Version: 6.00 Build 0)  -->

<svg
   xmlns:osb="http://www.openswatchbook.org/uri/2009/osb"
   xmlns:dc="http://purl.org/dc/elements/1.1/"
   xmlns:cc="http://creativecommons.org/ns#"
   xmlns:rdf="http://www.w3.org/1999/02/22-rdf-syntax-ns#"
   xmlns:svg="http://www.w3.org/2000/svg"
   xmlns="http://www.w3.org/2000/svg"
   xmlns:sodipodi="http://sodipodi.sourceforge.net/DTD/sodipodi-0.dtd"
   xmlns:inkscape="http://www.inkscape.org/namespaces/inkscape"
   version="1.1"
   x="0px"
   y="0px"
   width="672"
   height="315"
   viewBox="0 0 672 315"
   enable-background="new 0 0 612 792"
   xml:space="preserve"
   id="svg5249"
   inkscape:version="0.91 r"
   sodipodi:docname="world-NA.svg"><metadata
     id="metadata5259"><rdf:RDF><cc:Work
         rdf:about=""><dc:format>image/svg+xml</dc:format><dc:type
           rdf:resource="http://purl.org/dc/dcmitype/StillImage" /><dc:title /></cc:Work></rdf:RDF></metadata><defs
     id="defs5257"><linearGradient
       id="linearGradient12025"
       osb:paint="solid"><stop
         style="stop-color:#cc5252;stop-opacity:1;"
         offset="0"
         id="stop12027" /></linearGradient><linearGradient
       id="linearGradient12019"
       osb:paint="solid"><stop
         style="stop-color:#84297f;stop-opacity:1;"
         offset="0"
         id="stop12021" /></linearGradient></defs><sodipodi:namedview
     pagecolor="#ffffff"
     bordercolor="#666666"
     borderopacity="1"
     objecttolerance="10"
     gridtolerance="10"
     guidetolerance="10"
     inkscape:pageopacity="0"
     inkscape:pageshadow="2"
     inkscape:window-width="1104"
     inkscape:window-height="598"
     id="namedview5255"
     showgrid="false"
     inkscape:zoom="2.3838384"
     inkscape:cx="185.95249"
     inkscape:cy="231.63043"
     inkscape:window-x="79"
     inkscape:window-y="43"
     inkscape:window-maximized="0"
     inkscape:current-layer="svg5249" /><g
     id="Layer_1"
     transform="translate(0,-477)" /><path
     style="fill:#cc5252"
     d="m 563.32614,80.010894 c -0.0729,-0.208628 -0.14694,-0.416134 -0.21985,-0.625883 -0.0909,0.06842 -0.26583,0.186195 -0.26022,0.196289 0.11104,0.180587 0.24228,0.349957 0.36902,0.52157 -0.16488,1.171008 1.46713,1.901205 0.63037,3.341411 -1.10931,1.9113 -0.77843,2.610091 1.42675,4.104136 0.11441,-0.877135 -0.66739,-2.698703 1.06781,-2.091887 2.39361,0.836755 4.0144,0.277049 5.50845,-1.736322 -2.82321,-1.230456 -5.67109,-2.471006 -8.52233,-3.709314 z"
     id="path5928"
     inkscape:connector-curvature="0" /><path
     style="fill:url(#linearGradient12019)"
     d="m 181.23343,66.484855 c -2.8333,1.61294 -4.36996,4.581962 -7.33225,6.608792 3.75081,0.417256 6.99464,1.232699 10.34053,0.205263 1.6264,-0.498015 1.46488,-1.196806 0.78628,-2.39922 -0.47446,-0.845728 -1.30448,-0.916392 -1.96065,-1.072302 -1.90906,-0.454271 -2.29042,-1.542276 -1.74193,-3.229245 0.20751,-0.07403 0.41725,-0.149181 0.62588,-0.222088 -0.0684,-0.09085 -0.18731,-0.265832 -0.19517,-0.257981 -0.1817,0.107679 -0.34995,0.238913 -0.52269,0.366781 z"
     id="path5926"
     inkscape:connector-curvature="0" /><path
     style="fill:url(#linearGradient12019)"
     d="m 174.49341,9.6046038 c -0.50026,-0.606816 -1.0723,-0.639344 -1.92588,-0.116652 0.74702,0.0931 1.28878,0.16264 1.83166,0.228817 -0.0135,0.9466772 -0.56195,1.2304562 -1.42113,1.5198432 -2.12666,0.720102 -4.23537,0.511475 -6.38222,0.06618 2.20742,1.568074 2.75142,1.804744 4.56065,1.238308 1.63313,-0.510353 3.0352,-0.273684 4.47316,0.530543 0.70328,0.393701 1.3056,0.720102 2.34313,0.205262 6.21958,-3.091281 12.52888,-5.9369202 19.55381,-6.8320012 3.82147,-0.489041 6.97108,-2.796286 10.38315,-4.414834 -10.13639,1.129506 -20.32886,0.960137 -30.36094,2.763758 2.81872,-0.335375 5.51742,1.285417 8.3552,0.402674 0.71898,-0.224331 1.52657,-0.452027 1.75539,0.391458 0.24677,0.904054 -0.81768,0.967988 -1.37066,1.212509 -0.52493,0.232183 -1.18335,0.226574 -1.78231,0.210871 -2.06609,-0.05384 -4.13666,0.207506 -6.19041,-0.437445 -0.88835,-0.280414 -2.71889,0.206384 -2.22424,1.001638 1.72847,2.7772182 -0.43969,1.883258 -1.59836,2.029074 z"
     id="path5924"
     inkscape:connector-curvature="0" /><path
     style="fill:#cc5252"
     d="m 610.70818,211.61356 c 0.17162,0.12675 0.34099,0.2591 0.5227,0.37015 0.009,0.007 0.13011,-0.16825 0.19853,-0.25799 -0.20975,-0.0763 -0.41726,-0.15142 -0.62364,-0.22545 -0.45988,-1.70491 -2.20742,-2.03468 -3.2943,-3.06997 -1.68136,-1.60845 -3.78783,-3.63528 -3.54106,-5.62061 0.3163,-2.56186 -0.70665,-3.44573 -2.32856,-4.70759 -3.88429,-3.02174 -8.54476,-4.38679 -12.8306,-6.53364 -3.37058,-1.68697 -5.8528,-1.67687 -8.6188,0.57765 -0.46212,0.37688 -1.03753,0.58102 -1.29887,1.18896 -0.5025,1.15867 -1.07343,0.73805 -1.73071,0.0965 -0.64159,-0.63149 -1.07006,-1.37739 -1.32804,-2.20181 -1.30785,-4.2006 -2.23097,-4.57635 -6.12199,-2.30388 1.05435,0.55298 2.03804,1.08016 3.02846,1.58939 0.91079,0.46436 1.79689,0.67635 0.4195,1.89784 -1.09249,0.97023 -0.30621,2.38127 0.93995,2.37005 3.28196,-0.0236 5.6666,1.9887 8.36754,3.24047 3.53209,1.63649 3.97739,3.91906 1.48395,6.63571 0.30733,0.17049 0.65729,0.53727 0.90181,0.4767 2.05263,-0.50923 3.39076,0.37576 4.89939,1.74866 1.927,1.75203 4.35202,1.06557 5.67332,-1.21363 0.89733,-1.55013 1.96739,-2.29154 3.80466,-1.42338 1.37739,0.64832 2.73795,1.45254 3.37505,2.74133 1.69482,3.45133 4.82312,4.10301 8.10171,4.62458 z"
     id="path5922"
     inkscape:connector-curvature="0" /><path
     style="fill:#cc5252"
     d="m 385.31621,25.781113 c -1.23606,-0.633735 -2.44408,-1.57929 -3.95271,-0.430715 1.2428,1.14521 2.54616,0.888351 3.86074,0.548489 -0.14133,0.732441 1.10931,2.294906 -0.0897,2.072819 -3.29879,-0.614667 -6.51233,2.359962 -9.76625,0.04038 -0.38809,-0.278171 -1.19905,-0.100949 -1.77221,0.03926 -1.84625,0.449783 -3.57247,1.122776 -5.20224,2.20966 -1.43796,0.960137 -3.6207,2.237702 -4.65823,-0.03814 -0.8289,-1.817081 -1.70828,-1.054356 -2.67514,-1.136236 -0.53728,1.219239 2.03468,2.68412 -0.54401,3.491712 -1.76324,0.551854 -4.19723,0.02131 -4.63243,2.89387 -0.055,0.371268 -1.13848,0.838998 -2.07282,0.484555 -0.77057,-0.293874 -1.57929,-0.93546 -2.59999,-0.575409 0.55073,0.843485 1.73856,0.713373 1.99991,1.704916 -2.47213,1.531059 -5.52078,0.701034 -7.07764,-2.032439 -0.57877,-1.011733 -1.14745,-1.919152 -2.28705,-2.339773 -0.49017,-0.179465 -1.15194,-0.416134 -1.01847,-1.000516 0.1604,-0.689818 0.9063,-0.722346 1.5277,-0.674115 0.59896,0.04599 1.19007,0.195168 1.78791,0.235548 2.32183,0.157031 4.35202,1.684726 6.8006,1.348229 1.30897,-0.178343 2.94434,-0.323036 3.17091,-1.578169 0.23443,-1.28093 -1.45927,-1.405433 -2.48895,-1.759876 -1.63537,-0.563071 -3.24831,-1.214753 -4.91733,-1.642103 -1.39422,-0.355565 -2.81423,-1.201293 -4.27687,-0.629249 -1.06109,0.412769 -1.72847,0.139085 -2.59439,-0.443054 -4.96668,-3.332437 -10.50205,-3.058753 -16.0318,-2.20293 -1.57369,0.242277 -2.9937,1.625278 -4.55504,1.783431 -4.80181,0.483434 -7.25262,4.184895 -9.79878,7.313191 -2.51026,3.078944 -5.27962,5.313281 -8.98333,6.460734 -3.04977,0.943312 -4.04917,2.316218 -3.5848,5.216818 0.76384,4.768156 2.86695,5.8685 6.91163,3.373939 1.18671,-0.732441 1.85073,-0.695426 2.56298,0.309577 0.64383,0.90854 1.33141,1.824932 1.74642,2.838909 0.27817,0.679723 1.18671,1.643224 0.0606,2.287054 -1.15194,0.659534 -2.36894,1.883259 -3.70371,1.357203 -1.24391,-0.491285 0.32753,-1.628643 0.0426,-2.511386 -0.10207,-0.316306 -0.0707,-0.676358 -0.10432,-1.044261 -3.0823,1.480585 -3.64874,2.460912 -2.33079,5.406378 0.84124,1.881016 -0.16937,2.989211 -1.39198,2.93425 -2.88153,-0.130112 -4.54943,1.466003 -6.43829,3.149607 -1.62977,1.455909 -4.06152,2.197323 -5.29309,3.874197 -2.36669,3.216907 -6.22182,2.734595 -9.17289,4.383428 -0.59784,0.333132 -2.31173,-0.804227 -2.61458,0.482312 -0.30621,1.30785 1.41104,1.08464 2.23322,1.544519 0.30172,0.170491 0.63037,0.293873 0.93209,0.461 2.06945,1.15194 2.59327,3.528727 1.70716,7.426478 -0.51372,2.259014 -2.19171,2.331921 -4.02338,2.334165 -2.44072,0.0045 -4.77824,-0.579896 -7.15391,-0.99603 -1.74305,-0.30509 -3.92803,0.09534 -3.71828,2.096373 0.30957,2.972386 -0.80086,5.54995 -1.08576,8.311465 -0.15479,1.500774 -0.84461,4.129934 1.25849,4.483255 2.4138,0.406039 4.066,1.543398 5.79335,3.284205 0.70215,-1.968503 2.13899,-2.126657 3.80914,-2.093007 2.64598,0.0516 6.4439,-2.16143 6.57738,-4.23537 0.2748,-4.20172 3.5534,-5.620614 6.26332,-7.62389 0.43968,-0.32528 1.0308,-0.166004 0.97023,-1.145209 -0.12002,-1.95168 1.33028,-3.181014 3.24607,-2.487831 2.53493,0.916392 4.42156,-0.197412 6.26556,-1.407678 2.59102,-1.700429 3.39188,-1.663414 4.72216,1.193441 1.07343,2.305002 3.11259,4.369969 4.92967,4.996974 3.82709,1.320188 6.5987,2.746933 6.30258,7.489291 1.09586,-0.979205 2.3566,-1.516478 1.56471,-3.111471 -1.12502,-2.261257 0.30284,-2.086279 1.76885,-1.767729 0.46324,0.100949 0.89283,0.537273 1.32804,-0.01795 -0.11217,-0.530543 -0.53952,-0.671872 -0.94556,-0.814322 -4.47316,-1.582655 -7.52967,-5.046326 -10.78919,-8.210515 -0.74254,-0.724589 -1.58939,-1.844001 -0.33201,-2.92079 1.0981,-0.943312 1.62415,0.121139 2.52708,0.592234 2.63701,1.378514 4.57187,3.917941 7.39395,4.781616 3.02286,0.923122 4.33632,2.768244 4.60663,5.736144 0.21312,2.348746 1.61631,3.739598 3.88654,4.249951 0.72571,0.163762 1.90008,-0.205263 2.00215,0.740292 0.12563,1.191198 -1.4245,0.533908 -1.92924,1.1654 0.0684,0.877134 0.66289,1.424502 1.12277,2.048142 1.01958,1.379636 1.49517,1.471612 2.37567,-0.342105 0.92873,-1.914665 0.12001,-3.121566 -0.79414,-4.429416 -0.89956,-1.285416 -0.91078,-2.1962 0.71225,-2.743568 2.19845,-0.743657 4.28024,-1.709402 6.80284,-1.017341 1.09249,0.297239 2.6572,0.02243 3.86971,-1.099222 -2.23883,-0.97584 -2.11432,-2.503534 -1.4245,-4.341927 1.22148,-3.261773 2.41604,-6.51233 5.80568,-8.193691 1.32916,-0.658411 3.58368,0.97584 3.53545,2.475493 -0.0415,1.313458 1.47161,2.358841 2.82769,1.846245 0.93771,-0.3522 1.80138,-0.908541 2.96117,-1.508627 -1.33252,-0.265832 -2.70543,-0.325279 -2.73459,-1.55237 -0.0179,-0.828903 1.25064,-1.012855 2.06496,-1.28766 1.70268,-0.575409 3.19672,-1.702673 5.04969,-1.942707 0.0561,0.688696 -0.0202,1.246159 -0.26695,1.934855 -1.45479,4.020012 -1.38973,4.03908 2.48783,6.192658 1.0566,0.585504 2.13563,1.14521 3.13166,1.826055 1.08912,0.740292 2.37117,1.760998 2.09188,3.052023 -0.28714,1.316823 -1.2899,2.300515 -3.02959,2.726744 -2.56746,0.63037 -4.54382,-0.37239 -6.6772,-1.257376 -3.31786,-1.378514 -6.6402,-2.707675 -9.96254,0.01682 -0.25686,0.210871 -0.66963,0.475582 -0.92985,0.408282 -3.64874,-0.939946 -5.56341,3.501808 -9.08765,2.92079 -0.0213,-0.0045 -0.0909,0.291631 -0.17161,0.554098 1.27981,0.68421 1.79353,1.737444 2.03244,3.27299 0.51035,3.235975 3.71268,4.755814 6.77591,3.499563 0.67973,-0.280413 1.5535,-0.48119 2.01225,-0.109922 2.43287,1.974113 4.68403,1.345983 7.17074,0.04599 1.24167,-0.648316 3.00715,-0.13572 2.81647,1.564713 -0.36453,3.25953 -1.19456,6.47195 -1.92812,9.68324 -0.23891,1.0409 -0.61579,2.1547 -2.00103,2.29266 -3.32571,0.33201 -6.69516,-1.11156 -10.00628,0.22882 -0.17049,0.0695 -0.46549,-0.25013 -0.71225,-0.27032 -4.52251,-0.39706 -8.75788,-1.61742 -12.80257,-3.76539 -3.03407,-1.61182 -4.46082,-0.52157 -4.66159,2.88601 -0.083,1.41105 -1.58939,2.89163 -2.388,2.60112 -2.32968,-0.84236 -5.65987,-0.74365 -6.84434,-2.49792 -1.97972,-2.92752 -4.7446,-3.15073 -7.45339,-3.95383 -2.82209,-0.83788 -3.81924,-2.35548 -3.36272,-5.09905 0.23218,-1.40992 -0.0617,-3.028466 -0.87041,-4.078335 -1.0207,-1.325797 -2.53718,-0.394823 -3.77212,0.173856 -2.42053,1.116047 -5.05754,0.880499 -7.42984,0.465487 -3.98187,-0.701034 -7.45003,0.409404 -10.56935,2.353232 -3.21803,2.0044 -6.12648,2.4396 -9.33104,0.38809 -0.88947,-0.56868 -1.57032,-0.54288 -2.09189,0.52157 -0.98593,2.01562 -2.59999,3.40983 -4.5842,4.39913 -2.33641,1.16316 -3.4861,3.3773 -3.59154,5.65314 -0.13123,2.84003 -1.83951,4.38792 -3.77773,5.47256 -2.849,1.59275 -4.94986,3.79904 -6.51569,6.47531 -1.56919,2.68637 -3.00828,5.42545 -4.78946,7.99741 -0.93659,1.35383 -1.4503,3.01837 -0.58326,4.84442 1.36393,2.87369 1.86531,5.84944 0.45651,8.94072 -1.02519,2.24892 -3.17092,4.49896 -0.40828,7.02156 0.16937,0.15591 -0.84124,0.5283 -0.11329,0.96126 -2.04365,1.8855 0.47895,2.8591 1.13624,3.41319 2.41155,2.03581 4.22975,4.46083 5.4647,7.2515 0.52942,1.2013 1.02743,2.30164 1.8754,3.31337 1.51199,1.80699 3.35375,3.20681 5.19102,4.63132 2.14685,1.66117 4.48437,2.35772 7.17522,1.57144 1.96626,-0.57429 4.04693,-1.78231 5.95935,-1.21924 2.72562,0.80198 5.0138,0.21311 7.45788,-0.70665 2.31285,-0.86816 4.67954,-1.60284 7.05521,-2.27808 2.1031,-0.60008 5.35814,0.92873 5.86064,2.95444 0.42287,1.69931 0.93883,1.96178 2.63701,1.50975 3.45806,-0.92761 6.37661,1.53555 6.46971,5.0968 0.0449,1.75203 -0.16377,3.42666 -0.74142,5.09904 -0.64158,1.85747 -1.51199,3.93253 0.17947,5.61052 3.44572,3.41096 5.43329,7.51061 7.27953,11.96021 0.89621,2.15919 -0.15591,4.11872 0.83227,5.86401 1.91242,3.3874 0.45091,6.10966 -1.11604,9.12691 -2.43736,4.69189 -3.18999,9.57894 0.055,14.38299 2.87592,4.26228 4.06599,9.06746 4.50456,14.14182 0.15255,1.77334 -0.0146,3.83045 1.08801,5.24486 2.08179,2.67739 3.53994,5.68231 5.26392,8.5515 0.56419,0.93658 0.85358,1.61631 0.54961,2.81872 -0.7459,2.92976 1.54452,4.99922 4.47877,4.34978 2.74468,-0.60457 5.48825,-1.69594 8.3137,-0.37239 0.56307,0.26247 0.97472,0.0707 1.46151,-0.14694 3.59827,-1.62303 6.62225,-3.88653 9.20206,-6.96548 1.93485,-2.31173 3.52984,-4.93416 5.78325,-6.93519 0.90181,-0.80198 1.24503,-1.21924 0.96911,-2.48671 -0.53952,-2.47661 0.0774,-4.41708 2.81311,-5.60379 4.12432,-1.79016 4.63804,-3.68463 2.55625,-7.78989 -0.64271,-1.26411 -1.12951,-2.54728 -0.003,-3.5635 2.82433,-2.54728 4.42605,-6.27342 8.45391,-7.7282 3.47377,-1.25401 4.78274,-4.75134 4.3767,-8.37652 -0.43857,-3.87981 -0.82666,-7.65979 -2.61009,-11.29395 -0.96126,-1.95841 -1.3931,-4.33856 -0.80872,-6.78713 1.68473,-7.02493 7.57005,-10.89576 11.76279,-16.02285 1.9528,-2.39137 5.30879,-3.36721 6.88135,-6.14218 2.30388,-4.066 4.28585,-8.31483 6.57402,-12.39093 1.19344,-2.12329 1.39085,-4.08394 0.16152,-6.34295 -3.51527,2.27471 -7.65641,2.10759 -11.42517,3.31897 -1.82157,0.58438 -4.30043,-1.10707 -4.76255,-3.07782 -0.64944,-2.76937 -2.46539,-4.55616 -4.48886,-6.3968 -1.66341,-1.50862 -4.20732,-2.32631 -4.67505,-4.95211 -0.25125,-1.41104 -0.89957,-2.55849 -1.82157,-3.61845 -1.90008,-2.17714 -3.65547,-4.40699 -3.24943,-7.61043 0.0583,-0.47671 -0.4969,-1.05885 -0.82666,-1.55013 -3.61846,-5.3761 -5.78886,-11.57661 -9.61482,-16.82932 -0.36679,-0.50138 -0.4969,-0.96911 0.0336,-1.33365 0.60906,-0.42174 0.88836,0.24452 1.25289,0.54064 1.03192,0.839 1.23046,2.50914 2.77946,2.86022 0.47671,-0.81432 -0.29499,-2.34089 1.00276,-2.41492 0.96687,-0.0538 0.96687,1.383 1.11493,2.12329 0.39594,1.94719 1.25288,3.52873 2.60672,4.96781 2.06833,2.19957 4.32286,4.65038 5.32786,7.2201 1.62416,4.13778 3.54443,7.89869 6.45512,11.17393 2.38127,2.67851 3.17204,5.82475 3.74408,9.29067 0.6371,3.86746 2.83891,4.6358 6.55047,2.95892 2.36669,-1.06669 4.6829,-2.25116 7.08436,-3.22812 2.34875,-0.95789 4.55168,-1.95505 5.98291,-4.26117 0.68645,-1.10483 2.08291,-1.69258 3.34814,-1.81596 2.51475,-0.25013 3.97851,-1.86755 5.44339,-3.58817 1.89896,-2.2321 2.74132,-5.21233 5.14615,-7.10681 1.14521,-0.90405 0.66289,-1.92139 -0.33313,-2.56522 -1.66454,-1.07792 -2.97463,-2.64599 -4.89827,-3.36722 -1.36057,-0.51035 -2.04141,-1.59387 -1.78119,-3.06212 0.11778,-0.67523 0.0191,-1.12838 -0.6685,-1.58377 -0.65841,1.38076 -1.77558,2.34314 -2.81536,3.37057 -2.05374,2.03244 -4.58195,2.46091 -6.31715,-1.4088 -0.32865,-0.74029 -0.6371,-1.53666 -1.52994,-0.27705 -0.84348,1.1912 -2.02907,0.90518 -2.34874,-0.36678 -0.71674,-2.8591 -2.3723,-5.11699 -3.98412,-7.4691 -0.77282,-1.12726 0.028,-2.3981 0.7459,-3.32122 0.7302,-0.93882 1.67351,-0.28378 2.58093,0.055 1.61406,0.60233 1.9786,2.09862 2.64261,3.3717 1.61519,3.09801 6.59758,5.36263 9.83467,4.19835 1.38973,-0.50026 2.35884,-0.38585 3.15858,0.77058 2.42389,3.50293 5.87971,3.57359 9.59575,3.04641 1.35608,-0.1918 2.766,-0.2849 4.12881,0.18732 1.19456,0.41726 2.37567,0.38697 3.51863,-0.23555 2.05375,-1.12502 3.76428,-0.037 4.63468,1.48283 1.0824,1.88887 3.2012,2.31734 4.36996,3.93252 0.58775,0.81209 1.85859,-0.59896 2.29603,0.46885 0.53054,1.29328 -0.8962,1.1441 -1.46937,1.63538 -0.0662,0.0572 0,0.31407 0.055,0.46212 0.53278,1.46601 1.68921,2.20406 3.13838,2.37455 1.27981,0.14918 2.49905,-0.0393 2.31734,-1.85746 -0.0594,-0.61579 0.3107,-1.00388 0.87714,-1.07791 0.48119,-0.0651 0.82329,0.30509 0.95228,0.73244 0.25013,0.81881 0.756,1.74866 0.56644,2.48222 -0.90742,3.55901 0.57765,6.57739 1.9012,9.64848 2.55737,5.93692 5.73614,11.60801 7.60257,17.84441 0.51484,1.71613 2.71553,2.26799 3.78334,1.04089 3.46816,-3.99421 3.90224,-8.80274 3.31898,-13.71672 -0.15367,-1.31345 -0.21872,-2.34089 0.8547,-2.88265 3.00379,-1.51648 4.53261,-4.56289 7.06867,-6.59982 1.60396,-1.28654 2.68187,-3.27635 4.79619,-4.08058 0.22321,-0.083 0.48007,-0.58775 0.42286,-0.83115 -0.63373,-2.81311 1.56808,-2.78955 3.23598,-3.24719 1.16091,-0.31743 2.47437,-0.27929 3.50517,-0.80983 1.96289,-1.00949 2.94883,-0.15255 3.61173,1.51199 0.73917,1.84849 2.06945,2.92864 3.70931,4.066 2.21414,1.5333 3.29542,4.21854 3.53994,6.87462 0.10431,1.12166 0.0505,1.92701 1.04538,2.55289 1.24728,0.78628 1.69482,-0.38248 2.33641,-0.95677 1.80586,-1.61967 2.64486,-1.42114 3.39076,0.88386 0.63822,1.96739 0.93546,4.13779 1.97747,5.85728 1.38749,2.2893 1.25401,4.34642 0.91415,6.86566 -0.25573,1.88998 -1.8597,4.55616 0.90742,6.12648 2.28145,1.29887 3.40086,3.16531 3.89326,5.75409 0.7459,3.92915 2.60336,7.2672 6.33847,9.2458 0.71225,0.37688 1.94383,0.87153 1.678,-0.20526 -0.82778,-3.35824 -1.01061,-7.0698 -3.86186,-9.63839 -2.0616,-1.85633 -4.10862,-3.48161 -5.60715,-6.12648 -1.62191,-2.86134 -1.64547,-5.16634 -0.83788,-7.95477 0.15031,-0.51709 -0.1245,-1.18223 -0.27929,-1.75764 -0.21199,-0.78852 -0.39033,-1.59275 0.37127,-2.13675 0.8289,-0.59448 1.55461,0.083 2.07057,0.54512 2.15919,1.94159 4.97791,3.16195 6.45849,5.86177 0.25349,0.461 0.4195,1.2327 1.31682,0.82218 2.60785,-1.19008 2.1704,0.44417 1.77222,1.96289 -0.13909,0.53728 -0.24452,1.04426 0.20638,1.43909 0.72123,0.63598 1.21363,-0.15928 1.49517,-0.49241 1.61518,-1.90681 3.53882,-3.34141 5.70697,-4.58869 0.82554,-0.47558 1.44357,-1.82942 1.25514,-3.00828 -0.69767,-4.33632 -1.99094,-8.42475 -5.71035,-11.21543 -1.20241,-0.90405 -2.16928,-1.94158 -2.9735,-3.20457 -1.61519,-2.53045 -0.98257,-5.00482 1.78791,-6.66487 2.93425,-1.75539 4.30828,-1.37403 6.04909,1.83727 1.80474,-2.50241 4.03907,-3.70931 7.24364,-3.98636 2.49456,-0.21536 5.29197,-1.09586 7.28963,-3.02623 3.84952,-3.71829 4.14788,-8.94857 5.54658,-13.68644 0.65842,-2.23097 -3.45581,-1.34711 -2.50016,-2.47886 1.92363,-2.27023 -0.0471,-2.67627 -1.07455,-3.41992 -1.01285,-0.73357 -1.89784,-1.4503 -2.42165,-2.6056 -0.67411,-1.48395 -1.24055,-3.02399 -3.02959,-3.67118 -0.86928,-0.31407 -0.67075,-1.13512 -0.52493,-1.99767 0.40828,-2.441842 2.92415,-2.739081 4.26004,-4.357629 -1.38749,-0.785159 -2.82433,-1.388609 -4.21518,-1.079032 -2.20853,0.493528 -5.14503,-0.245643 -6.48989,-1.947193 -0.53839,-0.680845 -0.72347,-1.372906 0.11665,-1.685848 1.57368,-0.585504 2.37567,-1.912422 3.42329,-3.03632 1.53218,-1.644347 2.60897,-1.395339 3.15297,0.800861 0.51596,2.091887 1.16316,2.884897 3.24607,1.264106 1.83391,-1.428989 4.82311,0.08412 4.78834,2.346502 -0.0191,1.103709 0.39931,1.413286 1.25738,1.507505 1.19007,0.12899 2.04253,0.788523 2.94434,1.500774 1.63425,1.284295 1.94046,3.255044 2.70094,4.958834 0.71674,1.59836 1.50302,1.77895 2.84003,0.8648 1.20466,-0.82105 3.35039,-0.79525 2.02908,-3.41208 -1.53218,-3.031829 -4.41147,-4.249947 -6.89257,-6.040108 -1.26074,-0.909662 -2.09749,-1.744174 -0.0236,-2.734595 1.25064,-0.595599 2.0358,-1.261862 1.08576,-3.009401 -0.83564,-1.531059 1.09249,-2.681877 1.60845,-4.083946 0.40267,-1.096979 1.62415,-0.151424 2.28257,0.116652 1.11829,0.450905 2.06608,0.127869 2.56971,-0.583261 1.70379,-2.40595 2.76151,-5.111382 2.95668,-8.100593 0.27705,-4.202841 -0.27256,-8.111809 -3.89102,-10.930529 -0.0617,-0.04823 -0.0931,-0.146937 -0.12338,-0.226574 -0.93434,-2.668418 -3.44797,-3.762031 -5.41647,-5.389553 -0.54737,-0.453149 -1.25065,-0.674115 -1.9371,-0.211993 -1.8855,1.274201 -3.63304,0.329767 -5.37273,-0.349956 -1.82717,-0.712251 -3.54891,-1.452543 -1.6062,-3.870832 0.54063,-0.672993 0.52269,-1.798013 0.75823,-2.715527 0.95902,-3.755301 3.8327,-5.517421 7.6609,-4.575231 0.95902,0.236669 1.94271,0.491285 2.80863,0.154788 2.57307,-1.005003 4.93415,-0.826659 7.43432,0.401553 1.72959,0.85358 3.04417,-0.328645 2.93986,-2.281446 -0.16376,-3.044172 1.04875,-3.991971 4.02898,-3.335803 1.11941,0.245643 2.12778,0.570923 3.10138,1.206901 1.2383,0.809835 2.17376,0.680845 1.95392,-1.14521 -0.18171,-1.523208 1.01397,-1.99206 1.8597,-1.568074 1.39197,0.699913 2.76824,2.372301 2.13227,3.742964 -0.96351,2.081791 -0.70328,4.4597 -1.96626,6.379974 -0.53167,0.810956 -0.38698,1.55237 0.0651,2.403707 2.63252,4.968932 7.95702,7.335624 11.22888,11.686524 0.49578,0.659533 1.23495,0.257981 1.89672,-0.06169 1.06557,-0.513718 0.42287,-1.14521 0.17274,-1.709402 -0.28827,-0.644952 -0.17386,-1.428989 -0.37351,-1.937099 -0.62028,-1.57929 0.70439,-3.090159 0.2748,-4.248829 -1.01285,-2.733474 -2.11432,-5.560045 -5.61276,-6.420354 -1.76885,-0.435202 -2.81535,-3.689124 -1.7352,-3.967294 2.7346,-0.707764 5.11138,-3.477131 8.34175,-1.703794 1.34486,0.738049 2.24218,-0.178343 2.7559,-1.066694 1.32916,-2.305002 3.10811,-3.375061 5.76755,-2.827693 0.5597,0.116652 1.15306,-0.09871 1.32019,-0.573166 0.24227,-0.678601 -0.52606,-0.821051 -0.93659,-0.987056 -2.15918,-0.874891 -4.37108,-1.618549 -6.50559,-2.547279 -0.65393,-0.284901 -2.14348,-0.03926 -1.75876,-1.269714 0.30173,-0.957893 1.43684,-0.606815 2.27808,-0.25125 0.29724,0.126747 0.64832,0.118895 0.94444,0.168248 0.50138,-0.998273 -1.46376,-1.269714 -0.52269,-2.234337 0.72234,-0.740292 1.46263,-0.05384 2.17152,0.140207 2.66393,0.735806 5.34356,1.43011 7.96599,2.285933 1.30673,0.425107 2.44296,0.584382 3.58705,-0.420621 -0.31743,-0.256859 -0.60121,-0.44754 -0.84012,-0.687574 -2.05375,-2.062724 -4.07048,-4.140029 -7.39282,-2.379031 -0.66066,0.349957 -1.3415,-0.27144 -1.89336,-0.63037 -2.16591,-1.404312 -4.61448,-2.006641 -7.09222,-2.218634 -1.94158,-0.166005 -3.66444,-0.801983 -5.48152,-1.367297 -5.92907,-1.84288 -12.08919,-2.339773 -18.24708,-2.964535 -0.27256,1.084641 1.32243,1.398704 0.67636,2.189471 -0.79974,0.976962 -1.5333,-0.136842 -2.28817,-0.351078 -2.8333,-0.809835 -5.75297,-1.729592 -8.6502,-1.108195 -3.60612,0.771698 -6.83873,0.260224 -10.0074,-1.425624 -0.83227,-0.443054 -1.66005,-1.006125 -2.69085,-0.712251 -4.31052,1.231577 -8.58739,-0.67748 -12.89678,-0.163762 -0.37352,0.04599 -0.83003,-0.25125 -1.19008,-0.477825 -3.13615,-1.976356 -6.80956,-1.800256 -10.24744,-2.538305 -1.66565,-0.358929 -3.38851,-0.90854 -5.12147,-0.496893 -0.67748,0.159275 -1.65444,0.09534 -1.94046,0.918636 -0.7717,2.217511 -1.52882,2.621307 -3.6981,2.367813 -1.60508,-0.18956 -3.44908,-1.335891 -4.76703,-0.478947 -3.56237,2.311732 -6.02552,0.124504 -8.61879,-1.619669 -2.06609,-1.389731 -4.18938,-2.338651 -6.73666,-2.312853 -4.38791,0.04262 -8.84088,1.81596 -13.16485,-0.417256 -0.18844,-0.09758 -0.52606,-0.009 -0.75263,0.09085 -2.09638,0.937704 -4.14227,0.740293 -6.21397,-0.140207 -1.39309,-0.591112 -2.81647,-0.349956 -4.27463,-0.03253 -1.47946,0.321916 -3.35486,1.911301 -4.33968,0.273684 -0.42062,-0.699912 2.09638,-1.811473 3.439,-2.493439 1.33028,-0.672993 1.54227,-1.210266 0.074,-2.05375 -2.77273,-1.593872 -5.70923,-1.796892 -8.72984,-1.179982 -1.4346,0.291631 -2.56074,0.07852 -3.91794,-0.591112 -2.42053,-1.193441 -5.01267,-2.208539 -7.64295,-2.7615154 -4.4855,-0.94219 -9.08092,-1.284295 -13.39368,-3.067726 -1.33813,-0.550733 -3.01725,-0.990422 -4.27238,0.46773 -0.23667,0.277049 -0.88386,0.446419 -0.56868,0.978083 0.14582,0.245642 0.57653,0.489042 0.85358,0.462122 3.9314,-0.360051 7.64183,1.7127674 11.57547,1.063329 1.70604,-0.280414 2.22761,0.5114754 2.01001,2.4104374 1.65444,-1.707159 3.34814,-1.340378 4.96444,-1.313458 0.86143,0.01346 1.21027,0.632613 0.52045,1.126141 -1.5849,1.13175 -2.71777,3.047537 -5.35927,2.266865 -3.53769,-1.045382 -6.93182,0.759361 -10.39885,1.243916 -0.5698,0.07739 -1.03529,0.273684 -0.69992,1.005003 1.03529,2.25004 -1.14521,2.173767 -1.89784,1.971869 -2.6628,-0.711129 -4.42044,0.552976 -6.30257,2.044778 -1.4503,1.149696 -3.01613,2.36557 -5.07325,2.041412 -0.68981,-0.108801 -1.47161,-0.520448 -1.9169,0.123382 -0.5283,0.758238 0.19741,1.480584 0.55746,2.134509 0.43632,0.795254 1.2742,1.157548 2.05824,1.528816 1.46151,0.693183 2.40034,1.808108 2.25003,3.441238 -0.15927,1.731836 -1.40431,2.647106 -2.97014,3.214664 -0.62027,0.226574 -1.1968,0.394822 -1.6578,-0.163762 -0.48007,-0.582139 0.12114,-0.970232 0.42623,-1.299998 1.53218,-1.661172 0.95565,-2.994819 -0.42848,-4.420443 -0.88835,-0.916392 -1.39309,-2.204052 -2.28593,-3.118201 -1.0207,-1.048748 -1.46151,-2.573077 -2.8905,-3.279719 -1.6522,-0.816565 -4.56401,-0.208628 -5.22467,1.473854 -0.72459,1.848488 0.4969,3.008279 2.11208,3.767639 0.62812,0.296117 1.2327,0.633736 1.85185,0.947799 0.61242,0.309577 1.48956,0.594477 1.01958,1.455908 -0.39818,0.736928 -1.07678,1.211388 -2.14123,0.705521 -3.8585,-1.826054 -8.07255,-2.303879 -12.19127,-3.133904 z"
     id="path5920"
     inkscape:connector-curvature="0" /><path
     style="fill:url(#linearGradient12025);fill-opacity:1"
     d="m 115.61777,166.17419 c -0.41501,1.4245 0.2434,2.41829 0.60009,3.56462 1.13735,3.6465 0.97696,7.03166 -1.52433,10.18351 -2.0302,2.56073 -4.19723,5.04632 -5.46807,8.14882 -0.39482,0.96575 -0.78852,2.17825 0.0909,2.58766 3.02734,1.41104 0.87264,2.67178 0.0527,3.96168 -1.36841,2.15358 -1.0465,4.54159 1.00052,6.01544 1.17549,0.84797 1.85858,1.9786 2.58766,3.17877 1.58041,2.60224 1.82605,5.79223 3.76876,8.22173 1.60621,2.01225 3.28196,3.94262 4.12544,6.50448 0.72347,2.19732 2.4239,3.56686 4.60103,4.60327 5.65874,2.69422 10.34389,6.26893 10.63777,13.36004 0.14918,3.60163 -0.2434,7.18083 -0.0336,10.81948 0.19853,3.4648 0.22769,6.98791 0.71674,10.46168 0.62476,4.444 2.03916,8.94408 0.95789,13.35667 -0.95004,3.89775 1.10371,7.08437 1.62528,10.57496 0.3522,2.35997 3.35599,3.7497 4.09179,6.8264 0.8648,3.61509 1.58266,4.12993 -1.22148,6.74002 1.31458,0.82554 2.83891,1.40768 3.36496,3.06548 1.23831,3.90224 3.23261,7.28179 6.36203,10.03545 1.42113,1.25065 5.00931,1.73408 6.4282,0.40492 0.42735,-0.40155 0.93209,-0.71001 0.42286,-1.49404 -1.37627,-2.12778 -0.53391,-4.13891 0.58438,-6.04012 1.2069,-2.05263 1.06782,-3.65211 -1.11492,-4.98239 -1.02519,-0.62476 -2.41941,-2.09637 -1.82269,-2.84227 1.67912,-2.09862 1.87429,-4.72217 3.08455,-7.05746 -1.28542,-0.55746 -2.43062,-1.40655 -2.88826,-2.94322 -0.14469,-0.48904 -0.52718,-0.90293 -0.074,-1.42338 0.55522,-0.63822 1.05211,-0.16825 1.62864,-0.0314 0.88611,0.21087 1.6679,1.71053 2.66618,0.49129 0.74702,-0.91191 1.32467,-1.99206 0.48119,-3.30552 -0.81657,-1.27308 0.0538,-1.71052 1.18446,-1.79913 0.77731,-0.0606 1.58939,0.10768 2.34202,-0.0482 2.2534,-0.46101 4.62906,-1.17326 5.09455,-3.71829 0.38809,-2.12666 -1.12053,-3.81587 -2.62355,-5.26505 -0.51596,-0.49689 -1.85858,-0.54625 -1.45815,-1.48059 0.38473,-0.90517 1.49292,-0.4767 2.30164,-0.2075 0.7358,0.24676 1.51311,0.44417 2.17264,0.83339 2.0302,1.1912 3.82933,0.24564 4.80853,-1.20242 3.15634,-4.66608 5.82924,-9.62716 7.66427,-14.99765 0.43744,-1.28541 0.53951,-2.53942 -0.0953,-3.73623 -0.59224,-1.11044 -0.34435,-1.88887 0.51708,-2.75142 2.24443,-2.24892 5.44115,-2.93649 7.84934,-4.90275 0.21311,-0.17386 0.72346,-0.16489 1.00836,-0.0415 2.86583,1.23158 4.39353,-0.71 5.24935,-2.72001 2.40258,-5.63407 4.38342,-11.42293 3.23373,-17.75243 -0.20078,-1.11381 -0.25798,-2.46204 0.61466,-3.2214 2.54392,-2.21751 3.31225,-5.68006 5.68567,-7.91776 1.6163,-1.52321 1.93822,-3.4547 2.37006,-5.33011 0.54961,-2.39585 -0.89621,-4.24995 -3.29991,-4.92406 -2.62355,-0.73581 -5.02613,-1.85185 -6.54485,-4.30379 -0.17386,-0.28154 -0.46998,-0.673 -0.72684,-0.6887 -3.42329,-0.2019 -6.8219,-2.28145 -10.26986,-0.25574 -0.96351,0.56868 -1.5277,0.083 -1.32917,-0.65056 0.87041,-3.20344 -1.97635,-3.0823 -3.51302,-4.05254 -1.67463,-1.05996 -2.74356,0.29388 -3.77885,1.29776 -1.1811,1.1497 -2.3981,1.62752 -3.94374,0.61803 0.77282,-0.36342 1.55237,-0.68645 2.08628,-1.38636 0.44193,-0.57878 1.383,-0.97697 0.69879,-1.92813 -0.60008,-0.82778 -1.40768,-1.36393 -2.43287,-0.91303 -0.69879,0.30397 -1.3314,0.79862 -1.91803,1.29551 -0.6629,0.55859 -1.22933,1.22822 -1.86419,1.82494 -0.41837,0.39706 -0.8446,1.08352 -1.51423,0.55185 -0.7975,-0.62813 -0.14918,-1.3157 0.23667,-1.78343 0.71113,-0.86031 1.55798,-1.58602 2.4811,-2.26574 1.00949,-0.74478 2.16591,-2.14685 1.47161,-3.2214 -0.89396,-1.38748 -1.01734,-2.89611 -1.56022,-4.31388 -1.17437,-3.07109 -5.61276,-6.32502 -8.44382,-5.7698 -3.6364,0.71226 -6.4024,-0.7616 -8.17349,-3.5949 -1.27645,-2.04029 -2.9679,-3.47264 -4.89602,-4.40474 -2.03244,-0.98145 -3.93813,-2.6 -6.43381,-2.43511 -3.2943,0.21872 -6.35978,-0.17722 -9.02371,-2.46989 -0.86256,-0.74029 -2.19172,-2.05263 -3.40423,-0.79301 -0.89171,0.92312 -3.70258,1.0824 -1.92924,3.59715 0.53279,0.756 -0.22882,1.43123 -0.72683,2.0044 -0.28266,0.32752 -0.67187,0.67075 -1.06894,0.18731 -0.43296,-0.53278 -0.91303,-1.15194 -0.71786,-1.86531 0.48007,-1.76548 0.27929,-3.72165 1.71052,-5.28187 -2.36893,-0.58326 -2.8232,2.0515 -4.29032,2.20405 -3.05203,0.31631 -4.3251,2.2478 -5.6408,4.62683 -0.80535,1.45591 -2.19172,3.00491 -4.22303,0.97584"
     id="path5918"
     inkscape:connector-curvature="0" /><path
     style="fill:url(#linearGradient12019);fill-opacity:1"
     d="m 115.95202,165.47876 c -1.37963,-2.40707 -3.41543,-2.03131 -5.45797,-1.21699 -3.34365,1.32916 -7.49153,-2.09638 -6.93631,-5.73278 0.38922,-2.54616 0.87041,-5.07773 1.32243,-7.61267 0.25798,-1.43909 -0.30284,-2.02571 -1.72398,-2.59103 -2.41828,-0.95901 -4.62457,0.17386 -6.91612,0.21648 -2.36445,0.0437 -2.25789,-0.79862 -1.52657,-2.41044 1.35271,-2.97687 2.60561,-6.00309 4.04021,-8.94183 0.87489,-1.79353 -0.18507,-2.36557 -1.48171,-2.23434 -2.22088,0.2277 -4.53037,0.18732 -5.46807,3.25056 -1.11717,3.6566 -4.7861,4.00879 -7.88075,4.36997 -2.42614,0.2849 -4.37557,-1.48059 -5.16409,-3.66108 -1.14297,-3.16419 -2.64374,-6.40466 -0.88723,-9.94347 0.75824,-1.52546 1.31794,-3.21355 1.62079,-4.89042 0.57204,-3.14736 1.97972,-5.45461 5.18316,-6.42596 0.5698,-0.17049 1.14409,-0.46661 1.60397,-0.84237 2.62803,-2.15357 5.25831,-3.02846 8.52906,-1.05211 0.78179,0.47446 2.51588,1.88887 3.78111,-0.1918 1.46936,-2.41492 3.32793,-2.71889 6.12871,-1.80811 1.46151,0.47446 2.73908,1.69146 4.65374,0.91639 1.20017,-0.48792 3.39076,2.20406 2.86246,3.53995 -0.96911,2.45642 0.31743,4.40698 1.12502,6.42596 0.51148,1.2742 1.34374,1.64098 2.31846,0.0168 1.54452,-2.56635 0.24676,-5.04745 0.018,-7.5207 -0.19517,-2.14236 -0.36454,-4.06936 1.13175,-5.87186 2.25004,-2.71777 5.12035,-4.60215 8.22285,-6.06703 3.7194,-1.75876 5.16409,-3.71492 5.0867,-7.786532 -0.0247,-1.326918 0.38697,-1.667901 2.14348,-1.61294 0.39931,0.01346 0.31967,-0.205263 0.44305,-0.383606 2.50802,-3.644257 5.87859,-6.107412 10.06909,-7.546495 1.55574,-0.533908 3.52536,-0.71113 4.0761,-2.709919 0.41277,-1.498531 1.39085,-2.266865 2.72001,-2.832179 1.90793,-0.814322 3.75754,-1.772215 5.68791,-2.528211 1.75763,-0.688696 3.58032,-1.225969 5.39628,-1.754268 0.6012,-0.173857 1.3729,-0.01907 1.4817,0.685331 0.0886,0.564192 -0.59559,0.689818 -1.10034,0.874891 -0.88835,0.326401 -1.761,0.730197 -2.58317,1.201292 -0.40267,0.231061 -1.07791,0.600086 -0.81993,1.122777 0.27705,0.557463 0.94668,0.65729 1.57593,0.284901 2.39136,-1.426746 5.08445,-2.11432 7.66426,-3.0767 0.78964,-0.294996 1.45254,-0.782916 1.93373,-1.508626 -0.88162,-0.403796 -1.55237,0.234425 -2.30163,0.302846 -1.86531,0.171614 -3.31,-0.500258 -4.39913,-2.119928 -1.15979,-1.725105 -0.0191,-2.384638 1.11717,-3.312247 0.56531,-0.462122 1.14408,-1.270835 0.81207,-2.239945 -2.28593,-0.348835 -4.3408,0.164883 -6.30145,1.218117 -0.91527,0.491285 -1.87092,0.908541 -2.79516,1.384122 -0.45427,0.234426 -0.83788,0.211993 -1.11044,-0.224331 -0.28714,-0.457635 -0.0819,-0.914149 0.31518,-1.110438 4.30491,-2.133388 8.46513,-5.182047 13.54959,-4.390158 5.53985,0.861431 10.09489,-1.366176 14.69928,-3.681272 1.25065,-0.63037 2.75142,-1.738566 1.91466,-3.38852 -0.87713,-1.730714 -2.62242,-1.744174 -4.31836,-0.981449 -0.2378,0.106558 -0.49241,0.181709 -0.71562,0.314064 -0.52045,0.312942 -1.01285,0.337618 -1.32804,-0.234426 -0.28266,-0.512596 0.19068,-0.864796 0.5126,-1.031923 1.24616,-0.652803 0.66626,-1.384122 0.34659,-2.311731 -0.39482,-1.14521 -1.73071,-1.867556 -1.24392,-3.454698 0.5642,-1.840636 -0.27592,-3.704826 -0.43856,-5.560044 -0.13572,-1.537789 -1.12166,-0.717859 -1.58827,-0.319672 -1.39982,1.187833 -2.9062,2.164795 -4.54157,2.979116 -0.8749,0.435202 -1.62977,0.959015 -2.48671,-0.09085 -0.70777,-0.863674 -1.76324,-1.487314 -0.79413,-2.842274 0.90854,-1.26747 0.34771,-2.305001 -0.7975,-3.062118 -1.00725,-0.667385 -2.01337,-1.425624 -3.13502,-1.806987 -4.79844,-1.630886 -6.51569,-0.920879 -8.94744,3.594905 -0.51933,0.963502 -1.19681,1.640981 -2.13563,2.176011 -0.88387,0.503623 -1.48844,1.341499 -1.1082,2.401463 1.0925,3.043051 -1.005,4.717682 -3.0251,5.738388 -3.30664,1.671266 -6.22294,3.372817 -6.81068,7.409654 -0.0348,0.24452 -0.16377,0.529421 -0.34323,0.690939 -1.03753,0.926487 -2.20517,1.939342 -3.61958,1.610697 -1.16203,-0.268076 -1.55686,-1.721741 -1.70604,-2.734595 -0.13796,-0.909663 0.41277,-1.996546 0.86256,-2.903965 0.87601,-1.758756 1.15194,-3.003793 -1.46152,-3.278598 -1.51984,-0.161519 -2.91406,-0.856945 -4.2578,-1.745296 -1.25625,-0.828903 -2.61009,-1.699307 -4.28808,-1.703794 -2.77946,-0.0067 -3.25729,-2.71777 -4.16359,-4.3509 -0.68308,-1.23382 0.99379,-2.983602 2.4396,-3.854007 2.87929,-1.736322 5.67221,-3.652109 8.90594,-4.724411 0.61242,-0.201898 1.52321,-0.06954 1.40543,-1.121655 -0.16264,-1.476098 0.45652,-1.395339 1.6937,-1.239429 2.55849,0.323036 4.8949,-0.688696 7.42423,-1.59948 -0.49016,-0.546246 -0.75375,-0.779551 -0.93882,-1.064451 -0.28827,-0.443054 -1.20803,-0.68421 -0.60121,-1.442449 0.54625,-0.680844 1.15418,-0.158153 1.61518,0.143572 1.04538,0.687575 1.99318,0.420621 2.90397,-0.171613 1.22709,-0.796375 2.55849,-1.019584 3.97963,-0.899567 3.21466,0.272562 5.98626,-0.349957 7.86055,-3.367209 0.42398,-0.683088 1.55125,-1.184468 1.1497,-2.047021 -0.3466,-0.742535 -1.40768,-0.831146 -2.31959,-0.868161 -1.20577,-0.05047 -2.21414,0.179465 -3.00042,1.171008 -1.04875,1.322432 -2.42278,2.230972 -3.97402,2.850126 -0.65393,0.261346 -1.32468,1.075667 -2.07843,0.181708 -0.62252,-0.735806 -0.0101,-1.415529 0.3623,-1.858582 0.94779,-1.127264 0.21984,-1.740809 -0.66627,-1.634252 -2.9836,0.356686 -2.75478,-1.15867 -1.99093,-3.074457 0.2075,-0.518204 0.40716,-0.954528 -0.0897,-1.398703 -0.54063,-0.484555 -1.09361,-0.395945 -1.68248,-0.0931 -1.45478,0.744779 -2.91293,1.474976 -4.41707,2.237702 2.14909,2.162551 1.7924,3.515267 -1.04987,4.19499 -0.86368,0.207506 -1.70716,0.403795 -2.36781,0.957893 -1.44806,1.216996 -2.84452,1.814838 -4.37221,0.150302 -0.60457,-0.660655 -1.49741,-0.747022 -2.1805,-0.455392 -2.12666,0.910784 -4.05702,0.09983 -6.05581,-0.407161 -3.12605,-0.795253 -5.89654,-0.306212 -7.98506,2.407072 -0.65841,0.859188 -1.33925,1.229334 -1.82269,-0.126747 -0.66626,-1.866434 -1.77109,-2.265743 -3.64874,-1.556857 -0.99491,0.375754 -2.23434,0.11553 -3.36496,0.118895 -1.94047,0.0045 -1.64771,-0.852458 -0.64383,-1.994303 -0.84124,-0.0673 -1.67912,0.05833 -2.3465,-0.222087 -3.30214,-1.386366 -6.58635,-2.67627 -10.25866,-1.47722 -0.28602,0.0931 -0.72571,-0.02131 -0.99378,-0.192925 -2.77722,-1.772215 -5.72829,-0.726832 -8.49093,-0.257981 -4.57859,0.779551 -8.97435,2.177133 -13.78064,1.054356 -9.175133,-2.142361 -18.322225,-4.244343 -27.975183,-2.777218 -5.576866,0.847971 -10.627676,3.482739 -16.25726,3.935888 -1.311214,0.106557 -1.785673,1.056599 -0.494649,2.079549 1.488435,1.177737 0.690939,1.732957 -0.537273,2.300514 -1.130627,0.523813 -2.187226,0.852458 -3.486102,0.478947 -2.89499,-0.836755 -5.311033,0.376876 -7.997396,1.988694 2.401462,0.966867 4.340803,1.967383 6.503353,0.536151 0.551854,-0.364537 1.252888,-0.337618 1.580411,0.321915 0.335374,0.672994 -0.400431,0.771699 -0.769455,1.079033 -1.34262,1.119411 -2.675146,2.059358 -4.581958,2.152456 -1.869798,0.09198 -3.745205,0.517083 -5.570136,0.988178 -1.313458,0.339861 -3.4098303,1.174373 -3.0867933,2.25677 0.936581,3.146242 -1.36954,3.858493 -3.201202,5.109139 1.417771,1.050991 2.682997,1.927003 4.307153,0.795253 0.4621223,-0.321915 1.0050023,-0.504744 1.3706623,0.04374 0.514839,0.773942 -0.31182,1.066694 -0.715616,1.390852 -0.461,0.37239 -1.0880053,0.530543 -1.6084523,0.835633 -3.122686,1.82942 -6.595328,2.892749 -10.435872,4.577475 1.29999696,0 2.06496596,0.201898 2.663928,-0.03028 6.261075,-2.43287 12.8193893,-4.354265 18.6329233,-7.605943 4.614487,-2.578685 10.048903,-0.496893 14.249498,-3.703705 0.151424,-0.114409 0.621397,0.250129 0.95565,0.306212 5.087824,0.883864 9.934493,2.38576 14.387461,5.11026 1.466003,0.896203 2.084034,2.018979 1.937097,3.619581 -0.215357,2.301636 0.939947,4.856767 -1.347107,6.800595 -0.489041,0.415012 0.03926,1.130628 0.274806,1.686969 0.192924,0.450906 0.577652,0.927609 0.06169,1.417772 -1.652197,1.569196 -0.302847,2.596632 0.834511,3.241584 1.745294,0.990421 2.479978,2.566346 3.177647,4.239856 0.380241,0.910784 -1.646589,4.419321 -2.579805,4.511297 -0.402674,0.04262 -0.706643,-0.210871 -0.740292,-0.546246 -0.06618,-0.658412 0.167126,-1.317945 -0.979205,-1.285417 -1.091369,0.03141 -1.229333,0.721224 -1.472732,1.462638 -1.767727,5.359268 -6.980055,8.578418 -8.710768,13.970214 -0.07066,0.22321 -0.354443,0.374633 -0.531664,0.565315 -1.53891,1.646589 -2.095251,5.028379 -1.128385,7.077643 0.177222,0.37912 0.223209,0.701035 0.265832,1.121655 0.327523,3.294305 -0.668506,7.082135 3.670054,8.885755 1.389729,0.57877 2.335284,2.51026 1.829418,3.99533 -0.88835,2.60224 0.27817,4.52139 1.295511,6.60767 0.394822,0.80871 1.146331,1.5333 0.464365,2.6157 -0.953407,1.51423 -0.231061,2.52148 1.112681,3.40759 0.899567,0.5956 2.15582,1.24055 1.814837,2.58878 -0.777307,3.06212 1.842878,3.854 3.174282,5.50845 -1.764363,-5.40414 -2.764878,-11.01466 -5.225788,-16.12828 -0.747022,-1.55237 -0.328645,-3.0038 1.165399,-3.36048 1.425623,-0.34323 2.336406,0.64383 2.642618,2.40707 0.918635,5.2729 3.720527,9.69783 6.809564,13.96797 2.113197,2.92079 4.56289,5.81354 2.849002,9.84589 -0.290509,0.68196 -0.199655,1.15082 0.300603,1.61406 1.453664,1.34711 2.647105,2.96229 4.551674,3.82484 3.62743,1.64211 7.214483,3.37731 10.781343,5.14503 1.01958,0.50475 1.88887,0.48007 2.94771,0.11441 3.85176,-1.3314 4.90611,-0.95565 7.32104,2.32519 1.50077,2.04366 6.66935,4.5371 8.41128,3.65324 1.47161,-0.74591 1.51199,0.0157 1.8698,0.91863 0.92874,2.3566 2.07844,4.88369 3.50742,6.66039 2.21077,2.74805 5.56676,4.70759 9.17176,5.80232 0.90966,0.27368 1.54228,0.72235 1.63201,-0.88499 0.10319,-1.84624 1.80138,-1.87204 3.15297,-1.75426 0.82666,0.0729 2.30051,0.30396 2.2949,0.7773"
     id="path5916"
     inkscape:connector-curvature="0" /><path
     style="fill:#cc5252"
     d="m 592.3467,212.71839 c -1.67575,2.43063 -2.45306,5.12148 -2.45642,7.9817 -0.006,3.14063 -1.98197,5.23925 -4.06039,6.84658 -1.76661,1.36618 -2.93537,-1.34599 -4.48998,-2.00328 -1.08016,-0.45427 -1.95841,-1.39646 -2.91743,-2.13226 -2.44184,-1.8799 -2.51587,-2.87144 -0.92424,-5.60603 0.37912,-0.6472 2.35323,-1.67912 0.25462,-2.56972 -2.4239,-1.02519 -4.905,-2.29154 -7.54762,-0.38809 -0.6113,0.44081 -1.39534,0.77955 -2.13787,0.87041 -2.26126,0.27929 -3.20905,2.04365 -3.96281,3.71043 -1.12614,2.47661 -1.50638,2.7346 -3.5949,1.13848 -2.28481,-1.74754 -4.62907,-1.70043 -6.17246,0.74814 -1.19456,1.89224 -4.14676,2.46316 -3.94037,5.35142 0.0191,0.27481 -0.53167,0.42735 -0.8648,0.19629 -1.77446,-1.22933 -2.20966,0.2333 -2.68636,1.38749 -1.02071,2.46988 -2.69309,4.64365 -5.25832,4.98912 -4.41034,0.59896 -8.13199,2.73459 -12.14079,4.26229 -1.81147,0.68982 -2.41492,1.91354 -3.25952,3.33804 -1.20017,2.02908 0.008,4.02787 -0.25462,6.06704 -0.44978,3.53658 -1.44806,7.1326 -0.29051,10.7791 0.97136,3.061 0.11778,5.71035 -2.35099,7.80336 -0.92312,0.78291 -0.37463,1.51311 0.29276,1.85858 1.26186,0.65617 2.49231,1.34374 4.14002,0.70889 2.95893,-1.13961 5.92122,-2.31398 9.15719,-2.60561 1.60172,-0.14469 3.2943,0.18844 4.81078,-0.78964 2.8075,-1.8025 5.98851,-2.91743 9.2256,-3.21691 3.58145,-0.33425 7.44442,-2.24668 10.77349,1.22148 1.39871,1.45367 1.90121,3.22476 2.8434,4.89939 1.10146,-1.45479 3.03071,-1.81596 4.27574,-3.15522 0.25574,-0.27592 0.86031,-0.68869 1.37852,-0.12899 0.4924,0.53503 0.19629,0.98257 -0.20526,1.33702 -0.81769,0.72571 -0.5541,1.23045 -0.2692,2.26686 0.41277,1.50414 1.61518,2.93537 1.13063,4.65151 -0.25798,0.90741 -1.39198,1.79913 0.0707,2.65047 1.73969,1.00724 3.44572,2.66168 5.58472,1.56358 1.33589,-0.68645 2.16255,-0.79749 3.02622,0.43296 0.79974,1.1396 1.43796,0.85358 2.46428,0.0617 1.68136,-1.30224 3.50965,-2.62579 5.91336,-1.67687 0.73019,0.28827 1.11156,-0.23443 1.41216,-0.80311 1.927,-3.65323 6.04908,-5.41198 7.89308,-9.15382 0.19966,-0.4038 0.81208,-0.60906 1.24167,-0.89172 5.44339,-3.57808 8.53131,-8.58851 9.14037,-15.08738 0.18507,-1.98533 1.02182,-4.06264 -0.87714,-5.7754 -1.83839,-1.65669 -2.85349,-3.82933 -3.83269,-6.07713 -0.95677,-2.19844 -1.6937,-4.64029 -3.73399,-6.16125 -1.71613,-1.27757 -1.85858,-2.76488 -1.34262,-4.68852 0.65617,-2.43511 0.14918,-4.95884 -1.38748,-6.78153 -1.40207,-1.66117 -2.37343,-3.33916 -2.8434,-5.39067 -0.17049,-0.75039 -0.32528,-1.51087 -1.22709,-2.03917 z"
     id="path5914"
     inkscape:connector-curvature="0" /><path
     style="fill:url(#linearGradient12019)"
     d="m 273.78002,4.4797608 c -0.53503,-0.0258 -0.98594,-0.152545 -1.37851,-0.04935 -3.17204,0.842363 -6.1377,0.512596 -8.88351,-1.383001 -0.25798,-0.177222 -0.67972,-0.09758 -1.005,-0.201898 -6.16349,-2.00215403 -12.41335,0.127869 -18.64414,-0.33874 -3.65771,-0.274805 -7.41974,1.393096 -11.17168,1.642103 -3.30888,0.217601 -6.53139,1.160913 -10.00628,0.398188 -5.28523,-1.160913 -10.55477,-0.762726 -15.60221,1.736322 -2.42726,1.200171 -4.90051,2.482223 -7.75736,2.689729 -1.87765,0.134598 -3.76876,0.12226 -5.65426,0.564192 -1.09249,0.256859 -0.91303,0.7503882 -1.16316,1.4435702 -0.36005,0.997152 0.1447,1.363933 0.81769,1.5176 1.73408,0.395944 3.3672,0.993786 5.30767,0.527178 4.79956,-1.153062 9.17401,1.243915 9.90757,7.196539 0.0853,0.689818 0.43184,0.822173 0.81881,1.108195 2.74132,2.014492 2.6987,5.003703 -0.11778,6.901544 -0.85694,0.57653 -1.8081,1.018462 -2.64822,1.617426 -1.63874,1.167643 -2.88153,2.536063 -1.66566,4.715438 0.38922,0.698791 0.35332,1.343743 -0.0987,1.94495 -0.86816,1.150818 -0.40268,2.288177 -0.0404,3.436752 0.84012,2.654957 3.29542,3.360478 5.39179,4.530365 2.29715,1.276443 3.99085,0.236669 5.44675,-1.395339 0.85246,-0.956772 1.45591,-2.135632 2.16143,-3.220272 2.3151,-3.555647 5.19438,-6.081614 9.75952,-6.365393 1.62752,-0.102071 3.46927,-0.289387 4.93864,-1.31458 3.37282,-2.348746 6.47643,-4.62234 11.22888,-4.02562 3.09913,0.388093 6.45849,-1.299998 9.71802,-2.06048 -1.2484,-1.397583 -1.27084,-1.474977 -2.24443,-1.245037 -0.91079,0.213114 -2.01001,0.956771 -2.62243,-0.0034 -0.74814,-1.171008 0.93097,-0.812079 1.21475,-1.344865 1.07118,-2.0201 1.08576,-2.098616 3.02286,-0.464365 1.25737,1.058842 2.41604,1.381879 3.80577,0.328645 -0.99378,-1.80923 -2.97126,-2.09413 -4.42044,-3.135026 -0.37014,-0.264711 -0.98705,-0.587747 -0.60457,-1.211387 0.1346,-0.219845 0.59111,-0.390336 0.8704,-0.354443 5.52752,0.710007 8.20154,-3.324586 11.24683,-6.735539 0.1447,-0.16264 0.21087,-0.446419 0.21424,-0.67748 0.0819,-2.9263982 1.46264,-4.1815302 4.41034,-4.8365772 1.80811,-0.398187 4.07498,0.192925 5.44676,-1.935977 z"
     id="path5912"
     inkscape:connector-curvature="0" /><path
     style="fill:#cc5252"
     d="m 542.15603,183.10894 c -0.19068,-0.26583 -0.38697,-0.54737 -0.59111,-0.82666 -1.88775,-2.5484 -2.4811,-4.91958 0.11777,-7.56781 1.36393,-1.39085 -0.69767,-2.14572 -1.42562,-3.02735 -0.61579,-0.74477 -1.60733,-2.0773 -2.50353,-0.96125 -1.67575,2.08291 -4.85901,2.99481 -5.78438,4.70085 -1.64322,3.02959 -5.38618,3.53546 -6.47755,6.71535 -0.21536,0.63598 -0.76048,0.40268 -1.30785,0.27032 -1.88326,-0.45876 -2.90733,0.48343 -2.50577,2.34987 0.37799,1.761 0.93994,3.48386 1.39533,5.2314 0.57205,2.19283 1.9887,2.97463 4.21182,3.45582 2.02683,0.4352 4.11983,-0.64047 5.98402,0.53615 2.02459,1.27868 2.9421,0.0213 3.79007,-1.54452 1.59836,-2.95108 1.83839,-6.63908 4.78722,-8.86108 0.12675,-0.0976 0.18956,-0.28265 0.30958,-0.47109 z"
     id="path5910"
     inkscape:connector-curvature="0" /><path
     style="fill:url(#linearGradient12019)"
     d="m 176.88029,40.8169 c -0.36566,-0.300604 -0.77843,-0.500258 -0.96686,-0.827782 -0.39819,-0.694304 -2.08965,-0.539516 -1.47947,-1.667901 0.54401,-1.013976 1.64547,-0.364538 2.56186,-0.05272 0.78965,0.266954 1.54452,1.508626 2.49232,0.402674 0.9063,-1.052112 0.73244,-2.187227 0.0404,-3.352627 -0.34996,-0.585504 -1.14633,-1.310093 -0.16713,-2.007762 0.71225,-0.50811 1.48507,-0.851336 2.38015,-0.224331 0.56195,0.393701 1.26074,0.587747 1.84064,0.96238 1.79913,1.164278 2.74693,-0.01234 3.49956,-1.338135 0.89957,-1.590507 -0.62364,-1.896719 -1.53218,-2.366692 -1.47273,-0.76609 -2.97126,-1.835028 -2.55513,-3.490591 0.52606,-2.0874 -0.7975,-2.282568 -1.96289,-2.536062 -1.93934,-0.415012 -3.65884,-0.97584 -4.60327,-2.916303 -0.28715,-0.591112 -0.81657,-0.957893 -1.4918,-0.49465 -2.07506,1.422259 -3.61622,0.112166 -5.08783,-1.068937 -1.31009,-1.048747 -2.49231,-1.469368 -4.26116,-0.965745 -1.59163,0.450905 -2.84564,1.122777 -3.95944,2.269108 -0.34547,0.357808 -0.70665,1.237185 -1.42451,0.473339 -0.61578,-0.659533 0.0752,-1.056599 0.41726,-1.525451 0.4711,-0.65056 1.44918,-0.950042 1.43796,-2.079549 -2.47661,0.109923 -4.47764,1.048748 -6.28239,2.667296 -0.89508,0.801984 -2.471,1.515356 -1.84287,2.687485 0.5855,1.094736 2.29602,1.861948 3.67678,1.298877 2.15021,-0.873769 4.08955,0.04487 6.10292,0.275927 0.67299,0.07627 1.24055,0.328645 1.97972,0.05945 3.66445,-1.339256 5.13606,-0.724589 7.18308,2.776096 0.73356,1.255133 1.37739,2.6157 2.90284,3.161946 0.47894,0.16937 1.0981,0.36566 0.97584,0.992665 -0.11217,0.583261 -0.7717,0.574287 -1.26186,0.743657 -0.73805,0.254616 -1.42114,0.639344 -2.20854,0.103193 -1.80811,-1.234943 -3.38515,-0.140207 -4.26004,1.086883 -1.14409,1.600602 -2.38352,1.520965 -3.8327,1.108196 -1.69594,-0.484555 -3.21466,-0.450906 -4.53485,0.853579 0.81545,1.297755 1.88326,0.721224 2.78283,0.402674 2.62355,-0.926487 4.44399,-0.546246 5.94589,2.173768 1.39309,2.527089 5.0295,3.446846 7.49489,2.416045 z"
     id="path5908"
     inkscape:connector-curvature="0" /><path
     style="fill:#cc5252"
     d="m 390.75848,215.407 c -1.12614,4.07048 -4.2062,6.35529 -7.39507,8.0389 -3.07894,1.62416 -4.56513,3.03183 -3.67005,6.42708 0.53727,2.04366 0.47446,3.74633 -0.95453,5.29309 -2.30948,2.50017 -1.82381,5.43891 -1.13736,8.26884 0.45764,1.88663 2.02347,2.6258 4.01104,2.35212 2.54728,-0.35108 4.20396,-1.94608 4.52812,-4.27015 0.87713,-6.3295 3.85625,-11.94114 5.75745,-17.91283 0.96126,-3.02398 0.43745,-5.49723 -1.1396,-8.19705 z"
     id="path5906"
     inkscape:connector-curvature="0" /><path
     style="fill:url(#linearGradient12019)"
     d="m 117.70517,18.227888 c -6.6144,-3.958321 -11.74596,0.02355 -17.03119,3.194474 0.80871,1.674631 1.84175,1.717253 3.53881,1.000516 2.02571,-0.858066 4.13666,-2.597753 6.56953,-0.751509 0.33874,0.256859 0.85021,0.374633 0.72683,0.869283 -0.0639,0.252372 -0.47782,0.446418 -0.76609,0.605693 -0.45539,0.251251 -1.1811,-0.29163 -1.54788,0.577653 1.28766,0 2.50017,-0.0101 3.7138,0.0034 0.68533,0.0067 1.66902,-0.112166 1.7094,0.738049 0.0415,0.883864 -0.93322,0.812078 -1.61294,0.817686 -1.60397,0.01234 -3.20906,0.0045 -5.46807,0.0045 4.4698,2.767124 8.42138,4.118718 12.8407,1.727349 1.01398,-0.550732 1.9887,-0.876012 3.19784,-0.34547 3.13839,1.380758 5.78213,0.03702 8.4326,-1.695942 -0.79413,-1.177738 -3.90224,-1.126142 -1.82269,-3.639771 0.44081,-0.535029 1.44918,-1.442448 0.41389,-2.162551 -0.79413,-0.551854 -1.61855,0.14918 -2.24107,0.824416 -0.41164,0.446419 -0.84012,0.884986 -1.31233,1.265227 -0.63374,0.511475 -1.31122,0.301726 -1.34262,-0.43408 -0.092,-2.035804 -1.01846,-1.670145 -2.05151,-0.778429 -0.68645,0.588869 -1.23382,0.187317 -1.90232,0.106558 -1.97412,-0.244521 -3.72502,-1.474977 -5.86513,-1.130629 0.44529,-0.916392 1.40543,-0.168248 1.82044,-0.796375 z"
     id="path5904"
     inkscape:connector-curvature="0" /><path
     style="fill:#cc5252"
     d="m 491.97994,172.79644 c 0.39819,2.0302 1.38524,3.20906 2.56074,4.26678 3.84839,3.46479 6.46185,7.94132 8.85995,12.33708 1.68136,3.08119 3.65883,5.79784 5.81802,8.44943 0.72795,0.89059 1.79465,1.6836 3.13951,1.29551 1.30785,-0.37575 2.10871,-1.48956 2.2119,-2.66393 0.1189,-1.37291 -0.13796,-2.74469 -1.28093,-3.94823 -1.71164,-1.79913 -3.42329,-3.73511 -4.54046,-5.91673 -0.62363,-1.21587 -0.98369,-2.35772 -2.20292,-3.18213 -2.05375,-1.39534 -4.51354,-2.51587 -5.79784,-4.64365 -1.99542,-3.31337 -4.97005,-4.79844 -8.76797,-5.99413 z"
     id="path5902"
     inkscape:connector-curvature="0" /><path
     style="fill:#cc5252"
     d="m 564.95926,106.81509 c 1.06109,-2.90621 1.06109,-2.90621 3.6151,-3.26739 3.42329,-0.48231 4.35426,-2.18161 3.16531,-5.535363 -0.30509,-0.864796 -0.8648,-1.732957 -0.61243,-2.73796 0.58887,-2.353232 -0.68308,-3.891022 -2.34538,-5.194385 -0.68645,-0.538394 -1.47497,-1.513113 -2.45081,-0.689818 -0.93883,0.797497 0.16937,1.526573 0.37014,2.288177 0.37912,1.440205 2.10871,2.515872 1.36954,4.221909 -1.31009,3.029591 -4.09403,5.58809 -6.80395,5.69464 -2.8591,0.11329 -3.98973,1.95056 -6.31492,2.83779 3.37394,1.74642 7.63062,-3.2012 10.0074,2.3824 z"
     id="path5900"
     inkscape:connector-curvature="0" /><path
     style="fill:#cc5252"
     d="m 283.9209,52.29031 c -0.79974,-0.667385 -2.08628,-0.02804 -2.21864,-1.308971 -0.0752,-0.733563 -0.40267,-0.547368 -0.83451,-0.34547 -1.24615,0.577652 -2.16479,2.204052 -1.77221,2.818719 0.69206,1.076789 -0.66963,3.575837 2.00552,3.302153 1.1239,-0.116652 1.24055,0.632613 1.4559,1.404312 0.20078,0.724589 0.87826,1.867556 0.0292,2.070575 -2.0201,0.476704 -2.22761,2.374544 -3.28981,3.461428 0.57989,1.221482 2.89611,0.08412 2.74132,1.620792 -0.11105,1.093613 -2.0459,0.889472 -3.09689,1.420015 -0.28153,0.141328 -0.53166,0.349956 -1.21139,0.809835 3.78895,-0.54176 7.02829,-1.342621 10.33717,-1.738566 0.69318,-0.083 1.27308,-2.410436 2.51924,-3.255043 -0.24789,-0.222087 -0.55634,-0.679723 -0.73356,-0.632613 -2.47662,0.649438 -2.50915,-1.476098 -3.1182,-2.794043 -0.65954,-1.43684 -1.29103,-3.172041 -2.68412,-3.664447 -2.68861,-0.954529 -1.55013,-1.897841 -0.12899,-3.168676 z"
     id="path5898"
     inkscape:connector-curvature="0" /><path
     style="fill:#cc5252"
     d="m 314.54094,12.017284 c -0.95228,0.519326 -2.08291,-0.238913 -2.71889,0.827781 1.14297,0.662898 2.17265,1.270835 3.21354,1.860826 0.72683,0.411647 1.56807,0.67748 1.97972,-0.274805 0.47446,-1.098101 1.53555,-1.591629 2.17601,-2.511386 1.2899,-1.849609 2.49007,-1.654441 3.31112,0.559706 0.15704,0.425107 0.23667,0.991543 0.61579,0.713372 1.31682,-0.96911 2.53045,0.273684 4.03123,0.07852 -1.35608,-2.038047 -4.1333,-1.850731 -5.449,-3.9381312 2.52597,0.0157 4.72104,1.4985312 7.04511,0.301725 0.48007,-0.247885 1.06445,-0.418377 1.01286,-0.996029 -0.0662,-0.713373 -0.76497,-0.549611 -1.24616,-0.560828 -1.73632,-0.03814 -3.62855,0.388093 -5.17532,-0.16264 -2.22536,-0.794132 -2.96901,0.18283 -3.68912,2.1647942 -0.64719,-1.4211372 -1.19568,-2.7760962 -2.86582,-1.1059522 -0.4296,0.430716 -1.74978,0.281536 -2.51587,0.0022 -1.71501,-0.624762 -3.44124,-0.287144 -5.15961,-0.371268 -0.56083,-0.0258 -1.31907,-0.191803 -1.4604,0.671871 -0.1346,0.8165652 0.61467,1.0240712 1.12951,1.2136312 1.35383,0.496893 2.61906,1.546763 4.23761,0.491285 0.77394,-0.506988 1.16876,0.303969 1.52769,1.035288 z"
     id="path5896"
     inkscape:connector-curvature="0" /><path
     style="fill:#cc5252"
     d="m 613.54709,295.61319 c 0.73244,0.0852 1.64098,-0.0953 2.50466,-0.57092 5.20223,-2.8591 9.81335,-6.65927 15.06494,-9.45107 0.81656,-0.43296 1.1553,-1.26074 0.44305,-2.39698 -0.88947,-1.41216 -1.63537,-0.47558 -2.19171,-0.0157 -3.33917,2.77273 -6.92622,5.0968 -11.04493,6.51906 -2.13003,0.73468 -4.12208,1.71613 -6.00422,2.95556 -0.80198,0.52606 -1.97187,1.01285 -1.68024,2.0302 0.33201,1.15418 1.66566,0.88947 2.90845,0.92985 z"
     id="path5894"
     inkscape:connector-curvature="0" /><path
     style="fill:#cc5252"
     d="m 551.67663,188.0431 c -1.16091,0.26583 -2.35098,0.44417 -3.47488,0.81769 -1.42226,0.47333 -1.98197,-0.65281 -2.39137,-1.4346 -0.48343,-0.92649 0.17722,-1.91579 1.09586,-2.29379 1.33364,-0.54624 2.6729,-1.00163 4.22527,-0.25013 2.86134,1.38301 3.98412,0.7717 5.06876,-2.99818 -2.15246,2.16928 -4.34081,1.82718 -6.54037,1.5176 -2.94883,-0.41501 -4.08282,0.22433 -4.83433,3.00604 -0.61579,2.28032 -0.28378,4.83209 -2.06609,6.77479 -0.43184,0.46885 -0.0101,1.07343 0.26808,1.41777 0.71225,0.87602 1.13735,1.67688 0.49801,2.80414 -0.26135,0.46549 -0.004,1.01622 0.47558,1.36057 0.544,0.39482 0.96687,-0.003 1.42002,-0.22321 0.59335,-0.28714 0.60457,-0.7717 0.46212,-1.31346 -0.19629,-0.74926 -0.3107,-1.52769 -0.60682,-2.23546 -0.54063,-1.28878 0.49241,-1.8698 1.20242,-2.24106 1.08351,-0.56644 1.22709,0.71673 1.40879,1.28654 0.44418,1.40319 1.04875,2.45193 2.82433,2.56971 -0.0628,-1.09698 0.23106,-2.0616 -0.3679,-2.92977 -1.63201,-2.38015 -1.19232,-4.17031 1.33252,-5.63519 z"
     id="path5892"
     inkscape:connector-curvature="0" /><path
     style="fill:#cc5252"
     d="m 391.46849,14.512966 c -1.18447,-0.953406 -2.10086,-0.5698 -3.03856,-0.523813 -1.65332,0.07964 -3.11708,1.169887 -4.80068,0.85358 -5.14167,-0.96911 -7.89421,2.407072 -10.44709,5.912244 -0.21648,0.297239 -1.68024,1.819324 -0.36566,2.282568 2.02458,0.711129 3.93813,2.29042 6.39679,1.5591 -2.32631,-2.383517 -2.27696,-3.194473 0.20078,-5.698007 1.86082,-1.881016 4.28584,-2.475493 6.73553,-2.990333 1.7195,-0.361173 3.54443,-0.31182 5.31889,-1.395339 z"
     id="path5890"
     inkscape:connector-curvature="0" /><path
     style="fill:#cc5252"
     d="m 640.4567,268.66767 c 0.0561,1.07679 0.002,1.86531 0.15367,2.61458 0.72907,3.61621 0.49465,4.21293 -2.61458,6.00309 -0.91302,0.52718 -2.35323,1.4447 -1.98757,2.10984 1.17886,2.14572 -0.31518,3.02622 -1.73295,4.14451 2.27247,0.34772 11.0382,-5.82812 11.68203,-7.96038 -2.44409,0.63485 -4.85789,-1.66342 -4.23201,-4.23874 0.29612,-1.21924 0.27481,-1.97299 -1.26859,-2.6729 z"
     id="path5888"
     inkscape:connector-curvature="0" /><path
     style="fill:#cc5252"
     d="m 534.2966,205.5555 c -2.23546,-1.52545 -5.07437,-1.92925 -7.21,-3.66557 -0.52493,-0.42847 -1.13848,0.0404 -1.72061,0.14021 -1.79577,0.30957 -3.50742,0.84573 -5.34469,-0.43857 -1.16988,-0.81432 -2.86246,-1.29215 -4.44287,-0.80983 -0.68309,0.20975 -1.70604,0.40155 -1.68473,1.34935 0.0191,0.78403 0.95229,0.83002 1.55686,1.09922 2.00776,0.89171 4.39128,0.19965 6.15676,0.82217 3.64426,1.28542 7.45788,1.09249 11.06176,2.16816 0.62588,0.18844 1.2069,0.17386 1.62752,-0.66514 z"
     id="path5886"
     inkscape:connector-curvature="0" /><path
     style="fill:url(#linearGradient12025)"
     d="m 266.58797,34.803707 c -0.97247,-1.157548 -2.09076,-1.990938 -3.77661,-1.49741 -1.06557,0.31182 -2.17713,1.222604 -3.20905,0.734684 -2.29603,-1.083518 -3.93701,0.784037 -5.91897,1.028558 -1.02856,0.126747 -1.0981,1.128385 -1.00949,2.025709 2.08627,-0.828903 3.20008,1.882138 4.86125,1.542276 2.82769,-0.577652 5.82475,-0.905176 8.20939,-2.870315 0.32752,-0.268076 0.74926,-0.407161 0.84348,-0.963502 z"
     id="path5884"
     inkscape:connector-curvature="0" /><path
     style="fill:url(#linearGradient12019)"
     d="m 105.36473,133.75275 c 0.85694,-0.28378 1.73408,-0.51372 2.56186,-0.86255 0.96462,-0.40492 1.81596,-0.70777 2.9578,-0.38137 3.08006,0.88162 3.1025,0.7975 7.0911,5.32114 0.0931,0.10431 0.33425,0.15927 0.47895,0.12338 2.52708,-0.58887 5.14502,1.47722 7.61939,-0.27705 -2.38463,-2.63589 -10.51438,-6.35418 -13.88496,-6.47756 -2.61233,-0.092 -5.0351,0.17386 -6.82414,2.55401 z"
     id="path5882"
     inkscape:connector-curvature="0" /><path
     style="fill:#cc5252"
     d="m 552.24307,155.01821 c -0.67748,-2.02683 -0.89732,-2.28369 -1.86307,-2.35436 -3.69136,-0.26359 -4.69973,-1.77221 -3.36048,-5.11699 0.87153,-2.17376 -0.3993,-3.6364 -1.76885,-4.86798 -1.08576,-0.97472 -1.70827,-0.0998 -1.81483,1.06109 -0.0953,1.02407 -0.018,2.02683 -0.46885,3.03968 -0.9478,2.1289 2.9993,7.81233 5.32225,7.78877 0.0796,-0.001 0.16824,-0.0404 0.24003,-0.0819 1.26186,-0.7717 2.30837,0.14582 3.7138,0.53167 z"
     id="path5880"
     inkscape:connector-curvature="0" /><path
     style="fill:#cc5252"
     d="m 275.71039,56.591857 c -2.36557,-0.14245 -3.48611,1.895598 -5.35478,2.250041 -0.10207,0.01907 -0.25462,0.542881 -0.16937,0.633735 1.17886,1.262983 0.0381,2.246675 -0.4296,3.24607 -0.32528,0.698791 -0.0594,1.159791 0.24228,1.679117 0.49914,0.863675 1.05997,0.217601 1.5434,0.0056 2.28032,-1.005003 5.35365,-1.204658 5.09343,-4.8792 -0.0112,-0.153667 0.0942,-0.343227 0.20078,-0.472217 1.64322,-2.036926 0.55185,-2.494561 -1.12614,-2.463155 z"
     id="path5878"
     inkscape:connector-curvature="0" /><path
     style="fill:url(#linearGradient12019)"
     d="m 174.6482,15.067064 c -1.11717,-0.953407 -2.28593,-0.68421 -3.39749,-0.740292 -3.34141,-0.163762 -6.81517,1.12502 -9.95244,-1.284295 -1.11829,-0.86031 -2.25228,0.422864 -3.24158,1.024071 -0.34771,0.210871 -0.62588,0.91527 -0.56419,1.339256 0.0965,0.666263 0.81768,0.455392 1.29887,0.480068 1.63425,0.07627 3.32571,0.411648 4.87023,0.349957 3.61957,-0.144694 7.54424,1.93149 10.9866,-1.168765 z"
     id="path5876"
     inkscape:connector-curvature="0" /><path
     style="fill:#cc5252"
     d="m 549.99752,168.35132 c 2.58653,-1.3056 3.52872,0.0404 3.99533,2.222 0.10544,0.48568 0.43632,0.93883 0.73468,1.35833 0.48231,0.67411 1.06333,0.32079 1.61294,0.0684 0.31855,-0.14806 1.03529,0.0112 0.72796,-0.67973 -1.41329,-3.16979 0.92873,-1.37066 1.96289,-1.39982 -0.0538,-2.60336 -1.27868,-4.77937 -2.30836,-7.0182 -1.34262,3.10026 -1.678,3.32571 -5.03735,3.34253 -1.22709,0.007 -1.53443,0.80647 -1.68809,2.10647 z"
     id="path5874"
     inkscape:connector-curvature="0" /><path
     style="fill:#cc5252"
     d="m 169.25753,314.6903 c -2.76712,-0.79077 -4.72441,-2.84788 -7.1427,-4.0918 -0.85358,-0.43969 -1.80137,-1.48619 -2.77385,-0.48568 -0.53727,0.55634 -0.99154,1.62528 -0.83227,2.31173 0.22097,0.95678 1.19793,1.49517 2.1805,1.99543 2.83442,1.44245 5.70474,0.29612 8.56832,0.27032 z"
     id="path5872"
     inkscape:connector-curvature="0" /><path
     style="fill:url(#linearGradient12019)"
     d="m 124.45753,142.10684 c 4.67281,0.65056 8.9351,1.05547 13.17832,-0.79301 -2.46316,-2.60785 -5.53537,-2.38128 -8.64347,-2.18162 0.90854,4.54494 -2.78395,1.80362 -4.53485,2.97463 z"
     id="path5870"
     inkscape:connector-curvature="0" /><path
     style="fill:#cc5252"
     d="m 575.34466,288.72286 c 1.72735,-0.73356 3.33917,-1.59051 4.62458,-2.88041 0.56532,-0.56531 1.43572,-1.38188 1.13175,-2.14797 -0.44866,-1.13175 -1.4559,-0.378 -2.24331,-0.15479 -0.91527,0.26023 -1.65668,-0.4094 -2.50465,-0.49913 -3.39188,-0.35557 -0.61803,2.81311 -2.09301,3.70482 -0.65953,0.39931 -0.70215,1.38076 0.40043,1.75764 0.23779,0.0808 0.48007,0.15478 0.68421,0.21984 z"
     id="path5868"
     inkscape:connector-curvature="0" /><path
     style="fill:#cc5252"
     d="m 560.67679,70.272685 c -2.18498,-2.73123 -4.11872,-4.069365 -6.55495,-4.447363 2.49568,2.898357 3.97963,6.102926 5.615,9.2301 0.57429,1.094735 1.47161,2.346503 3.24607,1.63313 -0.62364,-2.008884 -2.40707,-2.871437 -3.48386,-4.307156 -0.89171,-1.185589 -1.17101,-2.191714 1.17774,-2.108711 z"
     id="path5866"
     inkscape:connector-curvature="0" /><path
     style="fill:#cc5252"
     d="m 458.76663,163.70206 c -1.30673,2.00664 -0.89396,3.81924 -0.44978,5.68006 0.2434,1.01286 0.0482,2.22312 1.74081,1.69595 1.29439,-0.40492 2.03356,-0.9164 1.61069,-2.57308 -0.4767,-1.8698 -1.85297,-3.04642 -2.90172,-4.80293 z"
     id="path5864"
     inkscape:connector-curvature="0" /><path
     style="fill:url(#linearGradient12019)"
     d="m 145.41116,17.702953 c -3.24271,-0.818808 -5.27963,3.315613 -8.68722,2.017858 1.76549,0.428472 2.27584,3.357113 4.95884,1.977478 1.85521,-0.954529 3.42553,-1.793527 3.72838,-3.995336 z"
     id="path5862"
     inkscape:connector-curvature="0" /><path
     style="fill:url(#linearGradient12019)"
     d="m 162.73287,7.7830358 c 2.80189,0.123382 4.99472,1.846244 7.20663,-0.303969 0.51035,-0.493528 1.8496,-0.419499 1.52993,-1.374027 -0.29836,-0.888351 -1.44581,-1.295512 -2.40146,-1.11156 -2.06833,0.403795 -4.11647,0.950041 -6.3351,2.789556 z"
     id="path5860"
     inkscape:connector-curvature="0" /><path
     style="fill:url(#linearGradient12019)"
     d="m 153.99069,37.485584 c 0.0695,-0.515961 -0.25686,-0.807591 -0.54737,-1.120533 -1.80362,-1.948315 -4.66832,-1.943829 -6.51344,0.04487 -0.36342,0.392579 -1.16092,0.692061 -0.7403,1.422258 0.35893,0.622519 0.99155,0.531665 1.60173,0.283779 1.63537,-0.66402 3.23821,-0.83339 4.82311,0.21648 0.98481,0.652803 1.05884,-0.357808 1.37627,-0.84685 z"
     id="path5858"
     inkscape:connector-curvature="0" /><path
     style="fill:#cc5252"
     d="m 542.20538,126.67511 c -1.37851,0.63373 -1.96514,2.03019 -2.20405,3.28533 -0.20863,1.07791 0.45203,2.3106 1.64996,2.92078 0.38921,0.19854 0.63037,0.0606 0.71785,-0.38136 0.32192,-1.62191 1.42563,-3.14624 0.58999,-4.91958 -0.17609,-0.37239 -0.1402,-0.86704 -0.75375,-0.90517 z"
     id="path5856"
     inkscape:connector-curvature="0" /><path
     style="fill:url(#linearGradient12019)"
     d="m 52.219621,70.538517 c 0.113287,-1.046504 -2.632523,-4.080581 -3.639769,-3.864102 -0.757116,0.161518 -1.707158,0.411648 -1.028557,1.726227 0.777307,1.503018 2.140117,2.12778 3.520873,2.750299 0.404918,0.180586 1.058842,0.139085 1.147453,-0.612424 z"
     id="path5854"
     inkscape:connector-curvature="0" /><path
     style="fill:url(#linearGradient12019)"
     d="m 154.51675,18.31762 c -2.08404,-1.030801 -5.57911,-0.619153 -6.88247,0.703278 -0.2793,0.282657 -0.75151,0.540638 -0.42848,1.046504 0.12226,0.190682 0.52382,0.445297 0.59897,0.39258 1.93261,-1.381879 4.64477,-0.261346 6.71198,-2.142362 z"
     id="path5852"
     inkscape:connector-curvature="0" /><path
     style="fill:#cc5252"
     d="m 633.99037,230.64356 c -0.34435,3.25504 2.32294,6.84883 5.89317,8.16901 -2.18162,-2.36893 -4.14003,-4.90724 -5.89317,-8.16901 z"
     id="path5850"
     inkscape:connector-curvature="0" /><path
     style="fill:#cc5252"
     d="m 560.38179,206.897 c -4.30266,-1.72062 -6.32613,-0.8547 -8.4225,3.33468 2.82881,-1.01958 4.6515,-3.56911 8.4225,-3.33468 z"
     id="path5848"
     inkscape:connector-curvature="0" /><path
     style="fill:#cc5252"
     d="m 614.59472,196.6518 c -1.59836,2.37903 -4.12545,2.97127 -6.72432,3.5792 2.96229,1.97636 5.97505,0.48568 6.72432,-3.5792 z"
     id="path5846"
     inkscape:connector-curvature="0" /><path
     style="fill:#cc5252"
     d="m 556.83064,111.98816 c 1.58601,-2.3308 1.21363,-3.85962 -0.9893,-5.16298 -0.47671,-0.28153 -0.87489,-0.96687 -1.44694,-0.10768 -0.40828,0.61803 -0.30397,1.1082 0.24789,1.54564 1.11717,0.88611 1.61294,2.15919 2.18835,3.72502 z"
     id="path5844"
     inkscape:connector-curvature="0" /><path
     style="fill:#cc5252"
     d="m 178.36648,306.53474 c -1.33364,-0.77282 -2.78843,-0.4666 -4.17928,-0.60569 -0.96238,-0.0976 -1.13511,0.70103 -1.27196,1.21139 -0.19516,0.7358 0.6371,0.66514 1.09362,0.89956 1.92363,0.98818 3.19447,0.0841 4.35762,-1.50526 z"
     id="path5842"
     inkscape:connector-curvature="0" /><path
     style="fill:#cc5252"
     d="m 521.39196,139.14903 c -1.75875,-0.19404 -3.20008,-0.10431 -3.94485,1.44021 -0.40268,0.83675 0.39594,1.74193 1.04538,1.79913 2.14797,0.18844 1.97187,-1.8698 2.89947,-3.23934 z"
     id="path5840"
     inkscape:connector-curvature="0" /><path
     style="fill:#cc5252"
     d="m 543.21375,159.99163 c -1.88999,1.5849 -3.34589,3.24831 -4.48101,5.46807 2.80638,-0.73918 4.46306,-2.75479 4.48101,-5.46807 z"
     id="path5838"
     inkscape:connector-curvature="0" /><path
     style="fill:#cc5252"
     d="m 564.15616,180.52577 c -1.549,-0.5126 -1.77558,0.56082 -2.21975,1.34037 -0.44194,0.77395 0.56307,1.59612 -0.16152,2.41829 -0.47222,0.53279 -0.53615,1.24728 0.21311,1.75988 0.35108,0.23779 0.73805,0.60681 1.08576,0.12675 0.38361,-0.53055 0.80535,-1.07679 0.378,-1.85971 -0.74029,-1.35496 -0.78067,-2.683 0.7044,-3.78558 z"
     id="path5836"
     inkscape:connector-curvature="0" /><path
     style="fill:#cc5252"
     d="m 305.46003,91.165754 c -0.0516,-0.831146 0.14918,-1.928125 -1.02071,-2.023466 -0.79301,-0.06618 -1.61518,0.715616 -1.39758,1.472734 0.2692,0.927608 0.0594,2.51475 1.46264,2.573076 1.17213,0.04823 0.90854,-1.196806 0.95565,-2.022344 z"
     id="path5834"
     inkscape:connector-curvature="0" /><path
     style="fill:#cc5252"
     d="m 311.93085,96.563159 c 1.16652,0.614667 2.14012,1.154183 3.14063,1.649954 0.61579,0.303969 1.15306,0.652804 1.46825,-0.499136 0.27929,-1.015098 0.19405,-1.257376 -0.87377,-1.532181 -1.23943,-0.320793 -2.33641,-0.420621 -3.73511,0.381363 z"
     id="path5832"
     inkscape:connector-curvature="0" /><path
     style="fill:url(#linearGradient12019)"
     d="m 139.34301,26.58534 c -0.52494,-0.296117 -0.80423,-0.511475 -1.11942,-0.621397 -1.41552,-0.486798 -2.46764,0.381363 -3.51863,1.066694 -0.30621,0.200776 0.10544,0.583261 0.33089,0.803105 1.19344,1.159791 1.98421,-0.255737 2.95332,-0.49465 0.39594,-0.09646 0.73805,-0.399309 1.35384,-0.753752 z"
     id="path5830"
     inkscape:connector-curvature="0" /><path
     style="fill:#cc5252"
     d="m 333.69431,102.07273 c 2.10759,1.23494 3.81475,2.09637 6.05245,0.89284 -1.87429,-1.27196 -3.75418,-0.96799 -6.05245,-0.89284 z"
     id="path5828"
     inkscape:connector-curvature="0" /><path
     style="fill:#cc5252"
     d="m 549.80908,206.69398 c -0.84461,-1.09586 -2.03917,-0.70328 -2.94322,-1.18335 -0.64159,-0.33986 -1.5277,-0.249 -1.54452,0.64271 -0.0101,0.63822 0.69879,1.25065 1.45479,1.1755 0.9949,-0.0987 1.97299,-0.4038 3.03295,-0.63486 z"
     id="path5826"
     inkscape:connector-curvature="0" /><path
     style="fill:#cc5252"
     d="m 549.6756,60.695993 c 1.13624,1.648833 1.6522,3.167554 3.62519,3.76091 -0.48792,-1.98533 -1.24055,-3.277476 -3.62519,-3.76091 z"
     id="path5824"
     inkscape:connector-curvature="0" /><path
     style="fill:#cc5252"
     d="m 541.80495,206.45507 c -1.58714,-0.84237 -2.85461,-0.80535 -4.12993,-0.22882 -0.0718,0.0348 -0.083,0.49241 0.0269,0.60345 1.09025,1.09025 2.22088,0.0684 3.34029,0.0157 0.14918,-0.007 0.29051,-0.14357 0.76272,-0.39033 z"
     id="path5822"
     inkscape:connector-curvature="0" /><path
     style="fill:#cc5252"
     d="m 561.5943,106.69843 c 0.0651,-0.65729 -0.21199,-1.04426 -0.68982,-0.96686 -0.71337,0.11328 -1.65556,0.17722 -1.63425,1.19568 0.009,0.42174 0.24901,1.15531 0.83339,1.13736 0.86143,-0.0269 1.27308,-0.72683 1.49068,-1.36618 z"
     id="path5820"
     inkscape:connector-curvature="0" /><path
     style="fill:url(#linearGradient12019)"
     d="m 116.68783,142.04739 c 1.69706,1.35496 1.69706,1.35496 3.77325,0.6528 -1.217,-0.78179 -2.2994,-1.50975 -3.77325,-0.6528 z"
     id="path5818"
     inkscape:connector-curvature="0" /><path
     style="fill:#cc5252"
     d="m 553.54307,156.90595 c 1.15979,2.46428 1.34935,2.62019 3.1339,2.68188 -0.68197,-1.17886 -1.24055,-2.47661 -3.1339,-2.68188 z"
     id="path5816"
     inkscape:connector-curvature="0" /><path
     style="fill:#cc5252"
     d="m 562.76643,193.16906 c 1.38973,1.23495 2.66842,1.57032 4.19947,0.23331 -1.40094,0.002 -2.60448,-1.11941 -4.19947,-0.23331 z"
     id="path5814"
     inkscape:connector-curvature="0" /><path
     style="fill:#cc5252"
     d="m 668.02248,228.09965 c -1.56695,-0.42511 -2.16367,-1.58042 -3.17204,-0.84349 -0.67523,0.49465 -0.13908,1.19232 0.2176,1.53218 0.98257,0.93883 1.51872,-0.2333 2.95444,-0.68869 z"
     id="path5812"
     inkscape:connector-curvature="0" /><path
     style="fill:#cc5252"
     d="m 355.88737,101.2427 c -0.71786,0.49241 -0.96575,0.72571 -1.25962,0.85134 -0.45427,0.1918 -0.93546,0.32528 -1.41441,0.44978 -0.94667,0.25013 -0.87713,0.95565 -0.20302,1.13175 1.00501,0.26247 1.86644,-0.44642 2.52373,-1.23157 0.13796,-0.16377 0.13908,-0.44306 0.35332,-1.2013 z"
     id="path5810"
     inkscape:connector-curvature="0" /><path
     style="fill:url(#linearGradient12019)"
     d="m 143.03101,142.05412 c -0.36903,-0.46885 -0.96463,-0.39034 -1.5277,-0.38361 -0.54849,0.008 -1.19119,0.21312 -1.16203,0.74702 0.0359,0.70553 0.74141,0.81769 1.37627,0.78404 0.65056,-0.0325 1.14409,-0.2692 1.31346,-1.14745 z"
     id="path5808"
     inkscape:connector-curvature="0" /><path
     style="fill:#cc5252"
     d="m 614.22121,193.67044 c -0.90742,-0.63822 -1.63089,-1.17549 -2.65272,-0.99603 0.74366,0.48904 1.33702,1.33702 2.65272,0.99603 z"
     id="path5806"
     inkscape:connector-curvature="0" /><path
     style="fill:#cc5252"
     d="m 616.43647,196.22333 c -0.0572,-0.45764 -0.21984,-0.72683 -0.61915,-0.69543 -0.0931,0.0101 -0.2277,0.24004 -0.24116,0.37912 -0.0404,0.37015 0.16377,0.64944 0.51821,0.7044 0.10431,0.0146 0.25686,-0.28602 0.3421,-0.38809 z"
     id="path5804"
     inkscape:connector-curvature="0" /><path
     style="fill:#cc5252"
     d="m 568.20533,268.89985 c 0.0875,-0.32079 0.18283,-0.59672 0.22433,-0.87938 0.008,-0.0572 -0.18058,-0.14133 -0.27929,-0.21423 -0.14581,0.27592 -0.29724,0.55185 -0.42623,0.83675 -0.003,0.009 0.22658,0.12002 0.48119,0.25686 z"
     id="path5253"
     inkscape:connector-curvature="0" /></svg>