<?xml version="1.0" encoding="UTF-8" standalone="no"?>
<svg
   xmlns:dc="http://purl.org/dc/elements/1.1/"
   xmlns:cc="http://creativecommons.org/ns#"
   xmlns:rdf="http://www.w3.org/1999/02/22-rdf-syntax-ns#"
   xmlns:svg="http://www.w3.org/2000/svg"
   xmlns="http://www.w3.org/2000/svg"
   xmlns:xlink="http://www.w3.org/1999/xlink"
   xmlns:sodipodi="http://sodipodi.sourceforge.net/DTD/sodipodi-0.dtd"
   xmlns:inkscape="http://www.inkscape.org/namespaces/inkscape"
   version="1.1"
   x="0"
   y="0"
   width="1000"
   height="1000"
   viewBox="0 0 1000 1000"
   xml:space="preserve"
   id="svg7396"
   inkscape:version="0.91 r"
   sodipodi:docname="duoIcons.svg"><metadata
     id="metadata8016"><rdf:RDF><cc:Work
         rdf:about=""><dc:format>image/svg+xml</dc:format><dc:type
           rdf:resource="http://purl.org/dc/dcmitype/StillImage" /></cc:Work></rdf:RDF></metadata><defs
     id="defs8014" /><sodipodi:namedview
     pagecolor="#ffffff"
     bordercolor="#666666"
     borderopacity="1"
     objecttolerance="10"
     gridtolerance="10"
     guidetolerance="10"
     inkscape:pageopacity="0"
     inkscape:pageshadow="2"
     inkscape:window-width="1312"
     inkscape:window-height="670"
     id="namedview8012"
     showgrid="false"
     inkscape:zoom="0.472"
     inkscape:cx="-125"
     inkscape:cy="500"
     inkscape:window-x="0"
     inkscape:window-y="0"
     inkscape:window-maximized="0"
     inkscape:current-layer="svg7396" /><g
     id="g7400"><circle
       style="fill:#faa919"
       id="circle7402"
       r="14.9"
       cy="54.900002"
       cx="14.9" /><path
       style="fill:#ffc10d"
       inkscape:connector-curvature="0"
       id="path7404"
       d="m 25.5,49.4 -16.4,16 c 1.4,0.8 3.1,1.3 4.8,1.4 l 13,-12.6 C 26.8,52.5 26.3,50.8 25.5,49.4 Z M 16.8,43 3,56.5 c 0.4,2.7 1.7,5.2 3.6,7 L 23.8,46.8 c -1.8,-2 -4.2,-3.3 -7,-3.8 z" /></g><g
     id="g7406"><path
       style="fill:#ff6c00"
       inkscape:connector-curvature="0"
       id="path7408"
       d="m 41.6,68.9 c -5.7,0 -10.4,-4.7 -10.4,-10.4 0,-3.1 1.3,-5.9 3.7,-7.9 0.2,-0.1 0.7,-0.6 0.6,-1.1 0,-0.4 0.2,-0.8 0.6,-1 0.1,-0.1 0.3,-0.1 0.4,-0.1 0.3,0 0.5,0.1 0.7,0.3 0.2,0.2 0.7,0.7 0.7,2.1 0,0.2 0,0.5 -0.1,0.7 -0.1,0.4 -0.1,0.7 -0.3,1.2 -0.1,0.2 -0.1,0.3 -0.2,0.5 -0.1,0.2 -0.1,0.3 -0.2,0.5 0,0.2 -0.1,0.4 0,0.6 0,0.2 0.2,0.4 0.4,0.7 0.2,0.2 0.5,0.3 0.8,0.3 0.1,0 0.3,0 0.4,-0.1 1,-0.3 0.9,-1.8 0.7,-2.6 -0.1,-0.5 -0.3,-1 -0.5,-1.6 -0.3,-0.8 -0.6,-1.7 -0.6,-2.7 0,-0.6 0.1,-1.2 0.2,-1.8 0.2,-0.8 0.5,-1.6 1,-2.3 0.3,-0.5 0.7,-0.9 1,-1.2 l 0.3,-0.3 c 0.2,-0.2 0.5,-0.4 0.8,-0.5 l 0.2,0 c 0.2,0 0.5,0.1 0.6,0.2 0.2,0.2 0.4,0.5 0.4,0.8 0,0.1 0,0.3 -0.1,0.4 -0.5,1.7 1.1,3.2 2.3,4.1 2.6,1.8 4.1,3.8 5,5 1.2,1.7 1.8,3.7 1.8,5.8 0.2,5.7 -4.5,10.4 -10.2,10.4 z" /><path
       style="fill:#ffffff"
       inkscape:connector-curvature="0"
       id="path7410"
       d="m 42,43 0,0.2 c -0.8,2.6 1.8,4.6 2.7,5.2 2.5,1.8 3.9,3.6 4.7,4.8 1.1,1.6 1.6,3.4 1.6,5.3 0,5.2 -4.2,9.4 -9.4,9.4 -5.2,0 -9.4,-4.2 -9.4,-9.4 0,-2.8 1.2,-5.4 3.3,-7.2 0.4,-0.3 1,-1 1,-1.9 l 0.1,0 c 0,0 0.4,0.3 0.4,1.3 l 0,0.6 c 0,0.3 -0.1,0.6 -0.2,1 0,0.2 -0.1,0.3 -0.2,0.4 -0.1,0.2 -0.2,0.4 -0.2,0.6 -0.1,0.3 -0.1,0.6 -0.1,0.9 0.1,0.5 0.3,0.9 0.8,1.3 0.4,0.3 0.9,0.5 1.4,0.5 0.2,0 0.5,0 0.8,-0.1 0.7,-0.2 1.8,-1.1 1.4,-3.7 -0.1,-0.6 -0.3,-1.2 -0.5,-1.8 -0.3,-0.8 -0.5,-1.5 -0.5,-2.4 0,-0.5 0.1,-1.1 0.2,-1.6 0.2,-0.7 0.5,-1.4 0.9,-2 0.3,-0.4 0.6,-0.8 0.9,-1.1 L 42,43 c -0.2,0.1 -0.1,0 0,0 m 0,-2 -0.4,0 c -0.5,0.1 -0.9,0.4 -1.3,0.8 L 40,42.1 c -0.4,0.4 -0.8,0.8 -1.1,1.4 -0.5,0.8 -0.9,1.7 -1.1,2.7 -0.1,0.5 -0.2,1 -0.2,1.6 -0.3,-0.2 -0.7,-0.3 -1,-0.3 -0.3,0 -0.6,0.1 -0.8,0.2 -0.7,0.3 -1.2,1.1 -1.2,1.8 0,0.1 -0.1,0.2 -0.3,0.3 -2.6,2.2 -4,5.3 -4,8.7 0,6.3 5.1,11.4 11.4,11.4 6.3,0 11.4,-5.1 11.4,-11.4 0,-2.3 -0.7,-4.5 -1.9,-6.4 C 50.3,50.8 48.7,48.8 46,46.8 44.4,45.6 43.8,44.6 44.1,43.7 44.2,43.5 44.2,43.3 44.2,43 44.2,42.4 44,41.8 43.5,41.4 42.9,41.2 42.5,41 42,41 Z m -3.8,13 0,-0.1 c 0,-0.1 0.1,-0.2 0.1,-0.3 0.1,-0.2 0.2,-0.4 0.2,-0.6 l 0,-0.1 c 0.1,0.9 0,1.2 -0.1,1.3 l -0.2,0 0,-0.2 z" /></g><g
     id="g7412"><path
       style="fill:#ff6c00"
       inkscape:connector-curvature="0"
       id="path7414"
       d="m 367.1,49.4 c 0.1,-0.1 0.1,-0.3 0.2,-0.4 0.1,-0.3 0.2,-0.7 0.2,-1 l 0,-0.6 c 0,-0.9 -0.3,-1.2 -0.4,-1.2 l -0.1,0 c 0,0.8 -0.6,1.5 -0.9,1.8 -2,1.7 -3.2,4.2 -3.2,6.8 0,5 4,9 9,9 5,0 9,-4 9,-9 0,-1.8 -0.5,-3.5 -1.5,-5 -0.8,-1.2 -2.2,-2.9 -4.5,-4.6 -0.8,-0.6 -3.3,-2.5 -2.6,-5 l 0,-0.2 c -0.1,0 -0.2,0.1 -0.2,0.2 l -0.3,0.3 c -0.3,0.3 -0.6,0.7 -0.9,1.1 -0.4,0.6 -0.7,1.2 -0.8,1.9 -0.1,0.5 -0.2,1 -0.2,1.5 0,0.8 0.2,1.5 0.5,2.3 0.2,0.6 0.4,1.1 0.5,1.7 0.4,2.5 -0.6,3.3 -1.3,3.5 -0.2,0.1 -0.5,0.1 -0.7,0.1 -0.5,0 -1,-0.2 -1.4,-0.5 -0.4,-0.4 -0.7,-0.8 -0.7,-1.2 0,-0.3 0,-0.6 0.1,-0.9 0.1,-0.3 0.1,-0.4 0.2,-0.6 z" /></g><g
     id="g7416"><path
       style="fill:#ffa200"
       inkscape:connector-curvature="0"
       id="path7418"
       d="m 646.5,68.1 c -5.6,0 -10.2,-4.6 -10.2,-10.2 0,-3 1.3,-5.8 3.6,-7.8 0.3,-0.3 0.5,-0.6 0.5,-0.8 0,-0.5 0.3,-1 0.7,-1.2 0.2,-0.1 0.3,-0.1 0.5,-0.1 0.3,0 0.6,0.1 0.9,0.3 0.2,0.2 0.8,0.8 0.8,2.2 0,0.2 0,0.5 -0.1,0.7 0,0.4 -0.1,0.7 -0.3,1.1 -0.1,0.2 -0.1,0.4 -0.2,0.5 -0.1,0.1 -0.1,0.3 -0.2,0.4 l 0,0.4 c 0,0.2 0.2,0.4 0.3,0.4 0.1,0.1 0.3,0.2 0.5,0.2 0.1,0 0.2,0 0.3,-0.1 0.7,-0.2 0.6,-1.4 0.5,-2.1 -0.1,-0.5 -0.2,-1 -0.4,-1.5 -0.3,-0.8 -0.6,-1.7 -0.6,-2.6 0,-0.6 0.1,-1.2 0.2,-1.8 0.2,-0.8 0.5,-1.6 1,-2.3 0.3,-0.5 0.7,-0.9 1,-1.2 l 0.3,-0.3 c 0.3,-0.3 0.6,-0.5 0.9,-0.5 l 0.3,0 c 0.3,0 0.6,0.1 0.8,0.3 0.3,0.2 0.5,0.6 0.5,1 0,0.2 0,0.3 -0.1,0.5 -0.4,1.5 1,2.8 2.1,3.6 2.5,1.8 4,3.6 4.8,4.9 1.1,1.7 1.7,3.6 1.7,5.7 0.1,5.7 -4.5,10.3 -10.1,10.3 z" /><path
       style="fill:#ffffff"
       inkscape:connector-curvature="0"
       id="path7420"
       d="m 646.9,43.1 0,0.2 c -0.7,2.5 1.7,4.3 2.5,5 2.3,1.7 3.7,3.4 4.5,4.6 1,1.5 1.5,3.2 1.5,5 0,4.9 -4,9 -9,9 -4.9,0 -9,-4 -9,-9 0,-2.6 1.1,-5.1 3.2,-6.8 0.4,-0.3 1,-1 0.9,-1.8 l 0.1,0 c 0,0 0.4,0.3 0.4,1.2 l 0,0.6 c 0,0.3 -0.1,0.6 -0.2,1 0,0.1 -0.1,0.3 -0.2,0.4 -0.1,0.2 -0.1,0.4 -0.2,0.6 -0.1,0.3 -0.1,0.6 0,0.9 0.1,0.4 0.3,0.9 0.7,1.2 0.4,0.3 0.8,0.5 1.3,0.5 0.2,0 0.5,0 0.7,-0.1 0.7,-0.2 1.7,-1 1.3,-3.5 -0.1,-0.6 -0.3,-1.1 -0.5,-1.7 -0.3,-0.8 -0.5,-1.5 -0.5,-2.2 0,-0.5 0.1,-1 0.2,-1.5 0.2,-0.7 0.4,-1.3 0.8,-1.9 0.3,-0.4 0.6,-0.7 0.9,-1.1 l 0.3,-0.3 c 0.1,-0.2 0.2,-0.3 0.3,-0.3 m 0,-2.5 c -0.2,0 -0.4,0 -0.5,0.1 -0.6,0.1 -1.1,0.4 -1.6,0.9 l -0.3,0.3 c -0.4,0.4 -0.8,0.8 -1.1,1.4 -0.5,0.8 -0.9,1.7 -1.2,2.7 -0.1,0.3 -0.1,0.5 -0.1,0.8 l -0.5,0 c -0.4,0 -0.7,0.1 -1.1,0.2 -0.8,0.4 -1.4,1.2 -1.4,2.1 l -0.1,0.1 c -2.6,2.2 -4,5.4 -4,8.7 0,6.3 5.1,11.5 11.5,11.5 6.3,0 11.5,-5.1 11.5,-11.5 0,-2.3 -0.7,-4.5 -2,-6.4 -0.9,-1.3 -2.5,-3.3 -5.1,-5.2 -1.5,-1.2 -1.7,-1.9 -1.6,-2.3 0.1,-0.3 0.1,-0.5 0.1,-0.8 0,-0.8 -0.3,-1.5 -0.9,-2 -0.4,-0.4 -1,-0.6 -1.6,-0.6 z" /></g><g
     id="g7422"><path
       style="fill:#e3e3e3"
       inkscape:connector-curvature="0"
       id="path7424"
       d="m 671.1,68.1 c -5.6,0 -10.2,-4.6 -10.2,-10.2 0,-3 1.3,-5.8 3.6,-7.8 0.3,-0.3 0.5,-0.6 0.5,-0.8 0,-0.5 0.3,-1 0.7,-1.2 0.2,-0.1 0.3,-0.1 0.5,-0.1 0.3,0 0.6,0.1 0.9,0.3 0.2,0.2 0.8,0.8 0.8,2.2 0,0.2 0,0.5 -0.1,0.7 0,0.4 -0.1,0.7 -0.2,1.1 -0.1,0.2 -0.1,0.4 -0.2,0.5 -0.1,0.1 -0.1,0.3 -0.2,0.4 l 0,0.4 c 0,0.2 0.2,0.4 0.3,0.5 0.1,0.1 0.3,0.2 0.5,0.2 0.1,0 0.2,0 0.3,-0.1 0.7,-0.2 0.6,-1.4 0.5,-2.1 -0.1,-0.5 -0.2,-1 -0.4,-1.5 -0.3,-0.8 -0.6,-1.7 -0.6,-2.6 0,-0.6 0.1,-1.2 0.2,-1.8 0.2,-0.8 0.5,-1.6 1,-2.3 0.3,-0.5 0.7,-0.9 1,-1.2 l 0.3,-0.3 c 0.2,-0.3 0.6,-0.5 0.9,-0.5 l 0.3,0 c 0.3,0 0.6,0.1 0.8,0.3 0.3,0.3 0.5,0.6 0.4,1 0,0.2 0,0.3 -0.1,0.5 -0.4,1.4 1,2.8 2.1,3.6 2.5,1.8 4,3.6 4.8,4.9 1.1,1.7 1.7,3.6 1.7,5.7 0.1,5.6 -4.5,10.2 -10.1,10.2 z" /><path
       style="fill:#ffffff"
       inkscape:connector-curvature="0"
       id="path7426"
       d="m 671.5,43.1 0,0.2 c -0.7,2.5 1.7,4.3 2.5,5 2.3,1.7 3.7,3.4 4.5,4.6 1,1.5 1.5,3.2 1.5,5 0,4.9 -4,9 -9,9 -4.9,0 -9,-4 -9,-9 0,-2.6 1.1,-5.1 3.2,-6.8 0.4,-0.3 1,-1 0.9,-1.8 l 0.1,0 c 0,0 0.4,0.3 0.4,1.2 l 0,0.6 c 0,0.3 -0.1,0.6 -0.2,1 0,0.1 -0.1,0.3 -0.2,0.4 -0.1,0.2 -0.1,0.4 -0.2,0.6 -0.1,0.3 -0.1,0.6 0,0.9 0.1,0.4 0.3,0.9 0.7,1.2 0.4,0.3 0.8,0.5 1.3,0.5 0.2,0 0.5,0 0.7,-0.1 0.7,-0.2 1.7,-1 1.3,-3.5 -0.1,-0.6 -0.3,-1.1 -0.5,-1.7 -0.3,-0.8 -0.5,-1.5 -0.5,-2.2 0,-0.5 0.1,-1 0.2,-1.5 0.2,-0.7 0.4,-1.3 0.8,-1.9 0.3,-0.4 0.6,-0.7 0.9,-1.1 l 0.3,-0.3 0.3,-0.3 m 0,-2.5 c -0.2,0 -0.4,0 -0.5,0.1 -0.6,0.1 -1.1,0.4 -1.6,0.9 l -0.3,0.3 c -0.4,0.4 -0.8,0.8 -1.1,1.4 -0.5,0.8 -0.9,1.7 -1.2,2.7 -0.1,0.3 -0.1,0.5 -0.1,0.8 l -0.5,0 c -0.4,0 -0.7,0.1 -1.1,0.2 -0.8,0.4 -1.4,1.2 -1.4,2.1 l -0.1,0.1 c -2.6,2.2 -4,5.4 -4,8.7 0,6.3 5.1,11.5 11.5,11.5 6.3,0 11.5,-5.1 11.5,-11.5 0,-2.3 -0.7,-4.5 -2,-6.4 -0.9,-1.3 -2.5,-3.3 -5.1,-5.2 -1.5,-1.2 -1.7,-1.9 -1.6,-2.3 0.1,-0.3 0.1,-0.5 0.1,-0.8 0,-0.8 -0.3,-1.5 -0.9,-2 -0.4,-0.4 -1,-0.6 -1.6,-0.6 z" /></g><g
     id="g7428"><path
       style="fill:#d33131"
       inkscape:connector-curvature="0"
       id="path7430"
       d="m 54.1,63.1 0,-15.2 9.5,-5.5 9.5,5.5 0,15.2 -9.5,5.5 z" /><g
       id="g7432"><path
         style="fill:#ffffff"
         inkscape:connector-curvature="0"
         id="path7434"
         d="m 63.6,43.6 8.5,4.9 0,14.1 -8.5,4.9 -8.5,-4.9 0,-14.1 8.5,-4.9 m 0,-2.3 -1,0.6 -8.5,4.9 -1,0.6 0,16.3 1,0.6 8.5,4.9 1,0.6 1,-0.6 8.5,-4.9 1,-0.6 0,-16.3 -1,-0.6 -8.5,-4.9 -1,-0.6 z" /></g></g><path
     style="fill:#f93d3d"
     inkscape:connector-curvature="0"
     id="path7436"
     d="m 63.6,43.6 -8.4,4.9 3.5,2.9 4.9,-1.6 z" /><path
     style="fill:#af2828"
     inkscape:connector-curvature="0"
     id="path7438"
     d="m 63.6,67.4 8.5,-4.9 -3.5,-2.9 -5,1.6 z" /><path
     style="fill:#e83838"
     inkscape:connector-curvature="0"
     id="path7440"
     d="m 63.6,48.6 4.9,2.8 0,8.2 -4.9,2.8 -4.9,-2.8 0,-8.2 z" /><g
     style="fill:#ffffff"
     id="g7442"><path
       inkscape:connector-curvature="0"
       id="path7444"
       d="m 59.3,53.7 c 0,0 -0.1,0 0,0 -0.5,-1.2 -1.4,-2.1 -2.5,-2.5 l 0,-0.1 0,-0.1 c 1.1,-0.5 2,-1.4 2.4,-2.5 l 0.2,0 c 0.4,1.1 1.3,2 2.4,2.5 l 0,0.2 c -1.1,0.5 -2,1.4 -2.5,2.5 z" /><path
       inkscape:connector-curvature="0"
       id="path7446"
       d="m 59.3,48.6 c 0.5,1.1 1.3,2 2.5,2.5 -1.1,0.5 -2,1.4 -2.5,2.5 -0.5,-1.1 -1.3,-2 -2.5,-2.5 1.1,-0.4 2,-1.4 2.5,-2.5 m 0,-0.1 c -0.1,0 -0.1,0 -0.1,0.1 -0.4,1.1 -1.3,2 -2.4,2.4 -0.1,0 -0.1,0.1 -0.1,0.1 0,0 0,0.1 0.1,0.1 1.1,0.5 2,1.3 2.4,2.4 0,0.1 0.1,0.1 0.1,0.1 0,0 0.1,0 0.1,-0.1 0.4,-1.1 1.3,-2 2.4,-2.4 0.1,0 0.1,-0.1 0.1,-0.1 0,0 0,-0.1 -0.1,-0.1 -1.1,-0.5 -2,-1.3 -2.4,-2.4 0,-0.1 -0.1,-0.1 -0.1,-0.1 z" /></g><path
     style="opacity:0.3;fill:#f77f7f"
     inkscape:connector-curvature="0"
     id="path7448"
     d="m 65.5,49.7 -6.8,6.8 0,3.1 0.8,0.5 8.8,-8.8 z m -3.6,11.7 6.6,-6.6 0,-2.1 -8,8 z" /><g
     id="g7450"><g
       id="g7452"><path
         style="fill:#d33131"
         inkscape:connector-curvature="0"
         id="path7454"
         d="m 106.6,140 26.3,15.2 0,43.8 -26.3,15.2 -26.4,-15.2 0,-43.8 z" /></g><path
       style="fill:#f93d3d"
       inkscape:connector-curvature="0"
       id="path7456"
       d="m 106.6,140 -26.3,15.2 11,9.2 15.3,-5 z" /><path
       style="fill:#af2828"
       inkscape:connector-curvature="0"
       id="path7458"
       d="m 106.6,214.1 26.3,-15.2 -11,-9.2 -15.3,5 z" /><path
       style="fill:#e83838"
       inkscape:connector-curvature="0"
       id="path7460"
       d="m 106.6,155.6 15.3,8.8 0,25.4 -15.3,8.8 -15.3,-8.8 0,-25.4 z" /><g
       style="fill:#ffffff"
       id="g7462"><path
         inkscape:connector-curvature="0"
         id="path7464"
         d="m 93.1,169.8 c -0.1,0 -0.1,0 -0.2,-0.1 -1.1,-2.7 -3.3,-4.9 -5.9,-6 -0.1,0 -0.1,-0.1 -0.1,-0.2 0,-0.1 0,-0.1 0.1,-0.2 2.7,-1.1 4.9,-3.3 5.9,-6 0,-0.1 0.1,-0.1 0.2,-0.1 0.1,0 0.1,0 0.2,0.1 1.1,2.7 3.2,4.9 5.9,6 0.1,0 0.1,0.1 0.1,0.2 0,0.1 0,0.1 -0.1,0.2 -2.7,1.1 -4.9,3.3 -5.9,6 -0.1,0.1 -0.1,0.1 -0.2,0.1 z" /><path
         inkscape:connector-curvature="0"
         id="path7466"
         d="m 93.1,157.3 c 1.1,2.8 3.3,5 6,6.1 -2.7,1.2 -4.9,3.4 -6,6.1 -1.1,-2.8 -3.3,-5 -6,-6.1 2.7,-1.1 4.9,-3.3 6,-6.1 m 0,-0.3 c -0.1,0 -0.3,0.1 -0.3,0.2 -1.1,2.7 -3.2,4.8 -5.8,5.9 -0.1,0.1 -0.2,0.2 -0.2,0.3 0,0.1 0.1,0.3 0.2,0.3 2.6,1.1 4.8,3.3 5.8,5.9 0.1,0.1 0.2,0.2 0.3,0.2 0.1,0 0.3,-0.1 0.3,-0.2 1.1,-2.7 3.2,-4.8 5.8,-5.9 0.1,-0.1 0.2,-0.2 0.2,-0.3 0,-0.1 -0.1,-0.3 -0.2,-0.3 -2.6,-1.1 -4.8,-3.3 -5.8,-5.9 0,-0.1 -0.1,-0.2 -0.3,-0.2 z" /></g><path
       style="opacity:0.3;fill:#f77f7f"
       inkscape:connector-curvature="0"
       id="path7468"
       d="m 112.4,159 -21.1,21.1 0,9.7 2.6,1.4 27.2,-27.2 z m -11.1,36.5 20.6,-20.5 0,-6.8 -24.9,24.9 z" /></g><path
     style="fill:#ffffff"
     inkscape:connector-curvature="0"
     id="path7470"
     d="m 37.5,52.6 2,0 0,2.4 -2,0 z" /><g
     id="g7472"><path
       style="fill:#e02804"
       inkscape:connector-curvature="0"
       id="path7474"
       d="m 87.2,60 c -0.1,0 -0.2,0 -0.3,-0.1 -0.1,0 -0.2,-0.1 -0.3,-0.1 -5.4,-3.9 -8,-6.1 -9.6,-7.9 -1.7,-2 -2.1,-3.6 -2.1,-5.7 l 0,-0.1 c 0,-3.5 3,-6.3 6.8,-6.3 2.2,0 4.2,1 5.5,2.6 1.3,-1.6 3.3,-2.6 5.5,-2.6 3.7,0 6.8,2.8 6.8,6.3 l 0,0.1 c 0,2.1 -0.4,3.6 -2.1,5.7 -1.5,1.8 -4.1,3.9 -9.6,7.9 -0.1,0.1 -0.1,0.1 -0.2,0.1 C 87.5,60 87.4,60 87.2,60 Z" /></g><g
     id="g7476"><path
       style="fill:#e3e3e3"
       inkscape:connector-curvature="0"
       id="path7478"
       d="m 138.5,60 c -0.1,0 -0.2,0 -0.3,-0.1 -0.1,0 -0.2,-0.1 -0.3,-0.1 -5.6,-3.9 -8.2,-6.1 -9.8,-7.9 -1.8,-2 -2.1,-3.6 -2.1,-5.7 l 0,-0.1 c 0,-3.5 3.1,-6.3 6.9,-6.3 2.2,0 4.3,1 5.6,2.6 1.3,-1.6 3.4,-2.6 5.6,-2.6 3.8,0 6.9,2.8 6.9,6.3 l 0,0.1 c 0,2.1 -0.4,3.6 -2.1,5.7 -1.6,1.8 -4.2,3.9 -9.8,7.9 -0.1,0.1 -0.1,0.1 -0.2,0.1 -0.2,0.1 -0.3,0.1 -0.4,0.1 z" /></g><g
     id="g7480"><path
       style="fill:#e3e3e3"
       inkscape:connector-curvature="0"
       id="path7482"
       d="m 138.2,60 c -0.1,0 -0.2,0 -0.3,-0.1 -0.1,0 -0.2,-0.1 -0.3,-0.1 -5.4,-3.9 -8,-6.1 -9.6,-7.9 -1.7,-2 -2.1,-3.6 -2.1,-5.7 l 0,-0.1 c 0,-3.5 3,-6.3 6.8,-6.3 2.2,0 4.2,1 5.5,2.6 1.3,-1.6 3.3,-2.6 5.5,-2.6 3.7,0 6.8,2.8 6.8,6.3 l 0,0.1 c 0,2.1 -0.4,3.6 -2.1,5.7 -1.5,1.8 -4.1,3.9 -9.6,7.9 -0.1,0.1 -0.1,0.1 -0.2,0.1 -0.1,0.1 -0.2,0.1 -0.4,0.1 z" /></g><g
     id="g7484"><path
       style="fill:#ec0000"
       inkscape:connector-curvature="0"
       id="path7486"
       d="m 409.1,62.4 -0.3,0 c -0.1,0 -0.2,-0.1 -0.2,-0.1 -4.7,-3.4 -7,-5.2 -8.3,-6.7 -1.5,-1.7 -1.8,-3.1 -1.8,-4.9 l 0,-0.1 c 0,-3 2.6,-5.4 5.9,-5.4 1.9,0 3.7,0.9 4.8,2.2 1.1,-1.4 2.9,-2.2 4.8,-2.2 3.2,0 5.9,2.4 5.9,5.4 l 0,0.1 c 0,1.8 -0.3,3.1 -1.8,4.9 -1.3,1.5 -3.6,3.4 -8.4,6.7 -0.1,0 -0.1,0.1 -0.2,0.1 l -0.4,0 z" /></g><g
     style="fill:#353535"
     id="g7488"><path
       inkscape:connector-curvature="0"
       id="path7490"
       d="m 115.1,52.9 c 0.3,-0.3 0.9,-0.4 1.2,-0.1 l 7.6,-7.6 c 0.8,-0.8 0.8,-2 0,-2.8 l -1.2,-1.2 c -0.8,-0.8 -2,-0.8 -2.8,0 l -7.4,7.4 c 0.2,0.4 0.2,0.8 -0.1,1.1 -0.3,0.3 -0.8,0.4 -1.1,0.1 l -0.9,0.9 c -0.7,0.7 -0.8,1.9 -0.1,2.7 l -6,6 -0.7,-0.7 -2.8,3.7 1.7,1.7 3.7,-2.8 -0.8,-0.8 6,-6 0.2,0.2 c 0.8,0.8 2,0.8 2.8,0 l 0.6,-0.6 c -0.2,-0.4 -0.2,-0.9 0.1,-1.2 z m 2.5,1 -2.8,2.8 6.5,7 3.4,-3.2 -7.1,-6.6 z m 3.8,7.7 c -0.7,0 -1.2,-0.6 -1.2,-1.2 0,-0.7 0.6,-1.2 1.2,-1.2 0.6,0 1.2,0.6 1.2,1.2 0.1,0.7 -0.5,1.2 -1.2,1.2 z M 107,51.4 l 5.1,-5.2 -2.3,-5 -3.7,-1.2 -0.6,1.4 2.1,2 0.3,1.7 -1.8,1.8 -1.8,-0.2 -1.8,-2.3 -1.3,0.4 0.8,4.2 z" /></g><path
     style="fill:#ffffff"
     inkscape:connector-curvature="0"
     id="path7492"
     d="m 182.9,45.4 c -3.9,0 -3.3,4.8 -6.2,4.5 -1.8,-4.6 -6.4,-7 -10.4,-7 -5.1,0 -9.7,4.4 -10.5,9.3 -1.5,-0.3 -2,-1.8 -2.7,-1.8 -1.5,0 0.3,3.9 4.1,6.7 0.3,0.3 0.6,0.5 1,0.7 -0.3,1.1 -0.9,2 -1,3.1 -0.1,1.4 0.4,1.9 1.4,2 1,0.1 2.2,-0.4 2.3,-3.1 0,-0.3 0.1,-0.5 0.1,-0.8 2.3,0.7 4.6,0.9 5.1,0.9 0.5,0 2.9,0.1 5.4,-0.4 0.1,0.8 0,1.7 0.4,2.4 0.5,1.3 1.2,1.5 2.2,1.1 0.9,-0.4 1.8,-1.3 0.7,-3.8 -0.1,-0.3 -0.2,-0.5 -0.3,-0.7 1.8,-0.9 3.1,-2.3 3.1,-4.5 0,-0.8 -0.1,-1.6 -0.2,-2.3 1.3,0.3 2,1.4 4.9,1.4 3.2,0 4.4,-2.2 4.6,-3.6 -0.1,-1 0,-4.1 -4,-4.1 z" /><path
     style="fill:none;stroke:#ffffff;stroke-width:2.5;stroke-linecap:round;stroke-linejoin:round;stroke-miterlimit:10"
     inkscape:connector-curvature="0"
     id="path7494"
     d="m 190.8,45.2 c 0,0 1.7,4.1 -0.1,8 M 196,42 c 0,0 3.1,7.5 -0.2,14.5"
     stroke-miterlimit="10" /><circle
     style="fill:#1cb0f6"
     id="circle7496"
     r="14.9"
     cy="55"
     cx="215.2" /><path
     style="fill:#ffffff"
     inkscape:connector-curvature="0"
     id="path7498"
     d="m 218.4,48 -1.5,1.6 1.1,0.8 -1.7,4 0.7,-3.4 -1.5,-1.1 1.5,-3 c -0.6,-0.4 -1.3,-0.6 -1.9,-0.6 -3.7,0 -6.7,6.4 -6.7,10.2 0,3.7 3,6.5 6.7,6.5 3.7,0 6.7,-2.8 6.7,-6.5 0.1,-2.6 -1.3,-6.4 -3.4,-8.5 z" /><path
     style="opacity:0.25;fill:#36c5f2"
     inkscape:connector-curvature="0"
     id="path7500"
     d="m 221.5,53.6 c -0.5,4 -3.9,6.9 -8.1,6.9 -1.5,0 -2.9,-0.4 -4.2,-1.1 1.1,2.1 3.4,3.5 6,3.5 3.7,0 6.7,-2.8 6.7,-6.5 0,-0.8 -0.2,-1.8 -0.4,-2.8 z" /><g
     id="g7502"><path
       style="fill:#d33131"
       inkscape:connector-curvature="0"
       id="path7504"
       d="m 241.7,61.2 c -5.6,0 -10.1,-4.5 -10.1,-10.1 0,-5.6 4.5,-10.1 10.1,-10.1 5.6,0 10.1,4.5 10.1,10.1 0,5.6 -4.5,10.1 -10.1,10.1 z" /><path
       style="fill:#ffffff"
       inkscape:connector-curvature="0"
       id="path7506"
       d="m 241.7,42 c 5,0 9.1,4.1 9.1,9.1 0,5 -4.1,9.1 -9.1,9.1 -5,0 -9.1,-4.1 -9.1,-9.1 0,-5 4.1,-9.1 9.1,-9.1 m 0,-2 c -6.1,0 -11.1,5 -11.1,11.1 0,6.1 5,11.1 11.1,11.1 6.1,0 11.1,-5 11.1,-11.1 0,-6.1 -5,-11.1 -11.1,-11.1 z" /></g><path
     style="fill:#ffffff"
     inkscape:connector-curvature="0"
     id="path7508"
     d="m 278.7,52.7 -0.4,-2.3 3.1,-0.5 8.7,0.3 3.5,0.2 0.2,2.2 -2.5,4.8 -4.6,1.5 -5.2,-1.9 -2.4,-2.1 z" /><circle
     style="fill:#ffffff"
     id="circle7510"
     r="1.3"
     cy="48.900002"
     cx="245.89999" /><circle
     style="fill:#ffffff"
     id="circle7512"
     r="1.3"
     cy="48.900002"
     cx="237.5" /><path
     style="fill:#ffffff"
     inkscape:connector-curvature="0"
     id="path7514"
     d="m 236.8,55.9 c 0,-2.7 2.2,-4.8 4.8,-4.8 2.7,0 4.8,2.2 4.8,4.8" /><g
     id="g7516"><path
       style="fill:#7ac70c"
       inkscape:connector-curvature="0"
       id="path7518"
       d="m 286.4,61.2 c -5.5,0 -10.1,-4.5 -10.1,-10.1 0,-5.6 4.6,-10.1 10.1,-10.1 5.5,0 10.1,4.5 10.1,10.1 0,5.6 -4.6,10.1 -10.1,10.1 z m -5.6,-9.3 c 0.5,2.7 2.8,4.7 5.6,4.7 2.8,0 5.1,-2 5.6,-4.7 l -11.2,0 z" /><path
       style="fill:#ffffff"
       inkscape:connector-curvature="0"
       id="path7520"
       d="m 286.4,42 c 5,0 9.1,4.1 9.1,9.1 0,5 -4.1,9.1 -9.1,9.1 -5,0 -9.1,-4.1 -9.1,-9.1 0,-5 4.1,-9.1 9.1,-9.1 m 0,15.6 c 3.7,0 6.7,-3 6.7,-6.7 l -13.4,0 c 0.1,3.7 3,6.7 6.7,6.7 m 0,-17.6 c -6.1,0 -11.1,5 -11.1,11.1 0,6.1 5,11.1 11.1,11.1 6.1,0 11.1,-5 11.1,-11.1 0,-6.1 -5,-11.1 -11.1,-11.1 z m -4.2,12.9 8.5,0 c -0.8,1.6 -2.4,2.7 -4.2,2.7 -1.8,0 -3.5,-1.1 -4.3,-2.7 z" /></g><circle
     style="fill:#ffffff"
     id="circle7522"
     r="1.3"
     cy="47.900002"
     cx="290.70001" /><circle
     style="fill:#ffffff"
     id="circle7524"
     r="1.3"
     cy="47.900002"
     cx="282.20001" /><path
     style="fill:#ffb103"
     inkscape:connector-curvature="0"
     id="path7526"
     d="m 264.1,42 c -5.1,0 -9.1,4.1 -9.1,9.1 0,5 4.1,9.1 9.1,9.1 5.1,0 9.1,-4.1 9.1,-9.1 0,-5 -4.1,-9.1 -9.1,-9.1 z m 5.1,12.6 -10.1,0 c -0.5,0 -1,-0.4 -1,-1 0,-0.5 0.4,-1 1,-1 l 10.1,0 c 0.5,0 1,0.4 1,1 0,0.6 -0.5,1 -1,1 z" /><g
     id="g7528"><path
       style="fill:#ffb103"
       inkscape:connector-curvature="0"
       id="path7530"
       d="m 264.1,61.3 c -5.6,0 -10.1,-4.6 -10.1,-10.1 0,-5.6 4.6,-10.1 10.1,-10.1 5.5,0 10.1,4.6 10.1,10.1 0,5.5 -4.5,10.1 -10.1,10.1 z" /><path
       style="fill:#ffffff"
       inkscape:connector-curvature="0"
       id="path7532"
       d="m 264.1,42 c 5.1,0 9.1,4.1 9.1,9.1 0,5.1 -4.1,9.1 -9.1,9.1 -5.1,0 -9.1,-4.1 -9.1,-9.1 -0.1,-5 4,-9.1 9.1,-9.1 m 0,-2 C 258,40 253,45 253,51.1 c 0,6.1 5,11.1 11.1,11.1 6.1,0 11.1,-5 11.1,-11.1 0,-6.1 -5,-11.1 -11.1,-11.1 z" /></g><circle
     style="fill:#ffffff"
     id="circle7534"
     r="1.3"
     cy="48.799999"
     cx="268.29999" /><circle
     style="fill:#ffffff"
     id="circle7536"
     r="1.3"
     cy="48.799999"
     cx="259.79999" /><path
     style="fill:#ffffff"
     inkscape:connector-curvature="0"
     id="path7538"
     d="m 270.2,53.6 c 0,0.5 -0.4,1 -1,1 l -10.1,0 c -0.5,0 -1,-0.4 -1,-1 0,-0.5 0.4,-1 1,-1 l 10.1,0 c 0.5,0 1,0.5 1,1 z" /><path
     style="fill:#00adf8"
     inkscape:connector-curvature="0"
     id="path7540"
     d="m 310.8,49.2 -8.3,-8.3 c -0.9,-0.9 -2.5,-0.9 -3.4,0 -0.9,0.9 -0.9,2.5 0,3.4 l 6.6,6.6 -6.6,6.6 c -0.9,0.9 -0.9,2.5 0,3.4 0.9,0.9 2.5,0.9 3.4,0 l 8.3,-8.3 c 0.5,-0.5 0.7,-1.1 0.7,-1.7 0,-0.6 -0.2,-1.3 -0.7,-1.7 z" /><g
     id="g7542"><path
       style="fill:#ffffff"
       inkscape:connector-curvature="0"
       id="path7544"
       d="m 339.9,49 -27.1,0 3.7,-9 19.9,0 z" /><path
       style="fill:#7a3922"
       inkscape:connector-curvature="0"
       id="path7546"
       d="m 315,59 23,0 0,5 -23,0 z" /><path
       style="fill:#7a3922"
       inkscape:connector-curvature="0"
       id="path7548"
       d="m 315,50 3,0 0,10 -3,0 z m 20,0 3,0 0,10 -3,0 z" /><path
       style="fill:#472213"
       inkscape:connector-curvature="0"
       id="path7550"
       d="m 337.5,60 -22.4,0 1.6,-4 19.2,0 z" /><path
       style="fill:#b71515"
       inkscape:connector-curvature="0"
       id="path7552"
       d="m 312.8,49 5.3,0 2.5,-9 -4.2,0 z m 27.1,0 -5.3,0 -2.5,-9 4.4,0 z m -16.2,0 5.4,0 -0.5,-9 -4.4,0 z m -5.6,0.2 c 0,1.5 -1.2,2.6 -2.6,2.6 -1.4,0 -2.6,-1.2 -2.6,-2.6 m 16.2,0 c 0,1.5 -1.2,2.7 -2.7,2.7 -1.5,0 -2.7,-1.2 -2.7,-2.7 m 16.2,0 c 0,1.5 -1.2,2.6 -2.6,2.6 -1.5,0 -2.6,-1.2 -2.6,-2.6" /><path
       style="fill:#e5e5e5"
       inkscape:connector-curvature="0"
       id="path7554"
       d="m 334.6,49.2 c 0,1.5 -1.2,2.8 -2.8,2.8 -1.5,0 -2.8,-1.2 -2.8,-2.8 m -5.4,0 c 0,1.5 -1.2,2.8 -2.8,2.8 -1.5,0 -2.8,-1.2 -2.8,-2.8" /></g><g
     id="g7556"><path
       style="fill:#ffc10d"
       inkscape:connector-curvature="0"
       id="path7558"
       d="m 351.1,65.1 c -1.8,0 -3.3,-1.3 -3.5,-3 l -5.6,0 c -0.4,0 -0.7,-0.2 -0.9,-0.5 -0.2,-0.3 -0.1,-0.7 0.1,-1 l 2.4,-3.4 0,-6.7 0,-0.2 c 0.1,-2.8 1.7,-5.3 4.2,-6.5 0.2,-1.5 1.6,-2.7 3.1,-2.7 1.6,0 2.9,1.1 3.1,2.6 2.6,1.2 4.3,3.7 4.4,6.6 l 0,7 2.1,3.4 c 0.2,0.3 0.2,0.7 0,1 -0.2,0.3 -0.5,0.5 -0.9,0.5 l -5.2,0 c 0,1.6 -1.5,2.9 -3.3,2.9 z" /><path
       style="fill:#ffffff"
       inkscape:connector-curvature="0"
       id="path7560"
       d="m 351,42 c 1.2,0 2.2,1 2.2,2.2 l 0,0.1 c 2.5,0.9 4.3,3.3 4.3,6.1 l 0,7 2.3,3.6 -6.2,0 0,0.5 c 0,1.4 -1.1,2.6 -2.6,2.6 -1.5,0 -2.6,-1.1 -2.6,-2.6 l 0,-0.5 -6.5,0 2.5,-3.6 0,-7 c 0,-2.8 1.8,-5.1 4.2,-6 l 0,-0.2 C 348.8,43 349.8,42 351,42 m 0,-2 c -1.9,0 -3.5,1.3 -4,3 -2.6,1.4 -4.2,4.1 -4.4,7.1 l 0,6.7 -2.2,3.2 c -0.4,0.6 -0.5,1.4 -0.1,2.1 0.3,0.7 1,1.1 1.8,1.1 l 4.7,0 c 0.6,1.8 2.3,3 4.3,3 2,0 3.7,-1.3 4.3,-3 l 4.4,0 c 0.7,0 1.4,-0.4 1.8,-1 0.4,-0.6 0.3,-1.4 -0.1,-2 l -2,-3.1 0,-6.5 0,-0.3 c -0.1,-3 -1.9,-5.7 -4.5,-7.1 -0.5,-2 -2.1,-3.2 -4,-3.2 z" /></g><g
     id="g7562"><path
       style="fill:#79a100"
       inkscape:connector-curvature="0"
       id="path7564"
       d="m 389.5,64.2 c -0.6,0 -1.2,-0.2 -1.6,-0.7 l -2.6,-2.6 c -0.4,-0.4 -0.7,-1 -0.7,-1.6 0,-0.6 0.2,-1.2 0.7,-1.6 0.5,-0.4 1,-0.7 1.6,-0.7 0.6,0 1.2,0.2 1.6,0.7 l 1,1 4,-4 c 0.4,-0.4 1,-0.7 1.6,-0.7 0.6,0 1.2,0.2 1.6,0.7 0.4,0.4 0.7,1 0.7,1.6 0,0.6 -0.2,1.2 -0.7,1.6 l -5.6,5.6 c -0.3,0.4 -0.9,0.7 -1.6,0.7 z" /><path
       style="fill:#ffffff"
       inkscape:connector-curvature="0"
       id="path7566"
       d="m 395.2,54.9 c 0.3,0 0.7,0.1 0.9,0.4 0.5,0.5 0.5,1.4 0,1.9 l -5.6,5.6 c -0.3,0.3 -0.6,0.4 -0.9,0.4 -0.3,0 -0.7,-0.1 -0.9,-0.4 l -2.6,-2.6 c -0.5,-0.5 -0.5,-1.4 0,-1.9 0.3,-0.3 0.6,-0.4 0.9,-0.4 0.3,0 0.7,0.1 0.9,0.4 l 1.7,1.7 4.7,-4.7 c 0.2,-0.3 0.5,-0.4 0.9,-0.4 m 0,-2 c -0.9,0 -1.7,0.3 -2.3,1 l -3.3,3.3 -0.3,-0.3 c -0.6,-0.6 -1.5,-1 -2.3,-1 -0.8,0 -1.7,0.3 -2.3,1 a 3.32,3.32 0 0 0 0,4.7 l 2.6,2.6 c 0.6,0.6 1.5,1 2.3,1 0.9,0 1.7,-0.3 2.4,-1 l 5.6,-5.6 c 0.6,-0.6 1,-1.5 1,-2.3 0,-0.8 -0.3,-1.7 -1,-2.3 -0.7,-0.7 -1.5,-1.1 -2.4,-1.1 z" /></g><path
     style="fill:#1caff6"
     inkscape:connector-curvature="0"
     id="path7568"
     d="m 471.2,40.1 11.9,11.6 11.5,-11.6 z m -1.1,1.5 7.9,8.6 -7.9,8.7 z m 25.9,0 -7.9,8.6 7.9,8.7 z" /><path
     style="fill:#1caff6"
     inkscape:connector-curvature="0"
     id="path7570"
     d="m 471.4,59.9 23.2,0 -7.9,-8.3 -3.8,3.4 -3.6,-3.4 z" /><g
     style="fill:#ffffff"
     id="g7572"><path
       inkscape:connector-curvature="0"
       id="path7574"
       d="m 497.2,40.1 11.9,11.6 11.5,-11.6 z m -1.1,1.5 7.9,8.6 -7.9,8.7 z m 25.9,0 -7.9,8.6 7.9,8.7 z" /><path
       inkscape:connector-curvature="0"
       id="path7576"
       d="m 497.4,59.9 23.2,0 -7.9,-8.3 -3.8,3.4 -3.6,-3.4 z" /></g><path
     inkscape:connector-curvature="0"
     id="path7578"
     d="m 540.7,48 -5.5,0 0,-5.5 c 0,-1.4 -1.1,-2.5 -2.5,-2.5 -1.4,0 -2.5,1.1 -2.5,2.5 l 0,5.5 -5.5,0 c -1.4,0 -2.5,1.1 -2.5,2.5 0,1.4 1.1,2.5 2.5,2.5 l 5.5,0 0,5.5 c 0,1.4 1.1,2.5 2.5,2.5 1.4,0 2.5,-1.1 2.5,-2.5 l 0,-5.5 5.5,0 c 1.4,0 2.5,-1.1 2.5,-2.5 0.1,-1.4 -1.1,-2.5 -2.5,-2.5 z" /><path
     style="fill:#ffffff"
     inkscape:connector-curvature="0"
     id="path7580"
     d="m 573.3,75.5 -3.5,0 0,-3.5 c 0,-0.9 -0.7,-1.7 -1.7,-1.7 -1,0 -1.7,0.7 -1.7,1.7 l 0,3.5 -3.5,0 c -0.9,0 -1.7,0.7 -1.7,1.7 0,0.9 0.7,1.7 1.7,1.7 l 3.5,0 0,3.5 c 0,0.9 0.7,1.7 1.7,1.7 1,0 1.7,-0.7 1.7,-1.7 l 0,-3.5 3.5,0 c 0.9,0 1.7,-0.7 1.7,-1.7 -0.1,-1 -0.8,-1.7 -1.7,-1.7 z m -9.4,-24.6 0,-2.6 -2.2,-0.3 c -0.2,-0.9 -0.5,-1.8 -1,-2.6 l 1.2,-1.6 -1.9,-1.9 -1.6,1.2 c -0.8,-0.6 -1.7,-1 -2.7,-1.2 l -0.3,-1.9 -2.4,0 -0.3,1.8 c -1,0.2 -2,0.6 -2.8,1.2 l -1.5,-1.1 -1.9,1.9 1.2,1.5 c -0.5,0.8 -0.9,1.7 -1,2.7 l -2,0.3 0,2.6 2.1,0.3 c 0.2,0.9 0.6,1.7 1.1,2.4 l -1.4,1.8 1.9,1.9 1.9,-1.4 c 0.7,0.4 1.5,0.7 2.3,0.9 l 0.3,2.4 2.6,0 0.3,-2.5 c 0.8,-0.2 1.5,-0.5 2.2,-0.9 l 2,1.5 1.9,-1.9 -1.4,-1.9 c 0.5,-0.7 0.8,-1.5 1,-2.3 l 2.4,-0.3 z m -9.6,1.8 c -1.9,0 -3.4,-1.5 -3.4,-3.4 0,-1.9 1.5,-3.4 3.4,-3.4 1.9,0 3.4,1.5 3.4,3.4 0,1.9 -1.6,3.4 -3.4,3.4 z m 36.7,26.5 0,-2.1 -1.8,-0.2 c -0.1,-0.8 -0.4,-1.5 -0.8,-2.1 l 1,-1.3 -1.5,-1.5 -1.3,1 c -0.7,-0.5 -1.4,-0.8 -2.2,-1 l -0.2,-1.5 -2.1,0 -0.2,1.5 c -0.8,0.2 -1.6,0.5 -2.3,1 l -1.2,-0.9 -1.5,1.5 0.9,1.2 c -0.4,0.7 -0.7,1.4 -0.8,2.2 l -1.6,0.2 0,2.1 1.7,0.2 c 0.2,0.7 0.5,1.4 0.9,2 l -1.1,1.5 1.5,1.5 1.5,-1.2 c 0.6,0.3 1.2,0.6 1.9,0.7 l 0.3,2 2.1,0 0.3,-2 c 0.6,-0.2 1.3,-0.4 1.8,-0.7 l 1.6,1.2 1.5,-1.5 -1.2,-1.6 c 0.4,-0.6 0.7,-1.2 0.8,-1.9 l 2,-0.3 z m -7.9,1.5 c -1.5,0 -2.7,-1.2 -2.7,-2.7 0,-1.5 1.2,-2.7 2.7,-2.7 1.5,0 2.7,1.2 2.7,2.7 0,1.5 -1.1,2.7 -2.7,2.7 z m -16.8,-21.8 -3.7,5.4 -3.6,-5.4 z" /><path
     inkscape:connector-curvature="0"
     id="path7582"
     d="m 575.5,44.8 3.1,-3.1 c 0.4,-0.4 0.4,-1 0,-1.4 -0.4,-0.4 -1,-0.4 -1.4,0 l -3.7,3.7 c -0.2,0.2 -0.3,0.4 -0.3,0.7 0,0.3 0.1,0.5 0.3,0.7 l 3.7,3.7 c 0.4,0.4 1,0.4 1.4,0 0.4,-0.4 0.4,-1 0,-1.4 l -3.1,-2.9 z m -95.4,33.4 5.2,-5.2 c 0.7,-0.7 0.7,-1.7 0,-2.4 -0.7,-0.7 -1.7,-0.7 -2.4,0 l -6.4,6.4 c -0.3,0.3 -0.5,0.8 -0.5,1.2 0,0.4 0.2,0.9 0.5,1.2 l 6.4,6.4 c 0.7,0.7 1.7,0.7 2.4,0 0.7,-0.7 0.7,-1.7 0,-2.4 l -5.2,-5.2 z" /><path
     style="fill:#ffffff"
     inkscape:connector-curvature="0"
     id="path7584"
     d="m 490.1,78.2 5.2,-5.2 c 0.7,-0.7 0.7,-1.7 0,-2.4 -0.7,-0.7 -1.7,-0.7 -2.4,0 l -6.4,6.4 c -0.3,0.3 -0.5,0.8 -0.5,1.2 0,0.4 0.2,0.9 0.5,1.2 l 6.4,6.4 c 0.7,0.7 1.7,0.7 2.4,0 0.7,-0.7 0.7,-1.7 0,-2.4 l -5.2,-5.2 z" /><path
     style="fill:#cbcbcb"
     inkscape:connector-curvature="0"
     id="path7586"
     d="m 412.1,78.2 5.2,-5.2 c 0.7,-0.7 0.7,-1.7 0,-2.4 -0.7,-0.7 -1.7,-0.7 -2.4,0 l -6.4,6.4 c -0.3,0.3 -0.5,0.8 -0.5,1.2 0,0.4 0.2,0.9 0.5,1.2 l 6.4,6.4 c 0.7,0.7 1.7,0.7 2.4,0 0.7,-0.7 0.7,-1.7 0,-2.4 l -5.2,-5.2 z" /><path
     style="fill:#1caff6"
     inkscape:connector-curvature="0"
     id="path7588"
     d="m 422.1,78.2 5.2,-5.2 c 0.7,-0.7 0.7,-1.7 0,-2.4 -0.7,-0.7 -1.7,-0.7 -2.4,0 l -6.4,6.4 c -0.3,0.3 -0.5,0.8 -0.5,1.2 0,0.4 0.2,0.9 0.5,1.2 l 6.4,6.4 c 0.7,0.7 1.7,0.7 2.4,0 0.7,-0.7 0.7,-1.7 0,-2.4 l -5.2,-5.2 z" /><path
     inkscape:connector-curvature="0"
     id="path7590"
     d="m 582.4,44.8 -3.1,3.1 c -0.4,0.4 -0.4,1 0,1.4 0.4,0.4 1,0.4 1.4,0 l 3.7,-3.7 c 0.2,-0.2 0.3,-0.4 0.3,-0.7 0,-0.3 -0.1,-0.5 -0.3,-0.7 l -3.7,-3.7 c -0.4,-0.4 -1,-0.4 -1.4,0 -0.4,0.4 -0.4,1 0,1.4 l 3.1,2.9 z" /><path
     style="fill:#1caff6"
     inkscape:connector-curvature="0"
     id="path7592"
     d="m 575.5,54.8 3.1,-3.1 c 0.4,-0.4 0.4,-1 0,-1.4 -0.4,-0.4 -1,-0.4 -1.4,0 l -3.7,3.7 c -0.2,0.2 -0.3,0.4 -0.3,0.7 0,0.3 0.1,0.5 0.3,0.7 l 3.7,3.7 c 0.4,0.4 1,0.4 1.4,0 0.4,-0.4 0.4,-1 0,-1.4 l -3.1,-2.9 z" /><path
     style="fill:#1caff6"
     inkscape:connector-curvature="0"
     id="path7594"
     d="m 582.4,54.8 -3.1,3.1 c -0.4,0.4 -0.4,1 0,1.4 0.4,0.4 1,0.4 1.4,0 l 3.7,-3.7 c 0.2,-0.2 0.3,-0.4 0.3,-0.7 0,-0.3 -0.1,-0.5 -0.3,-0.7 l -3.7,-3.7 c -0.4,-0.4 -1,-0.4 -1.4,0 -0.4,0.4 -0.4,1 0,1.4 l 3.1,2.9 z" /><path
     style="fill:#ec0b1b"
     inkscape:connector-curvature="0"
     id="path7596"
     d="m 123.4,85.8 -5.3,-5.3 c -0.7,-0.7 -1.7,-0.7 -2.4,0 -0.7,0.7 -0.7,1.7 0,2.4 l 6.4,6.4 c 0.3,0.3 0.8,0.5 1.2,0.5 0.4,0 0.9,-0.2 1.2,-0.5 l 6.4,-6.4 c 0.7,-0.7 0.7,-1.7 0,-2.4 -0.7,-0.7 -1.7,-0.7 -2.4,0 l -5.1,5.3 z" /><path
     style="fill:#99cc00"
     inkscape:connector-curvature="0"
     id="path7598"
     d="m 123.4,74.1 5.3,5.3 c 0.7,0.7 1.7,0.7 2.4,0 0.7,-0.7 0.7,-1.7 0,-2.4 l -6.4,-6.4 c -0.3,-0.3 -0.8,-0.5 -1.2,-0.5 -0.4,0 -0.9,0.2 -1.2,0.5 l -6.4,6.4 c -0.7,0.7 -0.7,1.7 0,2.4 0.7,0.7 1.7,0.7 2.4,0 l 5.1,-5.3 z" /><path
     style="fill:#cbcbcb"
     inkscape:connector-curvature="0"
     id="path7600"
     d="m 106.4,85.8 -5.3,-5.3 c -0.7,-0.7 -1.7,-0.7 -2.4,0 -0.7,0.7 -0.7,1.7 0,2.4 l 6.4,6.4 c 0.3,0.3 0.8,0.5 1.2,0.5 0.4,0 0.9,-0.2 1.2,-0.5 l 6.4,-6.4 c 0.7,-0.7 0.7,-1.7 0,-2.4 -0.7,-0.7 -1.7,-0.7 -2.4,0 l -5.1,5.3 z m 0,-11.7 5.3,5.3 c 0.7,0.7 1.7,0.7 2.4,0 0.7,-0.7 0.7,-1.7 0,-2.4 l -6.4,-6.4 c -0.3,-0.3 -0.8,-0.5 -1.2,-0.5 -0.4,0 -0.9,0.2 -1.2,0.5 L 98.8,77 c -0.7,0.7 -0.7,1.7 0,2.4 0.7,0.7 1.7,0.7 2.4,0 l 5.2,-5.3 z" /><path
     style="fill:#353535"
     inkscape:connector-curvature="0"
     id="path7602"
     d="m 13.4,70.3 c -0.4,-0.4 -1,-0.4 -1.4,0 L 6.8,75.5 1.6,70.3 c -0.4,-0.4 -1,-0.4 -1.4,0 -0.4,0.4 -0.4,1 0,1.4 L 6,77.4 c 0,0.1 0.1,0.2 0.2,0.2 0.4,0.4 1,0.4 1.4,0 l 5.9,-5.9 c 0.3,-0.4 0.3,-1 -0.1,-1.4 z m 76.1,0 c -0.4,0.4 -0.4,1 0,1.4 l 5.2,5.2 -5.3,5.1 c -0.4,0.4 -0.4,1 0,1.4 0.4,0.4 1,0.4 1.4,0 l 5.7,-5.7 c 0.1,0 0.2,-0.1 0.2,-0.2 0.4,-0.4 0.4,-1 0,-1.4 l -5.9,-5.9 c -0.3,-0.3 -0.9,-0.3 -1.3,0.1 z" /><path
     style="fill:#b0b0b0"
     inkscape:connector-curvature="0"
     id="path7604"
     d="M 13.4,78.4 C 13,78 12.4,78 12,78.4 L 6.8,83.6 1.6,78.4 c -0.4,-0.4 -1,-0.4 -1.4,0 -0.4,0.4 -0.4,1 0,1.4 L 6,85.5 c 0,0.1 0.1,0.2 0.2,0.2 0.4,0.4 1,0.4 1.4,0 l 5.9,-5.9 c 0.3,-0.4 0.3,-1 -0.1,-1.4 z" /><g
     id="g7606"><circle
       style="fill:#99cc00"
       id="circle7608"
       r="10"
       cy="80"
       cx="24" /><path
       style="fill:#ffffff"
       inkscape:connector-curvature="0"
       id="path7610"
       d="m 29.5,76.6 c -0.4,-0.4 -1,-0.4 -1.4,0 L 22.7,82 20.4,79.7 c -0.4,-0.4 -1,-0.4 -1.4,0 -0.4,0.4 -0.4,1 0,1.4 l 2.8,2.8 c 0,0.1 0.1,0.2 0.2,0.3 0.4,0.4 1,0.4 1.4,0 l 6.1,-6.1 c 0.4,-0.5 0.4,-1.1 0,-1.5 z" /></g><path
     style="fill:#353535"
     inkscape:connector-curvature="0"
     id="path7612"
     d="m 44.8,76 0,-1.9 c 0,-2.3 -1.9,-4.1 -4.1,-4.1 -2.3,0 -4.1,1.9 -4.1,4.1 l 0,1.9 -1.2,0 0,8.1 10.6,0 0,-8.1 -1.2,0 z m -6.5,-1.9 c 0,-1.3 1,-2.3 2.3,-2.3 1.3,0 2.3,1 2.3,2.3 l 0,1.9 -4.6,0 0,-1.9 z" /><path
     style="fill:#ffffff"
     inkscape:connector-curvature="0"
     id="path7614"
     d="m 628,51.6 0,-2.2 c 0,-2.7 -2.2,-4.9 -4.9,-4.9 -2.7,0 -4.9,2.2 -4.9,4.9 l 0,2.2 -1.5,0 0,9.6 12.8,0 0,-9.6 -1.5,0 z m -7.6,-2.2 c 0,-1.5 1.2,-2.7 2.7,-2.7 1.5,0 2.7,1.2 2.7,2.7 l 0,2.2 -5.4,0 0,-2.2 z" /><path
     style="fill:#494949"
     inkscape:connector-curvature="0"
     id="path7616"
     d="m 53.6,73.2 c 0,-1.8 -1.5,-3.2 -3.2,-3.2 -1.7,0 -3.2,1.5 -3.2,3.2 0,1.3 0.8,2.5 2,3 l -2.2,6.7 6.6,0 -2.1,-6.6 c 1.2,-0.5 2.1,-1.6 2.1,-3.1 z" /><path
     style="fill:#b0b0b0"
     inkscape:connector-curvature="0"
     id="path7618"
     d="m 83,70 c -2.6,0 -4.6,2.1 -4.6,4.6 0,1 0.3,2 0.9,2.7 L 83,84 86.7,77.3 c 0.6,-0.8 0.9,-1.7 0.9,-2.7 0,-2.5 -2,-4.6 -4.6,-4.6 z m 0,6.3 c -0.9,0 -1.7,-0.8 -1.7,-1.7 0,-0.9 0.8,-1.7 1.7,-1.7 0.9,0 1.7,0.8 1.7,1.7 0,0.9 -0.8,1.7 -1.7,1.7 z" /><path
     style="fill:#cbcbcb"
     inkscape:connector-curvature="0"
     id="path7620"
     d="M 145.7,82 142,78.3 c 0.6,-0.9 0.9,-1.9 0.9,-3 0,-3 -2.4,-5.4 -5.4,-5.4 -3,0 -5.4,2.4 -5.4,5.4 0,3 2.4,5.4 5.4,5.4 1.1,0 2,-0.3 2.9,-0.8 l 3.7,3.7 c 0.5,0.5 1.2,0.5 1.6,0 0.4,-0.5 0.4,-1.1 0,-1.6 z m -8.3,-3.6 c -1.7,0 -3.1,-1.4 -3.1,-3.1 0,-1.7 1.4,-3.1 3.1,-3.1 1.7,0 3.1,1.4 3.1,3.1 0,1.7 -1.4,3.1 -3.1,3.1 z" /><path
     style="fill:#e8e8e8"
     inkscape:connector-curvature="0"
     id="path7622"
     d="m 166.7,81.1 0,-2.7 -2.2,-0.3 c -0.2,-0.9 -0.5,-1.8 -1,-2.6 l 1.3,-1.7 -1.9,-1.9 -1.6,1.2 c -0.8,-0.6 -1.8,-1 -2.8,-1.2 l -0.3,-1.9 -2.7,0 -0.3,1.8 c -1,0.2 -2,0.6 -2.9,1.2 l -1.5,-1.1 -1.9,1.9 1.2,1.6 c -0.5,0.8 -0.9,1.8 -1.1,2.8 l -2,0.3 0,2.7 2.2,0.3 c 0.2,0.9 0.6,1.7 1.1,2.5 l -1.4,1.8 1.9,1.9 1.9,-1.5 c 0.7,0.4 1.5,0.7 2.3,0.9 l 0.3,2.5 2.7,0 0.3,-2.5 c 0.8,-0.2 1.6,-0.5 2.3,-0.9 l 2,1.5 1.9,-1.9 -1.5,-1.9 c 0.5,-0.7 0.8,-1.5 1,-2.3 l 2.7,-0.5 z m -9.8,1.8 c -1.9,0 -3.4,-1.5 -3.4,-3.4 0,-1.9 1.5,-3.4 3.4,-3.4 1.9,0 3.4,1.5 3.4,3.4 0,1.8 -1.6,3.4 -3.4,3.4 z" /><path
     style="fill:#1caff6"
     inkscape:connector-curvature="0"
     id="path7624"
     d="m 186.7,81.1 0,-2.7 -2.2,-0.3 c -0.2,-0.9 -0.5,-1.8 -1,-2.6 l 1.3,-1.7 -1.9,-1.9 -1.6,1.2 c -0.8,-0.6 -1.8,-1 -2.8,-1.2 l -0.3,-1.9 -2.7,0 -0.3,1.8 c -1,0.2 -2,0.6 -2.9,1.2 l -1.5,-1.1 -1.9,1.9 1.2,1.6 c -0.5,0.8 -0.9,1.8 -1.1,2.8 l -2,0.3 0,2.7 2.2,0.3 c 0.2,0.9 0.6,1.7 1.1,2.5 l -1.4,1.8 1.9,1.9 1.9,-1.5 c 0.7,0.4 1.5,0.7 2.3,0.9 l 0.3,2.5 2.7,0 0.3,-2.5 c 0.8,-0.2 1.6,-0.5 2.3,-0.9 l 2,1.5 1.9,-1.9 -1.5,-1.9 c 0.5,-0.7 0.8,-1.5 1,-2.3 l 2.7,-0.5 z m -9.8,1.8 c -1.9,0 -3.4,-1.5 -3.4,-3.4 0,-1.9 1.5,-3.4 3.4,-3.4 1.9,0 3.4,1.5 3.4,3.4 0,1.8 -1.6,3.4 -3.4,3.4 z" /><path
     style="fill:#1cb0f6"
     inkscape:connector-curvature="0"
     id="path7626"
     d="m 223.4,70.3 c -0.4,-0.4 -1,-0.4 -1.4,0 l -5.2,5.2 -5.2,-5.2 c -0.4,-0.4 -1,-0.4 -1.4,0 -0.4,0.4 -0.4,1 0,1.4 l 5.7,5.7 c 0,0.1 0.1,0.2 0.2,0.2 0.4,0.4 1,0.4 1.4,0 l 5.9,-5.9 c 0.4,-0.4 0.4,-1 0,-1.4 z" /><path
     style="fill:#ffffff"
     inkscape:connector-curvature="0"
     id="path7628"
     d="m 223.4,78.4 c -0.4,-0.4 -1,-0.4 -1.4,0 l -5.2,5.2 -5.2,-5.2 c -0.4,-0.4 -1,-0.4 -1.4,0 -0.4,0.4 -0.4,1 0,1.4 l 5.7,5.7 c 0,0.1 0.1,0.2 0.2,0.2 0.4,0.4 1,0.4 1.4,0 l 5.9,-5.9 c 0.4,-0.4 0.4,-1 0,-1.4 z m 90,-8.1 c -0.4,0.4 -0.4,1 0,1.4 l 5.2,5.2 -5.2,5.2 c -0.4,0.4 -0.4,1 0,1.4 0.4,0.4 1,0.4 1.4,0 l 5.7,-5.7 c 0.1,0 0.2,-0.1 0.2,-0.2 0.4,-0.4 0.4,-1 0,-1.4 l -5.9,-5.9 c -0.4,-0.4 -1,-0.4 -1.4,0 z" /><g
     id="g7630"><path
       style="fill:#ff6c00"
       inkscape:connector-curvature="0"
       id="path7632"
       d="m 228.4,77.1 c 0,-0.1 0.1,-0.2 0.1,-0.3 0.1,-0.3 0.1,-0.5 0.2,-0.7 l 0,-0.4 c 0,-0.7 -0.3,-0.9 -0.3,-0.9 0,0.6 -0.4,1.1 -0.7,1.3 -1.5,1.3 -2.4,3.2 -2.4,5.2 0,3.8 3.1,6.8 6.8,6.8 3.8,0 6.8,-3.1 6.8,-6.8 0,-1.4 -0.4,-2.7 -1.2,-3.8 -0.6,-0.9 -1.6,-2.2 -3.4,-3.5 -0.6,-0.5 -2.5,-1.9 -1.9,-3.8 l 0,-0.1 c -0.1,0 -0.1,0 -0.2,0.1 -0.1,0.1 -0.1,0.2 -0.2,0.2 -0.2,0.3 -0.5,0.5 -0.7,0.8 -0.3,0.4 -0.5,0.9 -0.6,1.5 -0.1,0.4 -0.1,0.7 -0.1,1.1 0,0.6 0.2,1.1 0.4,1.7 0.1,0.4 0.3,0.8 0.4,1.3 0.3,1.9 -0.5,2.5 -1,2.7 -0.2,0.1 -0.4,0.1 -0.5,0.1 -0.4,0 -0.7,-0.1 -1,-0.4 -0.3,-0.3 -0.5,-0.6 -0.5,-0.9 l 0,-0.7 c -0.1,-0.2 0,-0.3 0,-0.5 z" /></g><path
     style="fill:#2e2e2e"
     inkscape:connector-curvature="0"
     id="path7634"
     d="m 254.6,80.1 3.9,-3.9 c 1.3,-1.3 1.3,-3.4 0,-4.7" /><path
     style="fill:#ec0b1b"
     inkscape:connector-curvature="0"
     id="path7636"
     d="m 230.9,105.4 6.3,-6.3 c 2.1,-2.1 2.1,-5.5 0,-7.5 -2.1,-2.1 -5.5,-2.1 -7.5,0 l -6.3,6.3 -6.3,-6.3 c -2.1,-2.1 -5.5,-2.1 -7.5,0 -2.1,2.1 -2.1,5.5 0,7.5 l 6.3,6.3 -6.3,6.3 c -2.1,2.1 -2.1,5.5 0,7.5 2.1,2.1 5.5,2.1 7.5,0 l 6.3,-6.3 6.3,6.3 c 2.1,2.1 5.5,2.1 7.5,0 2.1,-2.1 2.1,-5.5 0,-7.5 l -6.3,-6.3 z" /><path
     style="fill:#ffffff"
     inkscape:connector-curvature="0"
     id="path7638"
     d="m 269.2,75.5 2.2,-2.2 c 0.7,-0.7 0.7,-1.9 0,-2.7 -0.7,-0.7 -1.9,-0.7 -2.7,0 l -2.2,2.2 -2.2,-2.2 c -0.7,-0.7 -1.9,-0.7 -2.7,0 -0.7,0.7 -0.7,1.9 0,2.7 l 2.2,2.2 -2.2,2.2 c -0.7,0.7 -0.7,1.9 0,2.7 0.7,0.7 1.9,0.7 2.7,0 l 2.2,-2.2 2.2,2.2 c 0.7,0.7 1.9,0.7 2.7,0 0.7,-0.7 0.7,-1.9 0,-2.7 l -2.2,-2.2 z" /><g
     id="g7640"><g
       id="g7642"><path
         style="fill:#ffffff"
         inkscape:connector-curvature="0"
         id="path7644"
         d="m 198.7,80 c -0.1,0 -0.2,0 -0.3,-0.1 -0.4,-0.2 -0.5,-0.6 -0.3,-0.9 0.9,-1.9 0.1,-3.9 0.1,-3.9 -0.1,-0.4 0,-0.8 0.4,-0.9 0.4,-0.1 0.8,0 0.9,0.4 0,0.1 1.1,2.6 -0.1,5.1 -0.1,0.2 -0.4,0.3 -0.7,0.3 z" /></g><g
       id="g7646"><path
         style="fill:#ffffff"
         inkscape:connector-curvature="0"
         id="path7648"
         d="m 201.6,81.8 c -0.1,0 -0.2,0 -0.3,-0.1 -0.4,-0.2 -0.5,-0.6 -0.3,-0.9 1.7,-3.6 0.1,-7.5 0.1,-7.6 -0.1,-0.4 0,-0.8 0.4,-0.9 0.4,-0.1 0.8,0 0.9,0.4 0.1,0.2 1.8,4.5 -0.1,8.7 -0.2,0.3 -0.4,0.4 -0.7,0.4 z" /></g><path
       style="fill:#ffffff"
       inkscape:connector-curvature="0"
       id="path7650"
       d="m 189.4,74.2 1.6,0 c 0.1,0 0.2,0 0.3,-0.1 l 4.3,-3.6 c 0.3,-0.2 0.7,0 0.7,0.3 l 0,12.3 c 0,0.3 -0.4,0.5 -0.7,0.3 L 191.3,80 c -0.1,-0.1 -0.2,-0.1 -0.3,-0.1 l -1.5,0 c -0.9,0 -1.6,-0.7 -1.6,-1.6 l 0,-2.7 c 0.1,-0.8 0.7,-1.4 1.5,-1.4 z" /></g><g
     id="g7652"><path
       style="fill:#ffffff"
       inkscape:connector-curvature="0"
       id="path7654"
       d="m 148.4,125.6 c -0.4,0 -0.7,-0.1 -1.1,-0.2 -1.3,-0.6 -1.8,-2.1 -1.2,-3.4 3.2,-6.8 0.2,-14.2 0.2,-14.3 -0.5,-1.3 0.1,-2.8 1.4,-3.3 1.3,-0.5 2.8,0.1 3.3,1.4 0.2,0.4 3.8,9.6 -0.3,18.4 -0.4,0.9 -1.3,1.4 -2.3,1.4 z" /></g><g
     id="g7656"><path
       style="fill:#ffffff"
       inkscape:connector-curvature="0"
       id="path7658"
       d="m 159,132.3 c -0.4,0 -0.7,-0.1 -1.1,-0.2 -1.3,-0.6 -1.8,-2.1 -1.2,-3.4 6.1,-13.1 0.5,-27.4 0.4,-27.6 -0.5,-1.3 0.1,-2.8 1.4,-3.3 1.3,-0.5 2.8,0.1 3.3,1.4 0.3,0.7 6.6,16.5 -0.5,31.6 -0.5,0.9 -1.4,1.5 -2.3,1.5 z" /></g><path
     style="fill:#ffffff"
     inkscape:connector-curvature="0"
     id="path7660"
     d="m 114.5,104.4 5.9,0 c 0.3,0 0.7,-0.1 1,-0.3 L 137.2,91 c 1,-0.8 2.5,-0.1 2.5,1.2 l 0,44.8 c 0,1.3 -1.5,2 -2.4,1.2 l -15.6,-12.5 c -0.3,-0.2 -0.6,-0.3 -0.9,-0.3 l -5.3,0 c -3.3,0 -5.9,-2.7 -5.9,-5.9 l 0,-9.9 c -0.2,-2.9 2.1,-5.2 4.9,-5.2 z m 173,-33.9 c -0.8,-0.8 -2,-0.8 -2.8,0 l -6.2,5.8 -1.9,-1.9 c -0.8,-0.8 -2,-0.8 -2.8,0 -0.8,0.8 -0.8,2 0,2.8 l 3.1,3.1 c 0.2,0.2 0.4,0.3 0.7,0.4 0.7,0.4 1.7,0.2 2.3,-0.4 l 7.6,-7.1 c 0.8,-0.6 0.8,-1.9 0,-2.7 z" /><path
     style="fill:#8dbc00"
     inkscape:connector-curvature="0"
     id="path7662"
     d="m 204.8,91.6 c -2.1,-2.1 -5.6,-2.1 -7.7,0 l -16.8,15.7 -5,-5 c -2.1,-2.1 -5.6,-2.1 -7.7,0 -2.1,2.1 -2.1,5.6 0,7.7 l 8.5,8.5 c 0.5,0.5 1.1,0.9 1.8,1.2 2,1 4.5,0.7 6.2,-1 l 20.7,-19.3 c 2.1,-2.3 2.1,-5.7 0,-7.8 z" /><path
     style="fill:#c2c2c2"
     inkscape:connector-curvature="0"
     id="path7664"
     d="m 296.9,76.1 c 0.9,-0.6 1.4,-1.6 1.4,-2.8 0,-1.9 -1.5,-3.4 -3.4,-3.4 -1.9,0 -3.4,1.5 -3.4,3.4 0,1.1 0.6,2.1 1.4,2.8 -2,0.8 -3.5,2.8 -3.5,5.1 l 10.9,0 c 0.1,-2.4 -1.3,-4.3 -3.4,-5.1 z m 4.3,-6.1 1.8,0 0,10 -1.8,0 z m 2.8,6.1 4,-1 0,1.2 3.3,-0.2 0,-4.7 -2.7,0.1 0,-1.4 -4.5,0.6 z" /><path
     style="fill:#ffffff"
     inkscape:connector-curvature="0"
     id="path7666"
     d="m 55.3,108 -54.5,0 7.4,-17 40,0 z" /><path
     style="fill:#7a3922"
     inkscape:connector-curvature="0"
     id="path7668"
     d="m 5,129 46,0 0,11 -46,0 z" /><path
     style="fill:#7a3922"
     inkscape:connector-curvature="0"
     id="path7670"
     d="m 5,110 3,0 0,22 -3,0 z m 41,0 5,0 0,22 -5,0 z" /><path
     style="fill:#472213"
     inkscape:connector-curvature="0"
     id="path7672"
     d="m 50.3,131 -44.8,0 3.1,-8 38.6,0 z" /><path
     style="fill:#b71515"
     inkscape:connector-curvature="0"
     id="path7674"
     d="m 0.8,108 10.6,0 5.1,-17 -8.5,0 z m 54.5,0 -10.7,0 -5,-17 8.7,0 z m -32.7,0 10.9,0 -1,-17 -8.9,0 z" /><path
     style="fill:#b71515"
     inkscape:connector-curvature="0"
     id="path7676"
     d="m 11.4,107 c 0,2.9 -2.4,5.3 -5.3,5.3 -2.9,0 -5.3,-2.4 -5.3,-5.3 m 32.7,0 c 0,3 -2.4,5.4 -5.4,5.4 -3,0 -5.4,-2.4 -5.4,-5.4 m 32.6,0 c 0,2.9 -2.4,5.3 -5.3,5.3 -2.9,0 -5.3,-2.4 -5.3,-5.3" /><path
     style="fill:#e5e5e5"
     inkscape:connector-curvature="0"
     id="path7678"
     d="m 44.6,107 c 0,3.1 -2.5,5.6 -5.6,5.6 -3.1,0 -5.6,-2.5 -5.6,-5.6 m -10.8,0 c 0,3.1 -2.5,5.6 -5.6,5.6 -3.1,0 -5.6,-2.5 -5.6,-5.6" /><path
     style="fill:#2e2e2e"
     inkscape:connector-curvature="0"
     id="path7680"
     d="m 281.7,94 c 1.6,2 2,3.5 2,4.3 -0.7,-0.2 -2.2,-0.9 -3.8,-2.9 -1.6,-2 -1.9,-3.4 -2,-4.3 0.8,0.3 2.2,0.9 3.8,2.9 z m 2.2,5.7 c 1.9,1.8 2.4,3.3 2.6,4 -0.8,-0.1 -2.3,-0.6 -4.1,-2.4 -1.8,-1.8 -2.4,-3.2 -2.6,-4 0.8,0.2 2.3,0.6 4.1,2.4 z m 2.6,-3.9 c 0.5,2.5 0.1,4.1 -0.2,4.8 -0.5,-0.6 -1.5,-1.8 -2,-4.3 -0.5,-2.5 -0.1,-3.9 0.2,-4.8 0.6,0.6 1.5,1.8 2,4.3 z m 3.3,4.9 c 0,2.6 -0.7,4 -1.2,4.6 -0.4,-0.7 -1.1,-2.1 -1.1,-4.6 0,-2.6 0.7,-3.9 1.2,-4.6 0.5,0.7 1.1,2.1 1.1,4.6 z m 2.4,5 c -1,2.4 -2.1,3.5 -2.8,3.9 -0.1,-0.8 -0.3,-2.3 0.7,-4.7 1,-2.4 2.1,-3.3 2.8,-3.9 0.1,0.9 0.3,2.3 -0.7,4.7 z m -0.2,6.6 c -1.4,2.2 -2.7,3 -3.4,3.3 0,-0.8 0.2,-2.4 1.5,-4.5 1.4,-2.2 2.7,-2.9 3.4,-3.3 0,0.8 -0.1,2.3 -1.5,4.5 z m -0.2,5.5 c -1.9,1.7 -3.5,2.1 -4.2,2.2 0.2,-0.7 0.8,-2.2 2.8,-3.9 1.9,-1.7 3.4,-2 4.2,-2.2 -0.4,0.8 -0.9,2.2 -2.8,3.9 z m -4.2,6.5 c -2.5,1.7 -4.3,2 -5.2,2 0.4,-0.8 1.3,-2.5 3.7,-4.1 2.4,-1.6 4.2,-1.9 5.2,-2 -0.4,0.9 -1.2,2.4 -3.7,4.1 z m -2.5,4.8 c -3,0.7 -4.8,0.3 -5.7,-0.1 0.6,-0.7 2.1,-1.9 5.1,-2.6 3,-0.7 4.7,-0.3 5.7,0.1 -0.8,0.7 -2.2,1.9 -5.1,2.6 z m -6.1,3.8 c -3,-0.3 -4.7,-1.2 -5.4,-1.8 0.8,-0.4 2.6,-1.1 5.6,-0.9 3,0.2 4.5,1.2 5.4,1.8 -0.9,0.5 -2.6,1.2 -5.6,0.9 z m -8.4,4.6 c -1.8,-1.3 -2.4,-2.5 -2.6,-3.2 0.7,0 2,0.3 3.8,1.6 1.8,1.3 2.3,2.5 2.6,3.2 -0.7,-0.1 -2,-0.3 -3.8,-1.6 z m 3.1,-2.3 c -3,-0.6 -4.5,-1.7 -5.2,-2.3 0.8,-0.3 2.7,-0.9 5.7,-0.3 3,0.6 4.4,1.7 5.2,2.3 -1,0.3 -2.7,0.8 -5.7,0.3 z" /><path
     style="fill:#2e2e2e"
     inkscape:connector-curvature="0"
     id="path7682"
     d="m 273.7,130.5 c -2.4,1.9 -4.2,2.3 -5.1,2.4 0.3,-0.9 1.1,-2.6 3.5,-4.5 2.4,-1.9 4.1,-2.2 5.1,-2.4 -0.4,1 -1.2,2.6 -3.5,4.5 z m 7.7,-5.5 c -1.5,2.5 -3,3.5 -3.8,3.8 0,-0.9 0.1,-2.7 1.6,-5.1 1.5,-2.4 2.9,-3.4 3.8,-3.8 0,0.9 -0.1,2.6 -1.6,5.1 z m 5.4,-8 c -0.3,2.9 -1.3,4.4 -1.9,5 -0.4,-0.8 -1,-2.5 -0.6,-5.3 0.3,-2.9 1.3,-4.3 1.9,-5 0.4,0.9 0.9,2.5 0.6,5.3 z m 1,-8.5 c 1,2.4 0.9,4.1 0.7,4.8 -0.6,-0.5 -1.9,-1.5 -2.9,-3.9 -1,-2.4 -0.9,-3.9 -0.7,-4.8 0.7,0.5 1.9,1.5 2.9,3.9 z M 254.3,94 c -1.6,2 -2,3.5 -2,4.3 0.7,-0.2 2.2,-0.9 3.8,-2.9 1.6,-2 1.9,-3.4 2,-4.3 -0.8,0.3 -2.2,0.9 -3.8,2.9 z m -2.2,5.7 c -1.9,1.8 -2.4,3.3 -2.6,4 0.8,-0.1 2.3,-0.6 4.1,-2.4 1.8,-1.8 2.4,-3.2 2.6,-4 -0.8,0.2 -2.2,0.6 -4.1,2.4 z m -2.6,-3.9 c -0.5,2.5 -0.1,4.1 0.2,4.8 0.5,-0.6 1.5,-1.8 2,-4.3 0.5,-2.5 0.1,-3.9 -0.2,-4.8 -0.5,0.6 -1.5,1.8 -2,4.3 z m -3.3,4.9 c 0,2.6 0.7,4 1.2,4.6 0.4,-0.7 1.1,-2.1 1.1,-4.6 0,-2.6 -0.7,-3.9 -1.2,-4.6 -0.4,0.7 -1.1,2.1 -1.1,4.6 z m -2.4,5 c 1,2.4 2.1,3.5 2.8,3.9 0.1,-0.8 0.3,-2.3 -0.7,-4.7 -1,-2.4 -2.1,-3.3 -2.8,-3.9 -0.1,0.9 -0.2,2.3 0.7,4.7 z m 0.3,6.6 c 1.4,2.2 2.7,3 3.4,3.3 0,-0.8 -0.2,-2.4 -1.5,-4.5 -1.4,-2.2 -2.7,-2.9 -3.4,-3.3 -0.1,0.8 0.1,2.3 1.5,4.5 z m 0.2,5.5 c 1.9,1.7 3.5,2.1 4.2,2.2 -0.2,-0.7 -0.8,-2.2 -2.8,-3.9 -1.9,-1.7 -3.4,-2 -4.2,-2.2 0.3,0.8 0.9,2.2 2.8,3.9 z m 4.1,6.5 c 2.5,1.7 4.3,2 5.2,2 -0.4,-0.8 -1.3,-2.5 -3.7,-4.1 -2.5,-1.7 -4.2,-1.9 -5.2,-2 0.4,0.9 1.3,2.4 3.7,4.1 z m 2.6,4.8 c 3,0.7 4.8,0.3 5.7,-0.1 -0.6,-0.7 -2.1,-1.9 -5.1,-2.6 -3,-0.7 -4.7,-0.3 -5.7,0.1 0.8,0.7 2.1,1.9 5.1,2.6 z m 6,3.8 c 3,-0.3 4.7,-1.2 5.4,-1.8 -0.8,-0.4 -2.6,-1.1 -5.6,-0.9 -3,0.3 -4.5,1.2 -5.4,1.8 1,0.5 2.6,1.2 5.6,0.9 z m 8.4,4.6 c 1.8,-1.3 2.4,-2.5 2.6,-3.2 -0.7,0 -2,0.3 -3.8,1.6 -1.8,1.3 -2.3,2.5 -2.6,3.2 0.8,-0.1 2,-0.3 3.8,-1.6 z m -3,-2.3 c 3,-0.6 4.5,-1.7 5.2,-2.3 -0.8,-0.3 -2.7,-0.9 -5.7,-0.3 -3,0.6 -4.4,1.7 -5.2,2.3 1,0.3 2.7,0.8 5.7,0.3 z" /><path
     style="fill:#2e2e2e"
     inkscape:connector-curvature="0"
     id="path7684"
     d="m 262.4,130.5 c 2.4,1.9 4.2,2.3 5.1,2.4 -0.3,-0.9 -1.1,-2.6 -3.5,-4.5 -2.4,-1.9 -4.1,-2.2 -5.1,-2.4 0.4,1 1.1,2.6 3.5,4.5 z m -7.7,-5.5 c 1.5,2.5 3,3.5 3.8,3.8 0,-0.9 -0.1,-2.7 -1.6,-5.1 -1.5,-2.4 -2.9,-3.4 -3.8,-3.8 0,0.9 0.1,2.6 1.6,5.1 z m -5.4,-8 c 0.3,2.9 1.3,4.4 1.9,5 0.4,-0.8 1,-2.5 0.6,-5.3 -0.3,-2.9 -1.3,-4.3 -1.9,-5 -0.4,0.9 -1,2.5 -0.6,5.3 z m -1,-8.5 c -1,2.4 -0.9,4.1 -0.7,4.8 0.6,-0.5 1.9,-1.5 2.9,-3.9 1,-2.4 0.9,-3.9 0.7,-4.8 -0.8,0.5 -1.9,1.5 -2.9,3.9 z" /><g
     id="g7686"><path
       style="fill:#c4c4c4"
       inkscape:connector-curvature="0"
       id="path7688"
       d="m 66.065,167.267 -4.172,-4.172 5.445,-5.445 4.172,4.172 z" /><path
       style="fill:#9e9e9e"
       inkscape:connector-curvature="0"
       id="path7690"
       d="m 64.8,160.3 0.9,7.4 5.9,-5.9 -4.2,-4.1 z" /><path
       style="fill:#c4c4c4"
       inkscape:connector-curvature="0"
       id="path7692"
       d="m 34.3,149.2 8.9,0 0,5.6 -8.9,0 z m 29.4,8.3 c -0.7,0.7 -0.7,1.7 0,2.4 l 5.5,5.5 c 0.7,0.7 1.7,0.7 2.4,0 l 4,-4 c 0.7,-0.7 0.7,-1.7 0,-2.4 l -5.5,-5.5 c -0.7,-0.7 -1.7,-0.7 -2.4,0 l -4,4 z m -58.193,4.3 4.172,-4.172 5.445,5.444 -4.172,4.172 z" /><path
       style="fill:#9e9e9e"
       inkscape:connector-curvature="0"
       id="path7694"
       d="m 12.3,160.3 -0.9,7.4 -5.9,-5.9 4.2,-4.1 z" /><path
       style="fill:#c4c4c4"
       inkscape:connector-curvature="0"
       id="path7696"
       d="m 13.4,157.5 c 0.7,0.7 0.7,1.7 0,2.4 l -5.5,5.5 c -0.7,0.7 -1.7,0.7 -2.4,0 l -4,-4 c -0.7,-0.7 -0.7,-1.7 0,-2.4 L 7,153.5 c 0.7,-0.7 1.7,-0.7 2.4,0 l 4,4 z" /><path
       style="fill:#9e9e9e"
       inkscape:connector-curvature="0"
       id="path7698"
       d="m 34.3,146 8.9,0 0,5.8 -8.9,0 z" /><circle
       style="fill:#c4c4c4"
       id="circle7700"
       r="36"
       cy="190"
       cx="38.700001" /><circle
       style="fill:#ffffff"
       id="circle7702"
       r="28.9"
       cy="190"
       cx="38.700001" /><path
       style="fill:#6fb500"
       inkscape:connector-curvature="0"
       id="path7704"
       d="m 38.8,187 20.5,23.6 c 5.4,-5.4 8.8,-11.6 8.8,-19.8 0,-16.4 -13.3,-29.6 -29.6,-29.6 l 0.3,0 0,25.8 z" /><path
       style="fill:#9b9b9b"
       inkscape:connector-curvature="0"
       id="path7706"
       d="m 37.8,209.7 c 0,-0.6 0.5,-1 1,-1 0.6,0 1,0.5 1,1 l 0,3.7 c 0,0.6 -0.5,1 -1,1 -0.6,0 -1,-0.5 -1,-1 l 0,-3.7 z" /><path
       style="opacity:0.07999998"
       inkscape:connector-curvature="0"
       id="path7708"
       d="m 26.3,171.3 c 11.4,-7.6 26.1,-6.4 36,2.1 -9,-12.7 -26.5,-16.1 -39.6,-7.4 -13.1,8.7 -16.8,26.1 -8.5,39.3 -3.9,-12.4 0.7,-26.4 12.1,-34 z" /><path
       style="fill:#c4c4c4"
       inkscape:connector-curvature="0"
       id="path7710"
       d="m 46.7,147.5 c 0,0.9 -0.8,1.7 -1.7,1.7 l -12.6,0 c -0.9,0 -1.7,-0.8 -1.7,-1.7 l 0,-5.8 c 0,-0.9 0.8,-1.7 1.7,-1.7 l 12.6,0 c 0.9,0 1.7,0.8 1.7,1.7 l 0,5.8 z" /><path
       style="fill:#9b9b9b"
       inkscape:connector-curvature="0"
       id="path7712"
       d="m 15.3,191.1 c -0.6,0 -1,-0.5 -1,-1 0,-0.6 0.5,-1 1,-1 l 3.7,0 c 0.6,0 1,0.5 1,1 0,0.6 -0.5,1 -1,1 l -3.7,0 z" /><path
       style="fill:#5a8900"
       inkscape:connector-curvature="0"
       id="path7714"
       d="m 39.8,170.4 c 0,0.6 -0.5,1 -1,1 -0.6,0 -1,-0.5 -1,-1 l 0,-3.7 c 0,-0.6 0.5,-1 1,-1 0.6,0 1,0.5 1,1 l 0,3.7 z m 22.3,18.5 c 0.6,0 1,0.5 1,1 0,0.6 -0.5,1 -1,1 l -3.7,0 c -0.6,0 -1,-0.5 -1,-1 0,-0.6 0.5,-1 1,-1 l 3.7,0 z" /><path
       style="opacity:0.7;fill:#9b9b9b"
       inkscape:connector-curvature="0"
       id="path7716"
       d="m 23.1,204.8 c 0.4,-0.4 1,-0.4 1.4,0 0.4,0.4 0.4,1 0,1.4 l -1.3,1.3 c -0.4,0.4 -1,0.4 -1.4,0 -0.4,-0.4 -0.4,-1 0,-1.4 l 1.3,-1.3 z m -1.7,-30.5 c -0.4,-0.4 -0.4,-1 0,-1.4 0.4,-0.4 1,-0.4 1.4,0 l 1.3,1.3 c 0.4,0.4 0.4,1 0,1.4 -0.4,0.4 -1,0.4 -1.4,0 l -1.3,-1.3 z" /><path
       style="fill:#5a8900"
       inkscape:connector-curvature="0"
       id="path7718"
       d="m 55,175.9 c -0.4,0.4 -1,0.4 -1.4,0 -0.4,-0.4 -0.4,-1 0,-1.4 l 1.3,-1.3 c 0.4,-0.4 1,-0.4 1.4,0 0.4,0.4 0.4,1 0,1.4 l -1.3,1.3 z m 1.2,29.7 c 0.4,0.4 0.4,1 0,1.4 -0.4,0.4 -1,0.4 -1.4,0 l -1.3,-1.3 c -0.4,-0.4 -0.4,-1 0,-1.4 0.4,-0.4 1,-0.4 1.4,0 l 1.3,1.3 z" /><path
       style="opacity:0.7;fill:#9b9b9b"
       inkscape:connector-curvature="0"
       id="path7720"
       d="m 18.8,198 c 0.5,-0.2 1.1,0 1.3,0.5 0.2,0.5 0,1.1 -0.5,1.3 l -1.7,0.8 c -0.5,0.2 -1.1,0 -1.3,-0.5 -0.2,-0.5 0,-1.1 0.5,-1.3 l 1.7,-0.8 z m 9.6,-29 c -0.2,-0.5 0,-1.1 0.5,-1.3 0.5,-0.2 1.1,0 1.3,0.5 l 0.8,1.7 c 0.2,0.5 0,1.1 -0.5,1.3 -0.5,0.2 -1.1,0 -1.3,-0.5 L 28.4,169 Z" /><path
       style="fill:#5a8900"
       inkscape:connector-curvature="0"
       id="path7722"
       d="m 59.1,182.8 c -0.5,0.2 -1.1,0 -1.3,-0.5 -0.2,-0.5 0,-1.1 0.5,-1.3 l 1.7,-0.8 c 0.5,-0.2 1.1,0 1.3,0.5 0.2,0.5 0,1.1 -0.5,1.3 l -1.7,0.8 z" /><path
       style="fill:#9b9b9b"
       inkscape:connector-curvature="0"
       id="path7724"
       d="m 49.4,210.8 c 0.2,0.5 0,1.1 -0.5,1.3 -0.5,0.2 -1.1,0 -1.3,-0.5 l -0.8,-1.7 c -0.2,-0.5 0,-1.1 0.5,-1.3 0.5,-0.2 1.1,0 1.3,0.5 l 0.8,1.7 z" /><path
       style="opacity:0.7;fill:#9b9b9b"
       inkscape:connector-curvature="0"
       id="path7726"
       d="m 29.9,209.6 c 0.2,-0.5 0.8,-0.8 1.3,-0.5 0.5,0.2 0.8,0.8 0.5,1.3 l -0.7,1.7 c -0.2,0.5 -0.8,0.8 -1.3,0.5 -0.5,-0.2 -0.8,-0.8 -0.5,-1.3 l 0.7,-1.7 z M 16.9,182 c -0.5,-0.2 -0.8,-0.8 -0.5,-1.3 0.2,-0.5 0.8,-0.8 1.3,-0.5 l 1.7,0.7 c 0.5,0.2 0.8,0.8 0.5,1.3 -0.2,0.5 -0.8,0.8 -1.3,0.5 L 16.9,182 Z" /><path
       style="fill:#5a8900"
       inkscape:connector-curvature="0"
       id="path7728"
       d="m 48.6,170.9 c -0.2,0.5 -0.8,0.8 -1.3,0.5 -0.5,-0.2 -0.8,-0.8 -0.5,-1.3 l 0.7,-1.7 c 0.2,-0.5 0.8,-0.8 1.3,-0.5 0.5,0.2 0.8,0.8 0.5,1.3 l -0.7,1.7 z" /><path
       style="fill:#d33131"
       inkscape:connector-curvature="0"
       id="path7730"
       d="m 55.7,205.6 -12.4,-15.3 0,-0.4 c -0.1,-2.5 -2.1,-4.5 -4.7,-4.4 -2.5,0.1 -4.5,2.1 -4.4,4.7 0.1,2.5 2.1,4.5 4.7,4.4 l 0.3,0 15.7,11.9 c 0.1,0.1 0.2,0.1 0.4,0.1 0.2,0 0.3,-0.1 0.4,-0.2 0.1,-0.3 0.1,-0.6 0,-0.8 z" /><path
       style="fill:#5a8900"
       inkscape:connector-curvature="0"
       id="path7732"
       d="m 60.9,197.9 c 0.5,0.2 0.8,0.8 0.5,1.3 -0.2,0.5 -0.8,0.8 -1.3,0.5 L 58.4,199 c -0.5,-0.2 -0.8,-0.8 -0.5,-1.3 0.2,-0.5 0.8,-0.8 1.3,-0.5 l 1.7,0.7 z" /><circle
       style="fill:#ffffff"
       id="circle7734"
       r="1.7"
       cy="190"
       cx="38.799999" /><path
       style="fill:none;stroke:#ffffff;stroke-width:2.56800008;stroke-linecap:round;stroke-linejoin:round;stroke-miterlimit:10"
       inkscape:connector-curvature="0"
       id="path7736"
       d="m 20.1,163.4 c 0,0 -3.8,2.2 -6.7,6.2"
       stroke-miterlimit="10" /><circle
       style="fill:#ffffff"
       id="circle7738"
       r="1.4"
       cy="160.60001"
       cx="24.4" /></g><g
     style="fill:#16a8e7"
     id="g7740"><path
       inkscape:connector-curvature="0"
       id="path7742"
       d="m 311.1,123.9 c 4.5,0 8.2,-3.7 8.2,-8.2 l 0,-17.5 c 0,-4.5 -3.7,-8.2 -8.2,-8.2 -4.5,0 -8.2,3.7 -8.2,8.2 l 0,17.5 c 0,4.5 3.7,8.2 8.2,8.2 z" /><path
       inkscape:connector-curvature="0"
       id="path7744"
       d="m 323,107.2 0,8.5 c 0,6.5 -5.3,11.9 -11.9,11.9 -6.6,0 -11.9,-5.3 -11.9,-11.9 l 0,-8.5 -3,0 0,8.5 c 0,7.6 5.8,13.9 13.2,14.8 l 0,6.8 -6.4,0 0,3 16.2,0 0,-3 -6.9,0 0,-6.8 c 7.6,-0.7 13.6,-7 13.6,-14.8 l 0,-8.5 -2.9,0 z" /></g><g
     style="fill:#ffffff"
     id="g7746"><path
       inkscape:connector-curvature="0"
       id="path7748"
       d="m 341.1,123.9 c 4.5,0 8.2,-3.7 8.2,-8.2 l 0,-17.5 c 0,-4.5 -3.7,-8.2 -8.2,-8.2 -4.5,0 -8.2,3.7 -8.2,8.2 l 0,17.5 c 0,4.5 3.7,8.2 8.2,8.2 z" /><path
       inkscape:connector-curvature="0"
       id="path7750"
       d="m 353,107.2 0,8.5 c 0,6.5 -5.3,11.9 -11.9,11.9 -6.6,0 -11.9,-5.3 -11.9,-11.9 l 0,-8.5 -3,0 0,8.5 c 0,7.6 5.8,13.9 13.2,14.8 l 0,6.8 -6.4,0 0,3 16.2,0 0,-3 -6.9,0 0,-6.8 c 7.6,-0.7 13.6,-7 13.6,-14.8 l 0,-8.5 -2.9,0 z" /></g><g
     style="fill:#eceeec"
     id="g7752"><path
       inkscape:connector-curvature="0"
       id="path7754"
       d="m 371.1,123.9 c 4.5,0 8.2,-3.7 8.2,-8.2 l 0,-17.5 c 0,-4.5 -3.7,-8.2 -8.2,-8.2 -4.5,0 -8.2,3.7 -8.2,8.2 l 0,17.5 c 0,4.5 3.7,8.2 8.2,8.2 z" /><path
       inkscape:connector-curvature="0"
       id="path7756"
       d="m 383,107.2 0,8.5 c 0,6.5 -5.3,11.9 -11.9,11.9 -6.6,0 -11.9,-5.3 -11.9,-11.9 l 0,-8.5 -3,0 0,8.5 c 0,7.6 5.8,13.9 13.2,14.8 l 0,6.8 -6.4,0 0,3 16.2,0 0,-3 -6.9,0 0,-6.8 c 7.6,-0.7 13.6,-7 13.6,-14.8 l 0,-8.5 -2.9,0 z" /></g><g
     id="g7758"><g
       style="fill:#1cb0f6"
       id="g7760"><path
         inkscape:connector-curvature="0"
         id="path7762"
         d="m 37.3,17.2 0,0.2 c 0,1.9 -0.1,3.1 -0.3,3.6 -0.3,0.8 -0.7,1.4 -1.4,1.8 -0.6,0.4 -1.3,0.6 -2.2,0.6 -0.9,0 -1.6,-0.2 -2.2,-0.6 -0.6,-0.4 -1,-1 -1.3,-1.8 -0.3,-0.7 -0.4,-1.9 -0.4,-3.7 l 0,-10.3 -5.3,0 0,10.4 c 0.1,2.4 0.3,4.1 0.6,5.2 0.6,1.8 1.6,3.2 3,4.3 1.4,1 3.3,1.5 5.5,1.5 2.1,0 3.8,-0.4 5.2,-1.3 1.4,-0.9 2.4,-2.1 3.1,-3.8 0.5,-1.1 0.8,-3.1 0.8,-5.9 l 0,-10.4 -5.2,0 0,10.2 z M 21.8,0 l -5.2,0 0,8.1 C 16.5,8.1 16.4,8 16.3,8 14.6,7 12.7,6.5 10.8,6.5 8.1,6.5 5.7,7.4 3.6,9.3 1.2,11.5 0,14.2 0,17.4 c 0,3 1.1,5.6 3.2,7.7 2.1,2.1 4.7,3.2 7.6,3.2 2,0 3.9,-0.5 5.6,-1.4 1.7,-1 3,-2.3 4,-4 0.9,-1.5 1.3,-3.1 1.4,-4.8 l 0,-0.7 0,-17.4 z m -6.9,21.8 c -1.1,1.1 -2.4,1.7 -4.1,1.7 -1.6,0 -3,-0.6 -4,-1.7 -1.1,-1.1 -1.6,-2.6 -1.6,-4.4 0,-1.7 0.5,-3.2 1.6,-4.3 1.1,-1.1 2.4,-1.7 4,-1.7 1.7,0 3,0.6 4.1,1.7 1.1,1.1 1.6,2.6 1.6,4.3 0,1.8 -0.5,3.3 -1.6,4.4 z M 64.7,12 C 63.7,10.3 62.4,9 60.7,8 59,7 57.1,6.5 55.2,6.5 c -2.7,0 -5.1,0.9 -7.2,2.8 -2.4,2.2 -3.6,4.8 -3.6,8.1 0,3 1.1,5.6 3.2,7.7 2.1,2.1 4.7,3.2 7.6,3.2 2,0 3.9,-0.5 5.6,-1.4 1.7,-1 3,-2.3 4,-4 1,-1.7 1.5,-3.5 1.5,-5.5 -0.2,-1.9 -0.6,-3.7 -1.6,-5.4 z m -5.4,9.8 c -1.1,1.1 -2.4,1.7 -4.1,1.7 -1.7,0 -3,-0.6 -4,-1.7 -1.1,-1.1 -1.6,-2.6 -1.6,-4.4 0,-1.7 0.5,-3.2 1.6,-4.3 1.1,-1.1 2.4,-1.7 4,-1.7 1.7,0 3,0.6 4.1,1.7 1.1,1.1 1.6,2.6 1.6,4.3 0,1.8 -0.6,3.3 -1.6,4.4 z m 25,6.2 5.3,0 0,-20.1 -5.3,0 0,20.1 z m -9,-5.4 C 74.7,22.2 74.2,21.6 74,20.8 73.8,20.2 73.7,19 73.7,17.2 l 0,-17.2 -5.2,0 0,17.1 c 0.1,2.8 0.3,4.7 0.8,5.9 0.7,1.6 1.7,2.9 3.1,3.8 1.4,0.9 3.1,1.3 5.2,1.3 l 4,0 0,-4.9 -4.1,0 c -0.9,0 -1.6,-0.2 -2.2,-0.6 z M 110.2,11.8 C 109.5,10.2 108.5,8.9 107.1,8 105.7,7.1 104,6.7 101.9,6.7 c -2.3,0 -4.1,0.5 -5.5,1.5 -1.4,1 -2.4,2.4 -3,4.3 -0.3,1 -0.5,2.8 -0.6,5.2 l 0,10.3 5.3,0 0,-10 0,-0.4 c 0,-1.7 0.1,-3 0.4,-3.7 0.3,-0.8 0.7,-1.3 1.3,-1.8 0.6,-0.4 1.3,-0.6 2.2,-0.6 0.9,0 1.6,0.2 2.2,0.6 0.6,0.4 1.1,1 1.4,1.8 0.2,0.6 0.3,1.8 0.3,3.6 l 0,10.5 5.2,0 0,-8.8 0,-1.6 c -0.1,-2.7 -0.4,-4.7 -0.9,-5.8 z M 86.8,0.4 C 85.3,0.4 84,1.7 84,3.2 84,4.7 85.2,6 86.8,6 88.3,6 89.6,4.8 89.6,3.2 89.6,1.6 88.3,0.4 86.8,0.4 Z m 69.9,11.8 c -1,-1.7 -2.3,-3 -4,-4 -1.7,-1 -3.5,-1.4 -5.6,-1.4 -3,0 -5.5,1.1 -7.6,3.2 -2.1,2.1 -3.2,4.7 -3.2,7.7 0,3.2 1.2,5.9 3.6,8.1 2.1,1.9 4.5,2.8 7.2,2.8 2,0 3.8,-0.5 5.5,-1.5 1.7,-1 3.1,-2.3 4,-4 1,-1.7 1.5,-3.5 1.5,-5.4 0.1,-2 -0.4,-3.8 -1.4,-5.5 z m -3.8,5.5 c 0,1.8 -0.5,3.2 -1.6,4.3 -1.1,1.1 -2.4,1.7 -4.1,1.7 -1.6,0 -3,-0.6 -4,-1.7 -1.1,-1.1 -1.6,-2.6 -1.6,-4.3 0,-1.8 0.5,-3.3 1.6,-4.4 1.1,-1.1 2.4,-1.7 4,-1.7 1.6,0 3,0.6 4.1,1.7 1.1,1.1 1.6,2.6 1.6,4.4 0,-0.1 0,-0.1 0,0 z m -18.4,-0.9 c -0.1,-1.7 -0.6,-3.2 -1.4,-4.7 -1,-1.7 -2.3,-3 -3.9,-4 -1.7,-1 -3.5,-1.4 -5.5,-1.4 -3,0 -5.5,1 -7.6,3.2 -2.1,2.1 -3.1,4.7 -3.1,7.7 0,3.2 1.2,5.9 3.5,8 2.1,1.9 4.4,2.8 7.1,2.8 1.9,0 3.8,-0.5 5.5,-1.5 0.1,-0.1 0.2,-0.1 0.3,-0.2 l 0,2.4 c 0,1.8 -0.6,3.2 -1.6,4.3 -1.1,1.1 -2.4,1.7 -4,1.7 -1.6,0 -2.9,-0.5 -4,-1.6 l -3.4,3.6 0.1,0.1 c 2.1,1.9 4.5,2.8 7.1,2.8 1.9,0 3.8,-0.5 5.5,-1.5 1.7,-1 3,-2.3 4,-4 1,-1.7 1.4,-3.5 1.4,-5.4 l 0,-10.9 0,-0.7 c 0.1,-0.2 0.1,-0.5 0,-0.7 z m -5.1,0.7 c 0,1.8 -0.5,3.2 -1.6,4.3 -1.1,1.1 -2.4,1.7 -4,1.7 -1.6,0 -2.9,-0.6 -4,-1.7 -1.1,-1.1 -1.6,-2.5 -1.6,-4.3 0,-1.8 0.5,-3.2 1.6,-4.4 1.1,-1.1 2.4,-1.7 4,-1.7 1.6,0 3,0.6 4,1.7 1,1.2 1.6,2.6 1.6,4.4 z" /></g></g><g
     id="g7764"><g
       style="fill:#ffffff"
       id="g7766"><path
         inkscape:connector-curvature="0"
         id="path7768"
         d="m 197,17.1 0,0.2 c 0,1.8 -0.1,3.1 -0.3,3.6 -0.3,0.8 -0.7,1.4 -1.3,1.8 -0.6,0.4 -1.3,0.6 -2.2,0.6 -0.9,0 -1.6,-0.2 -2.2,-0.6 -0.6,-0.4 -1,-1 -1.3,-1.8 -0.3,-0.7 -0.4,-1.9 -0.4,-3.7 l 0,-10.2 -5.2,0 0,10.3 c 0.1,2.4 0.3,4.1 0.6,5.1 0.6,1.8 1.6,3.2 3,4.2 1.4,1 3.2,1.5 5.5,1.5 2.1,0 3.8,-0.4 5.2,-1.3 1.4,-0.9 2.4,-2.1 3.1,-3.7 0.5,-1.1 0.8,-3.1 0.8,-5.8 l 0,-10.3 -5.3,0 0,10.1 z M 181.6,0 l -5.2,0 0,8.1 C 176.3,8 176.2,8 176.1,7.9 c -1.7,-1 -3.5,-1.5 -5.5,-1.5 -2.7,0 -5.1,0.9 -7.2,2.8 -2.4,2.1 -3.5,4.8 -3.5,8 0,3 1,5.6 3.1,7.7 2.1,2.1 4.6,3.2 7.6,3.2 2,0 3.9,-0.5 5.5,-1.4 1.7,-1 3,-2.3 4,-4 0.8,-1.5 1.3,-3.1 1.4,-4.7 l 0,-0.7 0,-17.3 z m -6.8,21.7 c -1.1,1.1 -2.4,1.7 -4.1,1.7 -1.6,0 -3,-0.6 -4,-1.7 -1.1,-1.1 -1.6,-2.6 -1.6,-4.4 0,-1.7 0.5,-3.2 1.6,-4.3 1.1,-1.1 2.4,-1.7 4,-1.7 1.6,0 3,0.6 4.1,1.7 1.1,1.1 1.6,2.5 1.6,4.3 0,1.8 -0.5,3.3 -1.6,4.4 z m 49.5,-9.8 c -1,-1.7 -2.3,-3 -4,-4 -1.7,-1 -3.5,-1.5 -5.5,-1.5 -2.7,0 -5.1,0.9 -7.2,2.8 -2.4,2.1 -3.5,4.8 -3.5,8 0,3 1,5.6 3.1,7.7 2.1,2.1 4.6,3.2 7.6,3.2 2,0 3.9,-0.5 5.5,-1.4 1.7,-1 3,-2.3 4,-4 1,-1.7 1.5,-3.5 1.5,-5.5 -0.1,-1.8 -0.6,-3.6 -1.5,-5.3 z m -5.4,9.8 c -1.1,1.1 -2.4,1.7 -4.1,1.7 -1.6,0 -3,-0.6 -4,-1.7 -1.1,-1.1 -1.6,-2.6 -1.6,-4.4 0,-1.7 0.5,-3.2 1.6,-4.3 1.1,-1.1 2.4,-1.7 4,-1.7 1.6,0 3,0.6 4.1,1.7 1.1,1.1 1.6,2.5 1.6,4.3 0,1.8 -0.5,3.3 -1.6,4.4 z m 24.9,6.1 5.2,0 0,-20 -5.2,0 0,20 z m -9,-5.4 c -0.6,-0.4 -1.1,-1 -1.3,-1.8 -0.2,-0.6 -0.3,-1.8 -0.3,-3.6 l 0,-17 -5.2,0 0,17 c 0.1,2.8 0.3,4.7 0.8,5.8 0.7,1.6 1.7,2.9 3.1,3.7 1.4,0.9 3.1,1.3 5.2,1.3 l 4,0 0,-4.8 -4,0 c -0.9,0 -1.7,-0.2 -2.3,-0.6 z M 269.5,11.7 C 268.8,10.1 267.8,8.8 266.4,8 265,7.1 263.3,6.7 261.2,6.7 c -2.3,0 -4.1,0.5 -5.5,1.5 -1.4,1 -2.4,2.4 -3,4.2 -0.3,1 -0.5,2.7 -0.6,5.1 l 0,10.3 5.2,0 0,-9.9 0,-0.4 c 0,-1.7 0.1,-3 0.4,-3.7 0.3,-0.8 0.7,-1.3 1.3,-1.8 0.6,-0.4 1.3,-0.6 2.2,-0.6 0.9,0 1.6,0.2 2.2,0.6 0.6,0.4 1,1 1.3,1.8 0.2,0.6 0.3,1.8 0.3,3.6 l 0,10.3 5.2,0 0,-8.8 0,-1.6 c 0.1,-2.5 -0.2,-4.5 -0.7,-5.6 z M 246.3,0.4 c -1.5,0 -2.8,1.2 -2.8,2.8 0,1.5 1.2,2.8 2.8,2.8 1.5,0 2.8,-1.2 2.8,-2.8 -0.1,-1.6 -1.3,-2.8 -2.8,-2.8 z m 69.4,11.7 c -1,-1.7 -2.3,-3 -4,-4 -1.7,-1 -3.5,-1.4 -5.5,-1.4 -3,0 -5.5,1.1 -7.6,3.2 -2.1,2.1 -3.1,4.7 -3.1,7.7 0,3.2 1.2,5.9 3.6,8 2.1,1.9 4.5,2.8 7.2,2.8 1.9,0 3.8,-0.5 5.5,-1.5 1.7,-1 3,-2.3 4,-4 1,-1.7 1.4,-3.5 1.4,-5.4 0,-1.9 -0.5,-3.7 -1.5,-5.4 z m -3.8,5.4 c 0,1.8 -0.5,3.2 -1.6,4.3 -1.1,1.1 -2.4,1.7 -4.1,1.7 -1.6,0 -3,-0.6 -4,-1.7 -1.1,-1.1 -1.6,-2.5 -1.6,-4.3 0,-1.8 0.5,-3.3 1.6,-4.4 1.1,-1.1 2.4,-1.7 4,-1.7 1.6,0 3,0.6 4.1,1.7 1.1,1.2 1.7,2.7 1.6,4.4 0.1,0 0,0 0,0 z m -18.2,-0.8 c -0.1,-1.7 -0.6,-3.2 -1.4,-4.7 -1,-1.7 -2.3,-3 -3.9,-3.9 -1.7,-0.9 -3.5,-1.4 -5.5,-1.4 -2.9,0 -5.4,1 -7.5,3.1 -2.1,2.1 -3.1,4.6 -3.1,7.6 0,3.2 1.2,5.8 3.5,8 2.1,1.9 4.4,2.8 7.1,2.8 1.9,0 3.7,-0.5 5.4,-1.4 0.1,-0.1 0.2,-0.1 0.3,-0.2 l 0,2.3 c 0,1.7 -0.6,3.2 -1.6,4.3 -1,1.1 -2.4,1.6 -4,1.6 -1.6,0 -2.9,-0.5 -3.9,-1.6 l -3.3,3.6 0.1,0.1 c 2.1,1.9 4.4,2.8 7.1,2.8 1.9,0 3.7,-0.5 5.4,-1.4 1.7,-1 3,-2.3 4,-3.9 1,-1.7 1.4,-3.4 1.4,-5.4 l 0,-10.9 0,-0.7 c -0.1,-0.2 -0.1,-0.5 -0.1,-0.7 z m -5.2,0.7 c 0,1.7 -0.5,3.2 -1.6,4.3 -1.1,1.1 -2.4,1.6 -4,1.6 -1.6,0 -2.9,-0.6 -4,-1.7 -1.1,-1.1 -1.6,-2.5 -1.6,-4.2 0,-1.8 0.5,-3.2 1.6,-4.3 1,-1.1 2.4,-1.7 4,-1.7 1.6,0 2.9,0.6 4,1.7 1.1,1.1 1.6,2.5 1.6,4.3 z" /></g></g><g
     style="fill:#ffffff"
     id="g7770"><path
       inkscape:connector-curvature="0"
       id="path7772"
       d="m 429.5,50.4 c 0,-1.2 3.3,-2 3.3,-5.6 0,-2.6 -2.1,-3.7 -2.1,-3.7 l 1.8,-0.1 1.6,-1.1 -5.7,0 c -3.7,0 -7,1.8 -7,5.6 0,4 3.8,4.5 4.7,4.5 0.5,0 1,-0.1 1,-0.1 0,0 -0.4,0.4 -0.4,1.2 0,0.5 0.2,1.1 0.9,1.8 -6.3,0 -7.6,3.3 -7.6,4.9 0,1.6 1.3,4.1 6.1,4.1 4.8,0 7.6,-2.4 7.6,-5.6 0.1,-3 -4.2,-4.2 -4.2,-5.9 z m -1.9,-1.2 c -1.5,0 -3.6,-1.9 -3.6,-5.1 0,-3.2 2.5,-3 2.5,-3 1.6,0 3.7,1.7 3.7,5.1 0,2 -1.1,3 -2.6,3 z m 0,11.6 c -2.8,0 -5.1,-1.3 -5.1,-3.5 0,-2.2 2,-3.3 6.1,-3.3 0,0 3.1,1.7 3.1,3.7 0,2 -1.3,3.1 -4.1,3.1 z m 15.4,-11.7 -2.9,0 0,-2.9 -1.5,0 0,2.9 -2.9,0 0,1.5 2.9,0 0,2.9 1.5,0 0,-2.9 2.9,0 z" /></g><g
     style="fill:#ffffff"
     id="g7774"><path
       inkscape:connector-curvature="0"
       id="path7776"
       d="m 395.5,78.2 c 0,-0.9 2.6,-1.6 2.6,-4.4 0,-2 -1.6,-2.9 -1.6,-2.9 l 1.4,-0.1 1.3,-0.8 -4.5,0 c -3,0 -5.5,1.4 -5.5,4.4 0,3.2 3,3.6 3.7,3.6 0.4,0 0.8,-0.1 0.8,-0.1 0,0 -0.3,0.3 -0.3,1 0,0.4 0.1,0.9 0.7,1.4 -4.9,0 -6,2.6 -6,3.8 0,1.2 1,3.2 4.8,3.2 3.8,0 6,-1.9 6,-4.4 0,-2.5 -3.4,-3.4 -3.4,-4.7 z M 394,77.3 c -1.2,0 -2.8,-1.5 -2.8,-4 0,-2.5 2,-2.4 2,-2.4 1.2,0 2.9,1.4 2.9,4 0,1.5 -0.9,2.4 -2.1,2.4 z m 0,9 c -2.2,0 -4,-1 -4,-2.8 0,-1.7 1.6,-2.6 4.8,-2.6 0,0 2.4,1.3 2.4,2.9 0,1.6 -1,2.5 -3.2,2.5 z m 12.1,-9.1 -2.3,0 0,-2.3 -1.2,0 0,2.3 -2.3,0 0,1.2 2.3,0 0,2.2 1.2,0 0,-2.2 2.3,0 z" /></g><path
     style="fill:#df4a32"
     inkscape:connector-curvature="0"
     id="path7778"
     d="m 376,78.2 c 0,-0.9 2.6,-1.6 2.6,-4.4 0,-2 -1.6,-2.9 -1.6,-2.9 l 1.4,-0.1 1.3,-0.8 -4.5,0 c -3,0 -5.5,1.4 -5.5,4.4 0,3.2 3,3.6 3.7,3.6 0.4,0 0.8,-0.1 0.8,-0.1 0,0 -0.3,0.3 -0.3,1 0,0.4 0.1,0.9 0.7,1.4 -4.9,0 -6,2.6 -6,3.8 0,1.2 1,3.2 4.8,3.2 3.8,0 6,-1.9 6,-4.4 0,-2.5 -3.4,-3.4 -3.4,-4.7 z m -1.5,-0.9 c -1.2,0 -2.8,-1.5 -2.8,-4 0,-2.5 2,-2.4 2,-2.4 1.2,0 2.9,1.4 2.9,4 0,1.5 -0.9,2.4 -2.1,2.4 z m 0,9 c -2.2,0 -4,-1 -4,-2.8 0,-1.7 1.6,-2.6 4.8,-2.6 0,0 2.4,1.3 2.4,2.9 0,1.6 -1,2.5 -3.2,2.5 z m 12.1,-8.9 -2.3,0 0,-2.3 -1.2,0 0,2.3 -2.3,0 0,1.2 2.3,0 0,2.3 1.2,0 0,-2.3 2.3,0 z" /><path
     style="fill:#3b5999"
     inkscape:connector-curvature="0"
     id="path7780"
     d="m 353.5,78.5 0.4,-2.8 -2.8,0 0,-1.7 c 0,-0.8 0.2,-1.4 1.4,-1.4 l 1.5,0 0,-2.5 c -0.3,0 -1.1,-0.1 -2.1,-0.1 -2.1,0 -3.6,1.3 -3.6,3.7 l 0,2.1 -2.4,0 0,2.8 2.4,0 0,7.1 2.9,0 0,-7.1 2.3,0 z" /><g
     style="fill:#ffffff"
     id="g7782"><path
       inkscape:connector-curvature="0"
       id="path7784"
       d="m 329.1,79.5 c 0,0.3 -0.2,0.5 -0.5,0.5 l -3,0 c -0.3,0 -0.5,-0.2 -0.5,-0.5 l 0,-9 c 0,-0.3 0.2,-0.5 0.5,-0.5 l 3,0 c 0.3,0 0.5,0.2 0.5,0.5 l 0,9 z m 12,0 c 0,0.3 -0.2,0.5 -0.5,0.5 l -3,0 c -0.3,0 -0.5,-0.2 -0.5,-0.5 l 0,-9 c 0,-0.3 0.2,-0.5 0.5,-0.5 l 3,0 c 0.3,0 0.5,0.2 0.5,0.5 l 0,9 z m -19,-6.5 2,0 0,3.9 -2,0 z m 20,0 2,0 0,3.9 -2,0 z m -12,1 5.9,0 0,2 -5.9,0 z" /></g><path
     style="fill:#ffffff"
     inkscape:connector-curvature="0"
     id="path7786"
     d="m 454.8,70.1 1.9,3.9 4.3,0.7 -3.1,3 0.7,4.3 -3.8,-2 -3.9,2 0.7,-4.3 -3.1,-3 4.3,-0.7 z" /><g
     id="g7788"><defs
       id="defs7790"><path
         inkscape:connector-curvature="0"
         d="m 63.2,70 14.6,0 0,11.8 -14.6,0 z"
         id="a" /></defs><clipPath
       id="b"><use
         height="100%"
         width="100%"
         y="0"
         x="0"
         style="overflow:visible"
         id="use7794"
         overflow="visible"
         xlink:href="#a" /></clipPath><g
       id="g7796"
       clip-path="url(#b)"><defs
         id="defs7798"><path
           inkscape:connector-curvature="0"
           d="m 63.2,70 14.6,0 0,11.9 -14.6,0 z"
           id="c" /></defs><clipPath
         id="d"><use
           height="100%"
           width="100%"
           y="0"
           x="0"
           style="overflow:visible"
           id="use7802"
           overflow="visible"
           xlink:href="#c" /></clipPath><path
         style="fill:#ffffff"
         inkscape:connector-curvature="0"
         id="path7804"
         d="m 67.8,81.8 c -1.7,0 -3.3,-0.5 -4.6,-1.3 l 0.7,0 c 1.4,0 2.7,-0.5 3.7,-1.3 -1.3,0 -2.4,-0.9 -2.8,-2.1 0.2,0 0.4,0.1 0.6,0.1 0.3,0 0.5,0 0.8,-0.1 -1.4,-0.3 -2.4,-1.5 -2.4,-2.9 0.4,0.2 0.9,0.4 1.4,0.4 -0.8,-0.5 -1.3,-1.5 -1.3,-2.5 0,-0.5 0.1,-1.1 0.4,-1.5 1.5,1.8 3.7,3 6.2,3.1 -0.1,-0.2 -0.1,-0.4 -0.1,-0.7 0,-1.7 1.3,-3 3,-3 0.9,0 1.6,0.4 2.2,0.9 0.7,-0.1 1.3,-0.4 1.9,-0.7 -0.2,0.7 -0.7,1.3 -1.3,1.7 0.6,-0.1 1.2,-0.2 1.7,-0.5 -0.4,0.6 -0.9,1.1 -1.5,1.5 l 0,0.4 c -0.1,4 -3.1,8.5 -8.6,8.5"
         clip-path="url(#d)" /></g></g><path
     style="fill:#ffffff"
     inkscape:connector-curvature="0"
     id="path7806"
     d="m 62.4,78.5 0.4,-2.8 -2.8,0 0,-1.7 c 0,-0.8 0.2,-1.4 1.4,-1.4 l 1.5,0 0,-2.5 c -0.3,0 -1.1,-0.1 -2.1,-0.1 -2.1,0 -3.6,1.3 -3.6,3.7 l 0,2.1 -2.4,0 0,2.8 2.4,0 0,7.1 2.8,0 0,-7.1 2.4,0 z m 405.7,-8.6 c 0,0 -1.2,2.4 -5.9,3.1 0,3.4 2.5,8.6 5.8,10 0.1,-5.1 0.1,-13.1 0.1,-13.1 z m 0.9,0 c 0,0 1.2,2.4 5.9,3.1 0,3.4 -2.5,8.6 -5.8,10 C 469,77.9 469,69.9 469,69.9 Z" /><g
     style="fill:#cbcbcb"
     id="g7808"><path
       inkscape:connector-curvature="0"
       id="path7810"
       d="m 445.5,84.4 c 0.9,-0.8 1.4,-1.9 1.4,-3.1 0,-2.4 -2.1,-4.4 -4.8,-4.4 -2.6,0 -4.8,2 -4.8,4.4 0,2.4 2.1,4.4 4.8,4.4 0.3,0 0.6,0 0.9,-0.1 l 3.2,2.6 -0.7,-3.8 z" /><path
       inkscape:connector-curvature="0"
       id="path7812"
       d="m 435.9,81.2 c 0,-3.2 2.8,-5.8 6.2,-5.8 l 0.6,0 c -0.5,-3.1 -3.4,-5.4 -6.8,-5.4 -3.8,0 -6.9,2.9 -6.9,6.4 0,1.8 0.8,3.4 2.1,4.6 l -1,3.5 3.4,-2.2 c 0.4,0.2 1.2,0.5 2.4,0.5 l 0.2,0 c -0.1,-0.6 -0.2,-1.1 -0.2,-1.6 z" /></g><path
     inkscape:connector-curvature="0"
     id="path7814"
     d="m 526.5,70.5 c -0.8,-0.8 -2,-0.8 -2.8,0 l -6.2,5.8 -1.9,-1.9 c -0.8,-0.8 -2,-0.8 -2.8,0 -0.8,0.8 -0.8,2 0,2.8 l 3.1,3.1 c 0.2,0.2 0.4,0.3 0.7,0.4 0.7,0.4 1.7,0.2 2.3,-0.4 l 7.6,-7.1 c 0.8,-0.6 0.8,-1.9 0,-2.7 z" /><path
     style="fill:#ffffff"
     inkscape:connector-curvature="0"
     id="path7816"
     d="m 596.8,78.6 -1.8,1.8 -1.8,-1.8 c -0.5,-0.5 -1.2,-0.5 -1.6,0 -0.5,0.5 -0.5,1.2 0,1.6 l 1.8,1.8 -1.8,1.8 c -0.5,0.5 -0.5,1.2 0,1.6 0.5,0.5 1.2,0.5 1.6,0 l 1.8,-1.8 1.8,1.8 c 0.5,0.5 1.2,0.5 1.6,0 0.5,-0.5 0.5,-1.2 0,-1.6 l -1.8,-1.8 1.8,-1.8 c 0.5,-0.5 0.5,-1.2 0,-1.6 -0.4,-0.5 -1.1,-0.5 -1.6,0 z m 2.5,-7.9 c -0.5,-0.5 -1.2,-0.5 -1.6,0 L 594.1,74.1 593,73 c -0.5,-0.5 -1.2,-0.5 -1.6,0 -0.5,0.5 -0.5,1.2 0,1.6 l 1.8,1.8 c 0.1,0.1 0.2,0.2 0.4,0.3 0.4,0.2 1,0.1 1.3,-0.2 l 4.4,-4.1 c 0.5,-0.6 0.5,-1.3 0,-1.7 z M 616,70.5 c -0.5,0.5 -0.5,1.4 0,2 l 7.5,7.5 -7.6,7.6 c -0.5,0.5 -0.5,1.4 0,2 0.5,0.5 1.4,0.5 2,0 l 8.2,-8.2 c 0.1,-0.1 0.3,-0.1 0.4,-0.3 0.5,-0.5 0.5,-1.4 0,-2 L 618,70.6 c -0.6,-0.7 -1.5,-0.7 -2,-0.1 z M 633.1,70 c -2.6,0 -4.7,2.1 -4.7,4.7 0,1 0.3,2 0.9,2.8 l 3.7,6.7 3.8,-6.7 c 0.6,-0.8 0.9,-1.7 0.9,-2.8 0.1,-2.6 -2,-4.7 -4.6,-4.7 z m 0,6.4 c -0.9,0 -1.7,-0.8 -1.7,-1.7 0,-0.9 0.8,-1.7 1.7,-1.7 0.9,0 1.7,0.8 1.7,1.7 0,0.9 -0.7,1.7 -1.7,1.7 z" /><path
     inkscape:connector-curvature="0"
     id="path7818"
     d="m 655.4,78.2 c 0,-0.9 2.6,-1.6 2.6,-4.4 0,-2 -1.6,-2.9 -1.6,-2.9 l 1.4,-0.1 1.3,-0.8 -4.5,0 c -3,0 -5.5,1.4 -5.5,4.4 0,3.2 3,3.6 3.7,3.6 0.4,0 0.8,-0.1 0.8,-0.1 0,0 -0.3,0.3 -0.3,1 0,0.4 0.1,0.9 0.7,1.4 -4.9,0 -6,2.6 -6,3.8 0,1.2 1,3.2 4.8,3.2 3.8,0 6,-1.9 6,-4.4 -0.1,-2.5 -3.4,-3.4 -3.4,-4.7 z m -1.5,-0.9 c -1.2,0 -2.8,-1.5 -2.8,-4 0,-2.5 2,-2.4 2,-2.4 1.2,0 2.9,1.4 2.9,4 -0.1,1.6 -1,2.4 -2.1,2.4 z m 0,9 c -2.2,0 -4,-1 -4,-2.8 0,-1.7 1.6,-2.6 4.8,-2.6 0,0 2.4,1.3 2.4,2.9 0,1.6 -1,2.5 -3.2,2.5 z m 12.1,-9.1 -2.3,0 0,-2.3 -1.2,0 0,2.3 -2.3,0 0,1.2 2.3,0 0,2.3 1.2,0 0,-2.3 2.3,0 z" /><path
     style="fill:#ffffff"
     inkscape:connector-curvature="0"
     id="path7820"
     d="m 408,90 c -9.4,0 -17,7.6 -17,17 0,9.4 7.6,17 17,17 9.4,0 17,-7.6 17,-17 0,-9.4 -7.6,-17 -17,-17 z m -9.6,19.5 -2.5,0 0,-4.4 2.5,0 0,4.4 z m 5.2,2.7 c 0,0.3 -0.2,0.6 -0.6,0.6 l -3.3,0 c -0.3,0 -0.6,-0.2 -0.6,-0.6 l 0,-10.1 c 0,-0.3 0.2,-0.6 0.6,-0.6 l 3.3,0 c 0.3,0 0.6,0.2 0.6,0.6 l 0,10.1 z m 8.2,-3.8 -7.3,0 0,-2.2 7.3,0 0,2.2 z m 5.2,3.8 c 0,0.3 -0.2,0.6 -0.6,0.6 l -3.3,0 c -0.3,0 -0.6,-0.2 -0.6,-0.6 l 0,-10.1 c 0,-0.3 0.2,-0.6 0.6,-0.6 l 3.3,0 c 0.3,0 0.6,0.2 0.6,0.6 l 0,10.1 z m 0.8,-2.7 0,-4.4 2.5,0 0,4.4 -2.5,0 z" /><path
     inkscape:connector-curvature="0"
     id="path7822"
     d="m 646.5,79 0.4,-2.8 -2.8,0 0,-1.8 c 0,-0.8 0.2,-1.4 1.4,-1.4 l 1.5,0 0,-2.5 c -0.3,0 -1.1,-0.1 -2.1,-0.1 -2.1,0 -3.6,1.3 -3.6,3.7 l 0,2.1 -2.4,0 0,2.8 2.4,0 0,7.1 2.9,0 0,-7.1 2.3,0 z" /><path
     style="fill:#1caff6"
     inkscape:connector-curvature="0"
     id="path7824"
     d="m 674.1,77.9 -5,5 c -0.6,0.6 -0.6,1.6 0,2.3 0.6,0.6 1.6,0.6 2.3,0 l 6.1,-6.1 c 0.3,-0.3 0.5,-0.7 0.5,-1.1 0,-0.4 -0.2,-0.8 -0.5,-1.1 l -6.1,-6.1 c -0.6,-0.6 -1.6,-0.6 -2.3,0 -0.6,0.6 -0.6,1.6 0,2.3 l 5,4.8 z" /><path
     style="fill:#cbcbcb"
     inkscape:connector-curvature="0"
     id="path7826"
     d="m 684.1,77.9 -5,5 c -0.6,0.6 -0.6,1.6 0,2.3 0.6,0.6 1.6,0.6 2.3,0 l 6.1,-6.1 c 0.3,-0.3 0.5,-0.7 0.5,-1.1 0,-0.4 -0.2,-0.8 -0.5,-1.1 l -6.1,-6.1 c -0.6,-0.6 -1.6,-0.6 -2.3,0 -0.6,0.6 -0.6,1.6 0,2.3 l 5,4.8 z" /><path
     style="fill:#ffffff"
     inkscape:connector-curvature="0"
     id="path7828"
     d="m 694.1,77.9 -5,5 c -0.6,0.6 -0.6,1.6 0,2.3 0.6,0.6 1.6,0.6 2.3,0 l 6.1,-6.1 c 0.3,-0.3 0.5,-0.7 0.5,-1.1 0,-0.4 -0.2,-0.8 -0.5,-1.1 l -6.1,-6.1 c -0.6,-0.6 -1.6,-0.6 -2.3,0 -0.6,0.6 -0.6,1.6 0,2.3 l 5,4.8 z" /><g
     id="g7830"><g
       id="g7832"><path
         style="fill:#d33131"
         inkscape:connector-curvature="0"
         id="path7834"
         d="m 722.6,70 6.3,3.7 0,10.6 -6.3,3.7 -6.4,-3.7 0,-10.6 z" /></g><path
       style="fill:#f93d3d"
       inkscape:connector-curvature="0"
       id="path7836"
       d="m 722.6,70 -6.4,3.7 2.7,2.2 3.7,-1.2 z" /><path
       style="fill:#af2828"
       inkscape:connector-curvature="0"
       id="path7838"
       d="m 722.6,88 6.3,-3.7 -2.6,-2.3 -3.7,1.3 z" /><path
       style="fill:#e83838"
       inkscape:connector-curvature="0"
       id="path7840"
       d="m 722.6,73.8 3.7,2.1 0,6.2 -3.7,2.1 -3.7,-2.1 0,-6.2 z" /><g
       style="fill:#ffffff"
       id="g7842"><path
         inkscape:connector-curvature="0"
         id="path7844"
         d="m 719.3,77.6 c 0,0 -0.1,0 0,0 -0.4,-0.9 -1.1,-1.6 -1.9,-1.9 l 0,-0.1 0,-0.1 c 0.8,-0.3 1.5,-1 1.8,-1.9 l 0.2,0 c 0.3,0.8 1,1.5 1.8,1.9 l 0,0.2 c -0.9,0.4 -1.5,1.1 -1.9,1.9 z" /><path
         inkscape:connector-curvature="0"
         id="path7846"
         d="m 719.3,73.8 c 0.3,0.9 1,1.5 1.9,1.9 -0.8,0.4 -1.5,1 -1.9,1.9 -0.3,-0.9 -1,-1.5 -1.9,-1.9 0.9,-0.4 1.5,-1 1.9,-1.9 m 0,-0.1 c 0,0 -0.1,0 -0.1,0.1 -0.3,0.8 -1,1.5 -1.8,1.8 l -0.1,0.1 c 0,0 0,0.1 0.1,0.1 0.8,0.3 1.5,1 1.8,1.8 l 0.1,0.1 c 0,0 0.1,0 0.1,-0.1 0.3,-0.8 1,-1.5 1.8,-1.8 l 0.1,-0.1 c 0,0 0,-0.1 -0.1,-0.1 -0.8,-0.3 -1.5,-1 -1.8,-1.8 0,-0.1 -0.1,-0.1 -0.1,-0.1 z" /></g><path
       style="opacity:0.3;fill:#f77f7f"
       inkscape:connector-curvature="0"
       id="path7848"
       d="m 724,74.6 -5.1,5.1 0,2.4 0.6,0.3 6.6,-6.6 z m -2.7,8.9 5,-5 0,-1.7 -6.1,6.1 z" /></g><g
     style="fill:#cbcbcb"
     id="g7850"><path
       inkscape:connector-curvature="0"
       id="path7852"
       d="m 767.5,71.5 0,8 -8.9,0 0,-8 8.9,0 m 1,-1.5 -10.9,0 c -0.3,0 -0.5,0.2 -0.5,0.5 l 0,10 c 0,0.3 0.2,0.5 0.5,0.5 l 10.9,0 c 0.3,0 0.5,-0.2 0.5,-0.5 l 0,-10 c 0,-0.3 -0.2,-0.5 -0.5,-0.5 z" /><path
       inkscape:connector-curvature="0"
       id="path7854"
       d="m 759.6,72.8 1.8,0 0,1.2 -1.8,0 z m 5,0 1.8,0 0,1.2 -1.8,0 z m -2.5,0 1.8,0 0,1.2 -1.8,0 z m -2.5,4 1.8,0 0,1.2 -1.8,0 z m 5,0 1.8,0 0,1.2 -1.8,0 z m -2.5,0 1.8,0 0,1.2 -1.8,0 z m -2.5,-2 1.8,0 0,1.2 -1.8,0 z m 5,0 1.8,0 0,1.2 -1.8,0 z m -2.5,0 1.8,0 0,1.2 -1.8,0 z" /></g><path
     style="fill:#cbcbcb"
     inkscape:connector-curvature="0"
     id="path7856"
     d="m 750,75.1 0,-4.2 -2.1,0 0,4.2 -3.1,0 4.2,4.1 4.2,-4.1 z m -7,6 12,0 0,1.9 -12,0 z" /><g
     id="g7858"><path
       inkscape:connector-curvature="0"
       id="path7860"
       d="m 607.5,72 c 3.1,0 5.6,2.5 5.6,5.6 0,3.1 -2.5,5.6 -5.6,5.6 -3.1,0 -5.6,-2.5 -5.6,-5.6 0,-3.1 2.5,-5.6 5.6,-5.6 m 0,-2 c -4.2,0 -7.6,3.4 -7.6,7.6 0,4.2 3.4,7.6 7.6,7.6 4.2,0 7.6,-3.4 7.6,-7.6 0,-4.2 -3.4,-7.6 -7.6,-7.6 z" /><path
       inkscape:connector-curvature="0"
       id="path7862"
       d="m 611.1,79.6 -3.1,-2.2 0,-3.7 -1.4,0 0,4.5 3.6,2.6 z" /></g><g
     style="fill:#ffffff"
     id="g7864"><path
       inkscape:connector-curvature="0"
       id="path7866"
       d="m 707.5,72 c 3.1,0 5.6,2.5 5.6,5.6 0,3.1 -2.5,5.6 -5.6,5.6 -3.1,0 -5.6,-2.5 -5.6,-5.6 0,-3.1 2.5,-5.6 5.6,-5.6 m 0,-2 c -4.2,0 -7.6,3.4 -7.6,7.6 0,4.2 3.4,7.6 7.6,7.6 4.2,0 7.6,-3.4 7.6,-7.6 0,-4.2 -3.4,-7.6 -7.6,-7.6 z" /><path
       inkscape:connector-curvature="0"
       id="path7868"
       d="m 711.1,79.6 -3.1,-2.2 0,-3.7 -1.4,0 0,4.5 3.6,2.6 z" /></g><path
     style="fill:#ffffff"
     inkscape:connector-curvature="0"
     id="path7870"
     d="m 557.3,71 0,-1 -4.1,0 0,1 -3.9,0 0,1.1 12,0 0,-1.1 z m -8,2 2,12 8,0 2,-12 -12,0 z m 4.3,10.5 c -0.3,0 -0.5,-0.2 -0.5,-0.4 l -1,-8.5 c 0,-0.3 0.2,-0.5 0.4,-0.5 0.3,0 0.5,0.2 0.5,0.4 l 1,8.5 c 0.1,0.2 -0.1,0.5 -0.4,0.5 z m 3.9,-0.4 c 0,0.3 -0.3,0.5 -0.5,0.4 -0.3,0 -0.5,-0.3 -0.4,-0.5 l 1,-8.5 c 0,-0.3 0.3,-0.5 0.5,-0.4 0.3,0 0.5,0.3 0.4,0.5 l -1,8.5 z" /><path
     inkscape:connector-curvature="0"
     id="path7872"
     d="m 545.1,71 0,-1 -4.2,0 0,1 -3.9,0 0,1.1 12,0 0,-1.1 z m -8,2 2,12 8,0 2,-12 -12,0 z m 4.2,10.5 c -0.3,0 -0.5,-0.2 -0.5,-0.4 l -1,-8.5 c 0,-0.3 0.2,-0.5 0.4,-0.5 0.3,0 0.5,0.2 0.5,0.4 l 1,8.5 c 0.1,0.2 -0.1,0.5 -0.4,0.5 z m 3.9,-0.4 c 0,0.3 -0.3,0.5 -0.5,0.4 -0.3,0 -0.5,-0.3 -0.4,-0.5 l 1,-8.5 c 0,-0.3 0.3,-0.5 0.5,-0.4 0.3,0 0.5,0.3 0.4,0.5 l -1,8.5 z" /><path
     style="fill:#ffffff"
     inkscape:connector-curvature="0"
     id="path7874"
     d="m 532.6,77.3 c 3.9,-2.2 3.4,-5.1 3.4,-5.1 l -7,0 c 0,1.5 0.5,3.3 3.3,5.1 -3.9,2.2 -3.4,5.1 -3.4,5.1 l 7,0 c 0,-1.6 -0.4,-3.4 -3.3,-5.1 z m -4.6,-6.7 8.9,0 0,1.1 -8.9,0 z m 0,12.5 8.9,0 0,1.1 -8.9,0 z" /><path
     style="fill:#cbcbcb"
     inkscape:connector-curvature="0"
     id="path7876"
     d="m 740.7,72.1 c -0.5,-0.5 -1.1,-0.8 -1.8,-0.8 -0.7,0 -1.3,0.3 -1.8,0.8 l -1.1,1.1 c -0.5,0.5 -0.8,1.1 -0.8,1.8 0,0.5 0.1,0.9 0.4,1.3 l -0.2,0.2 c -0.4,-0.2 -0.8,-0.3 -1.2,-0.3 -0.7,0 -1.3,0.3 -1.8,0.8 l -1.1,1.1 c -0.5,0.5 -0.8,1.1 -0.8,1.8 0,0.7 0.3,1.3 0.8,1.8 0.5,0.5 1.1,0.8 1.8,0.8 0.7,0 1.3,-0.3 1.8,-0.8 l 1.1,-1.1 c 0.5,-0.5 0.8,-1.1 0.8,-1.8 0,-0.4 -0.1,-0.8 -0.3,-1.2 l 0.3,-0.3 c 0.3,0.2 0.7,0.3 1.1,0.3 0.7,0 1.3,-0.3 1.8,-0.8 l 1.1,-1.1 c 0.5,-0.5 0.8,-1.1 0.8,-1.8 0,-0.7 -0.4,-1.3 -0.9,-1.8 z m -5.6,7.6 -1.1,1.1 c -0.5,0.5 -1.4,0.5 -1.9,0 -0.3,-0.3 -0.4,-0.6 -0.4,-1 0,-0.4 0.1,-0.7 0.4,-1 l 1.1,-1.1 c 0.3,-0.3 0.6,-0.4 1,-0.4 l 0.3,0 -1.2,1.2 c -0.3,0.3 -0.3,0.7 0,1 l 0.1,0.1 c 0.3,0.3 0.7,0.3 1,0 l 1.2,-1.2 c -0.1,0.6 -0.2,1 -0.5,1.3 z m 4.7,-4.8 -1.1,1.1 c -0.3,0.3 -0.7,0.4 -1,0.4 l 1.2,-1.2 c 0.3,-0.3 0.3,-0.7 0,-1 l -0.1,-0.1 c -0.3,-0.3 -0.7,-0.3 -1,0 l -1.3,1.3 c -0.1,-0.5 0,-1 0.3,-1.3 l 1.1,-1.1 c 0.3,-0.3 0.6,-0.4 1,-0.4 0.4,0 0.7,0.1 1,0.4 0.3,0.3 0.4,0.6 0.4,1 0,0.4 -0.3,0.6 -0.5,0.9 z" /><g
     style="fill:#ffffff"
     id="g7878"><path
       inkscape:connector-curvature="0"
       id="path7880"
       d="m 502,78 4,0 0,8.1 -4,0 z m 0,-8 4,0 0,1.1 -4,0 z m 5.1,5.8 c 0.4,0.8 1.5,1.2 1.5,1.2 l 2.4,0 0,-4.9 -1.9,0 c -1,0 -2,1 -2,1 l -0.1,-1 -5.3,0 c -3.6,0 -4.5,4.7 -4.5,4.7 1.1,-0.8 1.6,-1.2 3.2,-1.2 1.6,0 1.7,0.5 1.7,0.8 l 0,0.6 4,0 0.5,-1.2 0.5,0 z" /></g><path
     style="fill:#ffffff;stroke:#231f20;stroke-width:3;stroke-miterlimit:10;stroke-opacity:0.07999998"
     inkscape:connector-curvature="0"
     id="path7882"
     d="M 82.3,93 C 70,93 60,101.2 60,111.3 c 0,6.1 3.6,11.4 9.1,14.8 l 0,0.2 c 0,6.6 -8,8.4 -2.4,8.4 5.2,0 10,-3.6 11.1,-5.4 1.5,0.2 3,0.4 4.5,0.4 12.3,0 22.3,-8.2 22.3,-18.3 C 104.7,101.1 94.7,93 82.3,93 Z"
     stroke-miterlimit="10" /><path
     style="fill:#ffffff"
     inkscape:connector-curvature="0"
     id="path7884"
     d="m 600,41 c -6.6,0 -12,5.4 -12,12 0,6.6 5.4,12 12,12 6.6,0 12,-5.4 12,-12 0,-6.6 -5.4,-12 -12,-12 z m 5.5,13.9 -3.3,0 0,3.3 c 0,1.2 -0.9,2.1 -2.1,2.1 -1.2,0 -2.1,-0.9 -2.1,-2.1 l 0,-3.3 -3.3,0 c -1.2,0 -2.1,-0.9 -2.1,-2.1 0,-1.2 0.9,-2.1 2.1,-2.1 l 3.3,0 0,-3.3 c 0,-1.2 0.9,-2.1 2.1,-2.1 1.2,0 2.1,0.9 2.1,2.1 l 0,3.3 3.3,0 c 1.2,0 2.1,0.9 2.1,2.1 0,1.2 -1,2.1 -2.1,2.1 z" /><g
     style="fill:#e2e2e2"
     id="g7886"><path
       inkscape:connector-curvature="0"
       id="path7888"
       d="m 775,80 c -1.4,-0.1 -2.4,-1.3 -2.4,-2.7 0,-1.5 1.2,-2.7 2.7,-2.7 l 1.5,0 0,-2.5 -1.5,0 c -2.9,0 -5.2,2.3 -5.2,5.2 0,2.8 2.2,5.1 5,5.2 l 0,2.3 3.6,-3.6 -3.6,-3.6 0,2.4 z m 6.8,-7.9 -0.3,0 0,-2.2 -3.6,3.6 3.6,3.6 0,-2.4 0.3,0 c 1.5,0 2.7,1.2 2.7,2.7 0,1.5 -1.2,2.7 -2.7,2.7 l -1.9,0 0,2.5 1.9,0 c 2.9,0 5.2,-2.3 5.2,-5.2 0,-3 -2.3,-5.3 -5.2,-5.3 z" /></g><path
     inkscape:connector-curvature="0"
     id="path7890"
     d="m 794.4,81.4 c -1.6,0 -3.1,-0.5 -4.4,-1.3 l 0.7,0 c 1.3,0 2.6,-0.5 3.6,-1.2 -1.3,0 -2.3,-0.9 -2.7,-2 0.2,0 0.4,0.1 0.5,0.1 0.3,0 0.5,0 0.8,-0.1 -1.3,-0.3 -2.3,-1.4 -2.3,-2.8 0.4,0.2 0.8,0.3 1.3,0.4 -0.8,-0.5 -1.3,-1.4 -1.3,-2.4 0,-0.5 0.1,-1 0.4,-1.4 1.4,1.7 3.5,2.9 5.9,3 0,-0.2 -0.1,-0.4 -0.1,-0.7 0,-1.6 1.3,-2.9 2.9,-2.9 0.8,0 1.6,0.3 2.1,0.9 0.7,-0.1 1.3,-0.4 1.8,-0.7 -0.2,0.7 -0.7,1.2 -1.3,1.6 0.6,-0.1 1.1,-0.2 1.7,-0.5 -0.4,0.6 -0.9,1.1 -1.4,1.5 l 0,0.4 c 0,3.7 -2.9,8.1 -8.2,8.1" /><path
     style="fill:#93cc17"
     inkscape:connector-curvature="0"
     id="path7892"
     d="m 707.2,114.2 -7,-24 -23.6,8.3 8.9,4.6 c -8,12.1 -21,19 -33.6,18.5 16.6,8.4 36.5,3.2 46.9,-11.6 l 8.4,4.2 z" /><path
     style="fill:none;stroke:#a5d20c;stroke-width:3;stroke-miterlimit:10"
     inkscape:connector-curvature="0"
     id="path7894"
     d="m 254.4,203.2 c -14,0 -25.3,-11.3 -25.3,-25.3 0,-14 11.3,-25.3 25.3,-25.3 14,0 25.3,11.3 25.3,25.3"
     stroke-miterlimit="10" /><path
     style="fill:none;stroke:#d6d6d6;stroke-width:3;stroke-miterlimit:10"
     inkscape:connector-curvature="0"
     id="path7896"
     d="m 314.4,203.2 c -14,0 -25.3,-11.3 -25.3,-25.3 0,-14 11.3,-25.3 25.3,-25.3 14,0 25.3,11.3 25.3,25.3"
     stroke-miterlimit="10" /><path
     style="fill:none;stroke:#bababa;stroke-width:2;stroke-miterlimit:10"
     inkscape:connector-curvature="0"
     id="path7898"
     d="m 361,166.8 c 0,-2.2 0.8,-3.5 2.2,-4.9 l -0.1,0.1 c 0.9,-1.1 1.5,-2.5 1.5,-4.1 0,-3.6 -2.8,-6.5 -6.4,-6.5 -3.6,0 -6.5,2.8 -6.5,6.4 0,1.8 0.7,3.5 1.9,4.7 1,1.2 1.5,2.2 1.5,4.2 m -1,2.1 7.6,0 m -6.6,3.1 5.6,0 m 29,-17.4 -15.6,15.6 m 0,-15.6 15.6,15.6"
     stroke-miterlimit="10" /><circle
     style="fill:#93cc17"
     id="circle7900"
     r="37.200001"
     cy="186.60001"
     cx="485.29999" /><path
     style="fill:#ffb094"
     inkscape:connector-curvature="0"
     id="path7902"
     d="m 466.7,216.7 c 0.4,-0.8 1.1,-1.3 2.1,-1.2 3,0.4 5.5,2.3 8.1,3.7 l 3.3,0 c 0.4,-1.1 1.1,-2 2.4,-2.3 1.4,-0.3 2.9,0 4.3,0.4 2.5,-1.2 5.5,-1.9 7.9,-1.8 0.4,0 0.7,0.1 1,0.3 0.4,0.1 0.8,0.1 1.2,0.2 1.7,-0.5 3.4,-0.9 5.3,-0.9 0.4,0 0.7,0.1 1,0.2 0.4,-0.4 0.9,-0.7 1.5,-0.7 l 0,-34 c 0,-10.7 -8.7,-19.4 -19.4,-19.4 -10.7,0 -19.4,8.7 -19.4,19.4 l 0,35.5 c 0.3,0.2 0.5,0.4 0.7,0.6 z" /><path
     style="fill:#ffffff"
     inkscape:connector-curvature="0"
     id="path7904"
     d="m 509,191.4 -24,7.6 -24,-7.6 -12.7,0 c 0.1,0.5 0.1,0.9 0.2,1.3 l 0.1,0.1 0.6,0.6 c 0.7,0.7 0.9,1.5 0.7,2.3 2.7,6.9 6.9,12.8 12,17.9 2,1.4 4,3 6,4.5 0.8,0.3 1.5,0.6 2.3,0.8 l 0.6,0 c 10.8,2.1 21.5,-0.7 30.9,-6.1 6.8,-3.9 16.2,-9.7 17.6,-18.1 0.2,-1.3 1.4,-1.9 2.5,-1.8 0.1,-0.5 0.2,-1 0.2,-1.6 l -13,0 z" /><path
     style="fill:#00aaff"
     inkscape:connector-curvature="0"
     id="path7906"
     d="M 522.2,191.7 485,203.3 448.4,191.6 c 2.5,18.2 18.1,32.2 36.9,32.2 18.9,0 34.4,-14 36.9,-32.1 z" /><path
     style="opacity:0.18999999"
     inkscape:connector-curvature="0"
     id="path7908"
     d="m 485.3,223.8 c 18.8,0 34.4,-14 36.9,-32.1 l -37.2,11.6 0,20.5 0.3,0 z" /><path
     style="fill:#88c11a"
     inkscape:connector-curvature="0"
     id="path7910"
     d="m 505.4,207.3 c -2,1.5 -4.8,1.2 -6.3,-0.8 -1.5,-2 -1.2,-4.8 0.8,-6.3" /><path
     style="fill:#774335"
     inkscape:connector-curvature="0"
     id="path7912"
     d="m 505.4,203 1.5,0 0,6.2 -1.5,0 z" /><circle
     style="fill:#934928"
     id="circle7914"
     r="8.1999998"
     cy="160.10001"
     cx="485.20001" /><path
     style="fill:#ad582d"
     inkscape:connector-curvature="0"
     id="path7916"
     d="m 485.4,159.6 c -11,0 -20.1,8.6 -20.9,19.3 l 0.3,0 c 8.4,0 15.8,-4 20.4,-10.3 4.6,6.2 12.1,10.3 20.4,10.3 l 0.7,0 c -0.8,-10.8 -9.9,-19.3 -20.9,-19.3 z" /><path
     style="fill:#cc2f2f"
     inkscape:connector-curvature="0"
     id="path7918"
     d="m 505.9,207.3 c -2.8,0 -13.2,-4.8 -11.8,7.9 0.3,2.5 1.2,4.9 2.5,6.8 8,-2.5 14.9,-7.7 19.5,-14.5 -2.8,-2.3 -8.2,-0.2 -10.2,-0.2 z" /><circle
     style="opacity:0.7;fill:#ffffff"
     id="circle7920"
     r="2.2"
     cy="211.7"
     cx="499.5" /><circle
     style="opacity:0.28000004;fill:#ffffff"
     id="circle7922"
     r="6"
     cy="185.60001"
     cx="494" /><circle
     style="opacity:0.28000004;fill:#ffffff"
     id="circle7924"
     r="6"
     cy="185.60001"
     cx="476.10001" /><path
     style="opacity:0.38999999;fill:#ffffff"
     inkscape:connector-curvature="0"
     id="path7926"
     d="m 476.1,179.5 c -3.3,0 -6,2.7 -6,6 0,1.8 0.8,3.3 2,4.4 l 8.5,-8.5 c -1.2,-1.1 -2.7,-1.9 -4.5,-1.9 z m 17.9,0 c -3.3,0 -6,2.7 -6,6 0,1.8 0.8,3.3 2,4.4 l 8.5,-8.5 c -1.1,-1.1 -2.7,-1.9 -4.5,-1.9 z" /><path
     style="fill:#7f3f22"
     inkscape:connector-curvature="0"
     id="path7928"
     d="m 504.8,184.9 -3.9,0 c -0.4,-3.5 -3.3,-6.3 -6.9,-6.3 -3.2,0 -5.9,2.2 -6.7,5.1 -0.6,-0.5 -1.4,-0.8 -2.2,-0.8 -0.8,0 -1.6,0.3 -2.2,0.8 -0.8,-3 -3.5,-5.1 -6.7,-5.1 -3.6,0 -6.6,2.7 -6.9,6.3 l -3.3,0 0,1.4 3.2,0 c 0.4,3.5 3.3,6.3 6.9,6.3 3.6,0 6.5,-2.7 6.9,-6.2 0,-1.1 0.9,-2 2,-2 1.1,0 2,0.9 2,2 0.4,3.5 3.3,6.2 6.9,6.2 3.6,0 6.6,-2.7 6.9,-6.3 l 3.9,0 0,-1.4 z m -28.6,6.2 c -3.1,0 -5.5,-2.5 -5.5,-5.5 0,-3.1 2.5,-5.5 5.5,-5.5 3.1,0 5.5,2.5 5.5,5.5 l 0,0.6 c -0.3,2.8 -2.7,4.9 -5.5,4.9 z m 17.8,0 c -2.9,0 -5.2,-2.2 -5.5,-5 l 0,-0.2 0,-0.4 c 0,-3.1 2.5,-5.5 5.5,-5.5 3.1,0 5.5,2.5 5.5,5.5 0,3.1 -2.4,5.6 -5.5,5.6 z" /><path
     style="fill:#d6d6d6"
     inkscape:connector-curvature="0"
     id="path7930"
     d="m 324.7,174.3 -7.3,0 0,-12.2 -11.9,17.7 7.3,0 0,12.2 z" /><path
     style="fill:#a5d20c"
     inkscape:connector-curvature="0"
     id="path7932"
     d="m 264.7,174.3 -7.3,0 0,-12.2 -11.9,17.7 7.3,0 0,12.2 z" /><path
     style="opacity:0.65;fill:#7ac70c"
     inkscape:connector-curvature="0"
     id="path7934"
     d="m 410.2,195.2 c 0,-6.4 -6.4,-11.6 -14.4,-11.6 -8,0 -14.4,5.2 -14.4,11.6 0,4.9 3.8,9.1 9.1,10.8 -0.9,1.6 -2.2,3 -3.6,4.2 0.5,0 1,0 1.6,-0.1 3.2,-0.3 6,-1.5 8.3,-3.3 7.5,-0.4 13.4,-5.4 13.4,-11.6 z" /><path
     style="opacity:0.35;fill:#ec0a1b"
     inkscape:connector-curvature="0"
     id="path7936"
     d="m 379.2,195.2 c 0,-6.4 -6.4,-11.6 -14.4,-11.6 -8,0 -14.4,5.2 -14.4,11.6 0,4.9 3.8,9.1 9.1,10.8 -0.9,1.6 -2.2,3 -3.6,4.2 0.5,0 1,0 1.6,-0.1 3.2,-0.3 6,-1.5 8.3,-3.3 7.5,-0.4 13.4,-5.4 13.4,-11.6 z m 17.6,-42.6 2.1,0 0,21.8 -2.1,0 z m 9.6,3 8.7,0 0,13.8 -8.7,0 z" /><path
     style="opacity:0.35;fill:#ec0a1b"
     inkscape:connector-curvature="0"
     id="path7938"
     d="m 405.6,154.8 3.8,0 0,-2.2 -8.7,0 0,13.9 4.9,0 z" /><path
     style="opacity:0.65;fill:#7ac70c"
     inkscape:connector-curvature="0"
     id="path7940"
     d="m 419.8,152.6 2.1,0 0,21.8 -2.1,0 z m 9.6,3 8.7,0 0,13.8 -8.7,0 z" /><path
     style="opacity:0.65;fill:#7ac70c"
     inkscape:connector-curvature="0"
     id="path7942"
     d="m 428.6,154.8 3.8,0 0,-2.2 -8.7,0 0,13.9 4.9,0 z" /><path
     style="opacity:0.8;fill:#ffffff"
     inkscape:connector-curvature="0"
     id="path7944"
     d="m 544.1,149.2 c -9.5,0 -17.3,7.7 -17.3,17.3 0,9.5 7.7,17.3 17.3,17.3 9.5,0 17.3,-7.7 17.3,-17.3 -0.1,-9.6 -7.8,-17.3 -17.3,-17.3 z m 2.5,28.1 -5.5,0 0,-2 5.5,0 0,2 z m 1.1,-3 -7.7,0 0,-2 7.7,0 0,2 z m 2.2,-7.2 c -1.1,1.1 -1.9,2.2 -1.9,4.2 l -2,0 c 0,-2.2 0.7,-3.8 2.3,-5.4 0.8,-1 1.2,-2.2 1.2,-3.4 0,-3 -2.4,-5.5 -5.4,-5.5 -1.4,0 -2.8,0.5 -3.9,1.6 -1,1 -1.6,2.4 -1.6,3.8 0,1.5 0.6,2.9 1.6,3.9 l 0.1,0.1 c 1.1,1.4 1.7,2.6 1.7,4.9 l -2,0 c 0,-1.6 -0.4,-2.4 -1.3,-3.6 -1.4,-1.4 -2.2,-3.3 -2.2,-5.3 0,-2 0.8,-3.9 2.2,-5.3 1.4,-1.4 3.3,-2.2 5.3,-2.1 2,0 3.9,0.8 5.3,2.2 1.4,1.4 2.2,3.3 2.1,5.3 0.1,1.6 -0.5,3.3 -1.5,4.6 z" /><path
     style="fill:#b7b7b7"
     inkscape:connector-curvature="0"
     id="path7946"
     d="m 539.5,90.5 35,0 0,35 -35,0 z m 37,0 35,0 0,35 -35,0 z m 37,0 35,0 0,35 -35,0 z" /><path
     style="fill:#ffffff"
     inkscape:connector-curvature="0"
     id="path7948"
     d="m 562.3,97.4 c 0,0 -1.5,-0.3 -2.9,-0.1 -1.4,0.2 -4,1.1 -4,4.7 l 0,3 -2.7,0 0,3.6 2.7,0 0,10.4 3.4,0 0,-10.4 3.3,0 0.2,-3.6 -3.5,0 0,-2.6 c 0,-0.8 0,-1.6 2.1,-1.6 l 1.2,0 0.2,-3.4 z m 24,6.5 3.7,0 0,11.8 -3.7,0 z" /><circle
     style="fill:#ffffff"
     id="circle7950"
     r="2.0999999"
     cy="100.2"
     cx="588.09998" /><path
     style="fill:#ffffff"
     inkscape:connector-curvature="0"
     id="path7952"
     d="m 592.1,103.9 3.7,0 0,11.8 -3.7,0 z" /><path
     style="fill:#ffffff"
     inkscape:connector-curvature="0"
     id="path7954"
     d="m 599.4,103.6 c 2.2,0 4.1,1.8 4.1,5.2 l 0,6.9 -3.7,0 0,-6.4 c 0,0 0.1,-2.6 -2,-2.6 -2.1,0 -1.9,2.6 -1.9,3.4 0,0.9 -1.4,-0.9 -1.4,-0.9 l 1.2,-3.1 c -0.1,0 0.6,-2.5 3.7,-2.5 z M 461.3,40.4 c 0,0 -1.5,-0.3 -2.9,-0.1 -1.4,0.2 -4,1.1 -4,4.7 l 0,3 -2.7,0 0,3.6 2.7,0 0,10.4 3.4,0 0,-10.4 3.3,0 0.2,-3.6 -3.5,0 0,-2.6 c 0,-0.8 0,-1.6 2.1,-1.6 l 1.2,0 0.2,-3.4 z" /><path
     style="fill:#f6ab00"
     inkscape:connector-curvature="0"
     id="path7956"
     d="m 218.4,162.7 c 0,0 0,-6.3 -0.9,-10.6 -28.4,-4.3 -37.5,-11.6 -38.8,-12.7 0,-0.1 -0.2,-0.1 -0.2,0 -1.2,1.1 -10.4,8.4 -38.8,12.7 -0.9,4.2 -0.9,10.6 -0.9,10.6 0,0 -2.1,40 39.7,60.9 41.9,-21 39.9,-60.9 39.9,-60.9 z" /><path
     style="fill:#f6bb03"
     inkscape:connector-curvature="0"
     id="path7958"
     d="m 178.6,223.6 0,-84.3 c 0,0 -0.1,0 -0.1,0.1 -1.2,1.1 -10.4,8.4 -38.8,12.7 -0.9,4.2 -0.9,10.6 -0.9,10.6 0,0 -2,39.9 39.8,60.9 z" /><path
     style="fill:#5fa8dc"
     inkscape:connector-curvature="0"
     id="path7960"
     d="m 359.2,81.6 c -1.6,0 -3.1,-0.5 -4.3,-1.3 l 0.7,0 c 1.3,0 2.5,-0.4 3.5,-1.2 -1.2,0 -2.3,-0.8 -2.6,-1.9 0.2,0 0.3,0.1 0.5,0.1 0.3,0 0.5,0 0.7,-0.1 -1.3,-0.3 -2.3,-1.4 -2.3,-2.8 0.4,0.2 0.8,0.3 1.3,0.4 -0.8,-0.5 -1.2,-1.4 -1.2,-2.3 0,-0.5 0.1,-1 0.4,-1.4 1.4,1.7 3.5,2.8 5.8,2.9 0,-0.2 -0.1,-0.4 -0.1,-0.6 0,-1.5 1.3,-2.8 2.8,-2.8 0.8,0 1.5,0.3 2,0.9 0.6,-0.1 1.2,-0.4 1.8,-0.7 -0.2,0.7 -0.7,1.2 -1.2,1.6 0.6,-0.1 1.1,-0.2 1.6,-0.4 -0.4,0.6 -0.9,1.1 -1.4,1.5 l 0,0.4 c -0.1,3.4 -2.9,7.7 -8,7.7" /><g
     id="g7962"><path
       style="fill:#1cb0f6"
       inkscape:connector-curvature="0"
       id="path7964"
       d="m 510.4,119.5 c 0.8,1 2.2,1.6 3.6,1.4 1.5,-0.2 2.7,-1.1 3.2,-2.3 -0.8,-1 -2.2,-1.6 -3.6,-1.4 -1.4,0.2 -2.7,1.1 -3.2,2.3 z m -5.2,-5.5 c 0.4,1.2 1.4,2.3 2.8,2.7 1.4,0.4 2.9,0 3.8,-0.9 -0.4,-1.2 -1.4,-2.3 -2.8,-2.7 -1.5,-0.4 -2.9,0 -3.8,0.9 z m -1.6,-8.1 c -0.5,1.2 -0.3,2.7 0.6,3.9 0.9,1.2 2.3,1.8 3.5,1.6 0.5,-1.2 0.3,-2.7 -0.6,-3.9 -0.8,-1.2 -2.2,-1.7 -3.5,-1.6 z m 26.7,13.6 c -0.8,1 -2.2,1.6 -3.6,1.4 -1.4,-0.2 -2.7,-1.1 -3.2,-2.3 0.8,-1 2.2,-1.6 3.6,-1.4 1.5,0.2 2.7,1.1 3.2,2.3 z m 5.3,-5.5 c -0.4,1.2 -1.4,2.3 -2.8,2.7 -1.4,0.4 -2.9,0 -3.8,-0.9 0.4,-1.2 1.4,-2.3 2.8,-2.7 1.5,-0.4 2.9,0 3.8,0.9 z m 1.5,-8.1 c 0.5,1.2 0.3,2.7 -0.6,3.9 -0.9,1.2 -2.3,1.8 -3.5,1.6 -0.5,-1.2 -0.3,-2.7 0.6,-3.9 0.9,-1.2 2.2,-1.7 3.5,-1.6 z" /><g
       id="g7966"><path
         style="fill:#1cb0f6"
         inkscape:connector-curvature="0"
         id="path7968"
         d="m 505.2,114 c 0.4,1.2 1.4,2.3 2.8,2.7 1.4,0.4 2.9,0 3.8,-0.9 -0.4,-1.2 -1.4,-2.3 -2.8,-2.7 -1.5,-0.4 -2.9,0 -3.8,0.9 z" /></g><g
       id="g7970"><path
         style="fill:#1cb0f6"
         inkscape:connector-curvature="0"
         id="path7972"
         d="m 503.6,105.9 c -0.5,1.2 -0.3,2.7 0.6,3.9 0.9,1.2 2.3,1.8 3.5,1.6 0.5,-1.2 0.3,-2.7 -0.6,-3.9 -0.8,-1.2 -2.2,-1.7 -3.5,-1.6 z" /></g><g
       id="g7974"><path
         style="fill:#1cb0f6"
         inkscape:connector-curvature="0"
         id="path7976"
         d="m 537.1,105.9 c 0.5,1.2 0.3,2.7 -0.6,3.9 -0.9,1.2 -2.3,1.8 -3.5,1.6 -0.5,-1.2 -0.3,-2.7 0.6,-3.9 0.9,-1.2 2.2,-1.7 3.5,-1.6 z" /></g><path
       style="fill:#1cb0f6"
       inkscape:connector-curvature="0"
       id="path7978"
       d="m 509.2,94 0,11.2 c 0,6.1 5,11.1 11.1,11.1 6.1,0 11.1,-5 11.1,-11.1 l 0,-11.2 -22.2,0 z m 15.4,11.8 c 0.3,-0.5 0.7,-0.8 1.2,-0.7 0.5,0.2 0.8,0.7 0.7,1.2 -0.8,2.5 -3.1,4.2 -5.7,4.2 -3.3,0 -6,-2.7 -6,-6 0,-1.1 0.3,-2.2 0.9,-3.2 0.3,-0.5 0.9,-0.6 1.4,-0.3 0.5,0.3 0.6,0.9 0.3,1.4 -0.4,0.6 -0.6,1.4 -0.6,2.1 0,2.2 1.8,4 4,4 l 0.6,0 0,-8.3 -0.8,0 0,5.1 c 0,0.1 0,0.2 -0.1,0.3 l -1.1,1.1 c -0.1,0.1 -0.2,0.1 -0.3,0.1 l -0.2,0 c -0.2,-0.1 -0.3,-0.2 -0.3,-0.4 l 0,-6.2 -2.1,0 c -0.7,0 -1.2,0.4 -1.5,1 -0.2,0.4 -0.5,0.6 -0.9,0.6 -0.1,0 -0.3,0 -0.4,-0.1 -0.5,-0.2 -0.8,-0.8 -0.5,-1.3 0.6,-1.4 1.9,-2.2 3.3,-2.2 l 9,0 c 0.6,0 1,0.4 1,1 0,0.6 -0.4,1 -1,1 l -2.2,0 0,8.1 c 0.2,-0.7 0.5,-1.2 1.3,-2.5 z" /></g><g
     id="g7980"><path
       style="fill:#ffffff"
       inkscape:connector-curvature="0"
       id="path7982"
       d="m 622.9,117.6 c 0.6,0.8 1.8,1.3 2.9,1.1 1.1,-0.2 2.2,-0.9 2.6,-1.8 -0.6,-0.8 -1.8,-1.3 -2.9,-1.1 -1.2,0.1 -2.2,0.9 -2.6,1.8 z m -4.2,-4.4 c 0.3,1 1.1,1.9 2.3,2.2 1.2,0.3 2.3,0 3.1,-0.7 -0.3,-1 -1.1,-1.9 -2.3,-2.2 -1.2,-0.3 -2.4,0 -3.1,0.7 z m -1.3,-6.6 c -0.4,1 -0.3,2.2 0.5,3.1 0.8,0.9 1.8,1.4 2.9,1.3 0.4,-1 0.3,-2.2 -0.5,-3.1 -0.7,-0.9 -1.8,-1.4 -2.9,-1.3 z m 21.7,11.1 c -0.6,0.8 -1.8,1.3 -2.9,1.1 -1.1,-0.2 -2.2,-0.9 -2.6,-1.8 0.6,-0.8 1.8,-1.3 2.9,-1.1 1.1,0.2 2.2,0.8 2.6,1.8 z m 4.2,-4.5 c -0.3,1 -1.1,1.9 -2.3,2.2 -1.2,0.3 -2.3,0 -3.1,-0.7 0.3,-1 1.1,-1.9 2.3,-2.2 1.2,-0.3 2.4,0 3.1,0.7 z m 1.3,-6.6 c 0.4,1 0.3,2.2 -0.5,3.1 -0.8,0.9 -1.8,1.4 -2.9,1.3 -0.4,-1 -0.3,-2.2 0.5,-3.1 0.7,-0.9 1.8,-1.4 2.9,-1.3 z" /><g
       id="g7984"><path
         style="fill:#ffffff"
         inkscape:connector-curvature="0"
         id="path7986"
         d="m 618.7,113.2 c 0.3,1 1.1,1.9 2.3,2.2 1.2,0.3 2.3,0 3.1,-0.7 -0.3,-1 -1.1,-1.9 -2.3,-2.2 -1.2,-0.3 -2.4,0 -3.1,0.7 z" /></g><g
       id="g7988"><path
         style="fill:#ffffff"
         inkscape:connector-curvature="0"
         id="path7990"
         d="m 617.4,106.6 c -0.4,1 -0.3,2.2 0.5,3.1 0.8,0.9 1.8,1.4 2.9,1.3 0.4,-1 0.3,-2.2 -0.5,-3.1 -0.7,-0.9 -1.8,-1.4 -2.9,-1.3 z" /></g><g
       id="g7992"><path
         style="fill:#ffffff"
         inkscape:connector-curvature="0"
         id="path7994"
         d="m 644.6,106.6 c 0.4,1 0.3,2.2 -0.5,3.1 -0.8,0.9 -1.8,1.4 -2.9,1.3 -0.4,-1 -0.3,-2.2 0.5,-3.1 0.7,-0.9 1.8,-1.4 2.9,-1.3 z" /></g><path
       style="fill:#ffffff"
       inkscape:connector-curvature="0"
       id="path7996"
       d="m 622,97 0,9.1 c 0,5 4.1,9 9,9 5,0 9,-4.1 9,-9 l 0,-9.1 -18,0 z m 12.5,9.5 c 0.2,-0.4 0.6,-0.7 1,-0.5 0.4,0.1 0.7,0.6 0.5,1 -0.6,2.1 -2.5,3.4 -4.6,3.4 -2.7,0 -4.8,-2.2 -4.8,-4.8 0,-0.9 0.3,-1.8 0.7,-2.6 0.2,-0.4 0.7,-0.5 1.1,-0.3 0.4,0.2 0.5,0.7 0.3,1.1 -0.3,0.5 -0.5,1.1 -0.5,1.7 0,1.8 1.4,3.2 3.2,3.2 l 0.5,0 0,-6.7 -0.6,0 0,4.1 c 0,0.1 0,0.2 -0.1,0.3 l -0.9,0.9 c -0.1,0.1 -0.2,0.1 -0.3,0.1 l -0.1,0 c -0.1,-0.1 -0.2,-0.2 -0.2,-0.3 l 0,-5 -1.7,0 c -0.5,0 -1,0.3 -1.2,0.8 -0.1,0.3 -0.4,0.5 -0.7,0.5 -0.1,0 -0.2,0 -0.3,-0.1 -0.4,-0.2 -0.6,-0.6 -0.4,-1.1 0.5,-1.1 1.5,-1.8 2.7,-1.8 l 7.3,0 c 0.4,0 0.8,0.4 0.8,0.8 0,0.4 -0.4,0.8 -0.8,0.8 l -1.8,0 0,6.6 c 0,-0.6 0.2,-1 0.9,-2.1 z" /></g><path
     style="fill:#1cb0f6"
     inkscape:connector-curvature="0"
     id="path7998"
     d="m 457,95.3 -21.4,0 c -0.7,0 -1.3,0.6 -1.3,1.3 l 0,21.4 c 0,0.7 0.6,1.3 1.3,1.3 l 11.5,0 0,-9.3 -3.1,0 0,-3.6 3.1,0 0,-2.7 c 0,-3.1 1.9,-4.8 4.7,-4.8 1.3,0 2.5,0.1 2.8,0.1 l 0,3.3 -1.9,0 c -1.5,0 -1.8,0.7 -1.8,1.8 l 0,2.3 3.6,0 -0.5,3.6 -3.1,0 0,9.3 6.1,0 c 0.7,0 1.3,-0.6 1.3,-1.3 l 0,-21.3 c 0,-0.8 -0.6,-1.4 -1.3,-1.4 z m 37.6,-0.9 -22.3,0 c -1.1,0 -1.9,0.8 -1.9,1.9 l 0,22.4 c 0,1 0.9,1.9 1.9,1.9 l 22.3,0 c 1.1,0 1.9,-0.8 1.9,-1.9 l 0,-22.4 c 0.1,-1.1 -0.8,-1.9 -1.9,-1.9 z m -16.5,22.3 -3.9,0 0,-12.5 3.9,0 0,12.5 z m -1.9,-14.2 c -1.2,0 -2.3,-1 -2.3,-2.3 0,-1.2 1,-2.3 2.3,-2.3 1.2,0 2.3,1 2.3,2.3 -0.1,1.3 -1.1,2.3 -2.3,2.3 z m 16.5,14.2 -3.9,0 0,-6.1 c 0,-1.5 0,-3.3 -2,-3.3 -2,0 -2.3,1.6 -2.3,3.2 l 0,6.2 -3.9,0 0,-12.5 3.7,0 0,1.7 0.1,0 c 0.5,-1 1.8,-2 3.7,-2 3.9,0 4.7,2.6 4.7,6 l 0,6.8 z" /><g
     id="g8000"><path
       style="fill:#dcdcdc"
       inkscape:connector-curvature="0"
       id="path8002"
       d="m 641.1,144 0,27.9 c 0,15.2 -12.5,27.7 -27.7,27.7 -15.2,0 -27.7,-12.5 -27.7,-27.7 l 0,-27.9 55.4,0 z" /><path
       style="fill:#e7e7e7"
       inkscape:connector-curvature="0"
       id="path8004"
       d="m 611.4,144 -13.2,13.2 c -2.9,2.9 -2.9,7.6 0,10.5 2.9,2.9 7.6,2.9 10.5,0 l 23.7,-23.7 -21,0 z m -8.2,53.6 37.9,-37.9 0,-15.7 -47.3,47.3 c 2.6,2.7 5.9,4.9 9.4,6.3 z" /><path
       style="fill:#c4c4c4"
       inkscape:connector-curvature="0"
       id="path8006"
       d="m 638.1,147 0,24.9 c 0,13.6 -11.1,24.7 -24.7,24.7 -13.6,0 -24.7,-11.1 -24.7,-24.7 l 0,-24.9 49.4,0 m 3,-3 -55.4,0 0,27.9 c 0,15.2 12.5,27.7 27.7,27.7 15.2,0 27.7,-12.5 27.7,-27.7 l 0,-27.9 z" /><path
       style="fill:#7ac70c"
       inkscape:connector-curvature="0"
       id="path8008"
       d="m 588.6,207.5 c 2,2.5 5.4,4 9.1,3.5 3.7,-0.5 6.6,-2.7 7.9,-5.6 -2,-2.5 -5.4,-4 -9.1,-3.5 -3.7,0.4 -6.7,2.6 -7.9,5.6 z m -13.1,-13.6 c 0.9,3.1 3.5,5.7 7.1,6.7 3.6,1 7.2,0 9.4,-2.2 -0.9,-3.1 -3.5,-5.7 -7.1,-6.7 -3.5,-1 -7.1,-0.1 -9.4,2.2 z m -3.8,-20.3 c -1.2,3 -0.8,6.6 1.4,9.6 2.2,3 5.6,4.4 8.8,4.1 1.2,-3 0.8,-6.6 -1.4,-9.6 -2.2,-3 -5.6,-4.4 -8.8,-4.1 z m 66.5,34 c -2,2.5 -5.4,4 -9.1,3.5 -3.7,-0.5 -6.6,-2.7 -7.9,-5.6 2,-2.5 5.4,-4 9.1,-3.5 3.7,0.5 6.6,2.6 7.9,5.6 z m 13.2,-13.7 c -0.9,3.1 -3.5,5.7 -7.1,6.7 -3.6,1 -7.2,0 -9.4,-2.2 0.9,-3.1 3.5,-5.7 7.1,-6.7 3.5,-1 7.1,-0.1 9.4,2.2 z m 3.7,-20.3 c 1.2,3 0.8,6.6 -1.4,9.6 -2.2,3 -5.6,4.4 -8.8,4.1 -1.2,-3 -0.8,-6.6 1.4,-9.6 2.2,-2.9 5.6,-4.4 8.8,-4.1 z" /><path
       style="fill:#6eaa05"
       inkscape:connector-curvature="0"
       id="path8010"
       d="m 597.8,203.7 c 2,0 3.9,0.7 5.3,1.9 -1.2,1.8 -3.3,3.1 -5.7,3.4 -0.4,0 -0.7,0.1 -1.1,0.1 -2,0 -3.9,-0.7 -5.3,-1.9 1.2,-1.8 3.3,-3.1 5.7,-3.4 0.4,0 0.7,-0.1 1.1,-0.1 m 0,-2 c -0.4,0 -0.9,0 -1.4,0.1 -3.7,0.5 -6.6,2.7 -7.9,5.6 1.7,2.2 4.6,3.6 7.7,3.6 0.4,0 0.9,0 1.4,-0.1 3.7,-0.5 6.6,-2.7 7.9,-5.6 -1.7,-2.2 -4.5,-3.6 -7.7,-3.6 z m -15.6,-8.4 c 0.8,0 1.5,0.1 2.2,0.3 2.3,0.6 4.2,2.1 5.2,4.1 -1.2,0.8 -2.7,1.3 -4.3,1.3 -0.8,0 -1.5,-0.1 -2.2,-0.3 -2.3,-0.6 -4.2,-2.1 -5.2,-4.1 1.2,-0.9 2.7,-1.3 4.3,-1.3 m 0,-2 c -2.6,0 -5,1 -6.7,2.6 0.9,3.1 3.5,5.7 7.1,6.7 0.9,0.2 1.9,0.4 2.8,0.4 2.6,0 5,-1 6.7,-2.6 -0.9,-3.1 -3.5,-5.7 -7.1,-6.7 -1,-0.3 -1.9,-0.4 -2.8,-0.4 z m -9,-15.7 c 2.2,0.2 4.3,1.4 5.7,3.3 1.4,1.9 2,4.3 1.5,6.4 -2.2,-0.2 -4.3,-1.4 -5.7,-3.3 -1.4,-1.9 -2,-4.3 -1.5,-6.4 m -0.6,-2 -0.9,0 c -1.2,3 -0.8,6.6 1.4,9.6 2,2.7 5,4.2 7.9,4.2 l 0.9,0 c 1.2,-3 0.8,-6.6 -1.4,-9.6 -2,-2.8 -5,-4.2 -7.9,-4.2 z m 56.4,30.2 c 0.4,0 0.7,0 1.1,0.1 2.4,0.3 4.5,1.5 5.7,3.4 -1.4,1.2 -3.3,1.9 -5.3,1.9 -0.4,0 -0.7,0 -1.1,-0.1 -2.4,-0.3 -4.5,-1.5 -5.7,-3.4 1.4,-1.2 3.3,-1.9 5.3,-1.9 m 0,-2 c -3.1,0 -6,1.4 -7.7,3.6 1.3,2.9 4.2,5.2 7.9,5.6 0.5,0.1 0.9,0.1 1.4,0.1 3.1,0 6,-1.4 7.7,-3.6 -1.3,-2.9 -4.2,-5.2 -7.9,-5.6 -0.5,0 -1,-0.1 -1.4,-0.1 z m 15.7,-8.5 c 1.6,0 3.1,0.4 4.3,1.3 -1,2 -2.9,3.5 -5.2,4.1 -0.7,0.2 -1.5,0.3 -2.2,0.3 -1.6,0 -3.1,-0.4 -4.3,-1.3 1,-2 2.9,-3.5 5.2,-4.1 0.7,-0.2 1.4,-0.3 2.2,-0.3 m 0,-2 c -0.9,0 -1.8,0.1 -2.8,0.4 -3.6,1 -6.2,3.6 -7.1,6.7 1.7,1.6 4.1,2.6 6.7,2.6 0.9,0 1.8,-0.1 2.8,-0.4 3.6,-1 6.2,-3.6 7.1,-6.7 -1.7,-1.7 -4.1,-2.6 -6.7,-2.6 z m 8.9,-15.7 c 0.4,2.1 -0.1,4.5 -1.5,6.4 -1.4,1.9 -3.5,3.1 -5.7,3.3 -0.4,-2.1 0.1,-4.5 1.5,-6.4 1.4,-1.9 3.5,-3.1 5.7,-3.3 m 0.6,-2 c -2.9,0 -5.9,1.5 -7.9,4.2 -2.2,3 -2.6,6.7 -1.4,9.6 l 0.9,0 c 2.9,0 5.9,-1.5 7.9,-4.2 2.2,-3 2.6,-6.7 1.4,-9.6 l -0.9,0 z" /></g></svg>