<svg xmlns="http://www.w3.org/2000/svg" xmlns:xlink="http://www.w3.org/1999/xlink" xmlns:a="http://ns.adobe.com/AdobeSVGViewerExtensions/3.0/" version="1.1" x="0px" y="0px" viewBox="-0.726 -0.476 100 125" enable-background="new -0.726 -0.476 100 100" xml:space="preserve"><path d="M49.439,0C22.178,0,0,22.178,0,49.439c0,27.26,22.178,49.438,49.439,49.438s49.438-22.178,49.438-49.438  C98.877,22.178,76.7,0,49.439,0z M67.508,91.119l-2.984-0.928l-4-0.667l-7.25,1.667l-2,1.333h-3.667l-2.251,0.084l-2.416-1.084  l-1.5-2l-1.78-0.5l0.28,1.917l-1.333,2.083l-4.5-2.333l-1.431,0.968C15.896,84.974,4,68.574,4,49.439  c0-2.635,0.238-5.213,0.67-7.727l3.937,1.312l2.667,1.667l0.833,1.759l1.5,2.988l2.667,1.253l-5.833,2.5l-0.167,7.833l0.728,3.5  l3.106,1.834l1.833,2.666l4.833,8.667l2.077,5.667l4.257,4.166l3.667,1.5l1-1.666l-1.5-3.167l0.28-5.5l0.887-3.333l5.333-2.5  l-1.5-3.834c0,0,2.167-4.166,2-5.166s3-2.5,3-2.5l1.545-0.702l1.122-2.798l-0.542-2.096l-1.958-0.571l-4.833-5.753l-4.333-2.988  l-11.167-0.759l-2.167,2l-2.333,0.167l0.333-2.167l-0.333-1.5l1-2.333l1.553-0.988l-0.887-1.345h-3.333c0,0-1.667-2.667-2.833-4  s4.833-9.667,4.833-9.667l6-0.167l0.91,3.333l1.59,1.667l2.333,0.833l-1.5-4v-2.5l1.917-3l2.083-3.5v-1v-2l2-1l3.667-0.833  l0.591-1.902c0,0-0.8-1.768-0.424-2.098s0.522-2.667,2.045-3.834c0.101-0.077,0.18-0.152,0.245-0.225  c1.556-0.429,3.143-0.78,4.761-1.042l-0.884,1.6v2.333h3l1.5-1.833l3.665-1.167l-0.084-1.522C49.383,4.002,49.411,4,49.439,4  c2.761,0,5.459,0.261,8.085,0.735l-1.835,0.665l3.128,1.229l3.477,0.698l1.813,1.198l0.334,3.333l4.166,2.667l3.4,0.582l-1.4,1.918  l-2.833,1.333l-1.667,1.667l0.5,2.167l4.31,1.493l2.19-0.826l2.936-1l1.564-2.333l2.334,1.5l-0.834,2.333l4.583,0.667l3.584,2.333v1  l-3.584-3.333l-5.749-0.333l-5.334,0.167l-3.5,1.833l-3.5,1.667l-3.666,3l-1.5,4.167l1.5,2.5l0.966,2.771l-1.966,2.253l1.666,3.142  l4.667,2.333l3.5,2.833l5.27,0.667l3.397,0.667l3-0.667l1.5,2.5l0.166,2.333l-1.166,4l1.083,1.667l-3.75,5v3.333l-1.602,5.269  l-1.898,2.731l2.104,2.5l2.816-0.026l1.063-0.974l0.776,0.068C79.143,84.413,73.682,88.433,67.508,91.119z"/><polygon points="20.274,35.524 20.274,36.524 21.774,36.524 24.107,37.524 25.607,36.524 22.941,35.524 "/><polygon points="26.274,35.524 28.44,36.524 29.274,35.524 27.774,34.524 "/><polygon points="31.274,37.524 32.94,37.024 31.274,36.524 "/><path d="M62.941,10.524c0,0-0.458-1.125-0.626-2.125c-0.166-1-2.958,0.042-2.958,0.042l-1.25,0.804l3.167,1.279H62.941z"/></svg>