<svg xmlns="http://www.w3.org/2000/svg" xmlns:xlink="http://www.w3.org/1999/xlink" version="1.1" x="0px" y="0px" viewBox="0 0 100 125" enable-background="new 0 0 100 100" xml:space="preserve"><path d="M35,40.6h-1.8c0.2,2.5,0.8,5,2,7.3l1.5-0.9c0.7-0.4,1.6-0.2,1.9,0.5l0.2,0.4c0.4,0.7,0.2,1.6-0.5,1.9l-1.5,0.9  C43,59.7,55.1,62.5,64.6,57c2.7-1.6,4.9-3.7,6.6-6.2l-1.5-0.9c-0.7-0.4-0.9-1.3-0.5-1.9l0.2-0.4c0.4-0.7,1.3-0.9,1.9-0.5l1.5,0.9  c1.1-2.3,1.8-4.8,2-7.3H73c-0.8,0-1.4-0.6-1.4-1.4v-0.4c0-0.8,0.6-1.4,1.4-1.4h1.8c-0.2-2.5-0.8-5-2-7.3l-1.5,0.9  c-0.7,0.4-1.6,0.2-1.9-0.5L69.1,30c-0.4-0.7-0.2-1.6,0.5-1.9l1.5-0.9c-1.5-2.2-3.3-4-5.4-5.4l-0.9,1.5c-0.4,0.7-1.3,0.9-1.9,0.5  l-0.4-0.2c-0.7-0.4-0.9-1.3-0.5-1.9l0.9-1.5c-2.3-1.1-4.8-1.8-7.3-2V20c0,0.8-0.6,1.4-1.4,1.4h-0.4c-0.8,0-1.4-0.6-1.4-1.4v-1.8  c-2.5,0.2-5,0.8-7.3,2l0.9,1.5c0.4,0.7,0.2,1.6-0.5,1.9L45,23.9c-0.7,0.4-1.6,0.2-1.9-0.5l-0.9-1.5c-2.2,1.5-4,3.3-5.4,5.4l1.5,0.9  c0.7,0.4,0.9,1.3,0.5,1.9l-0.2,0.4c-0.4,0.7-1.3,0.9-1.9,0.5L35.2,30c-1.1,2.3-1.8,4.8-2,7.3H35c0.8,0,1.4,0.6,1.4,1.4v0.4  C36.4,40,35.8,40.6,35,40.6z M51.9,35.5c1.1-0.7,2.5-0.7,3.6-0.3l8.4-4c0.8-0.4,1.7-0.1,2.2,0.6c0.4,0.7,0.2,1.7-0.5,2.2l-7.5,5.4  c-0.1,1.2-0.8,2.4-2,3.1c-1.9,1.2-4.5,0.5-5.6-1.4C49.4,39.1,50,36.6,51.9,35.5z M52.3,38.5c0.2-1,1.2-1.5,2.2-1.3  c1,0.2,1.5,1.2,1.3,2.2c-0.2,1-1.2,1.5-2.2,1.3C52.6,40.5,52,39.5,52.3,38.5z M17,36.5l-0.1,1c0,3.4-1.3,8.6-2.8,11.6  c-1.6,3.1-3.3,6.2-4.8,8.4c-1.4,2.1,0.2,5,2.7,5h4.9v17.8c0,3.6,2.9,6.5,6.5,6.5h10.2v9c0,1.7,1.7,2.9,3.3,2.3l42.8-14.6  c1.5-0.5,2.5-1.9,2.5-3.5V63.3c5.9-6.8,9.3-15.7,9.1-25.4C90.7,19,75.6,3.2,56.8,1.9C35.8,0.4,18.3,16.2,17,36.5z M40.3,15.6  c12.9-7.6,29.6-3.2,37.2,9.7c7.6,12.9,3.2,29.6-9.7,37.2c-12.9,7.6-29.6,3.2-37.2-9.7C23,39.8,27.4,23.2,40.3,15.6z"/><text x="0" y="115" fill="#000000" font-size="5px" font-weight="bold" font-family="'Helvetica Neue', Helvetica, Arial-Unicode, Arial, Sans-serif">Created by Gregor Črešnar</text><text x="0" y="120" fill="#000000" font-size="5px" font-weight="bold" font-family="'Helvetica Neue', Helvetica, Arial-Unicode, Arial, Sans-serif">from the Noun Project</text></svg>