<svg xmlns="http://www.w3.org/2000/svg" xmlns:xlink="http://www.w3.org/1999/xlink" version="1.1" x="0px" y="0px" viewBox="0 0 52.4 61.625" enable-background="new 0 0 52.4 49.3" xml:space="preserve"><path d="M51.3,6.6L45,0h-1.8c-1.3,0-1.9,0.7-1.9,1.9v5.9c-4.2-4.1-9.2-6.3-15-6.3c-5.9,0-11,2.3-15.2,6.6V1.9c0-1.2-0.7-1.9-2-1.9  H7.3l-6.2,6.6v1.6C1.101,9.4,1.7,10,3,10h6.101c0.1,0,0.2,0,0.2,0c-2.6,3.3-4.2,7.1-4.8,11.2H3.8C1.3,21.2,0,22.5,0,25v2.7  c0,2.5,1.3,3.7,3.8,3.7h1c1,4.1,2.9,7.7,5.8,10.9c4.3,4.6,9.6,7,15.7,7s11.3-2.4,15.7-7c2.9-3.2,4.9-6.8,5.8-10.9h0.8  c2.5,0,3.8-1.2,3.8-3.7V25c0-2.5-1.3-3.8-3.8-3.8h-0.5c-0.601-4.1-2.2-7.9-4.8-11.2h6.1c1.2,0,1.9-0.6,1.9-1.8V6.6z M48.601,22.7  c1.5,0,2.3,0.8,2.3,2.3v2.7c0,1.5-0.8,2.2-2.3,2.2h-0.5c0.3-1.4,0.399-2.9,0.399-4.5c0-0.9-0.1-1.8-0.1-2.7H48.601z M46.601,22  c0,0.2,0.1,0.3,0.2,0.4c0.1,1,0.2,2,0.2,3c0,6.2-2.1,11.5-6.1,15.8c-4,4.4-8.9,6.6-14.6,6.6s-10.5-2.2-14.6-6.6  c-4-4.3-6.1-9.6-6.1-15.8c0-1.4,0.1-2.7,0.399-3.9v-0.1l0,0c0.101,0,0.2,0,0.3,0c5.3,0,10.1-1.8,14.6-5.5c2.8-2.2,4.9-4.7,6.2-7.4  c1.5,2.8,3.5,5.2,6.2,7.4c4.1,3.3,8.5,5.1,13.3,5.4c0,0.1,0,0.1,0,0.2c0,0,0,0.2,0.1,0.2C46.601,21.8,46.601,21.9,46.601,22z   M1.5,25c0-1.5,0.8-2.3,2.3-2.3h0.5c-0.1,0.9-0.2,1.8-0.2,2.7c0,1.6,0.2,3.1,0.399,4.5H3.8c-1.5,0-2.3-0.7-2.3-2.2V25z"/><path d="M40,30.9c1.4-1.4,2-2.9,2-4.7c0-1.8-0.6-3.4-2-4.7c-1.3-1.3-2.899-2-4.7-2s-3.4,0.7-4.7,2l0,0c-1,1-1.7,2.3-1.8,3.7  c-1.7-0.8-3.4-0.8-5.2,0c-0.101-1.4-0.7-2.7-1.8-3.7c-1.4-1.3-2.9-2-4.7-2c-1.8,0-3.4,0.7-4.7,2l0,0c-1.3,1.3-2,2.9-2,4.7  c0,1.8,0.7,3.3,2,4.7c1.3,1.3,2.9,1.9,4.7,1.9c1.8,0,3.3-0.6,4.7-1.9c1.1-1.2,1.8-2.6,1.9-4.2c0.1,0,0.2,0,0.2,0c1.6-1,3.2-1,4.8,0  c0.1,1.6,0.7,3,1.9,4.2c1.3,1.3,2.899,1.9,4.7,1.9S38.7,32.2,40,30.9z M38.9,22.6c1,1,1.5,2.2,1.5,3.6c0,1.3-0.5,2.5-1.5,3.5  c-0.9,1-2.1,1.5-3.6,1.5c-1.4,0-2.6-0.5-3.5-1.5c-1-1-1.5-2.2-1.5-3.5c0-1.4,0.5-2.6,1.5-3.6c0.9-1,2.1-1.5,3.5-1.5  C36.8,21.1,38,21.6,38.9,22.6z M12.101,26.2c0-1.4,0.5-2.6,1.5-3.6c0.899-1,2.1-1.5,3.5-1.5c1.3,0,2.5,0.5,3.5,1.5l0,0  c1,1,1.5,2.2,1.5,3.6c0,1.3-0.5,2.5-1.5,3.5s-2.2,1.5-3.5,1.5c-1.4,0-2.601-0.5-3.5-1.5C12.601,28.7,12.101,27.5,12.101,26.2z"/><path d="M35.3,24c-0.5-0.5-1.1-0.6-1.8-0.6c-0.6,0-1.1,0.2-1.6,0.6c-0.5,0.5-0.8,1.1-0.8,1.7c0,0.7,0.3,1.3,0.8,1.7  c0,0.1,0,0.1,0,0.1c0.5,0.5,1,0.7,1.6,0.7c0.7,0,1.3-0.3,1.8-0.7c0.5-0.5,0.7-1.1,0.7-1.8c0-0.6-0.2-1.2-0.6-1.7H35.3z M33.5,24.9  c0.3,0,0.5,0.1,0.601,0.3c0.2,0.2,0.3,0.3,0.3,0.5c0,0.3,0,0.5-0.2,0.7c-0.2,0.1-0.4,0.2-0.7,0.2c-0.1,0-0.3-0.1-0.5-0.2  c0-0.1,0-0.1,0-0.1c-0.1-0.1-0.2-0.3-0.2-0.6c0-0.2,0.1-0.3,0.2-0.5C33.101,25,33.3,24.9,33.5,24.9z"/><path d="M20.601,24L20.601,24c-0.5-0.5-1.101-0.6-1.7-0.6c-0.7,0-1.3,0.2-1.8,0.6c-0.5,0.5-0.7,1.1-0.7,1.7c0,0.7,0.2,1.3,0.7,1.7  c0,0.1,0,0.1,0,0.1c0.5,0.5,1.1,0.7,1.8,0.7c0.6,0,1.2-0.3,1.7-0.7c0.5-0.5,0.7-1.1,0.7-1.8C21.3,25.1,21.101,24.5,20.601,24z   M18.3,25.2c0.1-0.2,0.3-0.3,0.6-0.3c0.2,0,0.4,0.1,0.5,0.3c0.2,0.2,0.2,0.3,0.2,0.5c0,0.3,0,0.5-0.2,0.7c-0.1,0.1-0.3,0.2-0.5,0.2  c-0.3,0-0.5-0.1-0.5-0.2c-0.1-0.1-0.1-0.1-0.1-0.1c-0.2-0.1-0.2-0.3-0.2-0.6C18.101,25.5,18.101,25.4,18.3,25.2z"/><path d="M18.3,38c0.4,0.6,0.9,1.2,1.6,1.9c1.9,1.9,4.2,2.9,7,2.9c2.7,0,5.1-1,7.1-2.9c0.601-0.7,1.101-1.3,1.5-1.9  c0.101-0.3,0.2-0.5,0.101-0.7c0-0.3-0.101-0.4-0.3-0.6c-0.3-0.1-0.5-0.1-0.8-0.1c-0.2,0.1-0.399,0.2-0.5,0.4  c-0.399,0.6-0.7,1.1-1.2,1.6c-1.7,1.6-3.6,2.4-5.9,2.4s-4.2-0.8-5.8-2.4l0,0c-0.5-0.5-1-1-1.2-1.6c-0.2-0.2-0.4-0.3-0.6-0.4  c-0.3,0-0.5,0-0.7,0.1c-0.2,0.2-0.3,0.3-0.4,0.6C18.101,37.5,18.101,37.7,18.3,38z"/></svg>