<?xml version="1.0" encoding="UTF-8" standalone="no"?>
<!-- Generator: Adobe Illustrator 16.0.0, SVG Export Plug-In . SVG Version: 6.00 Build 0)  -->

<svg
   xmlns:dc="http://purl.org/dc/elements/1.1/"
   xmlns:cc="http://creativecommons.org/ns#"
   xmlns:rdf="http://www.w3.org/1999/02/22-rdf-syntax-ns#"
   xmlns:svg="http://www.w3.org/2000/svg"
   xmlns="http://www.w3.org/2000/svg"
   xmlns:sodipodi="http://sodipodi.sourceforge.net/DTD/sodipodi-0.dtd"
   xmlns:inkscape="http://www.inkscape.org/namespaces/inkscape"
   version="1.1"
   id="Layer_1"
   x="0px"
   y="0px"
   width="398px"
   height="227px"
   viewBox="0 0 398 227"
   enable-background="new 0 0 398 227"
   xml:space="preserve"
   inkscape:version="0.91 r"
   sodipodi:docname="svgxml.svg"><metadata
     id="metadata14638"><rdf:RDF><cc:Work
         rdf:about=""><dc:format>image/svg+xml</dc:format><dc:type
           rdf:resource="http://purl.org/dc/dcmitype/StillImage" /><dc:title></dc:title></cc:Work></rdf:RDF></metadata><defs
     id="defs14636"><clipPath
       clipPathUnits="userSpaceOnUse"
       id="clipPath16613"><rect
         style="fill:#999999;fill-opacity:1;stroke:none;stroke-opacity:1"
         id="rect16615"
         width="433.22931"
         height="233.67093"
         x="-18.193357"
         y="-3.2596796"
         ry="0" /></clipPath></defs><sodipodi:namedview
     pagecolor="#ffffff"
     bordercolor="#666666"
     borderopacity="1"
     objecttolerance="10"
     gridtolerance="10"
     guidetolerance="10"
     inkscape:pageopacity="0"
     inkscape:pageshadow="2"
     inkscape:window-width="1366"
     inkscape:window-height="716"
     id="namedview14634"
     showgrid="false"
     inkscape:zoom="1.7588837"
     inkscape:cx="139.70202"
     inkscape:cy="74.61612"
     inkscape:window-x="0"
     inkscape:window-y="0"
     inkscape:window-maximized="1"
     inkscape:current-layer="Layer_1" /><path
     style="fill:#e53838"
     inkscape:connector-curvature="0"
     d="m 74.435085,70.39083 24.758,0 0,160.162 -24.758,0 0,-160.162 z"
     id="path14462" /><path
     style="fill:#bf7358"
     inkscape:connector-curvature="0"
     d="m 99.307085,83.57483 -23.619,0 c -3.098,0 -5.632,-2.545 -5.632,-5.655 l 0,-17.134 c 0,-3.11 2.534,-5.655 5.632,-5.655 l 23.617,0 c 3.097995,0 5.631995,2.545 5.631995,5.655 l 0,17.134 c 0,3.11 -2.534,5.655 -5.631995,5.655"
     id="path14464" /><path
     style="fill:#bf7358"
     inkscape:connector-curvature="0"
     d="m 99.254085,83.57483 c -3.126,0 -5.684,-2.568 -5.684,-5.707 l 0,-17.03 c 0,-3.139 2.558,-5.707 5.684,-5.707 3.126995,0 5.683995,2.568 5.683995,5.708 l 0,17.029 c 0,3.139 -2.557,5.707 -5.683995,5.707"
     id="path14470" /><path
     style="fill:#4c241c"
     inkscape:connector-curvature="0"
     d="m 120.09708,145.87983 -3.083,0 c -16.77,0 -30.365995,-13.651 -30.365995,-30.49 0,-16.84 13.595995,-30.491 30.365995,-30.491 l 3.083,0 c 16.77,0 30.366,13.65 30.366,30.49 0,16.84 -13.596,30.491 -30.366,30.491"
     id="path14472" /><path
     style="fill:#e53838"
     inkscape:connector-curvature="0"
     d="m 73.825085,230.99183 0,-11.016 c 0,-24.805 20.026,-44.914 44.729995,-44.914 24.705,0 44.73,20.109 44.73,44.914 l 0,11.016"
     id="path14474" /><path
     d="m 299.79108,83.57483 24.76,0 0,147.65507 -24.76,0 0,-147.65507 z"
     id="path14476"
     inkscape:connector-curvature="0"
     style="fill:#ffb600" /><path
     style="fill:#bf7358"
     inkscape:connector-curvature="0"
     d="m 299.68008,83.57483 23.617,0 c 3.098,0 5.632,-2.545 5.632,-5.655 l 0,-17.134 c 0,-3.11 -2.534,-5.655 -5.632,-5.655 l -23.617,0 c -3.098,0 -5.632,2.545 -5.632,5.655 l 0,17.134 c 0,3.11 2.534,5.655 5.632,5.655"
     id="path14478" /><path
     style="fill:#bf7358"
     inkscape:connector-curvature="0"
     d="m 299.73308,83.57483 c 3.127,0 5.684,-2.568 5.684,-5.707 l 0,-17.03 c 0,-3.139 -2.557,-5.707 -5.684,-5.707 -3.127,0 -5.685,2.568 -5.685,5.708 l 0,17.029 c 0,3.139 2.558,5.707 5.685,5.707"
     id="path14484" /><path
     style="fill:#ffb600"
     inkscape:connector-curvature="0"
     d="m 326.10008,230.99183 0,-11.016 c 0,-24.805 -20.027,-44.914 -44.73,-44.914 -24.705,0 -44.73,20.109 -44.73,44.914 l 0,11.016"
     id="path14486" /><path
     style="fill:#4c241c"
     inkscape:connector-curvature="0"
     d="m 90.642085,171.66883 -2.807,-2.819 c -1.689,-1.709 -1.689,-4.458 0,-6.167 1.695,-1.696 4.445,-1.697 6.142,-0.001 0,0 10e-4,0.001 10e-4,0.001 l 2.807,2.82 c 1.688,1.709 1.688,4.458 0,6.166 -1.696,1.697 -4.445,1.697 -6.142,0.002 0,0 -0.001,-0.001 -0.001,-0.002"
     id="path14488" /><path
     style="fill:#4c241c"
     inkscape:connector-curvature="0"
     d="m 88.880085,159.32983 6.595,-6.621 c 0.65,-0.65 1.705,-0.65 2.355,-0.001 0,0.001 0,0.001 0,0.001 l 3.787995,3.803 c 0.647,0.65 0.647,1.715 0,2.365 l -6.595995,6.621 c -0.647,0.65 -1.707,0.65 -2.354,0 l -3.788,-3.803 c -0.648,-0.656 -0.648,-1.709 0,-2.365"
     id="path14490" /><path
     style="fill:#4c241c"
     inkscape:connector-curvature="0"
     d="m 90.642085,156.41883 -2.807,-2.819 c -1.689,-1.709 -1.689,-4.458 0,-6.167 1.696,-1.696 4.446,-1.696 6.143,0 l 2.807,2.82 c 1.688,1.709 1.688,4.458 0,6.166 -1.696,1.697 -4.445,1.697 -6.142,0.002 0,0 -0.001,-0.001 -0.001,-0.002"
     id="path14492" /><path
     style="fill:#4c241c"
     inkscape:connector-curvature="0"
     d="m 88.880085,152.15283 6.595,-6.62 c 0.65,-0.65 1.705,-0.651 2.355,-10e-4 0,0 0,0 0,10e-4 l 3.787995,3.801 c 0.647,0.65 0.647,1.716 0,2.365 l -6.595995,6.622 c -0.647,0.65 -1.707,0.65 -2.354,0 l -3.788,-3.803 c -0.648,-0.655 -0.648,-1.71 0,-2.365"
     id="path14494" /><path
     style="fill:#592921"
     inkscape:connector-curvature="0"
     d="m 88.880085,167.40383 6.595,-6.623 c 0.65,-0.649 1.705,-0.649 2.355,0 l 3.787995,3.803 c 0.647,0.65 0.647,1.716 0,2.365 l -6.595995,6.623 c -0.647,0.65 -1.707,0.65 -2.354,0 l -3.788,-3.804 c -0.648,-0.655 -0.648,-1.709 0,-2.364"
     id="path14496" /><path
     style="fill:#592921"
     inkscape:connector-curvature="0"
     d="m 90.642085,163.59583 -2.807,-2.819 c -1.689,-1.709 -1.689,-4.458 0,-6.167 1.695,-1.696 4.445,-1.696 6.142,-10e-4 0,0 10e-4,10e-4 10e-4,10e-4 l 2.807,2.819 c 1.689,1.709 1.689,4.459 0,6.168 -1.696,1.696 -4.447,1.696 -6.143,-0.001"
     id="path14498" /><path
     style="fill:#4c241c"
     inkscape:connector-curvature="0"
     d="m 90.774085,172.87783 2.807,-2.818 c 1.697,-1.696 4.447,-1.696 6.143,0 1.688995,1.709 1.688995,4.459 0,6.168 l -2.808,2.82 c -1.696,1.695 -4.446,1.695 -6.142,0 l 0,0 c -1.691,-1.709 -1.691,-4.461 0,-6.17"
     id="path14500" /><path
     style="fill:#592921"
     inkscape:connector-curvature="0"
     d="m 90.642085,179.04583 -2.807,-2.818 c -1.689,-1.709 -1.689,-4.459 0,-6.168 1.696,-1.696 4.446,-1.696 6.143,0 l 2.807,2.82 c 1.688,1.709 1.688,4.458 0,6.167 -1.696,1.697 -4.447,1.697 -6.143,-0.001"
     id="path14502" /><path
     style="fill:#4c241c"
     inkscape:connector-curvature="0"
     d="m 90.642085,186.42383 -2.807,-2.819 c -1.689,-1.709 -1.689,-4.459 0,-6.168 1.695,-1.696 4.445,-1.697 6.142,-10e-4 0,10e-4 10e-4,10e-4 10e-4,10e-4 l 2.807,2.82 c 1.688,1.709 1.688,4.458 0,6.167 -1.696,1.697 -4.447,1.697 -6.143,0"
     id="path14504" /><path
     style="fill:#592921"
     inkscape:connector-curvature="0"
     d="m 90.774085,180.25583 2.807,-2.819 c 1.696,-1.696 4.446,-1.697 6.142,-10e-4 0,10e-4 0,10e-4 0.001,10e-4 1.688995,1.709 1.688995,4.459 0,6.168 l -2.808,2.82 c -1.696,1.695 -4.446,1.695 -6.142,0 l 0,0 c -1.691,-1.709 -1.691,-4.461 0,-6.169"
     id="path14506" /><path
     style="fill:#4c241c"
     inkscape:connector-curvature="0"
     d="m 90.774085,187.63283 2.807,-2.82 c 1.697,-1.696 4.447,-1.696 6.143,0 1.689995,1.709 1.689995,4.46 0,6.169 l -2.808,2.819 c -1.696,1.696 -4.446,1.696 -6.142,0 l 0,0 c -1.69,-1.709 -1.69,-4.46 0,-6.168"
     id="path14508" /><path
     style="fill:#592921"
     inkscape:connector-curvature="0"
     d="m 90.642085,193.80083 -2.807,-2.82 c -1.689,-1.709 -1.689,-4.458 0,-6.167 1.696,-1.696 4.446,-1.696 6.143,0 l 2.807,2.819 c 1.689,1.709 1.689,4.459 0,6.168 -1.696,1.696 -4.447,1.696 -6.143,0"
     id="path14510" /><path
     style="fill:#b25c4b"
     inkscape:connector-curvature="0"
     d="m 118.63308,192.09783 c -6.805,0 -12.322,-5.54 -12.322,-12.373 l 0,-14.837 c 0,-6.833 5.517,-12.373 12.322,-12.373 6.806,0 12.323,5.54 12.323,12.373 l 0,14.838 c 0,6.834 -5.517,12.373 -12.323,12.372"
     id="path14512" /><path
     style="fill:#592921"
     inkscape:connector-curvature="0"
     d="m 97.177085,203.81383 0,-9.648 c 0,-0.724 -0.59,-1.314 -1.31,-1.314 l -4.21,0 c -0.72,0 -1.31,0.591 -1.31,1.314 l 0,9.648 c 0,0.2 0.162,0.362 0.361,0.362 l 6.109,0 c 0.2,0 0.36,-0.162 0.36,-0.362"
     id="path14514" /><path
     style="fill:#4c241c"
     inkscape:connector-curvature="0"
     d="m 141.72108,173.57183 -6.595,-6.623 c -0.647,-0.654 -0.647,-1.709 0,-2.365 l 3.788,-3.803 c 0.65,-0.649 1.705,-0.649 2.355,0 l 6.595,6.623 c 0.648,0.65 0.648,1.715 0,2.364 l -3.788,3.804 c -0.647,0.65 -1.707,0.65 -2.355,0"
     id="path14516" /><path
     style="fill:#4c241c"
     inkscape:connector-curvature="0"
     d="m 139.95808,157.42883 2.808,-2.82 c 1.696,-1.696 4.446,-1.697 6.142,-0.001 0,0.001 0,0.001 10e-4,0.001 1.689,1.709 1.689,4.459 0,6.168 l -2.808,2.82 c -1.696,1.696 -4.446,1.696 -6.143,0 -1.689,-1.709 -1.689,-4.459 0,-6.168"
     id="path14518" /><path
     style="fill:#4c241c"
     inkscape:connector-curvature="0"
     d="m 141.72108,158.32083 -6.595,-6.622 c -0.647,-0.654 -0.647,-1.709 0,-2.365 l 3.788,-3.801 c 0.65,-0.65 1.705,-0.651 2.355,-10e-4 0,0 0,0 0,10e-4 l 6.595,6.62 c 0.648,0.65 0.648,1.716 0,2.365 l -3.788,3.803 c -0.647,0.65 -1.707,0.65 -2.355,0"
     id="path14520" /><path
     style="fill:#4c241c"
     inkscape:connector-curvature="0"
     d="m 139.95808,150.25083 2.808,-2.819 c 1.696,-1.696 4.447,-1.696 6.143,0 1.69,1.709 1.69,4.46 0,6.169 l -2.808,2.818 c -1.696,1.697 -4.445,1.697 -6.142,0.002 0,0 -0.001,-0.001 -0.001,-0.002 -1.689,-1.709 -1.689,-4.459 0,-6.168"
     id="path14522" /><path
     style="fill:#592921"
     inkscape:connector-curvature="0"
     d="m 139.95808,165.50083 2.808,-2.818 c 1.696,-1.696 4.446,-1.697 6.142,-0.001 0,0 0,0.001 10e-4,0.001 1.689,1.709 1.689,4.459 0,6.168 l -2.808,2.818 c -1.696,1.697 -4.445,1.697 -6.142,0.002 0,0 -0.001,-0.001 -0.001,-0.002 -1.689,-1.709 -1.689,-4.459 0,-6.168"
     id="path14524" /><path
     style="fill:#592921"
     inkscape:connector-curvature="0"
     d="m 141.72108,165.49683 -6.595,-6.621 c -0.647,-0.656 -0.647,-1.71 0,-2.365 l 3.788,-3.803 c 0.65,-0.65 1.705,-0.65 2.355,-0.001 0,0.001 0,0.001 0,0.001 l 6.595,6.621 c 0.648,0.65 0.648,1.715 0,2.365 l -3.788,3.803 c -0.647,0.651 -1.707,0.651 -2.355,0"
     id="path14526" /><path
     style="fill:#4c241c"
     inkscape:connector-curvature="0"
     d="m 139.95808,172.87783 2.808,-2.818 c 1.696,-1.696 4.447,-1.696 6.143,0 1.689,1.709 1.689,4.459 0,6.168 l -2.808,2.82 c -1.696,1.695 -4.446,1.695 -6.143,0 -1.69,-1.709 -1.69,-4.46 0,-6.17"
     id="path14528" /><path
     style="fill:#592921"
     inkscape:connector-curvature="0"
     d="m 139.82708,179.04583 -2.807,-2.818 c -1.689,-1.709 -1.689,-4.459 0,-6.168 1.696,-1.695 4.446,-1.695 6.142,0 l 2.808,2.82 c 1.688,1.709 1.688,4.458 0,6.167 -1.696,1.697 -4.447,1.697 -6.143,-0.001"
     id="path14530" /><path
     style="fill:#4c241c"
     inkscape:connector-curvature="0"
     d="m 139.82708,186.42383 -2.807,-2.819 c -1.689,-1.709 -1.689,-4.459 0,-6.168 1.696,-1.695 4.446,-1.696 6.142,0 l 0,0 2.808,2.82 c 1.688,1.709 1.688,4.458 0,6.167 -1.696,1.697 -4.447,1.697 -6.143,0"
     id="path14532" /><path
     style="fill:#592921"
     inkscape:connector-curvature="0"
     d="m 139.95808,180.25583 2.808,-2.819 c 1.696,-1.696 4.446,-1.697 6.142,-10e-4 0,10e-4 0,10e-4 10e-4,10e-4 1.689,1.709 1.689,4.459 0,6.168 l -2.808,2.82 c -1.696,1.695 -4.446,1.695 -6.143,0 -1.69,-1.709 -1.69,-4.46 0,-6.169"
     id="path14534" /><path
     style="fill:#4c241c"
     inkscape:connector-curvature="0"
     d="m 139.77008,188.27283 2.391,-3.183 c 1.444,-1.916 4.167,-2.299 6.083,-0.856 1.908,1.444 2.291,4.193 0.853,6.108 l -2.391,3.183 c -1.444,1.916 -4.167,2.299 -6.084,0.856 -1.907,-1.444 -2.29,-4.193 -0.852,-6.108"
     id="path14536" /><path
     style="fill:#592921"
     inkscape:connector-curvature="0"
     d="m 139.82708,193.80083 -2.807,-2.82 c -1.688,-1.709 -1.688,-4.458 0,-6.167 1.696,-1.695 4.446,-1.695 6.142,0 l 2.808,2.819 c 1.689,1.709 1.689,4.459 0,6.168 -1.696,1.696 -4.447,1.696 -6.143,0"
     id="path14538" /><path
     style="fill:#592921"
     inkscape:connector-curvature="0"
     d="m 146.36108,203.81383 0,-9.648 c 0,-0.724 -0.589,-1.314 -1.309,-1.314 l -4.211,0 c -0.72,0 -1.31,0.591 -1.31,1.314 l 0,9.648 c 0,0.2 0.162,0.362 0.361,0.362 l 6.109,0 c 0.199,0 0.36,-0.162 0.36,-0.362"
     id="path14540" /><path
     style="fill:#b25c4b"
     inkscape:connector-curvature="0"
     d="m 157.96108,136.60783 c 0,4.158 -3.357,7.53 -7.498,7.53 -4.141,0 -7.499,-3.372 -7.499,-7.53 0,-4.157 3.358,-7.53 7.499,-7.53 4.141,0 7.498,3.373 7.498,7.53 m -63.813995,0 c 0,4.158 -3.358,7.53 -7.499,7.53 -4.141,0 -7.498,-3.372 -7.498,-7.53 0,-4.157 3.357,-7.53 7.498,-7.53 4.141,0 7.499,3.373 7.499,7.53"
     id="path14542" /><path
     style="fill:#bf7358"
     inkscape:connector-curvature="0"
     d="m 118.57208,175.33083 c -17.675,0 -32.003995,-14.388 -32.003995,-32.135 l 0,-19.974 c 0,-17.748 14.328995,-32.135 32.003995,-32.135 17.675,0 32.004,14.387 32.004,32.135 l 0,19.974 c 0,17.748 -14.329,32.135 -32.004,32.135"
     id="path14544" /><path
     style="fill:#a85f48"
     inkscape:connector-curvature="0"
     d="m 106.10908,130.85583 c 0.005,2.224 -1.793,4.029 -4.016,4.034 0,0 -0.001,0 -0.002,0 -2.222995,-0.005 -4.020995,-1.811 -4.015995,-4.033 -0.005,-2.223 1.793,-4.029 4.015995,-4.033 l 0,0 c 2.223,0.003 4.022,1.808 4.018,4.032 0,0 0,0.001 0,0 m 32.881,0 c 0.005,2.224 -1.793,4.029 -4.016,4.034 0,0 0,0 -10e-4,0 -2.223,-0.004 -4.021,-1.811 -4.017,-4.033 l 0,0 c -0.005,-2.223 1.793,-4.029 4.016,-4.033 0,0 0,0 0.001,0 2.223,0.004 4.021,1.809 4.017,4.032 0,0.001 0,0.001 0,0"
     id="path14546" /><path
     style="fill:#b25c4b"
     inkscape:connector-curvature="0"
     d="m 123.20708,136.60783 -9.27,0 c -0.389,-0.001 -0.705,-0.316 -0.704,-0.706 0,0 0,0 0,-10e-4 l 0,-8.405 c 0,-0.392 0.315,-0.707 0.704,-0.707 l 9.27,0 c 0.39,0 0.704,0.315 0.704,0.707 l 0,8.405 c 0,0.389 -0.315,0.707 -0.704,0.707"
     id="path14548" /><path
     style="fill:#933634"
     inkscape:connector-curvature="0"
     d="m 133.80708,144.33983 c 0,8.437 -6.812,15.276 -15.215,15.276 -8.403,0 -15.215,-6.84 -15.215,-15.276"
     id="path14550" /><path
     style="fill:#ffffff"
     inkscape:connector-curvature="0"
     d="m 104.18308,149.21583 28.818,0 c 0.514,-1.533 0.805,-3.17 0.805,-4.876 l -30.429,0 c 0,1.706 0.291,3.343 0.806,4.876"
     id="path14552" /><path
     style="fill:#af3f3f"
     inkscape:connector-curvature="0"
     d="m 127.45708,156.73783 c -2.072,-2.599 -5.253,-4.267 -8.827,-4.267 -3.59,0 -6.783,1.685 -8.855,4.304 2.568,1.849 5.652,2.843 8.817,2.842 3.312,0 6.368,-1.075 8.865,-2.879"
     id="path14554" /><path
     style="fill:#4c241c"
     inkscape:connector-curvature="0"
     d="m 117.26008,85.89683 c 0,-0.572 -0.483,-1.037 -1.051,-0.995 -16.570995,1.215 -29.639995,15.092 -29.639995,32.041 l 0,14.354 c 0,-16.99 13.133,-30.896 29.761995,-32.05 0.521,-0.032 0.927,-0.462 0.929,-0.984 l 0,-12.366 m 2.624,0 0,12.365 c 0,0.525 0.408,0.948 0.929,0.984 16.629,1.155 29.763,15.06 29.763,32.05 l 0,-14.354 c 0,-16.949 -13.07,-30.826 -29.641,-32.041 -0.568,-0.041 -1.05,0.424 -1.051,0.996"
     id="path14556" /><path
     style="fill:#b25c4b"
     inkscape:connector-curvature="0"
     d="m 319.48908,136.57083 c 0,4.12 -3.326,7.46 -7.43,7.46 -4.104,0 -7.43,-3.34 -7.43,-7.46 0,-4.12 3.326,-7.461 7.43,-7.461 4.104,0 7.43,3.341 7.43,7.461 m -38.985,55.884 c -6.743,0 -12.21,-5.49 -12.21,-12.261 l 0,-14.7 c 0,-6.772 5.467,-12.261 12.21,-12.261 6.742,0 12.21,5.488 12.21,12.261 l 0,14.699 c 0,6.772 -5.468,12.26 -12.21,12.26"
     id="path14558" /><path
     style="fill:#bf7358"
     inkscape:connector-curvature="0"
     d="m 280.44408,175.84083 c -17.515,0 -31.711,-14.256 -31.711,-31.842 l 0,-19.791 c 0,-17.585 14.196,-31.841 31.709,-31.841 17.516,0 31.712,14.256 31.712,31.841 l 0,19.791 c 0,17.586 -14.197,31.841 -31.71,31.842"
     id="path14560" /><path
     style="fill:#a85f48"
     inkscape:connector-curvature="0"
     d="m 268.09408,129.10583 c 0.004,2.202 -1.777,3.991 -3.98,3.996 l 0,0 c -2.202,-0.005 -3.984,-1.794 -3.979,-3.996 l 0,-0.001 c -0.005,-2.202 1.777,-3.991 3.979,-3.996 l 0,0 c 2.198,0 3.98,1.79 3.98,3.997 m 32.58,0 c 0.004,2.202 -1.777,3.991 -3.98,3.996 l 0,0 c -2.202,-0.005 -3.984,-1.794 -3.979,-3.996 l 0,-0.001 c -0.005,-2.202 1.777,-3.991 3.979,-3.996 l 0,0 c 2.198,0 3.98,1.79 3.98,3.997"
     id="path14562" /><path
     style="fill:#933634"
     inkscape:connector-curvature="0"
     d="m 295.55908,142.45583 c 0,8.371 -6.759,15.158 -15.096,15.158 -8.338,0 -15.098,-6.787 -15.098,-15.16"
     id="path14564" /><path
     style="fill:#ffffff"
     inkscape:connector-curvature="0"
     d="m 266.16608,147.29183 28.594,0 c 0.51,-1.52 0.8,-3.144 0.8,-4.838 l -30.194,0 c 0,1.695 0.289,3.319 0.8,4.838"
     id="path14566" /><path
     style="fill:#af3f3f"
     inkscape:connector-curvature="0"
     d="m 289.26008,154.75683 c -2.057,-2.579 -5.213,-4.234 -8.76,-4.234 -3.562,0 -6.73,1.671 -8.786,4.27 2.548,1.835 5.608,2.822 8.749,2.82 3.16,0.001 6.239,-0.999 8.797,-2.856"
     id="path14568" /><path
     style="fill:#b25c4b"
     inkscape:connector-curvature="0"
     d="m 285.03008,135.15983 -9.172,0 c -0.391,0 -0.705,-0.315 -0.705,-0.705 0,0 0,-10e-4 0,-0.002 l 0,-8.672 c 0,-0.39 0.315,-0.707 0.703,-0.707 l 9.174,0 c 0.389,0 0.705,0.316 0.705,0.707 l 0,8.672 c 0,0.39 -0.317,0.707 -0.705,0.707"
     id="path14570" /><path
     inkscape:connector-curvature="0"
     d="m 287.66608,88.01383 c -4.338,0 -7.854,3.532 -7.854,7.888 l 7.856,0 0,-7.888"
     id="path14572" /><path
     inkscape:connector-curvature="0"
     d="m 276.25508,85.84883 c 4.339,0 7.856,3.532 7.856,7.888 l -7.856,0 0,-7.888"
     id="path14574" /><path
     inkscape:connector-curvature="0"
     d="m 285.73508,114.85783 7.948,10.103 21.43,0 c 0,-19.461 -15.712,-35.238 -35.095,-35.238 -19.382,0 -35.095,15.777 -35.095,35.238 l 40.81,0 0,-10.103"
     id="path14576" /><path
     style="fill:#336289"
     inkscape:connector-curvature="0"
     d="m 222.56908,226.44083 c 6.572,1.889 13.426,-1.931 15.307,-8.529 l 19.337,-67.848 c 1.88,-6.6 -1.923,-13.48 -8.496,-15.37 -6.574,-1.889 -13.427,1.931 -15.308,8.53 l -19.336,67.846 c -1.881,6.599 1.921,13.482 8.496,15.371"
     id="path14578" /><path
     style="fill:#336289"
     inkscape:connector-curvature="0"
     d="m 249.69908,156.75683 c 6.449,-2.279 9.838,-9.376 7.568,-15.852 l -27.449,-78.331 c -2.271,-6.476 -9.338,-9.878 -15.787,-7.6 -6.449,2.279 -9.838,9.376 -7.568,15.852 l 27.449,78.331 c 2.271,6.476 9.338,9.88 15.787,7.6 m -68.006,69.684 c -6.573,1.889 -13.426,-1.931 -15.307,-8.529 l -19.336,-67.848 c -1.88,-6.6 1.923,-13.48 8.496,-15.37 6.573,-1.889 13.427,1.931 15.307,8.53 l 19.336,67.846 c 1.881,6.599 -1.923,13.482 -8.496,15.371"
     id="path14580" /><path
     style="fill:#336289"
     inkscape:connector-curvature="0"
     d="m 154.56308,156.75683 c -6.45,-2.279 -9.839,-9.376 -7.569,-15.852 l 27.261,-77.794 c 2.27,-6.475 9.337,-9.878 15.787,-7.599 6.45,2.279 9.838,9.375 7.569,15.851 l -27.262,77.793 c -2.27,6.477 -9.337,9.881 -15.786,7.601 m 5.22,30.962 85.37,0 0,40.509 -85.37,0 0,-40.509 0,0 z"
     id="path14582" /><path
     style="fill:#336289"
     inkscape:connector-curvature="0"
     d="m 162.01708,176.16483 22.558,0 0,23.231 -22.558,0 0,-23.231 0,0 z"
     id="path14584" /><path
     style="fill:#ffffff"
     inkscape:connector-curvature="0"
     d="m 223.36908,201.21583 0,-23.17 c 0,-11.979 -9.67,-21.688 -21.6,-21.688 -11.929,0 -21.6,9.71 -21.6,21.688 l 0,23.171 21.6,-8.921 21.6,8.92"
     id="path14586" /><path
     style="fill:#ff9d8a"
     inkscape:connector-curvature="0"
     d="m 242.66808,131.93683 c 0,4.323 -3.49,7.826 -7.795,7.826 -4.305,0 -7.795,-3.503 -7.795,-7.826 0,-4.322 3.49,-7.827 7.795,-7.827 4.305,0 7.795,3.505 7.795,7.827 m -66.334,0 c 0,4.323 -3.49,7.826 -7.795,7.826 -4.305,0 -7.794,-3.503 -7.794,-7.826 0,-4.322 3.49,-7.827 7.794,-7.827 4.305,0 7.795,3.505 7.795,7.827 m 25.436,58.625 c -7.074,0 -12.809,-5.758 -12.809,-12.861 l 0,-15.423 c 0,-7.103 5.735,-12.862 12.81,-12.862 7.074,0 12.81,5.761 12.81,12.862 l 0,15.423 c -10e-4,7.103 -5.736,12.861 -12.811,12.861"
     id="path14588" /><path
     style="fill:#ffb5a1"
     inkscape:connector-curvature="0"
     d="m 201.70708,173.13483 c -18.375,0 -33.269,-14.956 -33.269,-33.405 l 0,-20.762 c 0,-18.449 14.894,-33.404 33.267,-33.404 18.373,0 33.269,14.955 33.269,33.404 l 0,20.762 c 0,18.449 -14.896,33.405 -33.269,33.405"
     id="path14590" /><path
     style="fill:#eb9486"
     inkscape:connector-curvature="0"
     d="m 188.75108,124.10583 c 0,2.315 -1.87,4.192 -4.175,4.192 -2.306,0 -4.176,-1.877 -4.176,-4.192 0,-2.315 1.87,-4.192 4.176,-4.192 2.305,0 4.175,1.876 4.175,4.192 m 34.179,0 c 0,2.315 -1.869,4.192 -4.175,4.192 -2.311,-0.006 -4.18,-1.882 -4.175,-4.192 -0.006,-2.311 1.863,-4.188 4.175,-4.192 l 0,0 c 2.306,0 4.175,1.876 4.175,4.192"
     id="path14592" /><path
     style="fill:#b2473b"
     inkscape:connector-curvature="0"
     d="m 217.56508,138.10983 c 0,8.783 -7.091,15.903 -15.838,15.903 -8.746,0 -15.837,-7.12 -15.837,-15.903"
     id="path14594" /><path
     style="fill:#ffffff"
     inkscape:connector-curvature="0"
     d="m 186.72808,143.18583 29.998,0 c 0.536,-1.595 0.839,-3.299 0.839,-5.076 l -31.675,0 c 0,1.777 0.302,3.48 0.838,5.076"
     id="path14596" /><path
     style="fill:#cc4f46"
     inkscape:connector-curvature="0"
     d="m 210.95708,151.01583 c -2.158,-2.705 -5.471,-4.442 -9.19,-4.442 -3.737,0 -7.061,1.754 -9.218,4.48 5.501,3.961 12.922,3.945 18.406,-0.038"
     id="path14598" /><path
     style="fill:#ff9d8a"
     inkscape:connector-curvature="0"
     d="m 206.55208,130.45583 -9.691,0 c -0.39,-0.001 -0.705,-0.317 -0.704,-0.707 l 0,-9.166 c 0,-0.391 0.314,-0.707 0.704,-0.707 l 9.691,0 c 0.39,0 0.704,0.315 0.704,0.707 l 0,9.166 c 0,0.391 -0.314,0.707 -0.704,0.707"
     id="path14600" /><path
     style="fill:#ffb5a1"
     inkscape:connector-curvature="0"
     d="m 207.90308,71.33283 23.617,0 c 3.098,0 5.633,-2.544 5.633,-5.655 l 0,-17.134 c 0,-3.11 -2.535,-5.655 -5.633,-5.655 l -23.617,0 c -3.098,0 -5.632,2.545 -5.632,5.655 l 0,17.134 c 0,3.11 2.534,5.655 5.632,5.655"
     id="path14602" /><path
     style="fill:#ff9d8a"
     inkscape:connector-curvature="0"
     d="m 206.58508,189.61183 -4.815,2.685 -4.814,-2.685 9.629,0"
     id="path14604" /><path
     style="fill:#efaa9a"
     inkscape:connector-curvature="0"
     d="m 169.70508,109.84783 64.002,0 c -3.953,-14.014 -16.778,-24.284 -32.002,-24.284 -15.222,0 -28.046,10.27 -32,24.284"
     id="path14606" /><path
     style="fill:#ffb5a1"
     inkscape:connector-curvature="0"
     d="m 194.25308,71.33283 -23.616,0 c -3.098,0 -5.632,-2.545 -5.632,-5.655 l 0,-17.134 c 0,-3.11 2.534,-5.655 5.632,-5.655 l 23.617,0 c 3.098,0 5.632,2.545 5.632,5.655 l 0,17.134 c 0,3.11 -2.534,5.655 -5.633,5.655"
     id="path14608" /><path
     style="fill:#ffb5a1"
     inkscape:connector-curvature="0"
     d="m 194.20108,71.33283 c -3.126,0 -5.684,-2.568 -5.684,-5.707 l 0,-18.914 c 0,-3.14 2.558,-5.708 5.684,-5.708 3.127,0 5.684,2.569 5.684,5.708 l 0,18.914 c 0,3.139 -2.557,5.707 -5.684,5.707 m 13.754,0 c 3.125,0 5.684,-2.568 5.684,-5.707 l 0,-18.914 c 0,-3.14 -2.559,-5.708 -5.684,-5.708 -3.127,0 -5.685,2.569 -5.685,5.708 l 0,18.914 c 0.001,3.139 2.558,5.707 5.685,5.707"
     id="path14614" /><path
     style="fill:#fdfdfd"
     inkscape:connector-curvature="0"
     d="m 47.558085,64.58583 0,0.004 0,-0.004 m 0,-0.017 0,0.004 0,-0.004 m 0,-0.017 0,0.006 0,-0.006 m -10e-4,-0.017 0,0.006 0,-0.006 m 0,-0.017 0,0.006 0,-0.006 m 74.380995,-47.718 0.008,0 -0.008,0 m -0.015,0 0.01,0 -0.01,0 m -0.02,0 -69.416995,0 c -2.722,0 -4.928,2.215 -4.928,4.948 0,-2.733 2.206,-4.948 4.928,-4.948 l 69.430995,0 -0.014,0"
     id="path14616" /><path
     style="fill:#fdfdfd"
     inkscape:connector-curvature="0"
     d="m 161.79608,46.09483 0,0 0,0 m -10e-4,-0.024 0,0.002 0,-0.002 m 0,-0.024 0,0.005 0,-0.005 m 0,-0.022 0,0.002 0,-0.002 m -0.001,-0.025 0,0 m 74.527,-47.7179997 0.002,0 m -0.063,-0.002 0.003,0 -0.003,0 m -0.019,0 0.004,0 -0.004,0 m -0.043,-10e-4 0.004,0 -0.004,0 m -0.02,0 0.006,0 -0.006,0 m -0.02,0 0.006,0 -0.006,0"
     id="path14622" /><path
     style="fill:#fdfdfd"
     inkscape:connector-curvature="0"
     d="m 272.15708,64.60583 0,0 0,0 m 0,-0.019 0,0 m 0,-0.017 0,0.004 0,-0.004 m -0.002,-0.018 0,0 m 0,-0.017 0,0.006 0,-0.006 m 0,-0.016 0,0.005 0,-0.005 m 74.37,-47.719 0.005,0 -0.005,0 m -0.023,0 -69.42,0 c -2.721,0 -4.928,2.215 -4.928,4.948 0,-2.733 2.207,-4.948 4.928,-4.948 l 69.434,0 -0.014,0"
     id="path14628" /></svg>