<svg xmlns="http://www.w3.org/2000/svg" xmlns:xlink="http://www.w3.org/1999/xlink" version="1.1" x="0px" y="0px" viewBox="0 0 100 125" enable-background="new 0 0 100 100" xml:space="preserve"><path d="M100,29.167L79.167,12.5v8.333h-8.333c-9.75,0-17.333,6.417-21.667,11.833l9.417,11.75c2.5-3,7.167-6.917,12.25-6.917h8.333  v8.333L100,29.167z M39.5,66.75l-9.167-11.667c-3,3.5-7.917,7.417-13.667,7.417h-12.5C0,62.5,0,62.5,0,66.667V75  c0,4.167,0,4.167,4.167,4.167h12.5C26.5,79.167,34.333,72.75,39.5,66.75z M100,70.833L79.167,54.167V62.5h-8.333  c-16.667,0-29.167-41.667-54.167-41.667h-12.5C0,20.833,0,20.833,0,25v8.333C0,37.5,0,37.5,4.167,37.5h12.5  c18.75,0,29.167,41.667,54.167,41.667h8.333V87.5L100,70.833z"/></svg>