<svg width="398" height="227" viewBox="0 0 398 227" version="1.1" xmlns="http://www.w3.org/2000/svg" xmlns:xlink="http://www.w3.org/1999/xlink"><title>schools</title><defs><path id="a" d="M0 0h398v227H0z"/></defs><g stroke="none" stroke-width="1" fill="none" fill-rule="evenodd"><g><g><g><g><g><mask id="b" fill="#fff"><use xlink:href="#a"/></mask><use fill="#F0F0F0" transform="matrix(1 0 0 -1 0 227)" xlink:href="#a"/><g mask="url(#b)"><g><path d="M377.036 115.804v39.81c0 11.453 9.247 20.738 20.654 20.738v-39.81c0-11.454-9.247-20.738-20.654-20.738M327.69 115.804v39.81c0 11.453-9.246 20.738-20.653 20.738v-39.81c0-11.454 9.247-20.738 20.654-20.738" fill="#4C241C"/><path d="M328.797 128.872h-3.824a1.342 1.342 0 0 1-1.335-1.34v-13.225c0-.737.6-1.34 1.335-1.34h3.824c.734 0 1.335.603 1.335 1.34v13.225c0 .737-.601 1.34-1.335 1.34M380.171 128.872h-3.824a1.342 1.342 0 0 1-1.334-1.34v-13.225c0-.737.6-1.34 1.334-1.34h3.824c.735 0 1.335.603 1.335 1.34v13.225c0 .737-.6 1.34-1.335 1.34" fill="#FF57B7"/><path d="M352.502 169.098c-16.46 0-29.802-13.397-29.802-29.924v-6.715c0-16.526 13.342-29.923 29.801-29.923 16.46 0 29.802 13.397 29.802 29.923v6.715c0 16.527-13.342 29.924-29.801 29.924" fill="#4C241C"/><path d="M310.708 240.08v-10.287c0-23.169 18.705-41.95 41.778-41.95 23.074 0 41.779 18.781 41.779 41.95v10.287" fill="#9D41D8"/><path d="M389.307 151.077c0 3.884-3.136 7.032-7.004 7.032-3.868 0-7.004-3.148-7.004-7.032s3.136-7.032 7.004-7.032c3.868 0 7.004 3.148 7.004 7.032M329.704 151.077c0 3.884-3.136 7.032-7.004 7.032-3.868 0-7.004-3.148-7.004-7.032s3.136-7.032 7.004-7.032c3.868 0 7.004 3.148 7.004 7.032M359.337 203.754h-13.556c-2.613 0-4.732-2.127-4.732-4.751v-27.469c0-2.624 2.119-4.751 4.732-4.751h13.556c2.613 0 4.732 2.127 4.732 4.751v27.469c0 2.624-2.119 4.751-4.732 4.751" fill="#B25C4B"/><path d="M352.501 188.095c-16.508 0-29.891-13.439-29.891-30.015v-13.534c0-16.576 13.383-30.014 29.891-30.014 16.51 0 29.893 13.438 29.893 30.014v13.534c0 16.576-13.384 30.015-29.893 30.015" fill="#BF7358"/><path d="M340.86 144.04a3.76 3.76 0 0 1-3.751 3.767 3.76 3.76 0 0 1-3.752-3.767 3.76 3.76 0 0 1 3.752-3.767 3.76 3.76 0 0 1 3.752 3.767M371.572 144.04a3.76 3.76 0 0 1-3.751 3.767 3.76 3.76 0 0 1-3.752-3.767 3.76 3.76 0 0 1 3.752-3.767 3.76 3.76 0 0 1 3.751 3.767" fill="#A85F48"/><path d="M366.75 156.624c0 7.892-6.37 14.29-14.23 14.29-7.859 0-14.23-6.398-14.23-14.29" fill="#933634"/><path d="M339.043 161.185h26.954c.482-1.434.754-2.964.754-4.561H338.29a14.3 14.3 0 0 0 .753 4.56" fill="#FFF"/><path d="M360.813 168.22c-1.939-2.43-4.914-3.99-8.257-3.99-3.358 0-6.345 1.575-8.283 4.025a14.11 14.11 0 0 0 8.247 2.658 14.11 14.11 0 0 0 8.293-2.693" fill="#AF3F3F"/><path d="M356.784 149.747h-8.565a.706.706 0 0 1-.704-.707v-8.093c0-.39.315-.707.704-.707h8.565c.39 0 .704.316.704.707v8.093c0 .39-.314.707-.704.707" fill="#B25C4B"/><path d="M333.16 158.892h-1.547a.542.542 0 0 1-.539-.542v-3.477c0-.298.243-.542.54-.542h1.545c.297 0 .54.244.54.542v3.477a.542.542 0 0 1-.54.542M373.117 158.892h-1.546a.542.542 0 0 1-.54-.542v-3.477c0-.298.244-.542.54-.542h1.546c.297 0 .54.244.54.542v3.477a.542.542 0 0 1-.54.542" fill="#AF6852"/><path d="M42.347 177.2c-18.031 0-32.784-14.813-32.784-32.918v-11.648c0-18.105 14.753-32.919 32.784-32.919 18.032 0 32.785 14.814 32.785 32.92v11.647c0 18.105-14.753 32.918-32.785 32.918" fill="#3F1913"/><path d="M82.763 146.993c0 4.232-3.416 7.663-7.631 7.663s-7.632-3.431-7.632-7.663 3.417-7.663 7.632-7.663 7.631 3.43 7.631 7.663" fill="#763627"/><path d="M.199 235.246v-7.31c0-23.36 18.859-42.296 42.122-42.296 23.264 0 42.122 18.936 42.122 42.295v7.311" fill="#86B20D"/><path d="M42.32 209.015c10.203 0 18.55-8.49 18.55-18.867v-.19a41.796 41.796 0 0 0-18.55-4.318 41.797 41.797 0 0 0-18.548 4.319v.189c0 10.377 8.347 18.867 18.549 18.867" fill="#7D9B00"/><path d="M42.32 161.241c-6.725 0-12.229 5.598-12.229 12.44v14.887c0 6.842 5.504 12.44 12.23 12.44 6.726 0 12.23-5.598 12.23-12.44V173.68c0-6.842-5.504-12.44-12.23-12.44M1.626 146.993c0 4.232 3.65 7.663 8.151 7.663 4.502 0 8.152-3.431 8.152-7.663s-3.65-7.663-8.152-7.663c-4.502 0-8.15 3.43-8.15 7.663" fill="#763627"/><path d="M42.31 185.195c-18.086 0-32.747-14.721-32.747-32.882v-12.438c0-18.16 14.661-32.88 32.747-32.88s32.747 14.72 32.747 32.88v12.438c0 18.16-14.661 32.882-32.747 32.882" fill="#783F30"/><path d="M30.317 138.927a3.955 3.955 0 0 1-3.947 3.963 3.955 3.955 0 0 1-3.947-3.963 3.955 3.955 0 0 1 3.947-3.963 3.955 3.955 0 0 1 3.947 3.963M62.625 138.927a3.955 3.955 0 0 1-3.946 3.963 3.955 3.955 0 0 1-3.947-3.963 3.955 3.955 0 0 1 3.947-3.963 3.955 3.955 0 0 1 3.946 3.963" fill="#612C23"/><path d="M57.553 152.165c0 8.302-6.702 15.032-14.97 15.032s-14.97-6.73-14.97-15.032" fill="#420F0F"/><path d="M28.405 156.963H56.76a15.04 15.04 0 0 0 .792-4.798h-29.94c0 1.68.285 3.29.792 4.798" fill="#FFF"/><path d="M51.307 164.365c-2.04-2.558-5.17-4.2-8.687-4.2-3.532 0-6.674 1.658-8.713 4.236a14.845 14.845 0 0 0 8.676 2.796c3.259 0 6.266-1.057 8.724-2.832" fill="#5B1414"/><path d="M47.106 144.931H38.02a.705.705 0 0 1-.704-.707v-8.588c0-.39.315-.707.704-.707h9.085c.388 0 .704.317.704.707v8.588c0 .39-.316.707-.704.707" fill="#672B21"/><path d="M36.367 138.927H35.24c0 2.463-.99 4.682-2.598 6.297a8.818 8.818 0 0 1-6.27 2.608 8.818 8.818 0 0 1-6.272-2.608 8.889 8.889 0 0 1-2.598-6.297c0-2.463.991-4.682 2.598-6.297a8.818 8.818 0 0 1 6.271-2.608c2.453 0 4.663.995 6.271 2.608a8.889 8.889 0 0 1 2.598 6.297h2.257c0-6.17-4.981-11.17-11.126-11.171-6.145 0-11.125 5-11.125 11.171 0 6.17 4.98 11.17 11.125 11.171 6.145 0 11.125-5 11.126-11.17h-1.129M68.676 138.927h-1.129c0 2.463-.99 4.682-2.597 6.297a8.818 8.818 0 0 1-6.271 2.608 8.818 8.818 0 0 1-6.272-2.608 8.889 8.889 0 0 1-2.597-6.297c0-2.463.99-4.682 2.597-6.297a8.818 8.818 0 0 1 6.272-2.608c2.452 0 4.662.995 6.27 2.608a8.889 8.889 0 0 1 2.598 6.297h2.257c0-6.17-4.98-11.17-11.125-11.171-6.145 0-11.126 5-11.126 11.171 0 6.17 4.98 11.17 11.126 11.171 6.144 0 11.124-5 11.125-11.17h-1.128" fill="#3F1913"/><path d="M35.093 134.024h14.742v2.266H35.093v-2.266zM7.64 140.06h7.973a1.13 1.13 0 0 0 1.128-1.133 1.13 1.13 0 0 0-1.128-1.133H7.64a1.13 1.13 0 0 0-1.128 1.133 1.13 1.13 0 0 0 1.128 1.133M69.7 140.06h7.973a1.13 1.13 0 0 0 1.128-1.133 1.13 1.13 0 0 0-1.128-1.133H69.7a1.13 1.13 0 0 0-1.129 1.133 1.13 1.13 0 0 0 1.129 1.133" fill="#3F1913"/><path d="M73.298 72.665h24.758v160.162H73.298V72.665z" fill="#E53838"/><path d="M98.17 85.849H74.551c-3.098 0-5.632-2.545-5.632-5.655V63.06c0-3.11 2.534-5.655 5.632-5.655h23.617c3.098 0 5.632 2.545 5.632 5.655v17.134c0 3.11-2.534 5.655-5.632 5.655" fill="#BF7358"/><path d="M120.767 71.723h-69.42c-2.721 0-4.927-2.215-4.927-4.947V24.022c0-2.733 2.206-4.948 4.928-4.948h69.419c2.721 0 4.927 2.215 4.927 4.948v42.754c0 2.732-2.206 4.947-4.927 4.947" fill="#333"/><path d="M52.58 22.374h66.362V68.46H52.581V22.374z" fill="#1CB0F7"/><path d="M98.117 85.849c-3.126 0-5.684-2.568-5.684-5.707v-17.03c0-3.139 2.558-5.707 5.684-5.707 3.127 0 5.684 2.568 5.684 5.708v17.029c0 3.139-2.557 5.707-5.684 5.707" fill="#BF7358"/><path d="M118.96 148.154h-3.083c-16.77 0-30.366-13.651-30.366-30.49 0-16.84 13.596-30.491 30.366-30.491h3.083c16.77 0 30.366 13.65 30.366 30.49 0 16.84-13.596 30.491-30.366 30.491" fill="#4C241C"/><path d="M72.688 233.265V222.25c0-24.805 20.026-44.914 44.73-44.914 24.705 0 44.73 20.109 44.73 44.914v11.015" fill="#E53838"/><path d="M298.655 85.849h24.759v160.163h-24.759V85.849z" fill="#FFB600"/><path d="M298.543 85.849h23.617c3.098 0 5.632-2.545 5.632-5.655V63.06c0-3.11-2.534-5.655-5.632-5.655h-23.617c-3.098 0-5.632 2.545-5.632 5.655v17.134c0 3.11 2.534 5.655 5.632 5.655" fill="#BF7358"/><path d="M275.945 71.723h69.42c2.72 0 4.927-2.215 4.927-4.947V24.022c0-2.733-2.206-4.948-4.927-4.948h-69.42c-2.721 0-4.927 2.215-4.927 4.948v42.754c0 2.732 2.206 4.947 4.927 4.947" fill="#333"/><path d="M277.77 22.374h66.361V68.46H277.77V22.374z" fill="#1CB0F7"/><path d="M298.595 85.849c3.127 0 5.684-2.568 5.684-5.707v-17.03c0-3.139-2.557-5.707-5.684-5.707-3.126 0-5.684 2.568-5.684 5.708v17.029c0 3.139 2.558 5.707 5.684 5.707" fill="#BF7358"/><path d="M324.963 233.265V222.25c0-24.805-20.027-44.914-44.73-44.914-24.705 0-44.731 20.109-44.731 44.914v11.015" fill="#FFB600"/><path d="M89.505 173.944l-2.807-2.82a4.387 4.387 0 0 1 0-6.167 4.343 4.343 0 0 1 6.143 0l2.807 2.82a4.387 4.387 0 0 1 0 6.167 4.343 4.343 0 0 1-6.143 0" fill="#4C241C"/><path d="M87.743 161.604l6.595-6.622a1.665 1.665 0 0 1 2.355 0l3.788 3.803c.647.65.647 1.715 0 2.365l-6.596 6.622c-.647.65-1.707.65-2.354 0l-3.788-3.803a1.682 1.682 0 0 1 0-2.365" fill="#4C241C"/><path d="M89.505 158.694l-2.807-2.82a4.387 4.387 0 0 1 0-6.167 4.344 4.344 0 0 1 6.143 0l2.807 2.82a4.387 4.387 0 0 1 0 6.167 4.343 4.343 0 0 1-6.143 0" fill="#4C241C"/><path d="M87.743 154.427l6.595-6.621a1.665 1.665 0 0 1 2.355 0l3.788 3.802c.647.65.647 1.715 0 2.365l-6.596 6.622c-.647.65-1.707.65-2.354 0l-3.788-3.803a1.682 1.682 0 0 1 0-2.365" fill="#4C241C"/><path d="M87.743 169.678l6.595-6.623a1.666 1.666 0 0 1 2.355 0l3.788 3.803c.647.65.647 1.715 0 2.365l-6.596 6.623c-.647.65-1.707.65-2.354 0l-3.788-3.804a1.681 1.681 0 0 1 0-2.364" fill="#592921"/><path d="M89.505 165.87l-2.807-2.819a4.387 4.387 0 0 1 0-6.167 4.343 4.343 0 0 1 6.143 0l2.807 2.819a4.387 4.387 0 0 1 0 6.168 4.344 4.344 0 0 1-6.143 0" fill="#592921"/><path d="M89.637 175.153l2.807-2.819a4.344 4.344 0 0 1 6.143 0 4.387 4.387 0 0 1 0 6.168l-2.808 2.82a4.343 4.343 0 0 1-6.142 0 4.386 4.386 0 0 1 0-6.169" fill="#4C241C"/><path d="M89.505 181.321l-2.807-2.819a4.387 4.387 0 0 1 0-6.168 4.344 4.344 0 0 1 6.143 0l2.807 2.82a4.387 4.387 0 0 1 0 6.167 4.344 4.344 0 0 1-6.143 0" fill="#592921"/><path d="M89.505 188.698l-2.807-2.819a4.387 4.387 0 0 1 0-6.168 4.343 4.343 0 0 1 6.143 0l2.807 2.82a4.387 4.387 0 0 1 0 6.167 4.344 4.344 0 0 1-6.143 0" fill="#4C241C"/><path d="M89.637 182.53l2.807-2.819a4.343 4.343 0 0 1 6.143 0 4.387 4.387 0 0 1 0 6.168l-2.808 2.82a4.343 4.343 0 0 1-6.142 0 4.386 4.386 0 0 1 0-6.169" fill="#592921"/><path d="M89.637 189.907l2.807-2.82a4.344 4.344 0 0 1 6.143 0 4.387 4.387 0 0 1 0 6.169l-2.808 2.819a4.343 4.343 0 0 1-6.142 0 4.386 4.386 0 0 1 0-6.168" fill="#4C241C"/><path d="M89.505 196.075l-2.807-2.82a4.387 4.387 0 0 1 0-6.167 4.344 4.344 0 0 1 6.143 0l2.807 2.819a4.387 4.387 0 0 1 0 6.168 4.344 4.344 0 0 1-6.143 0" fill="#592921"/><path d="M117.496 194.372c-6.805 0-12.322-5.54-12.322-12.373v-14.837c0-6.833 5.517-12.373 12.322-12.373 6.806 0 12.323 5.54 12.323 12.373V182c0 6.834-5.517 12.373-12.323 12.373" fill="#B25C4B"/><path d="M96.04 206.088v-9.649c0-.723-.59-1.314-1.31-1.314H90.52c-.72 0-1.31.591-1.31 1.314v9.649c0 .2.162.362.361.362h6.109c.2 0 .36-.162.36-.362" fill="#592921"/><path d="M140.584 175.846l-6.595-6.623a1.682 1.682 0 0 1 0-2.365l3.788-3.803a1.666 1.666 0 0 1 2.355 0l6.595 6.623c.648.65.648 1.714 0 2.364l-3.788 3.804c-.647.65-1.707.65-2.355 0" fill="#4C241C"/><path d="M138.821 159.703l2.808-2.82a4.343 4.343 0 0 1 6.143 0 4.387 4.387 0 0 1 0 6.168l-2.808 2.82a4.344 4.344 0 0 1-6.143 0 4.387 4.387 0 0 1 0-6.168" fill="#4C241C"/><path d="M140.584 160.595l-6.595-6.622a1.682 1.682 0 0 1 0-2.365l3.788-3.802a1.665 1.665 0 0 1 2.355 0l6.595 6.621c.648.65.648 1.715 0 2.365l-3.788 3.803c-.647.65-1.707.65-2.355 0" fill="#4C241C"/><path d="M138.821 152.526l2.808-2.82a4.344 4.344 0 0 1 6.143 0 4.387 4.387 0 0 1 0 6.169l-2.808 2.819a4.343 4.343 0 0 1-6.143 0 4.387 4.387 0 0 1 0-6.168" fill="#4C241C"/><path d="M138.821 167.776l2.808-2.819a4.343 4.343 0 0 1 6.143 0 4.387 4.387 0 0 1 0 6.168l-2.808 2.819a4.343 4.343 0 0 1-6.143 0 4.387 4.387 0 0 1 0-6.168" fill="#592921"/><path d="M140.584 167.772l-6.595-6.622a1.682 1.682 0 0 1 0-2.365l3.788-3.803a1.665 1.665 0 0 1 2.355 0l6.595 6.622c.648.65.648 1.715 0 2.365l-3.788 3.803c-.647.65-1.707.65-2.355 0" fill="#592921"/><path d="M138.821 175.153l2.808-2.819a4.344 4.344 0 0 1 6.143 0 4.387 4.387 0 0 1 0 6.168l-2.808 2.82a4.344 4.344 0 0 1-6.143 0 4.387 4.387 0 0 1 0-6.169" fill="#4C241C"/><path d="M138.69 181.321l-2.807-2.819a4.387 4.387 0 0 1 0-6.168 4.344 4.344 0 0 1 6.142 0l2.808 2.82a4.387 4.387 0 0 1 0 6.167 4.344 4.344 0 0 1-6.143 0" fill="#592921"/><path d="M138.69 188.698l-2.807-2.819a4.387 4.387 0 0 1 0-6.168 4.343 4.343 0 0 1 6.142 0l2.808 2.82a4.387 4.387 0 0 1 0 6.167 4.344 4.344 0 0 1-6.143 0" fill="#4C241C"/><path d="M138.821 182.53l2.808-2.819a4.343 4.343 0 0 1 6.143 0 4.387 4.387 0 0 1 0 6.168l-2.808 2.82a4.344 4.344 0 0 1-6.143 0 4.387 4.387 0 0 1 0-6.169" fill="#592921"/><path d="M138.633 190.547l2.391-3.183a4.345 4.345 0 0 1 6.083-.856c1.908 1.444 2.291 4.193.853 6.108l-2.391 3.183a4.345 4.345 0 0 1-6.084.856c-1.907-1.444-2.29-4.193-.852-6.108" fill="#4C241C"/><path d="M138.69 196.075l-2.807-2.82a4.387 4.387 0 0 1 0-6.167 4.344 4.344 0 0 1 6.142 0l2.808 2.819a4.387 4.387 0 0 1 0 6.168 4.344 4.344 0 0 1-6.143 0" fill="#592921"/><path d="M145.224 206.088v-9.649c0-.723-.589-1.314-1.309-1.314h-4.211c-.72 0-1.31.591-1.31 1.314v9.649c0 .2.162.362.361.362h6.109c.199 0 .36-.162.36-.362" fill="#592921"/><path d="M156.824 138.882c0 4.158-3.357 7.53-7.498 7.53s-7.499-3.372-7.499-7.53 3.358-7.53 7.499-7.53 7.498 3.372 7.498 7.53M93.01 138.882c0 4.158-3.358 7.53-7.499 7.53s-7.498-3.372-7.498-7.53 3.357-7.53 7.498-7.53 7.499 3.372 7.499 7.53" fill="#B25C4B"/><path d="M117.435 177.606c-17.675 0-32.004-14.388-32.004-32.135v-19.974c0-17.748 14.329-32.135 32.004-32.135 17.675 0 32.004 14.387 32.004 32.135v19.974c0 17.747-14.329 32.135-32.004 32.135" fill="#BF7358"/><path d="M104.972 133.13a4.025 4.025 0 0 1-4.018 4.034 4.025 4.025 0 0 1-4.016-4.033 4.025 4.025 0 0 1 4.016-4.034 4.025 4.025 0 0 1 4.018 4.034M137.853 133.13a4.025 4.025 0 0 1-4.017 4.034 4.025 4.025 0 0 1-4.017-4.033 4.025 4.025 0 0 1 4.017-4.034 4.025 4.025 0 0 1 4.017 4.034" fill="#A85F48"/><path d="M122.07 138.882h-9.27a.705.705 0 0 1-.704-.707v-8.406c0-.391.315-.707.704-.707h9.27c.39 0 .704.316.704.707v8.406c0 .39-.315.707-.704.707" fill="#B25C4B"/><path d="M132.67 146.614c0 8.437-6.812 15.277-15.215 15.277-8.403 0-15.215-6.84-15.215-15.277" fill="#933634"/><path d="M103.046 151.49h28.818c.514-1.533.805-3.169.805-4.876H102.24c0 1.707.291 3.343.806 4.877" fill="#FFF"/><path d="M126.32 159.012c-2.072-2.599-5.253-4.267-8.827-4.267-3.59 0-6.783 1.685-8.855 4.304a15.087 15.087 0 0 0 8.817 2.842c3.312 0 6.368-1.075 8.866-2.88" fill="#AF3F3F"/><path d="M116.123 88.171c0-.572-.483-1.037-1.051-.995-16.571 1.215-29.64 15.092-29.64 32.041v14.354c0-16.991 13.133-30.896 29.762-32.051a.989.989 0 0 0 .929-.984V88.171M118.747 88.171v12.365c0 .525.408.948.929.984 16.629 1.155 29.763 15.06 29.763 32.05v-14.353c0-16.949-13.07-30.826-29.641-32.041-.568-.042-1.05.423-1.05.995" fill="#4C241C"/><path d="M318.352 138.845c0 4.12-3.327 7.46-7.43 7.46-4.104 0-7.43-3.34-7.43-7.46s3.326-7.461 7.43-7.461c4.103 0 7.43 3.34 7.43 7.46M279.367 194.728c-6.743 0-12.21-5.49-12.21-12.26v-14.701c0-6.772 5.467-12.26 12.21-12.26 6.743 0 12.21 5.488 12.21 12.26v14.7c0 6.772-5.467 12.26-12.21 12.26" fill="#B25C4B"/><path d="M279.306 178.115c-17.514 0-31.711-14.256-31.711-31.841v-19.792c0-17.585 14.197-31.841 31.71-31.841 17.515 0 31.712 14.256 31.712 31.841v19.792c0 17.585-14.197 31.84-31.711 31.84" fill="#BF7358"/><path d="M266.957 131.38a3.988 3.988 0 0 1-3.98 3.996 3.988 3.988 0 0 1-3.98-3.997 3.988 3.988 0 0 1 3.98-3.996c2.198 0 3.98 1.79 3.98 3.996M299.537 131.38a3.988 3.988 0 0 1-3.98 3.996 3.988 3.988 0 0 1-3.98-3.997 3.988 3.988 0 0 1 3.98-3.996c2.198 0 3.98 1.79 3.98 3.996" fill="#A85F48"/><path d="M294.422 144.73c0 8.371-6.759 15.158-15.096 15.158-8.338 0-15.097-6.787-15.097-15.159" fill="#933634"/><path d="M265.029 149.567h28.594c.51-1.52.8-3.144.8-4.838h-30.194c0 1.694.289 3.318.8 4.838" fill="#FFF"/><path d="M288.123 157.031c-2.056-2.579-5.213-4.234-8.76-4.234-3.562 0-6.73 1.671-8.786 4.27a14.967 14.967 0 0 0 8.749 2.82 14.97 14.97 0 0 0 8.797-2.856" fill="#AF3F3F"/><path d="M283.893 137.434h-9.173a.705.705 0 0 1-.705-.707v-8.672c0-.39.316-.707.704-.707h9.174c.388 0 .704.316.704.707v8.672c0 .39-.316.707-.704.707" fill="#B25C4B"/><path d="M286.53 90.288c-4.338 0-7.855 3.532-7.855 7.888h7.856v-7.888" fill="#000"/><path d="M275.118 88.123c4.339 0 7.856 3.532 7.856 7.888h-7.856v-7.888" fill="#000"/><path d="M284.597 117.132l7.949 10.103h21.43c0-19.462-15.713-35.239-35.095-35.239-19.382 0-35.095 15.777-35.095 35.239h40.81v-10.103" fill="#000"/><path d="M221.431 228.715c6.573 1.889 13.427-1.931 15.308-8.53l19.336-67.847c1.88-6.6-1.923-13.481-8.496-15.37-6.574-1.889-13.427 1.93-15.308 8.53l-19.335 67.846c-1.881 6.6 1.922 13.482 8.495 15.37" fill="#336289"/><path d="M248.562 159.031c6.45-2.279 9.838-9.376 7.569-15.851l-27.45-78.331c-2.27-6.476-9.337-9.878-15.786-7.6-6.45 2.279-9.838 9.376-7.569 15.852l27.45 78.33c2.27 6.476 9.337 9.879 15.786 7.6M180.556 228.715c-6.573 1.889-13.426-1.931-15.307-8.53l-19.336-67.847c-1.88-6.6 1.923-13.481 8.496-15.37 6.573-1.889 13.427 1.93 15.307 8.53l19.336 67.846c1.881 6.6-1.923 13.482-8.496 15.37" fill="#336289"/><path d="M153.426 159.031c-6.45-2.279-9.839-9.376-7.569-15.851l27.261-77.794c2.27-6.475 9.337-9.878 15.787-7.599 6.45 2.279 9.838 9.375 7.569 15.851l-27.262 77.794c-2.27 6.475-9.337 9.878-15.786 7.6M158.646 189.993h85.37v40.509h-85.37v-40.51z" fill="#336289"/><path d="M160.88 178.439h22.558v23.232H160.88V178.44z" fill="#336289"/><path d="M222.233 203.49v-23.17c0-11.978-9.67-21.688-21.6-21.688-11.929 0-21.6 9.71-21.6 21.689v23.17l21.6-8.92 21.6 8.92" fill="#FFF"/><path d="M241.531 134.211c0 4.323-3.49 7.826-7.795 7.826-4.304 0-7.794-3.503-7.794-7.826 0-4.323 3.49-7.827 7.794-7.827 4.305 0 7.795 3.504 7.795 7.827M175.197 134.211c0 4.323-3.49 7.826-7.795 7.826s-7.794-3.503-7.794-7.826c0-4.323 3.49-7.827 7.794-7.827 4.305 0 7.795 3.504 7.795 7.827M200.633 192.836c-7.074 0-12.809-5.758-12.809-12.861v-15.423c0-7.103 5.735-12.862 12.81-12.862 7.074 0 12.809 5.76 12.809 12.862v15.423c0 7.103-5.735 12.861-12.81 12.861" fill="#FF9D8A"/><path d="M200.57 175.409c-18.374 0-33.268-14.956-33.268-33.405v-20.762c0-18.449 14.894-33.404 33.267-33.404 18.373 0 33.268 14.955 33.268 33.404v20.762c0 18.449-14.895 33.405-33.268 33.405" fill="#FFB5A1"/><path d="M187.614 126.38c0 2.315-1.87 4.192-4.175 4.192-2.306 0-4.176-1.877-4.176-4.192 0-2.316 1.87-4.193 4.176-4.193 2.305 0 4.175 1.877 4.175 4.193M221.793 126.38c0 2.315-1.869 4.192-4.175 4.192a4.184 4.184 0 0 1-4.175-4.192 4.184 4.184 0 0 1 4.175-4.193c2.306 0 4.175 1.877 4.175 4.193" fill="#EB9486"/><path d="M216.428 140.384c0 8.783-7.091 15.903-15.838 15.903-8.746 0-15.837-7.12-15.837-15.903" fill="#B2473B"/><path d="M185.591 145.46h29.998c.536-1.595.839-3.299.839-5.076h-31.675c0 1.777.302 3.48.838 5.076" fill="#FFF"/><path d="M209.82 153.29c-2.158-2.705-5.47-4.442-9.19-4.442-3.737 0-7.061 1.754-9.218 4.48a15.706 15.706 0 0 0 18.407-.038" fill="#CC4F46"/><path d="M205.415 132.73h-9.691a.705.705 0 0 1-.704-.706v-9.167c0-.39.314-.707.704-.707h9.691c.39 0 .704.316.704.707v9.167c0 .39-.315.707-.704.707" fill="#FF9D8A"/><path d="M206.766 73.607h23.617c3.098 0 5.632-2.544 5.632-5.655V50.818c0-3.11-2.534-5.655-5.632-5.655h-23.617c-3.098 0-5.632 2.545-5.632 5.655v17.134c0 3.11 2.534 5.655 5.632 5.655" fill="#FFB5A1"/><path d="M205.448 191.886l-4.815 2.685-4.814-2.685h9.629" fill="#FF9D8A"/><path d="M168.568 112.122h64.003c-3.954-14.014-16.779-24.284-32.002-24.284-15.223 0-28.047 10.27-32.001 24.284" fill="#EFAA9A"/><path d="M193.116 73.607H169.5c-3.098 0-5.632-2.545-5.632-5.655V50.818c0-3.11 2.534-5.655 5.632-5.655h23.617c3.098 0 5.632 2.545 5.632 5.655v17.134c0 3.11-2.534 5.655-5.632 5.655" fill="#FFB5A1"/><path d="M235.004 53.201h-69.42c-2.72 0-4.927-2.215-4.927-4.947V5.5c0-2.733 2.206-4.947 4.927-4.947h69.42c2.721 0 4.927 2.214 4.927 4.947v42.754c0 2.732-2.206 4.947-4.927 4.947" fill="#333"/><path d="M166.817 3.851h66.362v46.087h-66.362V3.85z" fill="#1CB0F7"/><path d="M193.064 73.607c-3.126 0-5.684-2.568-5.684-5.707V48.986c0-3.14 2.558-5.708 5.684-5.708 3.127 0 5.684 2.569 5.684 5.708V67.9c0 3.139-2.557 5.707-5.684 5.707M206.818 73.607c3.126 0 5.684-2.568 5.684-5.707V48.986c0-3.14-2.558-5.708-5.684-5.708-3.126 0-5.684 2.569-5.684 5.708V67.9c0 3.139 2.558 5.707 5.684 5.707" fill="#FFB5A1"/><path d="M46.421 66.86v.004-.003m0-.018v.004-.004m0-.017v.006-.006m-.001-.017v.006-.006m0-.017v.006-.006m74.381-47.718h.008-.008m-.015 0h.01-.01m-.02 0H51.349c-2.722 0-4.928 2.215-4.928 4.948 0-2.733 2.206-4.948 4.928-4.948H120.78h-.014" fill="#FDFDFD"/><path d="M120.767 19.074h-69.42c-2.721 0-4.927 2.215-4.927 4.948v42.825l.001.014v.019a4.94 4.94 0 0 0 1.683 3.613l4.477-3.015V22.374h66.361v.725c1.68-1.107 3.253-2.14 4.702-3.088a4.885 4.885 0 0 0-2.827-.936H120.767" fill="#4B4B4B"/><path d="M118.942 22.374H52.581v45.104c18.858-12.696 48.564-32.65 66.361-44.38v-.724" fill="#37B8F6"/><path d="M160.659 48.369v.001-.001m-.001-.024v.002-.002m0-.024v.005-.005m0-.022v.002-.002m-.001-.025v0M235.184.556h.001m-.062-.002h.003-.003m-.02 0h.004-.004m-.042-.001h.004-.004m-.02 0h.006-.006m-.019 0h.006-.006" fill="#FDFDFD"/><path d="M235.004.553h-69.42c-2.72 0-4.927 2.214-4.927 4.947V48.346l.001.023v.023a4.945 4.945 0 0 0 2.834 4.336l4.235-2.79h-.91V3.85h66.363v2.876c2.107-1.396 4.096-2.714 5.942-3.94a4.917 4.917 0 0 0-3.937-2.231l-.059-.002h-.023l-.038-.001h-.061" fill="#4B4B4B"/><path d="M233.18 3.851h-66.363v46.087h.91c19.15-12.621 46.873-30.903 65.453-43.21V3.85" fill="#37B8F6"/><path d="M271.019 66.88v.001-.001m0-.019v0m0-.017v.004-.004m-.001-.018v0m0-.017v.006-.006m0-.016v.005-.005m74.37-47.719h.005-.004m-.024 0h-69.42c-2.721 0-4.927 2.215-4.927 4.948 0-2.733 2.206-4.948 4.927-4.948h69.434-.014" fill="#FDFDFD"/><path d="M345.365 19.074h-69.42c-2.721 0-4.927 2.215-4.927 4.948v42.859a4.94 4.94 0 0 0 1.71 3.636l5.041-3.469V22.374h64.91l4.355-3.002a4.902 4.902 0 0 0-1.641-.298h-.028" fill="#4B4B4B"/><path d="M342.678 22.374H277.77v44.674c19.53-13.434 47.639-32.775 64.91-44.674" fill="#37B8F6"/></g></g></g></g></g></g></g></g></svg>