<?xml version="1.0" encoding="UTF-8" standalone="no"?>
<!-- Generator: Adobe Illustrator 16.0.0, SVG Export Plug-In . SVG Version: 6.00 Build 0)  -->

<svg
   xmlns:dc="http://purl.org/dc/elements/1.1/"
   xmlns:cc="http://creativecommons.org/ns#"
   xmlns:rdf="http://www.w3.org/1999/02/22-rdf-syntax-ns#"
   xmlns:svg="http://www.w3.org/2000/svg"
   xmlns="http://www.w3.org/2000/svg"
   xmlns:sodipodi="http://sodipodi.sourceforge.net/DTD/sodipodi-0.dtd"
   xmlns:inkscape="http://www.inkscape.org/namespaces/inkscape"
   version="1.1"
   id="Layer_1"
   x="0px"
   y="0px"
   width="398px"
   height="227px"
   viewBox="0 0 398 227"
   enable-background="new 0 0 398 227"
   xml:space="preserve"
   inkscape:version="0.91 r"
   sodipodi:docname="svgxml.svg"><metadata
     id="metadata14638"><rdf:RDF><cc:Work
         rdf:about=""><dc:format>image/svg+xml</dc:format><dc:type
           rdf:resource="http://purl.org/dc/dcmitype/StillImage" /></cc:Work></rdf:RDF></metadata><defs
     id="defs14636" /><sodipodi:namedview
     pagecolor="#ffffff"
     bordercolor="#666666"
     borderopacity="1"
     objecttolerance="10"
     gridtolerance="10"
     guidetolerance="10"
     inkscape:pageopacity="0"
     inkscape:pageshadow="2"
     inkscape:window-width="1366"
     inkscape:window-height="716"
     id="namedview14634"
     showgrid="false"
     inkscape:zoom="2.4874372"
     inkscape:cx="199"
     inkscape:cy="113.5"
     inkscape:window-x="0"
     inkscape:window-y="0"
     inkscape:window-maximized="1"
     inkscape:current-layer="Layer_1" /><path
     fill="#4C241C"
     d="M377.036,115.805v39.81c0,11.452,9.247,20.737,20.654,20.737v-39.81  C397.69,125.088,388.443,115.805,377.036,115.805 M327.69,115.805v39.81c0,11.452-9.246,20.737-20.653,20.737v-39.81  C307.037,125.088,316.284,115.805,327.69,115.805"
     id="path14412" /><path
     fill="#FF57B7"
     d="M328.797,128.872h-3.824c-0.737-0.004-1.334-0.603-1.335-1.34v-13.226c0-0.737,0.601-1.34,1.335-1.34h3.824  c0.734,0,1.335,0.603,1.335,1.34v13.226C330.132,128.27,329.531,128.872,328.797,128.872 M380.171,128.872h-3.824  c-0.737-0.005-1.333-0.603-1.334-1.34v-13.226c0-0.737,0.601-1.34,1.334-1.34h3.824c0.735,0,1.335,0.603,1.335,1.34v13.226  C381.506,128.27,380.906,128.872,380.171,128.872"
     id="path14414" /><path
     fill="#4C241C"
     d="M352.502,169.098c-16.46,0-29.802-13.396-29.802-29.924v-6.715c0-16.525,13.342-29.923,29.801-29.923  c16.46,0,29.802,13.397,29.802,29.923v6.715C382.303,155.701,368.961,169.098,352.502,169.098"
     id="path14416" /><path
     fill="#9D41D8"
     d="M310.708,240.08v-10.287c0-23.169,18.705-41.95,41.778-41.95s41.778,18.781,41.778,41.95v10.287"
     id="path14418" /><path
     fill="#B25C4B"
     d="M389.307,151.077c0,3.884-3.136,7.032-7.004,7.032s-7.004-3.148-7.004-7.032s3.136-7.032,7.004-7.032  S389.307,147.193,389.307,151.077 M329.704,151.077c0,3.884-3.136,7.032-7.004,7.032s-7.004-3.148-7.004-7.032  s3.136-7.032,7.004-7.032S329.704,147.193,329.704,151.077 M359.337,203.754h-13.556c-2.613,0-4.732-2.127-4.732-4.751v-27.469  c0-2.624,2.119-4.751,4.732-4.751h13.556c2.613,0,4.732,2.127,4.732,4.751v27.469C364.069,201.627,361.95,203.754,359.337,203.754"
     id="path14420" /><path
     fill="#BF7358"
     d="M352.501,188.095c-16.508,0-29.891-13.438-29.891-30.015v-13.534c0-16.576,13.383-30.014,29.891-30.014  c16.51,0,29.893,13.438,29.893,30.014v13.534C382.394,174.656,369.01,188.095,352.501,188.095"
     id="path14422" /><path
     fill="#A85F48"
     d="M340.86,144.04c0.004,2.075-1.676,3.762-3.751,3.767c-2.076-0.004-3.756-1.69-3.752-3.767  c-0.004-2.076,1.676-3.763,3.752-3.767C339.186,140.277,340.865,141.964,340.86,144.04 M371.572,144.04  c0.004,2.075-1.676,3.762-3.751,3.767c-2.076-0.004-3.756-1.69-3.752-3.767c-0.004-2.076,1.676-3.763,3.752-3.767  C369.896,140.277,371.576,141.965,371.572,144.04"
     id="path14424" /><path
     fill="#933634"
     d="M366.75,156.624c0,7.892-6.37,14.29-14.23,14.29c-7.858,0-14.229-6.398-14.229-14.29"
     id="path14426" /><path
     fill="#FFFFFF"
     d="M339.043,161.186h26.954c0.481-1.435,0.754-2.965,0.754-4.562H338.29c0.002,1.551,0.257,3.091,0.753,4.56"
     id="path14428" /><path
     fill="#AF3F3F"
     d="M360.812,168.22c-1.938-2.43-4.913-3.989-8.257-3.989c-3.357,0-6.345,1.574-8.282,4.024  c2.401,1.729,5.287,2.659,8.246,2.658C355.499,170.914,358.402,169.971,360.812,168.22"
     id="path14430" /><path
     fill="#B25C4B"
     d="M356.784,149.747h-8.565c-0.39-0.001-0.704-0.317-0.704-0.707v-8.093c0-0.391,0.315-0.707,0.704-0.707h8.565  c0.39,0,0.704,0.316,0.704,0.707v8.093C357.488,149.43,357.174,149.747,356.784,149.747"
     id="path14432" /><path
     fill="#AF6852"
     d="M333.16,158.893h-1.547c-0.299-0.002-0.539-0.244-0.539-0.543v-3.477c0-0.298,0.243-0.542,0.54-0.542h1.545  c0.297,0,0.54,0.244,0.54,0.542v3.477C333.699,158.648,333.458,158.891,333.16,158.893 M373.117,158.893h-1.546  c-0.299-0.002-0.54-0.244-0.54-0.543v-3.477c0-0.298,0.244-0.542,0.54-0.542h1.546c0.297,0,0.54,0.244,0.54,0.542v3.477  C373.657,158.648,373.416,158.891,373.117,158.893"
     id="path14434" /><path
     fill="#3F1913"
     d="M42.347,177.2c-18.031,0-32.784-14.813-32.784-32.918v-11.648c0-18.104,14.753-32.919,32.784-32.919  c18.032,0,32.785,14.814,32.785,32.92v11.647C75.132,162.387,60.379,177.2,42.347,177.2"
     id="path14436" /><path
     fill="#763627"
     d="M82.763,146.993c0,4.231-3.416,7.663-7.631,7.663c-4.215,0-7.632-3.432-7.632-7.663  c0-4.232,3.417-7.663,7.632-7.663C79.347,139.33,82.763,142.76,82.763,146.993"
     id="path14438" /><path
     fill="#86B20D"
     d="M0.199,235.246v-7.311c0-23.359,18.859-42.295,42.122-42.295c23.264,0,42.122,18.936,42.122,42.295v7.311"
     id="path14440" /><path
     fill="#7D9B00"
     d="M42.32,209.016c10.203,0,18.55-8.49,18.55-18.867v-0.19c-5.769-2.848-12.117-4.325-18.55-4.317  c-6.433-0.008-12.78,1.471-18.548,4.318v0.189C23.772,200.525,32.119,209.016,42.32,209.016"
     id="path14442" /><path
     fill="#763627"
     d="M42.32,161.241c-6.725,0-12.229,5.598-12.229,12.44v14.887c0,6.842,5.504,12.439,12.23,12.439  c6.726,0,12.23-5.598,12.23-12.439V173.68C54.551,166.838,49.047,161.24,42.32,161.241 M1.626,146.993  c0,4.231,3.65,7.663,8.151,7.663c4.502,0,8.152-3.432,8.152-7.663c0-4.232-3.65-7.663-8.152-7.663S1.627,142.76,1.626,146.993"
     id="path14444" /><path
     fill="#783F30"
     d="M42.31,185.195c-18.086,0-32.747-14.721-32.747-32.883v-12.438c0-18.16,14.661-32.88,32.747-32.88  s32.747,14.72,32.747,32.88v12.438C75.057,170.473,60.396,185.195,42.31,185.195"
     id="path14446" /><path
     fill="#612C23"
     d="M30.317,138.927c0.004,2.185-1.763,3.959-3.947,3.964l0,0c-2.185-0.005-3.952-1.779-3.947-3.964l0,0  c-0.004-2.185,1.763-3.958,3.947-3.963l0,0C28.554,134.969,30.321,136.742,30.317,138.927L30.317,138.927 M62.625,138.927  c0.004,2.185-1.762,3.958-3.946,3.964c-2.185-0.005-3.952-1.779-3.947-3.964l0,0c-0.004-2.185,1.763-3.958,3.947-3.963l0,0  C60.863,134.969,62.629,136.743,62.625,138.927"
     id="path14448" /><path
     fill="#420F0F"
     d="M57.553,152.165c0,8.302-6.702,15.032-14.97,15.032s-14.97-6.73-14.97-15.032"
     id="path14450" /><path
     fill="#FFFFFF"
     d="M28.405,156.963H56.76c0.523-1.546,0.79-3.166,0.792-4.798h-29.94  C27.612,153.845,27.897,155.455,28.405,156.963"
     id="path14452" /><path
     fill="#5B1414"
     d="M51.307,164.365c-2.04-2.559-5.17-4.2-8.687-4.2c-3.532,0-6.674,1.658-8.713,4.235  c2.527,1.819,5.562,2.797,8.676,2.797C45.842,167.197,48.849,166.141,51.307,164.365"
     id="path14454" /><path
     fill="#672B21"
     d="M47.106,144.932H38.02c-0.389-0.001-0.705-0.317-0.704-0.707l0,0v-8.589c0-0.39,0.315-0.706,0.704-0.706  h9.085c0.388,0,0.704,0.316,0.704,0.706v8.589C47.809,144.614,47.493,144.932,47.106,144.932"
     id="path14456" /><path
     fill="#3F1913"
     d="M36.367,138.927H35.24c0,2.464-0.99,4.683-2.598,6.298c-1.658,1.671-3.916,2.609-6.27,2.607  c-2.355,0.003-4.614-0.936-6.272-2.607c-1.668-1.672-2.603-3.938-2.598-6.298c0-2.463,0.991-4.682,2.598-6.297  c1.658-1.672,3.916-2.61,6.271-2.608c2.453,0,4.663,0.996,6.271,2.608c1.667,1.671,2.603,3.937,2.598,6.297h2.257  c0-6.17-4.981-11.17-11.126-11.171c-6.145,0-11.125,5-11.125,11.171s4.98,11.171,11.125,11.171s11.125-5,11.126-11.17  L36.367,138.927 M68.676,138.927h-1.129c0,2.464-0.99,4.683-2.597,6.298c-1.659,1.671-3.917,2.61-6.271,2.607  c-2.355,0.003-4.614-0.936-6.272-2.607c-1.667-1.672-2.602-3.938-2.597-6.298c0-2.463,0.99-4.682,2.597-6.297  c1.658-1.672,3.917-2.61,6.272-2.608c2.452,0,4.662,0.996,6.27,2.608c1.667,1.671,2.603,3.937,2.598,6.297h2.257  c0-6.17-4.98-11.17-11.125-11.171c-6.145,0-11.126,5-11.126,11.171s4.98,11.171,11.126,11.171c6.144,0,11.124-5,11.125-11.17  L68.676,138.927"
     id="path14458" /><path
     fill="#3F1913"
     d="M35.093,134.023h14.742v2.267H35.093V134.023z M7.64,140.061h7.973c0.625-0.002,1.129-0.508,1.128-1.133  c0,0,0,0,0-0.001c0.001-0.624-0.503-1.131-1.127-1.133c0,0,0,0-0.001,0H7.64c-0.624,0.001-1.129,0.508-1.128,1.132v0.001  C6.51,139.551,7.015,140.059,7.64,140.061C7.639,140.061,7.64,140.061,7.64,140.061 M69.7,140.061h7.973  c0.624-0.002,1.129-0.508,1.128-1.133c0,0,0,0,0-0.001c0.002-0.624-0.503-1.131-1.127-1.133c0,0,0,0-0.001,0H69.7  c-0.625,0.001-1.13,0.507-1.129,1.131c0,0.001,0,0.001,0,0.002c-0.001,0.624,0.503,1.132,1.127,1.134  C69.699,140.061,69.699,140.061,69.7,140.061"
     id="path14460" /><path
     fill="#E53838"
     d="M73.298,72.665h24.758v160.162H73.298V72.665z"
     id="path14462" /><path
     fill="#BF7358"
     d="M98.17,85.849H74.551c-3.098,0-5.632-2.545-5.632-5.655V63.06c0-3.11,2.534-5.655,5.632-5.655h23.617  c3.098,0,5.632,2.545,5.632,5.655v17.134c0,3.11-2.534,5.655-5.632,5.655"
     id="path14464" /><path
     fill="#BF7358"
     d="M98.117,85.849c-3.126,0-5.684-2.568-5.684-5.707v-17.03c0-3.139,2.558-5.707,5.684-5.707  c3.127,0,5.684,2.568,5.684,5.708v17.029C103.801,83.281,101.244,85.849,98.117,85.849"
     id="path14470" /><path
     fill="#4C241C"
     d="M118.96,148.154h-3.083c-16.77,0-30.366-13.651-30.366-30.49c0-16.84,13.596-30.491,30.366-30.491h3.083  c16.77,0,30.366,13.65,30.366,30.49S135.73,148.154,118.96,148.154"
     id="path14472" /><path
     fill="#E53838"
     d="M72.688,233.266V222.25c0-24.805,20.026-44.914,44.73-44.914c24.705,0,44.73,20.109,44.73,44.914v11.016"
     id="path14474" /><path
     fill="#FFB600"
     d="M298.654,85.849h24.76v160.163h-24.76V85.849z"
     id="path14476" /><path
     fill="#BF7358"
     d="M298.543,85.849h23.617c3.098,0,5.632-2.545,5.632-5.655V63.06c0-3.11-2.534-5.655-5.632-5.655h-23.617  c-3.098,0-5.632,2.545-5.632,5.655v17.134C292.911,83.304,295.445,85.849,298.543,85.849"
     id="path14478" /><path
     fill="#BF7358"
     d="M298.596,85.849c3.127,0,5.684-2.568,5.684-5.707v-17.03c0-3.139-2.557-5.707-5.684-5.707  s-5.685,2.568-5.685,5.708v17.029C292.911,83.281,295.469,85.849,298.596,85.849"
     id="path14484" /><path
     fill="#FFB600"
     d="M324.963,233.266V222.25c0-24.805-20.027-44.914-44.73-44.914c-24.705,0-44.73,20.109-44.73,44.914v11.016"
     id="path14486" /><path
     fill="#4C241C"
     d="M89.505,173.943l-2.807-2.819c-1.689-1.709-1.689-4.458,0-6.167c1.695-1.696,4.445-1.697,6.142-0.001  c0,0,0.001,0.001,0.001,0.001l2.807,2.82c1.688,1.709,1.688,4.458,0,6.166c-1.696,1.697-4.445,1.697-6.142,0.002  C89.506,173.945,89.505,173.944,89.505,173.943"
     id="path14488" /><path
     fill="#4C241C"
     d="M87.743,161.604l6.595-6.621c0.65-0.65,1.705-0.65,2.355-0.001c0,0.001,0,0.001,0,0.001l3.788,3.803  c0.647,0.65,0.647,1.715,0,2.365l-6.596,6.621c-0.647,0.65-1.707,0.65-2.354,0l-3.788-3.803  C87.095,163.313,87.095,162.26,87.743,161.604"
     id="path14490" /><path
     fill="#4C241C"
     d="M89.505,158.693l-2.807-2.819c-1.689-1.709-1.689-4.458,0-6.167c1.696-1.696,4.446-1.696,6.143,0l2.807,2.82  c1.688,1.709,1.688,4.458,0,6.166c-1.696,1.697-4.445,1.697-6.142,0.002C89.506,158.695,89.505,158.694,89.505,158.693"
     id="path14492" /><path
     fill="#4C241C"
     d="M87.743,154.427l6.595-6.62c0.65-0.65,1.705-0.651,2.355-0.001c0,0,0,0,0,0.001l3.788,3.801  c0.647,0.65,0.647,1.716,0,2.365l-6.596,6.622c-0.647,0.65-1.707,0.65-2.354,0l-3.788-3.803  C87.095,156.137,87.095,155.082,87.743,154.427"
     id="path14494" /><path
     fill="#592921"
     d="M87.743,169.678l6.595-6.623c0.65-0.649,1.705-0.649,2.355,0l3.788,3.803c0.647,0.65,0.647,1.716,0,2.365  l-6.596,6.623c-0.647,0.65-1.707,0.65-2.354,0l-3.788-3.804C87.095,171.387,87.095,170.333,87.743,169.678"
     id="path14496" /><path
     fill="#592921"
     d="M89.505,165.87l-2.807-2.819c-1.689-1.709-1.689-4.458,0-6.167c1.695-1.696,4.445-1.696,6.142-0.001  c0,0,0.001,0.001,0.001,0.001l2.807,2.819c1.689,1.709,1.689,4.459,0,6.168C93.952,167.567,91.201,167.567,89.505,165.87"
     id="path14498" /><path
     fill="#4C241C"
     d="M89.637,175.152l2.807-2.818c1.697-1.696,4.447-1.696,6.143,0c1.689,1.709,1.689,4.459,0,6.168l-2.808,2.82  c-1.696,1.695-4.446,1.695-6.142,0l0,0C87.946,179.613,87.946,176.861,89.637,175.152"
     id="path14500" /><path
     fill="#592921"
     d="M89.505,181.32l-2.807-2.818c-1.689-1.709-1.689-4.459,0-6.168c1.696-1.696,4.446-1.696,6.143,0l2.807,2.82  c1.688,1.709,1.688,4.458,0,6.167C93.952,183.018,91.201,183.018,89.505,181.32"
     id="path14502" /><path
     fill="#4C241C"
     d="M89.505,188.698l-2.807-2.819c-1.689-1.709-1.689-4.459,0-6.168c1.695-1.696,4.445-1.697,6.142-0.001  c0,0.001,0.001,0.001,0.001,0.001l2.807,2.82c1.688,1.709,1.688,4.458,0,6.167C93.952,190.395,91.201,190.395,89.505,188.698"
     id="path14504" /><path
     fill="#592921"
     d="M89.637,182.53l2.807-2.819c1.696-1.696,4.446-1.697,6.142-0.001c0,0.001,0,0.001,0.001,0.001  c1.689,1.709,1.689,4.459,0,6.168l-2.808,2.82c-1.696,1.695-4.446,1.695-6.142,0l0,0C87.946,186.99,87.946,184.238,89.637,182.53"
     id="path14506" /><path
     fill="#4C241C"
     d="M89.637,189.907l2.807-2.82c1.697-1.696,4.447-1.696,6.143,0c1.69,1.709,1.69,4.46,0,6.169l-2.808,2.819  c-1.696,1.696-4.446,1.696-6.142,0l0,0C87.947,194.366,87.947,191.615,89.637,189.907"
     id="path14508" /><path
     fill="#592921"
     d="M89.505,196.075l-2.807-2.82c-1.689-1.709-1.689-4.458,0-6.167c1.696-1.696,4.446-1.696,6.143,0l2.807,2.819  c1.689,1.709,1.689,4.459,0,6.168C93.952,197.771,91.201,197.771,89.505,196.075"
     id="path14510" /><path
     fill="#B25C4B"
     d="M117.496,194.372c-6.805,0-12.322-5.54-12.322-12.373v-14.837c0-6.833,5.517-12.373,12.322-12.373  c6.806,0,12.323,5.54,12.323,12.373V182C129.819,188.834,124.302,194.373,117.496,194.372"
     id="path14512" /><path
     fill="#592921"
     d="M96.04,206.088v-9.648c0-0.724-0.59-1.314-1.31-1.314h-4.21c-0.72,0-1.31,0.591-1.31,1.314v9.648  c0,0.2,0.162,0.362,0.361,0.362h6.109C95.88,206.45,96.04,206.288,96.04,206.088"
     id="path14514" /><path
     fill="#4C241C"
     d="M140.584,175.846l-6.595-6.623c-0.647-0.654-0.647-1.709,0-2.365l3.788-3.803  c0.65-0.649,1.705-0.649,2.355,0l6.595,6.623c0.648,0.65,0.648,1.715,0,2.364l-3.788,3.804  C142.292,176.496,141.232,176.496,140.584,175.846"
     id="path14516" /><path
     fill="#4C241C"
     d="M138.821,159.703l2.808-2.82c1.696-1.696,4.446-1.697,6.142-0.001c0,0.001,0,0.001,0.001,0.001  c1.689,1.709,1.689,4.459,0,6.168l-2.808,2.82c-1.696,1.696-4.446,1.696-6.143,0C137.132,164.162,137.132,161.412,138.821,159.703"
     id="path14518" /><path
     fill="#4C241C"
     d="M140.584,160.595l-6.595-6.622c-0.647-0.654-0.647-1.709,0-2.365l3.788-3.801  c0.65-0.65,1.705-0.651,2.355-0.001c0,0,0,0,0,0.001l6.595,6.62c0.648,0.65,0.648,1.716,0,2.365l-3.788,3.803  C142.292,161.245,141.232,161.245,140.584,160.595"
     id="path14520" /><path
     fill="#4C241C"
     d="M138.821,152.525l2.808-2.819c1.696-1.696,4.447-1.696,6.143,0c1.69,1.709,1.69,4.46,0,6.169l-2.808,2.818  c-1.696,1.697-4.445,1.697-6.142,0.002c0,0-0.001-0.001-0.001-0.002C137.132,156.984,137.132,154.234,138.821,152.525"
     id="path14522" /><path
     fill="#592921"
     d="M138.821,167.775l2.808-2.818c1.696-1.696,4.446-1.697,6.142-0.001c0,0,0,0.001,0.001,0.001  c1.689,1.709,1.689,4.459,0,6.168l-2.808,2.818c-1.696,1.697-4.445,1.697-6.142,0.002c0,0-0.001-0.001-0.001-0.002  C137.132,172.234,137.132,169.484,138.821,167.775"
     id="path14524" /><path
     fill="#592921"
     d="M140.584,167.771l-6.595-6.621c-0.647-0.656-0.647-1.71,0-2.365l3.788-3.803  c0.65-0.65,1.705-0.65,2.355-0.001c0,0.001,0,0.001,0,0.001l6.595,6.621c0.648,0.65,0.648,1.715,0,2.365l-3.788,3.803  C142.292,168.422,141.232,168.422,140.584,167.771"
     id="path14526" /><path
     fill="#4C241C"
     d="M138.821,175.152l2.808-2.818c1.696-1.696,4.447-1.696,6.143,0c1.689,1.709,1.689,4.459,0,6.168l-2.808,2.82  c-1.696,1.695-4.446,1.695-6.143,0C137.131,179.613,137.131,176.862,138.821,175.152"
     id="path14528" /><path
     fill="#592921"
     d="M138.69,181.32l-2.807-2.818c-1.689-1.709-1.689-4.459,0-6.168c1.696-1.695,4.446-1.695,6.142,0l2.808,2.82  c1.688,1.709,1.688,4.458,0,6.167C143.137,183.018,140.386,183.018,138.69,181.32"
     id="path14530" /><path
     fill="#4C241C"
     d="M138.69,188.698l-2.807-2.819c-1.689-1.709-1.689-4.459,0-6.168c1.696-1.695,4.446-1.696,6.142,0l0,0  l2.808,2.82c1.688,1.709,1.688,4.458,0,6.167C143.137,190.395,140.386,190.395,138.69,188.698"
     id="path14532" /><path
     fill="#592921"
     d="M138.821,182.53l2.808-2.819c1.696-1.696,4.446-1.697,6.142-0.001c0,0.001,0,0.001,0.001,0.001  c1.689,1.709,1.689,4.459,0,6.168l-2.808,2.82c-1.696,1.695-4.446,1.695-6.143,0C137.131,186.99,137.131,184.239,138.821,182.53"
     id="path14534" /><path
     fill="#4C241C"
     d="M138.633,190.547l2.391-3.183c1.444-1.916,4.167-2.299,6.083-0.856c1.908,1.444,2.291,4.193,0.853,6.108  l-2.391,3.183c-1.444,1.916-4.167,2.299-6.084,0.856C137.578,195.211,137.195,192.462,138.633,190.547"
     id="path14536" /><path
     fill="#592921"
     d="M138.69,196.075l-2.807-2.82c-1.688-1.709-1.688-4.458,0-6.167c1.696-1.695,4.446-1.695,6.142,0l2.808,2.819  c1.689,1.709,1.689,4.459,0,6.168C143.137,197.771,140.386,197.771,138.69,196.075"
     id="path14538" /><path
     fill="#592921"
     d="M145.224,206.088v-9.648c0-0.724-0.589-1.314-1.309-1.314h-4.211c-0.72,0-1.31,0.591-1.31,1.314v9.648  c0,0.2,0.162,0.362,0.361,0.362h6.109C145.063,206.45,145.224,206.288,145.224,206.088"
     id="path14540" /><path
     fill="#B25C4B"
     d="M156.824,138.882c0,4.158-3.357,7.53-7.498,7.53c-4.141,0-7.499-3.372-7.499-7.53  c0-4.157,3.358-7.53,7.499-7.53C153.467,131.352,156.824,134.725,156.824,138.882 M93.01,138.882c0,4.158-3.358,7.53-7.499,7.53  c-4.141,0-7.498-3.372-7.498-7.53c0-4.157,3.357-7.53,7.498-7.53C89.652,131.352,93.01,134.725,93.01,138.882"
     id="path14542" /><path
     fill="#BF7358"
     d="M117.435,177.605c-17.675,0-32.004-14.388-32.004-32.135v-19.974c0-17.748,14.329-32.135,32.004-32.135  c17.675,0,32.004,14.387,32.004,32.135v19.974C149.439,163.218,135.11,177.605,117.435,177.605"
     id="path14544" /><path
     fill="#A85F48"
     d="M104.972,133.13c0.005,2.224-1.793,4.029-4.016,4.034c0,0-0.001,0-0.002,0  c-2.223-0.005-4.021-1.811-4.016-4.033c-0.005-2.223,1.793-4.029,4.016-4.033l0,0C103.177,129.101,104.976,130.906,104.972,133.13  C104.972,133.13,104.972,133.131,104.972,133.13 M137.853,133.13c0.005,2.224-1.793,4.029-4.016,4.034c0,0,0,0-0.001,0  c-2.223-0.004-4.021-1.811-4.017-4.033l0,0c-0.005-2.223,1.793-4.029,4.016-4.033c0,0,0,0,0.001,0  C136.059,129.102,137.857,130.907,137.853,133.13C137.853,133.131,137.853,133.131,137.853,133.13"
     id="path14546" /><path
     fill="#B25C4B"
     d="M122.07,138.882h-9.27c-0.389-0.001-0.705-0.316-0.704-0.706c0,0,0,0,0-0.001v-8.405  c0-0.392,0.315-0.707,0.704-0.707h9.27c0.39,0,0.704,0.315,0.704,0.707v8.405C122.774,138.564,122.459,138.882,122.07,138.882"
     id="path14548" /><path
     fill="#933634"
     d="M132.67,146.614c0,8.437-6.812,15.276-15.215,15.276c-8.403,0-15.215-6.84-15.215-15.276"
     id="path14550" /><path
     fill="#FFFFFF"
     d="M103.046,151.49h28.818c0.514-1.533,0.805-3.17,0.805-4.876H102.24  C102.24,148.32,102.531,149.957,103.046,151.49"
     id="path14552" /><path
     fill="#AF3F3F"
     d="M126.32,159.012c-2.072-2.599-5.253-4.267-8.827-4.267c-3.59,0-6.783,1.685-8.855,4.304  c2.568,1.849,5.652,2.843,8.817,2.842C120.767,161.891,123.823,160.816,126.32,159.012"
     id="path14554" /><path
     fill="#4C241C"
     d="M116.123,88.171c0-0.572-0.483-1.037-1.051-0.995c-16.571,1.215-29.64,15.092-29.64,32.041v14.354  c0-16.99,13.133-30.896,29.762-32.05c0.521-0.032,0.927-0.462,0.929-0.984V88.171 M118.747,88.171v12.365  c0,0.525,0.408,0.948,0.929,0.984c16.629,1.155,29.763,15.06,29.763,32.05v-14.354c0-16.949-13.07-30.826-29.641-32.041  C119.23,87.134,118.748,87.599,118.747,88.171"
     id="path14556" /><path
     fill="#B25C4B"
     d="M318.352,138.845c0,4.12-3.326,7.46-7.43,7.46s-7.43-3.34-7.43-7.46s3.326-7.461,7.43-7.461  S318.352,134.725,318.352,138.845 M279.367,194.729c-6.743,0-12.21-5.49-12.21-12.261v-14.7c0-6.772,5.467-12.261,12.21-12.261  c6.742,0,12.21,5.488,12.21,12.261v14.699c0,6.772-5.468,12.26-12.21,12.26"
     id="path14558" /><path
     fill="#BF7358"
     d="M279.307,178.115c-17.515,0-31.711-14.256-31.711-31.842v-19.791c0-17.585,14.196-31.841,31.709-31.841  c17.516,0,31.712,14.256,31.712,31.841v19.791C311.017,163.859,296.82,178.114,279.307,178.115"
     id="path14560" /><path
     fill="#A85F48"
     d="M266.957,131.38c0.004,2.202-1.777,3.991-3.98,3.996l0,0c-2.202-0.005-3.984-1.794-3.979-3.996v-0.001  c-0.005-2.202,1.777-3.991,3.979-3.996l0,0C265.175,127.383,266.957,129.173,266.957,131.38 M299.537,131.38  c0.004,2.202-1.777,3.991-3.98,3.996l0,0c-2.202-0.005-3.984-1.794-3.979-3.996v-0.001c-0.005-2.202,1.777-3.991,3.979-3.996l0,0  C297.755,127.383,299.537,129.173,299.537,131.38"
     id="path14562" /><path
     fill="#933634"
     d="M294.422,144.73c0,8.371-6.759,15.158-15.096,15.158c-8.338,0-15.098-6.787-15.098-15.16"
     id="path14564" /><path
     fill="#FFFFFF"
     d="M265.029,149.566h28.594c0.51-1.52,0.8-3.144,0.8-4.838h-30.194  C264.229,146.423,264.518,148.047,265.029,149.566"
     id="path14566" /><path
     fill="#AF3F3F"
     d="M288.123,157.031c-2.057-2.579-5.213-4.234-8.76-4.234c-3.562,0-6.73,1.671-8.786,4.27  c2.548,1.835,5.608,2.822,8.749,2.82C282.486,159.888,285.565,158.888,288.123,157.031"
     id="path14568" /><path
     fill="#B25C4B"
     d="M283.893,137.434h-9.172c-0.391,0-0.705-0.315-0.705-0.705c0,0,0-0.001,0-0.002v-8.672  c0-0.39,0.315-0.707,0.703-0.707h9.174c0.389,0,0.705,0.316,0.705,0.707v8.672C284.598,137.117,284.281,137.434,283.893,137.434"
     id="path14570" /><path
     d="M286.529,90.288c-4.338,0-7.854,3.532-7.854,7.888h7.856v-7.888"
     id="path14572" /><path
     d="M275.118,88.123c4.339,0,7.856,3.532,7.856,7.888h-7.856V88.123"
     id="path14574" /><path
     d="M284.598,117.132l7.948,10.103h21.43c0-19.461-15.712-35.238-35.095-35.238c-19.382,0-35.095,15.777-35.095,35.238h40.81  v-10.103"
     id="path14576" /><path
     fill="#336289"
     d="M221.432,228.715c6.572,1.889,13.426-1.931,15.307-8.529l19.337-67.848c1.88-6.6-1.923-13.48-8.496-15.37  c-6.574-1.889-13.427,1.931-15.308,8.53l-19.336,67.846C211.055,219.943,214.857,226.826,221.432,228.715"
     id="path14578" /><path
     fill="#336289"
     d="M248.562,159.031c6.449-2.279,9.838-9.376,7.568-15.852l-27.449-78.331c-2.271-6.476-9.338-9.878-15.787-7.6  c-6.449,2.279-9.838,9.376-7.568,15.852l27.449,78.331C235.046,157.907,242.113,161.311,248.562,159.031 M180.556,228.715  c-6.573,1.889-13.426-1.931-15.307-8.529l-19.336-67.848c-1.88-6.6,1.923-13.48,8.496-15.37c6.573-1.889,13.427,1.931,15.307,8.53  l19.336,67.846C190.933,219.943,187.129,226.826,180.556,228.715"
     id="path14580" /><path
     fill="#336289"
     d="M153.426,159.031c-6.45-2.279-9.839-9.376-7.569-15.852l27.261-77.794c2.27-6.475,9.337-9.878,15.787-7.599  c6.45,2.279,9.838,9.375,7.569,15.851l-27.262,77.793C166.942,157.907,159.875,161.311,153.426,159.031 M158.646,189.993h85.37  v40.509h-85.37V189.993L158.646,189.993z"
     id="path14582" /><path
     fill="#336289"
     d="M160.88,178.439h22.558v23.231H160.88V178.439L160.88,178.439z"
     id="path14584" /><path
     fill="#FFFFFF"
     d="M222.232,203.49v-23.17c0-11.979-9.67-21.688-21.6-21.688c-11.929,0-21.6,9.71-21.6,21.688v23.171  l21.6-8.921L222.232,203.49"
     id="path14586" /><path
     fill="#FF9D8A"
     d="M241.531,134.211c0,4.323-3.49,7.826-7.795,7.826s-7.795-3.503-7.795-7.826c0-4.322,3.49-7.827,7.795-7.827  S241.531,129.889,241.531,134.211 M175.197,134.211c0,4.323-3.49,7.826-7.795,7.826c-4.305,0-7.794-3.503-7.794-7.826  c0-4.322,3.49-7.827,7.794-7.827C171.707,126.384,175.197,129.889,175.197,134.211 M200.633,192.836  c-7.074,0-12.809-5.758-12.809-12.861v-15.423c0-7.103,5.735-12.862,12.81-12.862c7.074,0,12.81,5.761,12.81,12.862v15.423  C213.443,187.078,207.708,192.836,200.633,192.836"
     id="path14588" /><path
     fill="#FFB5A1"
     d="M200.57,175.409c-18.375,0-33.269-14.956-33.269-33.405v-20.762c0-18.449,14.894-33.404,33.267-33.404  c18.373,0,33.269,14.955,33.269,33.404v20.762c0,18.449-14.896,33.405-33.269,33.405"
     id="path14590" /><path
     fill="#EB9486"
     d="M187.614,126.38c0,2.315-1.87,4.192-4.175,4.192c-2.306,0-4.176-1.877-4.176-4.192s1.87-4.192,4.176-4.192  C185.744,122.188,187.614,124.064,187.614,126.38 M221.793,126.38c0,2.315-1.869,4.192-4.175,4.192  c-2.311-0.006-4.18-1.882-4.175-4.192c-0.006-2.311,1.863-4.188,4.175-4.192l0,0C219.924,122.188,221.793,124.064,221.793,126.38"
     id="path14592" /><path
     fill="#B2473B"
     d="M216.428,140.384c0,8.783-7.091,15.903-15.838,15.903c-8.746,0-15.837-7.12-15.837-15.903"
     id="path14594" /><path
     fill="#FFFFFF"
     d="M185.591,145.46h29.998c0.536-1.595,0.839-3.299,0.839-5.076h-31.675  C184.753,142.161,185.055,143.864,185.591,145.46"
     id="path14596" /><path
     fill="#CC4F46"
     d="M209.82,153.29c-2.158-2.705-5.471-4.442-9.19-4.442c-3.737,0-7.061,1.754-9.218,4.48  c5.501,3.961,12.922,3.945,18.406-0.038"
     id="path14598" /><path
     fill="#FF9D8A"
     d="M205.415,132.73h-9.691c-0.39-0.001-0.705-0.317-0.704-0.707v-9.166c0-0.391,0.314-0.707,0.704-0.707h9.691  c0.39,0,0.704,0.315,0.704,0.707v9.166C206.119,132.414,205.805,132.73,205.415,132.73"
     id="path14600" /><path
     fill="#FFB5A1"
     d="M206.766,73.607h23.617c3.098,0,5.633-2.544,5.633-5.655V50.818c0-3.11-2.535-5.655-5.633-5.655h-23.617  c-3.098,0-5.632,2.545-5.632,5.655v17.134C201.134,71.062,203.668,73.607,206.766,73.607"
     id="path14602" /><path
     fill="#FF9D8A"
     d="M205.448,191.886l-4.815,2.685l-4.814-2.685H205.448"
     id="path14604" /><path
     fill="#EFAA9A"
     d="M168.568,112.122h64.002c-3.953-14.014-16.778-24.284-32.002-24.284  C185.346,87.838,172.522,98.108,168.568,112.122"
     id="path14606" /><path
     fill="#FFB5A1"
     d="M193.116,73.607H169.5c-3.098,0-5.632-2.545-5.632-5.655V50.818c0-3.11,2.534-5.655,5.632-5.655h23.617  c3.098,0,5.632,2.545,5.632,5.655v17.134C198.749,71.062,196.215,73.607,193.116,73.607"
     id="path14608" /><path
     fill="#FFB5A1"
     d="M193.064,73.607c-3.126,0-5.684-2.568-5.684-5.707V48.986c0-3.14,2.558-5.708,5.684-5.708  c3.127,0,5.684,2.569,5.684,5.708V67.9C198.748,71.039,196.191,73.607,193.064,73.607 M206.818,73.607  c3.125,0,5.684-2.568,5.684-5.707V48.986c0-3.14-2.559-5.708-5.684-5.708c-3.127,0-5.685,2.569-5.685,5.708V67.9  C201.134,71.039,203.691,73.607,206.818,73.607"
     id="path14614" /><path
     fill="#FDFDFD"
     d="M46.421,66.86v0.004V66.86 M46.421,66.843v0.004V66.843 M46.421,66.826v0.006V66.826 M46.42,66.809v0.006  V66.809 M46.42,66.792v0.006V66.792 M120.801,19.074h0.008H120.801 M120.786,19.074h0.01H120.786 M120.766,19.074H51.349  c-2.722,0-4.928,2.215-4.928,4.948c0-2.733,2.206-4.948,4.928-4.948h69.431H120.766"
     id="path14616" /><path
     fill="#FDFDFD"
     d="M160.659,48.369L160.659,48.369L160.659,48.369 M160.658,48.345v0.002V48.345 M160.658,48.321v0.005V48.321   M160.658,48.299v0.002V48.299 M160.657,48.274L160.657,48.274 M235.184,0.556h0.002 M235.123,0.554h0.003H235.123 M235.104,0.554  h0.004H235.104 M235.061,0.553h0.004H235.061 M235.041,0.553h0.006H235.041 M235.021,0.553h0.006H235.021"
     id="path14622" /><path
     fill="#FDFDFD"
     d="M271.02,66.88L271.02,66.88L271.02,66.88 M271.02,66.861L271.02,66.861 M271.02,66.844v0.004V66.844   M271.018,66.826L271.018,66.826 M271.018,66.809v0.006V66.809 M271.018,66.793v0.005V66.793 M345.388,19.074h0.005H345.388   M345.365,19.074h-69.42c-2.721,0-4.928,2.215-4.928,4.948c0-2.733,2.207-4.948,4.928-4.948h69.434H345.365"
     id="path14628" /></svg>