<?xml version="1.0" encoding="UTF-8" standalone="no"?>
<!-- Created with Inkscape (http://www.inkscape.org/) -->

<svg
   xmlns:osb="http://www.openswatchbook.org/uri/2009/osb"
   xmlns:dc="http://purl.org/dc/elements/1.1/"
   xmlns:cc="http://creativecommons.org/ns#"
   xmlns:rdf="http://www.w3.org/1999/02/22-rdf-syntax-ns#"
   xmlns:svg="http://www.w3.org/2000/svg"
   xmlns="http://www.w3.org/2000/svg"
   xmlns:sodipodi="http://sodipodi.sourceforge.net/DTD/sodipodi-0.dtd"
   xmlns:inkscape="http://www.inkscape.org/namespaces/inkscape"
   width="290"
   height="280"
   viewBox="0 0 290 280"
   id="svg4925"
   version="1.1"
   inkscape:version="0.91 r"
   sodipodi:docname="check.svg">
  <defs
     id="defs4927">
    <linearGradient
       id="linearGradient6436"
       osb:paint="solid"
       gradientTransform="translate(64.823851,10.571429)">
      <stop
         style="stop-color:#ffffff;stop-opacity:1;"
         offset="0"
         id="stop6438" />
    </linearGradient>
  </defs>
  <sodipodi:namedview
     id="base"
     pagecolor="#ffffff"
     bordercolor="#666666"
     borderopacity="1.0"
     inkscape:pageopacity="0.0"
     inkscape:pageshadow="2"
     inkscape:zoom="0.7"
     inkscape:cx="375"
     inkscape:cy="331.42857"
     inkscape:document-units="px"
     inkscape:current-layer="layer1"
     showgrid="false"
     units="px"
     inkscape:window-width="1366"
     inkscape:window-height="716"
     inkscape:window-x="0"
     inkscape:window-y="0"
     inkscape:window-maximized="1" />
  <metadata
     id="metadata4930">
    <rdf:RDF>
      <cc:Work
         rdf:about="">
        <dc:format>image/svg+xml</dc:format>
        <dc:type
           rdf:resource="http://purl.org/dc/dcmitype/StillImage" />
        <dc:title></dc:title>
      </cc:Work>
    </rdf:RDF>
  </metadata>
  <g
     inkscape:label="Layer 1"
     inkscape:groupmode="layer"
     id="layer1"
     transform="translate(0,-772.36216)">
    <g
       transform="matrix(3.7924528,0,0,4.0690485,-930.80055,-1285.3203)"
       style="display:inline"
       id="g4980">
      <ellipse
         ry="33.57143"
         rx="37.857143"
         cy="540"
         cx="283.85715"
         id="path6431"
         style="fill:url(#linearGradient6436);fill-opacity:1;stroke:none;stroke-opacity:1" />
      <path
         d="m 291.5,539.28571 6.3,-6.3 c 2.1,-2.1 2.1,-5.5 0,-7.5 -2.1,-2.1 -5.5,-2.1 -7.5,0 l -6.3,6.3 -6.3,-6.3 c -2.1,-2.1 -5.5,-2.1 -7.5,0 -2.1,2.1 -2.1,5.5 0,7.5 l 6.3,6.3 -6.3,6.3 c -2.1,2.1 -2.1,5.5 0,7.5 2.1,2.1 5.5,2.1 7.5,0 l 6.3,-6.3 6.3,6.3 c 2.1,2.1 5.5,2.1 7.5,0 2.1,-2.1 2.1,-5.5 0,-7.5 l -6.3,-6.3 z"
         id="path7636-5"
         inkscape:connector-curvature="0"
         style="fill:#ec0b1b" />
    </g>
  </g>
</svg>
