<?xml version="1.0" encoding="UTF-8" standalone="no"?>
<!-- Created with Inkscape (http://www.inkscape.org/) -->

<svg
   xmlns:dc="http://purl.org/dc/elements/1.1/"
   xmlns:cc="http://creativecommons.org/ns#"
   xmlns:rdf="http://www.w3.org/1999/02/22-rdf-syntax-ns#"
   xmlns:svg="http://www.w3.org/2000/svg"
   xmlns="http://www.w3.org/2000/svg"
   xmlns:sodipodi="http://sodipodi.sourceforge.net/DTD/sodipodi-0.dtd"
   xmlns:inkscape="http://www.inkscape.org/namespaces/inkscape"
   width="491"
   height="492"
   viewBox="0 0 491.00001 492.00001"
   id="svg8833"
   version="1.1"
   inkscape:version="0.91 r"
   sodipodi:docname="mixitup.svg">
  <defs
     id="defs8835" />
  <sodipodi:namedview
     id="base"
     pagecolor="#ffffff"
     bordercolor="#666666"
     borderopacity="1.0"
     inkscape:pageopacity="0.0"
     inkscape:pageshadow="2"
     inkscape:zoom="0.98994949"
     inkscape:cx="223.57143"
     inkscape:cy="197.14286"
     inkscape:document-units="px"
     inkscape:current-layer="layer1"
     showgrid="false"
     units="px"
     inkscape:window-width="1366"
     inkscape:window-height="716"
     inkscape:window-x="0"
     inkscape:window-y="0"
     inkscape:window-maximized="1" />
  <metadata
     id="metadata8838">
    <rdf:RDF>
      <cc:Work
         rdf:about="">
        <dc:format>image/svg+xml</dc:format>
        <dc:type
           rdf:resource="http://purl.org/dc/dcmitype/StillImage" />
        <dc:title></dc:title>
      </cc:Work>
    </rdf:RDF>
  </metadata>
  <g
     inkscape:label="Layer 1"
     inkscape:groupmode="layer"
     id="layer1"
     transform="translate(0,-560.36216)">
    <g
       style="display:inline"
       transform="matrix(8.9749647,0,0,9.9851172,-594.47252,-5094.767)"
       id="g9389">
      <path
         d="m 120.88172,583.51663 -54.499994,0 7.4,-17 39.999994,0 z"
         id="path7666-1-8-8"
         inkscape:connector-curvature="0"
         style="fill:#ffffff" />
      <path
         d="m 70.581726,604.51663 45.999994,0 0,11 -45.999994,0 z"
         id="path7668-5-7-4"
         inkscape:connector-curvature="0"
         style="fill:#7a3922" />
      <path
         d="m 70.581726,585.51663 3,0 0,22 -3,0 z m 40.999994,0 5,0 0,22 -5,0 z"
         id="path7670-2-1-1"
         inkscape:connector-curvature="0"
         style="fill:#7a3922" />
      <path
         d="m 115.88172,606.51663 -44.799994,0 3.1,-8 38.599994,0 z"
         id="path7672-5-3-5"
         inkscape:connector-curvature="0"
         style="fill:#472213" />
      <path
         d="m 66.381726,583.51663 10.6,0 5.1,-17 -8.5,0 z m 54.499994,0 -10.7,0 -5,-17 8.7,0 z m -32.699994,0 10.9,0 -1,-17 -8.9,0 z"
         id="path7674-6-9-6"
         inkscape:connector-curvature="0"
         style="fill:#b71515" />
      <path
         d="m 76.981726,582.51663 c 0,2.9 -2.4,5.3 -5.3,5.3 -2.9,0 -5.3,-2.4 -5.3,-5.3 m 32.7,0 c 0,3 -2.4,5.4 -5.4,5.4 -3,0 -5.4,-2.4 -5.4,-5.4 m 32.599994,0 c 0,2.9 -2.4,5.3 -5.3,5.3 -2.9,0 -5.3,-2.4 -5.3,-5.3"
         id="path7676-0-5-4"
         inkscape:connector-curvature="0"
         style="fill:#b71515" />
      <path
         d="m 110.18172,582.51663 c 0,3.1 -2.5,5.6 -5.6,5.6 -3.1,0 -5.599994,-2.5 -5.599994,-5.6 m -10.8,0 c 0,3.1 -2.5,5.6 -5.6,5.6 -3.1,0 -5.6,-2.5 -5.6,-5.6"
         id="path7678-5-1-0"
         inkscape:connector-curvature="0"
         style="fill:#e5e5e5" />
    </g>
  </g>
</svg>
