<?xml version="1.0" encoding="UTF-8" standalone="no"?>
<!-- Created with Inkscape (http://www.inkscape.org/) -->

<svg
   xmlns:dc="http://purl.org/dc/elements/1.1/"
   xmlns:cc="http://creativecommons.org/ns#"
   xmlns:rdf="http://www.w3.org/1999/02/22-rdf-syntax-ns#"
   xmlns:svg="http://www.w3.org/2000/svg"
   xmlns="http://www.w3.org/2000/svg"
   xmlns:sodipodi="http://sodipodi.sourceforge.net/DTD/sodipodi-0.dtd"
   xmlns:inkscape="http://www.inkscape.org/namespaces/inkscape"
   width="596"
   height="596"
   viewBox="0 0 595.99999 595.99999"
   id="svg8098"
   version="1.1"
   inkscape:version="0.91 r"
   sodipodi:docname="nationalities.svg">
  <defs
     id="defs8100">
    <clipPath
       clipPathUnits="userSpaceOnUse"
       id="clipPath10664">
      <rect
         style="fill:#999999;fill-opacity:1;stroke:none;stroke-opacity:1"
         id="rect10666"
         width="262.20596"
         height="186.55099"
         x="407.88809"
         y="210.50191" />
    </clipPath>
  </defs>
  <sodipodi:namedview
     id="base"
     pagecolor="#ffffff"
     bordercolor="#666666"
     borderopacity="1.0"
     inkscape:pageopacity="0.0"
     inkscape:pageshadow="2"
     inkscape:zoom="0.7"
     inkscape:cx="289.76871"
     inkscape:cy="226.49165"
     inkscape:document-units="px"
     inkscape:current-layer="layer1"
     showgrid="false"
     units="px"
     inkscape:window-width="1366"
     inkscape:window-height="716"
     inkscape:window-x="0"
     inkscape:window-y="0"
     inkscape:window-maximized="1" />
  <metadata
     id="metadata8103">
    <rdf:RDF>
      <cc:Work
         rdf:about="">
        <dc:format>image/svg+xml</dc:format>
        <dc:type
           rdf:resource="http://purl.org/dc/dcmitype/StillImage" />
        <dc:title></dc:title>
      </cc:Work>
    </rdf:RDF>
  </metadata>
  <g
     inkscape:label="Layer 1"
     inkscape:groupmode="layer"
     id="layer1"
     transform="translate(0,-456.36218)">
    <g
       id="g11761"
       transform="translate(0,-17.142857)">
      <path
         id="path14462"
         d="m 9.5132906,580.20412 56.8766194,0 0,440.99538 -56.8766194,0 0,-440.99538 z"
         inkscape:connector-curvature="0"
         style="fill:#e53838" />
      <path
         id="path14464"
         d="m 66.651803,616.50538 -54.260014,0 c -7.1170465,0 -12.93841381,-7.00748 -12.93841381,-15.57066 l 0,-47.17733 c 0,-8.56317 5.82136731,-15.57066 12.93841381,-15.57066 l 54.255442,0 c 7.117024,0 12.938391,7.00749 12.938391,15.57066 l 0,47.17733 c 0,8.56318 -5.821367,15.57066 -12.938391,15.57066"
         inkscape:connector-curvature="0"
         style="fill:#bf7358" />
      <path
         id="path14470"
         d="m 66.530046,616.50538 c -7.181371,0 -13.057874,-7.07081 -13.057874,-15.71384 l 0,-46.89097 c 0,-8.64303 5.876503,-15.71384 13.057874,-15.71384 7.183668,0 13.057873,7.07081 13.057873,15.7166 l 0,46.88821 c 0,8.64303 -5.874205,15.71384 -13.057873,15.71384"
         inkscape:connector-curvature="0"
         style="fill:#bf7358" />
      <path
         id="path14472"
         d="m 114.41274,788.05805 -7.08258,0 c -38.525784,0 -69.759923,-37.58712 -69.759923,-83.95218 0,-46.36782 31.234139,-83.95494 69.759923,-83.95494 l 7.08258,0 c 38.52579,0 69.75993,37.58436 69.75993,83.95218 0,46.36782 -31.23414,83.95494 -69.75993,83.95494"
         inkscape:connector-curvature="0"
         style="fill:#4c241c" />
      <path
         id="path14474"
         d="m 8.1119125,1052.4083 0,-36.2407 c 0,-81.60391 46.0058015,-147.75886 102.7583875,-147.75886 56.75489,0 102.75839,66.15495 102.75839,147.75886 l 0,36.2407"
         inkscape:connector-curvature="0"
         style="fill:#e53838" />
      <path
         style="fill:#ffb600"
         inkscape:connector-curvature="0"
         id="path14476"
         d="m 527.22444,616.50538 56.88124,0 0,406.55842 -56.88124,0 0,-406.55842 z" />
      <path
         id="path14478"
         d="m 526.96939,616.50538 54.25542,0 c 7.11705,0 12.93842,-7.00748 12.93842,-15.57066 l 0,-47.17733 c 0,-8.56317 -5.82137,-15.57066 -12.93842,-15.57066 l -54.25542,0 c -7.11704,0 -12.93841,7.00749 -12.93841,15.57066 l 0,47.17733 c 0,8.56318 5.82137,15.57066 12.93841,15.57066"
         inkscape:connector-curvature="0"
         style="fill:#bf7358" />
      <path
         id="path14484"
         d="m 527.09115,616.50538 c 7.18369,0 13.05787,-7.07081 13.05787,-15.71384 l 0,-46.89097 c 0,-8.64303 -5.87418,-15.71384 -13.05787,-15.71384 -7.18367,0 -13.06017,7.07081 -13.06017,15.7166 l 0,46.88821 c 0,8.64303 5.8765,15.71384 13.06017,15.71384"
         inkscape:connector-curvature="0"
         style="fill:#bf7358" />
      <path
         id="path14486"
         d="m 587.66418,1052.4083 0,-36.2407 c 0,-81.60391 -46.0081,-147.75886 -102.75839,-147.75886 -56.75491,0 -102.75839,66.15495 -102.75839,147.75886 l 0,36.2407"
         inkscape:connector-curvature="0"
         style="fill:#ffb600" />
      <path
         id="path14488"
         d="m 46.745667,859.06634 -6.448531,-7.76193 c -3.880146,-4.70562 -3.880146,-12.27481 0,-16.98042 3.893929,-4.66983 10.211514,-4.67258 14.110039,-0.003 0,0 0.0023,0.003 0.0023,0.003 l 6.448508,7.76468 c 3.877849,4.70562 3.877849,12.2748 0,16.97767 -3.896227,4.67257 -10.211514,4.67257 -14.110039,0.005 0,0 -0.0023,-0.003 -0.0023,-0.005"
         inkscape:connector-curvature="0"
         style="fill:#4c241c" />
      <path
         id="path14490"
         d="m 42.697818,825.09172 15.150717,-18.23048 c 1.493271,-1.78973 3.916926,-1.78973 5.41015,-0.003 0,0.003 0,0.003 0,0.003 l 8.702186,10.47131 c 1.486356,1.78973 1.486356,4.72214 0,6.51187 L 56.807857,842.0749 c -1.486333,1.78973 -3.921497,1.78973 -5.40783,0 l -8.702209,-10.47131 c -1.488653,-1.80625 -1.488653,-4.70561 0,-6.51187"
         inkscape:connector-curvature="0"
         style="fill:#4c241c" />
      <path
         id="path14492"
         d="m 46.745667,817.07648 -6.448531,-7.76193 c -3.880146,-4.70562 -3.880146,-12.2748 0,-16.98042 3.89625,-4.66982 10.213835,-4.66982 14.112359,0 l 6.448508,7.76468 c 3.877849,4.70562 3.877849,12.27481 0,16.97767 -3.896227,4.67258 -10.211514,4.67258 -14.110039,0.006 0,0 -0.0023,-0.003 -0.0023,-0.006"
         inkscape:connector-curvature="0"
         style="fill:#4c241c" />
      <path
         id="path14494"
         d="m 42.697818,805.33033 15.150717,-18.22772 c 1.493271,-1.78974 3.916926,-1.79249 5.41015,-0.003 0,0 0,0 0,0.003 l 8.702186,10.4658 c 1.486356,1.78973 1.486356,4.72489 0,6.51186 l -15.153014,18.23324 c -1.486333,1.78973 -3.921497,1.78973 -5.40783,0 L 42.697818,811.8422 c -1.488653,-1.8035 -1.488653,-4.70837 0,-6.51187"
         inkscape:connector-curvature="0"
         style="fill:#4c241c" />
      <path
         id="path14496"
         d="m 42.697818,847.32294 15.150717,-18.23598 c 1.493271,-1.78698 3.916926,-1.78698 5.41015,0 l 8.702186,10.4713 c 1.486356,1.78973 1.486356,4.72489 0,6.51187 l -15.153014,18.23599 c -1.486333,1.78973 -3.921497,1.78973 -5.40783,0 l -8.702209,-10.47406 c -1.488653,-1.8035 -1.488653,-4.70562 0,-6.50912"
         inkscape:connector-curvature="0"
         style="fill:#592921" />
      <path
         id="path14498"
         d="m 46.745667,836.83787 -6.448531,-7.76193 c -3.880146,-4.70562 -3.880146,-12.2748 0,-16.98042 3.893929,-4.66982 10.211514,-4.66982 14.110039,-0.003 0,0 0.0023,0.003 0.0023,0.003 l 6.448508,7.76193 c 3.880146,4.70562 3.880146,12.27756 0,16.98317 -3.896227,4.66983 -10.216109,4.66983 -14.112336,-0.003"
         inkscape:connector-curvature="0"
         style="fill:#592921" />
      <path
         id="path14500"
         d="m 47.048934,862.39524 6.448508,-7.75918 c 3.898525,-4.66982 10.216109,-4.66982 14.112336,0 3.880146,4.70562 3.880146,12.27756 0,16.98318 l -6.450828,7.76468 c -3.896227,4.66707 -10.213812,4.66707 -14.110016,0 l 0,0 c -3.884763,-4.70562 -3.884763,-12.28306 0,-16.98868"
         inkscape:connector-curvature="0"
         style="fill:#4c241c" />
      <path
         id="path14502"
         d="m 46.745667,879.37842 -6.448531,-7.75918 c -3.880146,-4.70562 -3.880146,-12.27756 0,-16.98318 3.89625,-4.66982 10.213835,-4.66982 14.112359,0 l 6.448508,7.76469 c 3.877849,4.70561 3.877849,12.2748 0,16.98042 -3.896227,4.67257 -10.216109,4.67257 -14.112336,-0.003"
         inkscape:connector-curvature="0"
         style="fill:#592921" />
      <path
         id="path14504"
         d="m 46.745667,899.69325 -6.448531,-7.76193 c -3.880146,-4.70562 -3.880146,-12.27756 0,-16.98318 3.893929,-4.66982 10.211514,-4.67258 14.110039,-0.003 0,0.003 0.0023,0.003 0.0023,0.003 l 6.448508,7.76468 c 3.877849,4.70562 3.877849,12.27481 0,16.98043 -3.896227,4.67257 -10.216109,4.67257 -14.112336,0"
         inkscape:connector-curvature="0"
         style="fill:#4c241c" />
      <path
         id="path14506"
         d="m 47.048934,882.71007 6.448508,-7.76193 c 3.896227,-4.66982 10.213812,-4.67258 14.110039,-0.003 0,0.003 0,0.003 0.0023,0.003 3.880146,4.70562 3.880146,12.27756 0,16.98318 L 61.15895,899.696 c -3.896227,4.66707 -10.213812,4.66707 -14.110016,0 l 0,0 c -3.884763,-4.70562 -3.884763,-12.28307 0,-16.98593"
         inkscape:connector-curvature="0"
         style="fill:#592921" />
      <path
         id="path14508"
         d="m 47.048934,903.02215 6.448508,-7.76468 c 3.898525,-4.66983 10.216109,-4.66983 14.112336,0 3.882443,4.70561 3.882443,12.28031 0,16.98593 l -6.450828,7.76192 c -3.896227,4.66983 -10.213812,4.66983 -14.110016,0 l 0,0 c -3.882443,-4.70561 -3.882443,-12.28031 0,-16.98317"
         inkscape:connector-curvature="0"
         style="fill:#4c241c" />
      <path
         id="path14510"
         d="m 46.745667,920.00532 -6.448531,-7.76468 c -3.880146,-4.70562 -3.880146,-12.2748 0,-16.98042 3.89625,-4.66982 10.213835,-4.66982 14.112359,0 l 6.448508,7.76193 c 3.880146,4.70561 3.880146,12.27756 0,16.98317 -3.896227,4.66983 -10.216109,4.66983 -14.112336,0"
         inkscape:connector-curvature="0"
         style="fill:#592921" />
      <path
         id="path14512"
         d="m 111.04949,915.31623 c -15.633149,0 -28.307373,-15.25402 -28.307373,-34.06823 l 0,-40.85269 c 0,-18.81421 12.674224,-34.06823 28.307373,-34.06823 15.63545,0 28.30967,15.25402 28.30967,34.06823 l 0,40.85544 c 0,18.81696 -12.67422,34.06823 -28.30967,34.06548"
         inkscape:connector-curvature="0"
         style="fill:#b25c4b" />
      <path
         id="path14514"
         d="m 61.758546,947.57545 0,-26.56512 c 0,-1.99349 -1.355409,-3.61801 -3.009468,-3.61801 l -9.671648,0 c -1.654035,0 -3.009467,1.62727 -3.009467,3.61801 l 0,26.56512 c 0,0.55069 0.372163,0.99674 0.829326,0.99674 l 14.034251,0 c 0.459438,0 0.827006,-0.44605 0.827006,-0.99674"
         inkscape:connector-curvature="0"
         style="fill:#592921" />
      <path
         id="path14516"
         d="m 164.08964,864.30612 -15.15072,-18.23599 c -1.48635,-1.80074 -1.48635,-4.70561 0,-6.51187 l 8.70219,-10.4713 c 1.49324,-1.78698 3.9169,-1.78698 5.41015,0 l 15.15071,18.23598 c 1.48866,1.78974 1.48866,4.72214 0,6.50912 l -8.70218,10.47406 c -1.48636,1.78973 -3.9215,1.78973 -5.41015,0"
         inkscape:connector-curvature="0"
         style="fill:#4c241c" />
      <path
         id="path14518"
         d="m 160.03949,819.85745 6.45083,-7.76468 c 3.89623,-4.66983 10.21381,-4.67258 14.11004,-0.003 0,0.003 0,0.003 0.002,0.003 3.88014,4.70561 3.88014,12.27755 0,16.98317 l -6.45083,7.76468 c -3.89623,4.66983 -10.21381,4.66983 -14.11234,0 -3.88014,-4.70561 -3.88014,-12.27755 0,-16.98317"
         inkscape:connector-curvature="0"
         style="fill:#4c241c" />
      <path
         id="path14520"
         d="m 164.08964,822.31351 -15.15072,-18.23324 c -1.48635,-1.80074 -1.48635,-4.70561 0,-6.51186 l 8.70219,-10.4658 c 1.49324,-1.78974 3.9169,-1.79249 5.41015,-0.003 0,0 0,0 0,0.003 l 15.15071,18.22772 c 1.48866,1.78974 1.48866,4.7249 0,6.51187 l -8.70218,10.47131 c -1.48636,1.78973 -3.9215,1.78973 -5.41015,0"
         inkscape:connector-curvature="0"
         style="fill:#4c241c" />
      <path
         id="path14522"
         d="m 160.03949,800.0933 6.45083,-7.76193 c 3.89623,-4.66982 10.21611,-4.66982 14.11234,0 3.88244,4.70562 3.88244,12.28032 0,16.98593 l -6.45083,7.75918 c -3.89623,4.67258 -10.21152,4.67258 -14.11004,0.006 0,0 -0.002,-0.003 -0.002,-0.006 -3.88014,-4.70562 -3.88014,-12.27756 0,-16.98318"
         inkscape:connector-curvature="0"
         style="fill:#4c241c" />
      <path
         id="path14524"
         d="m 160.03949,842.08316 6.45083,-7.75917 c 3.89623,-4.66983 10.21381,-4.67258 14.11004,-0.003 0,0 0,0.003 0.002,0.003 3.88014,4.70561 3.88014,12.27756 0,16.98317 l -6.45083,7.75918 c -3.89623,4.67257 -10.21152,4.67257 -14.11004,0.005 0,0 -0.002,-0.003 -0.002,-0.005 -3.88014,-4.70562 -3.88014,-12.27756 0,-16.98318"
         inkscape:connector-curvature="0"
         style="fill:#592921" />
      <path
         id="path14526"
         d="m 164.08964,842.07215 -15.15072,-18.23048 c -1.48635,-1.80626 -1.48635,-4.70838 0,-6.51187 l 8.70219,-10.47131 c 1.49324,-1.78973 3.9169,-1.78973 5.41015,-0.003 0,0.003 0,0.003 0,0.003 l 15.15071,18.23048 c 1.48866,1.78973 1.48866,4.72214 0,6.51187 l -8.70218,10.47131 c -1.48636,1.79248 -3.9215,1.79248 -5.41015,0"
         inkscape:connector-curvature="0"
         style="fill:#592921" />
      <path
         id="path14528"
         d="m 160.03949,862.39524 6.45083,-7.75918 c 3.89623,-4.66982 10.21611,-4.66982 14.11234,0 3.88014,4.70562 3.88014,12.27756 0,16.98318 l -6.45083,7.76468 c -3.89623,4.66707 -10.21381,4.66707 -14.11234,0 -3.88244,-4.70562 -3.88244,-12.28031 0,-16.98868"
         inkscape:connector-curvature="0"
         style="fill:#4c241c" />
      <path
         id="path14530"
         d="m 159.73854,879.37842 -6.44853,-7.75918 c -3.88014,-4.70562 -3.88014,-12.27756 0,-16.98318 3.89623,-4.66707 10.21382,-4.66707 14.11004,0 l 6.45083,7.76469 c 3.87785,4.70561 3.87785,12.2748 0,16.98042 -3.89623,4.67257 -10.21611,4.67257 -14.11234,-0.003"
         inkscape:connector-curvature="0"
         style="fill:#592921" />
      <path
         id="path14532"
         d="m 159.73854,899.69325 -6.44853,-7.76193 c -3.88014,-4.70562 -3.88014,-12.27756 0,-16.98318 3.89623,-4.66707 10.21382,-4.66982 14.11004,0 l 0,0 6.45083,7.76468 c 3.87785,4.70562 3.87785,12.27481 0,16.98043 -3.89623,4.67257 -10.21611,4.67257 -14.11234,0"
         inkscape:connector-curvature="0"
         style="fill:#4c241c" />
      <path
         id="path14534"
         d="m 160.03949,882.71007 6.45083,-7.76193 c 3.89623,-4.66982 10.21381,-4.67258 14.11004,-0.003 0,0.003 0,0.003 0.002,0.003 3.88014,4.70562 3.88014,12.27756 0,16.98318 l -6.45083,7.76468 c -3.89623,4.66707 -10.21381,4.66707 -14.11234,0 -3.88244,-4.70562 -3.88244,-12.28031 0,-16.98593"
         inkscape:connector-curvature="0"
         style="fill:#592921" />
      <path
         id="path14536"
         d="m 159.6076,904.78434 5.49285,-8.76417 c 3.31731,-5.27558 9.57287,-6.33015 13.9745,-2.35694 4.38325,3.97595 5.26312,11.54514 1.9596,16.81797 l -5.49285,8.76418 c -3.31731,5.27557 -9.57287,6.33014 -13.9768,2.35693 -4.38096,-3.97595 -5.26082,-11.54514 -1.9573,-16.81797"
         inkscape:connector-curvature="0"
         style="fill:#4c241c" />
      <path
         id="path14538"
         d="m 159.73854,920.00532 -6.44853,-7.76468 c -3.87785,-4.70562 -3.87785,-12.2748 0,-16.98042 3.89623,-4.66707 10.21382,-4.66707 14.11004,0 l 6.45083,7.76193 c 3.88015,4.70561 3.88015,12.27756 0,16.98317 -3.89623,4.66983 -10.21611,4.66983 -14.11234,0"
         inkscape:connector-curvature="0"
         style="fill:#592921" />
      <path
         id="path14540"
         d="m 174.74913,947.57545 0,-26.56512 c 0,-1.99349 -1.35312,-3.61801 -3.00717,-3.61801 l -9.67395,0 c -1.65406,0 -3.00947,1.62727 -3.00947,3.61801 l 0,26.56512 c 0,0.55069 0.37217,0.99674 0.82933,0.99674 l 14.03423,0 c 0.45716,0 0.82703,-0.44605 0.82703,-0.99674"
         inkscape:connector-curvature="0"
         style="fill:#592921" />
      <path
         id="path14542"
         d="m 201.39785,762.52821 c 0,11.44878 -7.71205,20.73336 -17.22518,20.73336 -9.51314,0 -17.22748,-9.28458 -17.22748,-20.73336 0,-11.44602 7.71434,-20.73335 17.22748,-20.73335 9.51313,0 17.22518,9.28733 17.22518,20.73335 m -146.600134,0 c 0,11.44878 -7.714345,20.73336 -17.227479,20.73336 -9.513112,0 -17.225183,-9.28458 -17.225183,-20.73336 0,-11.44602 7.712071,-20.73335 17.225183,-20.73335 9.513134,0 17.227479,9.28733 17.227479,20.73335"
         inkscape:connector-curvature="0"
         style="fill:#b25c4b" />
      <path
         id="path14544"
         d="m 110.90936,869.14941 c -40.604844,0 -73.522908,-39.6164 -73.522908,-88.48158 l 0,-54.99708 c 0,-48.86793 32.918064,-88.48157 73.522908,-88.48157 40.60484,0 73.5229,39.61364 73.5229,88.48157 l 0,54.99708 c 0,48.86794 -32.91806,88.48158 -73.5229,88.48158"
         inkscape:connector-curvature="0"
         style="fill:#bf7358" />
      <path
         id="path14546"
         d="m 82.278062,746.69046 c 0.01149,6.12364 -4.119065,11.09359 -9.225971,11.10735 0,0 -0.0023,0 -0.0046,0 -5.106906,-0.0138 -9.237458,-4.98646 -9.225971,-11.10459 -0.01149,-6.12088 4.119065,-11.09358 9.225971,-11.1046 l 0,0 c 5.106906,0.008 9.239755,4.97821 9.230566,11.10184 0,0 0,0.003 0,0 m 75.537633,0 c 0.0115,6.12364 -4.11905,11.09359 -9.22596,11.10735 0,0 0,0 -0.002,0 -5.1069,-0.011 -9.23745,-4.98646 -9.22827,-11.10459 l 0,0 c -0.0115,-6.12088 4.11907,-11.09358 9.22598,-11.1046 0,0 0,0 0.002,0 5.10691,0.011 9.23746,4.98096 9.22827,11.10184 0,0.003 0,0.003 0,0"
         inkscape:connector-curvature="0"
         style="fill:#a85f48" />
      <path
         id="path14548"
         d="m 121.55736,762.52821 -21.29601,0 c -0.893647,-0.003 -1.619595,-0.87008 -1.617297,-1.94392 0,0 0,0 0,-0.003 l 0,-23.14261 c 0,-1.07935 0.72365,-1.94668 1.617297,-1.94668 l 21.29601,0 c 0.89595,0 1.6173,0.86733 1.6173,1.94668 l 0,23.14261 c 0,1.07108 -0.72365,1.94667 -1.6173,1.94667"
         inkscape:connector-curvature="0"
         style="fill:#b25c4b" />
      <path
         id="path14550"
         d="m 145.90878,783.81776 c 0,23.23072 -15.64924,42.06145 -34.95348,42.06145 -19.304239,0 -34.953472,-18.83349 -34.953472,-42.06145"
         inkscape:connector-curvature="0"
         style="fill:#933634" />
      <path
         id="path14552"
         d="m 77.853455,797.2435 66.203695,0 c 1.18081,-4.22101 1.84933,-8.72838 1.84933,-13.42574 l -69.904652,0 c 0,4.69736 0.668516,9.20473 1.851627,13.42574"
         inkscape:connector-curvature="0"
         style="fill:#ffffff" />
      <path
         id="path14554"
         d="m 131.3209,817.95483 c -4.76001,-7.15618 -12.06774,-11.7489 -20.2783,-11.7489 -8.24732,0 -15.58261,4.63953 -20.342623,11.85077 5.899476,5.0911 12.984363,7.82801 20.255323,7.82526 7.60867,0 14.62923,-2.95994 20.3656,-7.92713"
         inkscape:connector-curvature="0"
         style="fill:#af3f3f" />
      <path
         id="path14556"
         d="m 107.89529,622.89886 c 0,-1.57497 -1.10959,-2.85531 -2.41446,-2.73967 -38.06862,3.34542 -68.09208,41.55482 -68.09208,88.22276 l 0,39.52278 c 0,-46.78083 30.170488,-85.07008 68.37235,-88.24754 1.19689,-0.0881 2.1296,-1.27208 2.13419,-2.70938 l 0,-34.04895 m 6.02813,0 0,34.0462 c 0,1.44555 0.9373,2.61025 2.13419,2.70938 38.20187,3.18021 68.37465,41.4667 68.37465,88.24754 l 0,-39.52279 c 0,-46.66794 -30.02576,-84.87733 -68.09437,-88.22275 -1.30487,-0.11289 -2.41217,1.16745 -2.41447,2.74242"
         inkscape:connector-curvature="0"
         style="fill:#4c241c" />
      <path
         id="path14558"
         d="m 572.47668,762.42634 c 0,11.34414 -7.64083,20.54061 -17.06896,20.54061 -9.42812,0 -17.06897,-9.19647 -17.06897,-20.54061 0,-11.34415 7.64085,-20.54337 17.06897,-20.54337 9.42813,0 17.06896,9.19922 17.06896,20.54337 M 482.91632,916.2992 c -15.49074,0 -28.05007,-15.11635 -28.05007,-33.75984 l 0,-40.47547 c 0,-18.64625 12.55933,-33.75985 28.05007,-33.75985 15.48842,0 28.05006,15.11084 28.05006,33.75985 l 0,40.47271 c 0,18.64625 -12.56164,33.7571 -28.05006,33.7571"
         inkscape:connector-curvature="0"
         style="fill:#b25c4b" />
      <path
         id="path14560"
         d="m 482.77846,870.55366 c -40.23727,0 -72.84979,-39.25294 -72.84979,-87.67482 l 0,-54.4932 c 0,-48.41912 32.61252,-87.67207 72.8452,-87.67207 40.23957,0 72.85209,39.25295 72.85209,87.67207 l 0,54.4932 c 0,48.42188 -32.6148,87.67207 -72.8475,87.67482"
         inkscape:connector-curvature="0"
         style="fill:#bf7358" />
      <path
         id="path14562"
         d="m 454.40679,741.87196 c 0.009,6.06306 -4.08229,10.98895 -9.1433,11.00272 l 0,0 c -5.05866,-0.0138 -9.15243,-4.93966 -9.14094,-11.00272 l 0,-0.003 c -0.0115,-6.06306 4.08228,-10.98895 9.14094,-11.00272 l 0,0 c 5.0495,0 9.1433,4.92865 9.1433,11.00548 m 74.84615,0 c 0.009,6.06306 -4.08229,10.98895 -9.14329,11.00272 l 0,0 c -5.05867,-0.0138 -9.15246,-4.93966 -9.14095,-11.00272 l 0,-0.003 c -0.0115,-6.06306 4.08228,-10.98895 9.14095,-11.00272 l 0,0 c 5.04947,0 9.14329,4.92865 9.14329,11.00548"
         inkscape:connector-curvature="0"
         style="fill:#a85f48" />
      <path
         id="path14564"
         d="m 517.50221,778.63029 c 0,23.04899 -15.52748,41.73654 -34.6801,41.73654 -19.15489,0 -34.68469,-18.68755 -34.68469,-41.74205"
         inkscape:connector-curvature="0"
         style="fill:#933634" />
      <path
         id="path14566"
         d="m 449.97761,791.94589 65.68907,0 c 1.17163,-4.18521 1.83787,-8.65679 1.83787,-13.32111 l -69.36481,0 c 0,4.66707 0.6639,9.13865 1.83787,13.32111"
         inkscape:connector-curvature="0"
         style="fill:#ffffff" />
      <path
         id="path14568"
         d="m 503.03151,812.50027 c -4.72557,-7.1011 -11.97586,-11.65803 -20.12435,-11.65803 -8.18302,0 -15.46088,4.60098 -20.18411,11.75716 5.85353,5.05255 12.88328,7.77019 20.09908,7.76468 7.25948,0.003 14.33288,-2.75068 20.20938,-7.86381"
         inkscape:connector-curvature="0"
         style="fill:#af3f3f" />
      <path
         id="path14570"
         d="m 493.3139,758.54124 -21.07087,0 c -0.89823,0 -1.6196,-0.86733 -1.6196,-1.94117 0,0 0,-0.003 0,-0.006 l 0,-23.87777 c 0,-1.07384 0.72365,-1.94668 1.615,-1.94668 l 21.07547,0 c 0.89367,0 1.61962,0.87009 1.61962,1.94668 l 0,23.87777 c 0,1.07384 -0.72825,1.94668 -1.61962,1.94668"
         inkscape:connector-curvature="0"
         style="fill:#b25c4b" />
      <path
         id="path14572"
         d="m 499.36963,628.72788 c -9.96574,0 -18.04302,9.72512 -18.04302,21.71908 l 18.04762,0 0,-21.71908"
         inkscape:connector-curvature="0" />
      <path
         id="path14574"
         d="m 473.15508,622.76669 c 9.968,0 18.04762,9.72513 18.04762,21.71908 l -18.04762,0 0,-21.71908"
         inkscape:connector-curvature="0" />
      <path
         id="path14576"
         d="m 494.93352,702.64104 18.25897,27.81794 49.23119,0 c 0,-53.58457 -36.09523,-97.02549 -80.62387,-97.02549 -44.52634,0 -80.62385,43.44092 -80.62385,97.02549 l 93.75294,0 0,-27.81794"
         inkscape:connector-curvature="0" />
      <path
         id="path14578"
         d="m 349.82204,1009.8774 c 15.09788,5.2012 30.8436,-5.3169 35.16483,-23.48405 L 429.4098,799.57841 c 4.31893,-18.17266 -4.41771,-37.11628 -19.51787,-42.32027 -15.10249,-5.20123 -30.84591,5.31688 -35.16712,23.48679 l -44.42066,186.80943 c -4.32123,18.16991 4.41312,37.12184 19.51791,42.32304"
         inkscape:connector-curvature="0"
         style="fill:#336289" />
      <path
         id="path14580"
         d="m 412.14789,818.00714 c 14.81531,-6.27507 22.60085,-25.81619 17.38599,-43.64742 L 366.47519,558.68053 c -5.21715,-17.83123 -21.4522,-27.19841 -36.26755,-20.92609 -14.81529,6.27507 -22.60085,25.81619 -17.386,43.64742 l 63.05869,215.67919 c 5.21718,17.83123 21.45222,27.20392 36.26756,20.92609 M 255.91746,1009.8774 c -15.10016,5.2012 -30.8436,-5.3169 -35.16483,-23.48405 L 176.33197,799.57841 c -4.31893,-18.17266 4.41771,-37.11628 19.51789,-42.32027 15.10018,-5.20123 30.8459,5.31688 35.16483,23.48679 l 44.42066,186.80943 c 4.32123,18.16991 -4.41772,37.12184 -19.51789,42.32304"
         inkscape:connector-curvature="0"
         style="fill:#336289" />
      <path
         id="path14582"
         d="M 193.59161,841.10256 C 178.774,834.31123 170.98844,813.16243 176.20332,793.86419 l 62.62679,-231.82322 c 5.21488,-19.29528 21.44993,-29.43609 36.26756,-22.64475 14.81758,6.79133 22.60085,27.93715 17.38827,47.23539 l -62.62909,231.82025 c -5.21488,19.30122 -21.44993,29.44501 -36.26524,22.6507 m 11.99193,92.2656 196.12083,0 0,120.71544 -196.12083,0 0,-120.71544 0,0 z"
         inkscape:connector-curvature="0"
         style="fill:#336289" />
      <path
         id="path14584"
         d="m 210.71571,871.44577 51.82255,0 0,63.96501 -51.82255,0 0,-63.96501 0,0 z"
         inkscape:connector-curvature="0"
         style="fill:#336289" />
      <path
         id="path14586"
         d="m 351.65988,940.42203 0,-63.79705 c 0,-32.98338 -22.21492,-59.71646 -49.62176,-59.71646 -27.40451,0 -49.62175,26.73584 -49.62175,59.71646 l 0,63.7998 49.62175,-24.56337 49.62176,24.56062"
         inkscape:connector-curvature="0"
         style="fill:#ffffff" />
      <path
         id="path14588"
         d="m 395.99554,749.66693 c 0,11.90309 -8.01759,21.54836 -17.90748,21.54836 -9.88989,0 -17.90748,-9.64527 -17.90748,-21.54836 0,-11.90034 8.01759,-21.55113 17.90748,-21.55113 9.88989,0 17.90748,9.65079 17.90748,21.55113 m -152.38933,0 c 0,11.90309 -8.01762,21.54836 -17.90748,21.54836 -9.8899,0 -17.90519,-9.64527 -17.90519,-21.54836 0,-11.90034 8.01759,-21.55113 17.90519,-21.55113 9.88989,0 17.90748,9.65079 17.90748,21.55113 m 58.43421,161.42002 c -16.2511,0 -29.42614,-15.85427 -29.42614,-35.4119 l 0,-42.4662 c 0,-19.55764 13.17504,-35.41466 29.42844,-35.41466 16.25115,0 29.42848,15.86253 29.42848,35.41466 l 0,42.4662 c -0.002,19.55763 -13.17733,35.4119 -29.43078,35.4119"
         inkscape:connector-curvature="0"
         style="fill:#ff9d8a" />
      <path
         id="path14590"
         d="m 301.89569,863.10287 c -42.21295,0 -76.42899,-41.18035 -76.42899,-91.97844 l 0,-57.16678 c 0,-50.79809 34.21604,-91.97569 76.4244,-91.97569 42.20833,0 76.42899,41.1776 76.42899,91.97569 l 0,57.16678 c 0,50.79809 -34.22066,91.97844 -76.42899,91.97844"
         inkscape:connector-curvature="0"
         style="fill:#ffb5a1" />
      <path
         id="path14592"
         d="m 272.13183,728.10479 c 0,6.3742 -4.29596,11.54239 -9.59127,11.54239 -5.29756,0 -9.59352,-5.16819 -9.59352,-11.54239 0,-6.3742 4.29596,-11.54239 9.59352,-11.54239 5.29531,0 9.59127,5.16544 9.59127,11.54239 m 78.51951,0 c 0,6.3742 -4.29366,11.54239 -9.59122,11.54239 -5.30909,-0.0165 -9.60275,-5.18196 -9.59126,-11.54239 -0.0138,-6.36318 4.27987,-11.53138 9.59126,-11.54239 l 0,0 c 5.29756,0 9.59122,5.16544 9.59122,11.54239"
         inkscape:connector-curvature="0"
         style="fill:#eb9486" />
      <path
         id="path14594"
         d="m 338.32631,766.66387 c 0,24.1834 -16.29018,43.78785 -36.38467,43.78785 -20.09222,0 -36.3824,-19.60445 -36.3824,-43.78785"
         inkscape:connector-curvature="0"
         style="fill:#b2473b" />
      <path
         id="path14596"
         d="m 267.48438,780.6403 68.91451,0 c 1.23134,-4.39173 1.92742,-9.08358 1.92742,-13.97643 l -72.76707,0 c 0,4.89285 0.69376,9.58195 1.92512,13.97643"
         inkscape:connector-curvature="0"
         style="fill:#ffffff" />
      <path
         id="path14598"
         d="m 323.14575,802.19968 c -4.95758,-7.44804 -12.56855,-12.23075 -21.11224,-12.23075 -8.585,0 -16.22124,4.82952 -21.17652,12.33538 12.63746,10.90635 29.68575,10.86229 42.28419,-0.10463"
         inkscape:connector-curvature="0"
         style="fill:#cc4f46" />
      <path
         id="path14600"
         d="m 313.02613,745.58909 -22.26317,0 c -0.89593,-0.003 -1.61962,-0.87284 -1.61733,-1.94668 l 0,-25.23797 c 0,-1.07659 0.72138,-1.94667 1.61733,-1.94667 l 22.26317,0 c 0.89592,0 1.61728,0.86733 1.61728,1.94667 l 0,25.23797 c 0,1.0766 -0.72133,1.94668 -1.61728,1.94668"
         inkscape:connector-curvature="0"
         style="fill:#ff9d8a" />
      <path
         id="path14602"
         d="m 316.12976,582.79785 54.25544,0 c 7.11703,0 12.94069,-7.00473 12.94069,-15.57066 l 0,-47.17733 c 0,-8.56317 -5.82366,-15.57066 -12.94069,-15.57066 l -54.25544,0 c -7.11704,0 -12.93841,7.00749 -12.93841,15.57066 l 0,47.17733 c 0,8.56318 5.82137,15.57066 12.93841,15.57066"
         inkscape:connector-curvature="0"
         style="fill:#ffb5a1" />
      <path
         id="path14604"
         d="m 313.10192,908.47119 -11.0615,7.39297 -11.0592,-7.39297 22.1207,0"
         inkscape:connector-curvature="0"
         style="fill:#ff9d8a" />
      <path
         id="path14606"
         d="m 228.37738,688.84634 147.03203,0 c -9.08122,-38.58662 -38.54416,-66.86438 -73.51829,-66.86438 -34.96958,0 -64.4302,28.27776 -73.51374,66.86438"
         inkscape:connector-curvature="0"
         style="fill:#efaa9a" />
      <path
         id="path14608"
         d="m 284.77161,582.79785 -54.25312,0 c -7.11707,0 -12.93844,-7.00748 -12.93844,-15.57066 l 0,-47.17733 c 0,-8.56317 5.82137,-15.57066 12.93844,-15.57066 l 54.25542,0 c 7.11702,0 12.93839,7.00749 12.93839,15.57066 l 0,47.17733 c 0,8.56318 -5.82137,15.57066 -12.94069,15.57066"
         inkscape:connector-curvature="0"
         style="fill:#ffb5a1" />
      <path
         id="path14614"
         d="m 284.65211,582.79785 c -7.18137,0 -13.05788,-7.07081 -13.05788,-15.71384 l 0,-52.07844 c 0,-8.64578 5.87651,-15.71659 13.05788,-15.71659 7.18369,0 13.05789,7.07357 13.05789,15.71659 l 0,52.07844 c 0,8.64303 -5.8742,15.71384 -13.05789,15.71384 m 31.59711,0 c 7.17908,0 13.0579,-7.07081 13.0579,-15.71384 l 0,-52.07844 c 0,-8.64578 -5.87882,-15.71659 -13.0579,-15.71659 -7.18367,0 -13.06015,7.07357 -13.06015,15.71659 l 0,52.07844 c 0.002,8.64303 5.87648,15.71384 13.06015,15.71384"
         inkscape:connector-curvature="0"
         style="fill:#ffb5a1" />
    </g>
  </g>
</svg>
