<?xml version="1.0" encoding="UTF-8" standalone="no"?>
<!-- Generator: Adobe Illustrator 16.0.0, SVG Export Plug-In . SVG Version: 6.00 Build 0)  -->

<svg
   xmlns:dc="http://purl.org/dc/elements/1.1/"
   xmlns:cc="http://creativecommons.org/ns#"
   xmlns:rdf="http://www.w3.org/1999/02/22-rdf-syntax-ns#"
   xmlns:svg="http://www.w3.org/2000/svg"
   xmlns="http://www.w3.org/2000/svg"
   xmlns:sodipodi="http://sodipodi.sourceforge.net/DTD/sodipodi-0.dtd"
   xmlns:inkscape="http://www.inkscape.org/namespaces/inkscape"
   version="1.1"
   x="0px"
   y="0px"
   width="672"
   height="315"
   viewBox="0 0 672 315"
   enable-background="new 0 0 612 792"
   xml:space="preserve"
   id="svg5237"
   inkscape:version="0.91 r"
   sodipodi:docname="world.svg"><metadata
     id="metadata5247"><rdf:RDF><cc:Work
         rdf:about=""><dc:format>image/svg+xml</dc:format><dc:type
           rdf:resource="http://purl.org/dc/dcmitype/StillImage" /><dc:title></dc:title></cc:Work></rdf:RDF></metadata><defs
     id="defs5245" /><sodipodi:namedview
     pagecolor="#ffffff"
     bordercolor="#666666"
     borderopacity="1"
     objecttolerance="10"
     gridtolerance="10"
     guidetolerance="10"
     inkscape:pageopacity="0"
     inkscape:pageshadow="2"
     inkscape:window-width="1264"
     inkscape:window-height="608"
     id="namedview5243"
     showgrid="false"
     inkscape:zoom="0.84281414"
     inkscape:cx="331.55669"
     inkscape:cy="162.63747"
     inkscape:window-x="0"
     inkscape:window-y="0"
     inkscape:window-maximized="0"
     inkscape:current-layer="svg5237" /><g
     id="Layer_1"
     transform="translate(0,-477)" /><g
     id="Isolation_Mode"
     transform="matrix(1.1216546,0,0,1.1216546,-7.8313748,-296.6149)"><path
       d="m 511.133,335.574 c -0.065,-0.186 -0.131,-0.371 -0.196,-0.558 -0.081,0.061 -0.237,0.166 -0.232,0.175 0.099,0.161 0.216,0.312 0.329,0.465 -0.147,1.044 1.308,1.695 0.562,2.979 -0.989,1.704 -0.694,2.327 1.272,3.659 0.102,-0.782 -0.595,-2.406 0.952,-1.865 2.134,0.746 3.579,0.247 4.911,-1.548 -2.517,-1.097 -5.056,-2.203 -7.598,-3.307 z M 170.482,323.515 c -2.526,1.438 -3.896,4.085 -6.537,5.892 3.344,0.372 6.236,1.099 9.219,0.183 1.45,-0.444 1.306,-1.067 0.701,-2.139 -0.423,-0.754 -1.163,-0.817 -1.748,-0.956 -1.702,-0.405 -2.042,-1.375 -1.553,-2.879 0.185,-0.066 0.372,-0.133 0.558,-0.198 -0.061,-0.081 -0.167,-0.237 -0.174,-0.23 -0.162,0.096 -0.312,0.213 -0.466,0.327 z m -6.009,-50.711 c -0.446,-0.541 -0.956,-0.57 -1.717,-0.104 0.666,0.083 1.149,0.145 1.633,0.204 -0.012,0.844 -0.501,1.097 -1.267,1.355 -1.896,0.642 -3.776,0.456 -5.69,0.059 1.968,1.398 2.453,1.609 4.066,1.104 1.456,-0.455 2.706,-0.244 3.988,0.473 0.627,0.351 1.164,0.642 2.089,0.183 5.545,-2.756 11.17,-5.293 17.433,-6.091 3.407,-0.436 6.215,-2.493 9.257,-3.936 -9.037,1.007 -18.124,0.856 -27.068,2.464 2.513,-0.299 4.919,1.146 7.449,0.359 0.641,-0.2 1.361,-0.403 1.565,0.349 0.22,0.806 -0.729,0.863 -1.222,1.081 -0.468,0.207 -1.055,0.202 -1.589,0.188 -1.842,-0.048 -3.688,0.185 -5.519,-0.39 -0.792,-0.25 -2.424,0.184 -1.983,0.893 1.541,2.476 -0.392,1.679 -1.425,1.809 z m 388.903,180.099 c 0.153,0.113 0.304,0.231 0.466,0.33 0.008,0.006 0.116,-0.15 0.177,-0.23 -0.187,-0.068 -0.372,-0.135 -0.556,-0.201 -0.41,-1.52 -1.968,-1.814 -2.937,-2.737 -1.499,-1.434 -3.377,-3.241 -3.157,-5.011 0.282,-2.284 -0.63,-3.072 -2.076,-4.197 -3.463,-2.694 -7.618,-3.911 -11.439,-5.825 -3.005,-1.504 -5.218,-1.495 -7.684,0.515 -0.412,0.336 -0.925,0.518 -1.158,1.06 -0.448,1.033 -0.957,0.658 -1.543,0.086 -0.572,-0.563 -0.954,-1.228 -1.184,-1.963 -1.166,-3.745 -1.989,-4.08 -5.458,-2.054 0.94,0.493 1.817,0.963 2.7,1.417 0.812,0.414 1.602,0.603 0.374,1.692 -0.974,0.865 -0.273,2.123 0.838,2.113 2.926,-0.021 5.052,1.773 7.46,2.889 3.149,1.459 3.546,3.494 1.323,5.916 0.274,0.152 0.586,0.479 0.804,0.425 1.83,-0.454 3.023,0.335 4.368,1.559 1.718,1.562 3.88,0.95 5.058,-1.082 0.8,-1.382 1.754,-2.043 3.392,-1.269 1.228,0.578 2.441,1.295 3.009,2.444 1.511,3.077 4.3,3.658 7.223,4.123 z M 352.43,287.226 c -1.102,-0.565 -2.179,-1.408 -3.524,-0.384 1.108,1.021 2.27,0.792 3.442,0.489 -0.126,0.653 0.989,2.046 -0.08,1.848 -2.941,-0.548 -5.806,2.104 -8.707,0.036 -0.346,-0.248 -1.069,-0.09 -1.58,0.035 -1.646,0.401 -3.185,1.001 -4.638,1.97 -1.282,0.856 -3.228,1.995 -4.153,-0.034 -0.739,-1.62 -1.523,-0.94 -2.385,-1.013 -0.479,1.087 1.814,2.393 -0.485,3.113 -1.572,0.492 -3.742,0.019 -4.13,2.58 -0.049,0.331 -1.015,0.748 -1.848,0.432 -0.687,-0.262 -1.408,-0.834 -2.318,-0.513 0.491,0.752 1.55,0.636 1.783,1.52 -2.204,1.365 -4.922,0.625 -6.31,-1.812 -0.516,-0.902 -1.023,-1.711 -2.039,-2.086 -0.437,-0.16 -1.027,-0.371 -0.908,-0.892 0.143,-0.615 0.808,-0.644 1.362,-0.601 0.534,0.041 1.061,0.174 1.594,0.21 2.07,0.14 3.88,1.502 6.063,1.202 1.167,-0.159 2.625,-0.288 2.827,-1.407 0.209,-1.142 -1.301,-1.253 -2.219,-1.569 -1.458,-0.502 -2.896,-1.083 -4.384,-1.464 -1.243,-0.317 -2.509,-1.071 -3.813,-0.561 -0.946,0.368 -1.541,0.124 -2.313,-0.395 -4.428,-2.971 -9.363,-2.727 -14.293,-1.964 -1.403,0.216 -2.669,1.449 -4.061,1.59 -4.281,0.431 -6.466,3.731 -8.736,6.52 -2.238,2.745 -4.707,4.737 -8.009,5.76 -2.719,0.841 -3.61,2.065 -3.196,4.651 0.681,4.251 2.556,5.232 6.162,3.008 1.058,-0.653 1.65,-0.62 2.285,0.276 0.574,0.81 1.187,1.627 1.557,2.531 0.248,0.606 1.058,1.465 0.054,2.039 -1.027,0.588 -2.112,1.679 -3.302,1.21 -1.109,-0.438 0.292,-1.452 0.038,-2.239 -0.091,-0.282 -0.063,-0.603 -0.093,-0.931 -2.748,1.32 -3.253,2.194 -2.078,4.82 0.75,1.677 -0.151,2.665 -1.241,2.616 -2.569,-0.116 -4.056,1.307 -5.74,2.808 -1.453,1.298 -3.621,1.959 -4.719,3.454 -2.11,2.868 -5.547,2.438 -8.178,3.908 -0.533,0.297 -2.061,-0.717 -2.331,0.43 -0.273,1.166 1.258,0.967 1.991,1.377 0.269,0.152 0.562,0.262 0.831,0.411 1.845,1.027 2.312,3.146 1.522,6.621 -0.458,2.014 -1.954,2.079 -3.587,2.081 -2.176,0.004 -4.26,-0.517 -6.378,-0.888 -1.554,-0.272 -3.502,0.085 -3.315,1.869 0.276,2.65 -0.714,4.948 -0.968,7.41 -0.138,1.338 -0.753,3.682 1.122,3.997 2.152,0.362 3.625,1.376 5.165,2.928 0.626,-1.755 1.907,-1.896 3.396,-1.866 2.359,0.046 5.745,-1.927 5.864,-3.776 0.245,-3.746 3.168,-5.011 5.584,-6.797 0.392,-0.29 0.919,-0.148 0.865,-1.021 -0.107,-1.74 1.186,-2.836 2.894,-2.218 2.26,0.817 3.942,-0.176 5.586,-1.255 2.31,-1.516 3.024,-1.483 4.21,1.064 0.957,2.055 2.775,3.896 4.395,4.455 3.412,1.177 5.883,2.449 5.619,6.677 0.977,-0.873 2.101,-1.352 1.395,-2.774 -1.003,-2.016 0.27,-1.86 1.577,-1.576 0.413,0.09 0.796,0.479 1.184,-0.016 -0.1,-0.473 -0.481,-0.599 -0.843,-0.726 -3.988,-1.411 -6.713,-4.499 -9.619,-7.32 -0.662,-0.646 -1.417,-1.644 -0.296,-2.604 0.979,-0.841 1.448,0.108 2.253,0.528 2.351,1.229 4.076,3.493 6.592,4.263 2.695,0.823 3.866,2.468 4.107,5.114 0.19,2.094 1.441,3.334 3.465,3.789 0.647,0.146 1.694,-0.183 1.785,0.66 0.112,1.062 -1.27,0.476 -1.72,1.039 0.061,0.782 0.591,1.27 1.001,1.826 0.909,1.23 1.333,1.312 2.118,-0.305 0.828,-1.707 0.107,-2.783 -0.708,-3.949 -0.802,-1.146 -0.812,-1.958 0.635,-2.446 1.96,-0.663 3.816,-1.524 6.065,-0.907 0.974,0.265 2.369,0.02 3.45,-0.98 -1.996,-0.87 -1.885,-2.232 -1.27,-3.871 1.089,-2.908 2.154,-5.806 5.176,-7.305 1.185,-0.587 3.195,0.87 3.152,2.207 -0.037,1.171 1.312,2.103 2.521,1.646 0.836,-0.314 1.606,-0.81 2.64,-1.345 -1.188,-0.237 -2.412,-0.29 -2.438,-1.384 -0.016,-0.739 1.115,-0.903 1.841,-1.148 1.518,-0.513 2.85,-1.518 4.502,-1.732 0.05,0.614 -0.018,1.111 -0.238,1.725 -1.297,3.584 -1.239,3.601 2.218,5.521 0.942,0.522 1.904,1.021 2.792,1.628 0.971,0.66 2.114,1.57 1.865,2.721 -0.256,1.174 -1.15,2.051 -2.701,2.431 -2.289,0.562 -4.051,-0.332 -5.953,-1.121 -2.958,-1.229 -5.92,-2.414 -8.882,0.015 -0.229,0.188 -0.597,0.424 -0.829,0.364 -3.253,-0.838 -4.96,3.122 -8.102,2.604 -0.019,-0.004 -0.081,0.26 -0.153,0.494 1.141,0.61 1.599,1.549 1.812,2.918 0.455,2.885 3.31,4.24 6.041,3.12 0.606,-0.25 1.385,-0.429 1.794,-0.098 2.169,1.76 4.176,1.2 6.393,0.041 1.107,-0.578 2.681,-0.121 2.511,1.395 -0.325,2.906 -1.065,5.77 -1.719,8.633 -0.213,0.928 -0.549,1.921 -1.784,2.044 -2.965,0.296 -5.969,-0.991 -8.921,0.204 -0.152,0.062 -0.415,-0.223 -0.635,-0.241 -4.032,-0.354 -7.808,-1.442 -11.414,-3.357 -2.705,-1.437 -3.977,-0.465 -4.156,2.573 -0.074,1.258 -1.417,2.578 -2.129,2.319 -2.077,-0.751 -5.046,-0.663 -6.102,-2.227 -1.765,-2.61 -4.23,-2.809 -6.645,-3.525 -2.516,-0.747 -3.405,-2.1 -2.998,-4.546 0.207,-1.257 -0.055,-2.7 -0.776,-3.636 -0.91,-1.182 -2.262,-0.352 -3.363,0.155 -2.158,0.995 -4.509,0.785 -6.624,0.415 -3.55,-0.625 -6.642,0.365 -9.423,2.098 -2.869,1.787 -5.462,2.175 -8.319,0.346 -0.793,-0.507 -1.4,-0.484 -1.865,0.465 -0.879,1.797 -2.318,3.04 -4.087,3.922 -2.083,1.037 -3.108,3.011 -3.202,5.04 -0.117,2.532 -1.64,3.912 -3.368,4.879 -2.54,1.42 -4.413,3.387 -5.809,5.773 -1.399,2.395 -2.682,4.837 -4.27,7.13 -0.835,1.207 -1.293,2.691 -0.52,4.319 1.216,2.562 1.663,5.215 0.407,7.971 -0.914,2.005 -2.827,4.011 -0.364,6.26 0.151,0.139 -0.75,0.471 -0.101,0.857 -1.822,1.681 0.427,2.549 1.013,3.043 2.15,1.815 3.771,3.977 4.872,6.465 0.472,1.071 0.916,2.052 1.672,2.954 1.348,1.611 2.99,2.859 4.628,4.129 1.914,1.481 3.998,2.102 6.397,1.401 1.753,-0.512 3.608,-1.589 5.313,-1.087 2.43,0.715 4.47,0.19 6.649,-0.63 2.062,-0.774 4.172,-1.429 6.29,-2.031 1.875,-0.535 4.777,0.828 5.225,2.634 0.377,1.515 0.837,1.749 2.351,1.346 3.083,-0.827 5.685,1.369 5.768,4.544 0.04,1.562 -0.146,3.055 -0.661,4.546 -0.572,1.656 -1.348,3.506 0.16,5.002 3.072,3.041 4.844,6.696 6.49,10.663 0.799,1.925 -0.139,3.672 0.742,5.228 1.705,3.02 0.402,5.447 -0.995,8.137 -2.173,4.183 -2.844,8.54 0.049,12.823 2.564,3.8 3.625,8.084 4.016,12.608 0.136,1.581 -0.013,3.415 0.97,4.676 1.856,2.387 3.156,5.066 4.693,7.624 0.503,0.835 0.761,1.441 0.49,2.513 -0.665,2.612 1.377,4.457 3.993,3.878 2.447,-0.539 4.893,-1.512 7.412,-0.332 0.502,0.234 0.869,0.063 1.303,-0.131 3.208,-1.447 5.904,-3.465 8.204,-6.21 1.725,-2.061 3.147,-4.399 5.156,-6.183 0.804,-0.715 1.11,-1.087 0.864,-2.217 -0.481,-2.208 0.069,-3.938 2.508,-4.996 3.677,-1.596 4.135,-3.285 2.279,-6.945 -0.573,-1.127 -1.007,-2.271 -0.003,-3.177 2.518,-2.271 3.946,-5.593 7.537,-6.89 3.097,-1.118 4.264,-4.236 3.902,-7.468 -0.391,-3.459 -0.737,-6.829 -2.327,-10.069 -0.857,-1.746 -1.242,-3.868 -0.721,-6.051 1.502,-6.263 6.749,-9.714 10.487,-14.285 1.741,-2.132 4.733,-3.002 6.135,-5.476 2.054,-3.625 3.821,-7.413 5.861,-11.047 1.064,-1.893 1.24,-3.641 0.144,-5.655 -3.134,2.028 -6.826,1.879 -10.186,2.959 -1.624,0.521 -3.834,-0.987 -4.246,-2.744 -0.579,-2.469 -2.198,-4.062 -4.002,-5.703 -1.483,-1.345 -3.751,-2.074 -4.168,-4.415 -0.224,-1.258 -0.802,-2.281 -1.624,-3.226 -1.694,-1.941 -3.259,-3.929 -2.897,-6.785 0.052,-0.425 -0.443,-0.944 -0.737,-1.382 -3.226,-4.793 -5.161,-10.321 -8.572,-15.004 -0.327,-0.447 -0.443,-0.864 0.03,-1.189 0.543,-0.376 0.792,0.218 1.117,0.482 0.92,0.748 1.097,2.237 2.478,2.55 0.425,-0.726 -0.263,-2.087 0.894,-2.153 0.862,-0.048 0.862,1.233 0.994,1.893 0.353,1.736 1.117,3.146 2.324,4.429 1.844,1.961 3.854,4.146 4.75,6.437 1.448,3.689 3.16,7.042 5.755,9.962 2.123,2.388 2.828,5.193 3.338,8.283 0.568,3.448 2.531,4.133 5.84,2.638 2.11,-0.951 4.175,-2.007 6.316,-2.878 2.094,-0.854 4.058,-1.743 5.334,-3.799 0.612,-0.985 1.857,-1.509 2.985,-1.619 2.242,-0.223 3.547,-1.665 4.853,-3.199 1.693,-1.99 2.444,-4.647 4.588,-6.336 1.021,-0.806 0.591,-1.713 -0.297,-2.287 -1.484,-0.961 -2.652,-2.359 -4.367,-3.002 -1.213,-0.455 -1.82,-1.421 -1.588,-2.73 0.105,-0.602 0.017,-1.006 -0.596,-1.412 -0.587,1.231 -1.583,2.089 -2.51,3.005 -1.831,1.812 -4.085,2.194 -5.632,-1.256 -0.293,-0.66 -0.568,-1.37 -1.364,-0.247 -0.752,1.062 -1.809,0.807 -2.094,-0.327 -0.639,-2.549 -2.115,-4.562 -3.552,-6.659 -0.689,-1.005 0.025,-2.138 0.665,-2.961 0.651,-0.837 1.492,-0.253 2.301,0.049 1.439,0.537 1.764,1.871 2.356,3.006 1.44,2.762 5.882,4.781 8.768,3.743 1.239,-0.446 2.103,-0.344 2.816,0.687 2.161,3.123 5.242,3.186 8.555,2.716 1.209,-0.171 2.466,-0.254 3.681,0.167 1.065,0.372 2.118,0.345 3.137,-0.21 1.831,-1.003 3.356,-0.033 4.132,1.322 0.965,1.684 2.854,2.066 3.896,3.506 0.524,0.724 1.657,-0.534 2.047,0.418 0.473,1.153 -0.799,1.02 -1.31,1.458 -0.059,0.051 0,0.28 0.049,0.412 0.475,1.307 1.506,1.965 2.798,2.117 1.141,0.133 2.228,-0.035 2.066,-1.656 -0.053,-0.549 0.277,-0.895 0.782,-0.961 0.429,-0.058 0.734,0.272 0.849,0.653 0.223,0.73 0.674,1.559 0.505,2.213 -0.809,3.173 0.515,5.864 1.695,8.602 2.28,5.293 5.114,10.349 6.778,15.909 0.459,1.53 2.421,2.022 3.373,0.928 3.092,-3.561 3.479,-7.848 2.959,-12.229 -0.137,-1.171 -0.195,-2.087 0.762,-2.57 2.678,-1.352 4.041,-4.068 6.302,-5.884 1.43,-1.147 2.391,-2.921 4.276,-3.638 0.199,-0.074 0.428,-0.524 0.377,-0.741 -0.565,-2.508 1.398,-2.487 2.885,-2.895 1.035,-0.283 2.206,-0.249 3.125,-0.722 1.75,-0.9 2.629,-0.136 3.22,1.348 0.659,1.648 1.845,2.611 3.307,3.625 1.974,1.367 2.938,3.761 3.156,6.129 0.093,1 0.045,1.718 0.932,2.276 1.112,0.701 1.511,-0.341 2.083,-0.853 1.61,-1.444 2.358,-1.267 3.023,0.788 0.569,1.754 0.834,3.689 1.763,5.222 1.237,2.041 1.118,3.875 0.815,6.121 -0.228,1.685 -1.658,4.062 0.809,5.462 2.034,1.158 3.032,2.822 3.471,5.13 0.665,3.503 2.321,6.479 5.651,8.243 0.635,0.336 1.733,0.777 1.496,-0.183 -0.738,-2.994 -0.901,-6.303 -3.443,-8.593 -1.838,-1.655 -3.663,-3.104 -4.999,-5.462 -1.446,-2.551 -1.467,-4.606 -0.747,-7.092 0.134,-0.461 -0.111,-1.054 -0.249,-1.567 -0.189,-0.703 -0.348,-1.42 0.331,-1.905 0.739,-0.53 1.386,0.074 1.846,0.486 1.925,1.731 4.438,2.819 5.758,5.226 0.226,0.411 0.374,1.099 1.174,0.733 2.325,-1.061 1.935,0.396 1.58,1.75 -0.124,0.479 -0.218,0.931 0.184,1.283 0.643,0.567 1.082,-0.142 1.333,-0.439 1.44,-1.7 3.155,-2.979 5.088,-4.091 0.736,-0.424 1.287,-1.631 1.119,-2.682 -0.622,-3.866 -1.775,-7.511 -5.091,-9.999 -1.072,-0.806 -1.934,-1.731 -2.651,-2.857 -1.44,-2.256 -0.876,-4.462 1.594,-5.942 2.616,-1.565 3.841,-1.225 5.393,1.638 1.609,-2.231 3.601,-3.307 6.458,-3.554 2.224,-0.192 4.718,-0.977 6.499,-2.698 3.432,-3.315 3.698,-7.978 4.945,-12.202 0.587,-1.989 -3.081,-1.201 -2.229,-2.21 1.715,-2.024 -0.042,-2.386 -0.958,-3.049 -0.903,-0.654 -1.692,-1.293 -2.159,-2.323 -0.601,-1.323 -1.106,-2.696 -2.701,-3.273 -0.775,-0.28 -0.598,-1.012 -0.468,-1.781 0.364,-2.177 2.607,-2.442 3.798,-3.885 -1.237,-0.7 -2.518,-1.238 -3.758,-0.962 -1.969,0.44 -4.587,-0.219 -5.786,-1.736 -0.48,-0.607 -0.645,-1.224 0.104,-1.503 1.403,-0.522 2.118,-1.705 3.052,-2.707 1.366,-1.466 2.326,-1.244 2.811,0.714 0.46,1.865 1.037,2.572 2.894,1.127 1.635,-1.274 4.3,0.075 4.269,2.092 -0.017,0.984 0.356,1.26 1.121,1.344 1.061,0.115 1.821,0.703 2.625,1.338 1.457,1.145 1.73,2.902 2.408,4.421 0.639,1.425 1.34,1.586 2.532,0.771 1.074,-0.732 2.987,-0.709 1.809,-3.042 -1.366,-2.703 -3.933,-3.789 -6.145,-5.385 -1.124,-0.811 -1.87,-1.555 -0.021,-2.438 1.115,-0.531 1.815,-1.125 0.968,-2.683 -0.745,-1.365 0.974,-2.391 1.434,-3.641 0.359,-0.978 1.448,-0.135 2.035,0.104 0.997,0.402 1.842,0.114 2.291,-0.52 1.519,-2.145 2.462,-4.557 2.636,-7.222 0.247,-3.747 -0.243,-7.232 -3.469,-9.745 -0.055,-0.043 -0.083,-0.131 -0.11,-0.202 -0.833,-2.379 -3.074,-3.354 -4.829,-4.805 -0.488,-0.404 -1.115,-0.601 -1.727,-0.189 -1.681,1.136 -3.239,0.294 -4.79,-0.312 -1.629,-0.635 -3.164,-1.295 -1.432,-3.451 0.482,-0.6 0.466,-1.603 0.676,-2.421 0.855,-3.348 3.417,-4.919 6.83,-4.079 0.855,0.211 1.732,0.438 2.504,0.138 2.294,-0.896 4.399,-0.737 6.628,0.358 1.542,0.761 2.714,-0.293 2.621,-2.034 -0.146,-2.714 0.935,-3.559 3.592,-2.974 0.998,0.219 1.897,0.509 2.765,1.076 1.104,0.722 1.938,0.607 1.742,-1.021 -0.162,-1.358 0.904,-1.776 1.658,-1.398 1.241,0.624 2.468,2.115 1.901,3.337 -0.859,1.856 -0.627,3.976 -1.753,5.688 -0.474,0.723 -0.345,1.384 0.058,2.143 2.347,4.43 7.094,6.54 10.011,10.419 0.442,0.588 1.101,0.23 1.691,-0.055 0.95,-0.458 0.377,-1.021 0.154,-1.524 -0.257,-0.575 -0.155,-1.274 -0.333,-1.727 -0.553,-1.408 0.628,-2.755 0.245,-3.788 -0.903,-2.437 -1.885,-4.957 -5.004,-5.724 -1.577,-0.388 -2.51,-3.289 -1.547,-3.537 2.438,-0.631 4.557,-3.1 7.437,-1.519 1.199,0.658 1.999,-0.159 2.457,-0.951 1.185,-2.055 2.771,-3.009 5.142,-2.521 0.499,0.104 1.028,-0.088 1.177,-0.511 0.216,-0.605 -0.469,-0.732 -0.835,-0.88 -1.925,-0.78 -3.897,-1.443 -5.8,-2.271 -0.583,-0.254 -1.911,-0.035 -1.568,-1.132 0.269,-0.854 1.281,-0.541 2.031,-0.224 0.265,0.113 0.578,0.106 0.842,0.15 0.447,-0.89 -1.305,-1.132 -0.466,-1.992 0.644,-0.66 1.304,-0.048 1.936,0.125 2.375,0.656 4.764,1.275 7.102,2.038 1.165,0.379 2.178,0.521 3.198,-0.375 -0.283,-0.229 -0.536,-0.399 -0.749,-0.613 -1.831,-1.839 -3.629,-3.691 -6.591,-2.121 -0.589,0.312 -1.196,-0.242 -1.688,-0.562 -1.931,-1.252 -4.114,-1.789 -6.323,-1.978 -1.731,-0.148 -3.267,-0.715 -4.887,-1.219 -5.286,-1.643 -10.778,-2.086 -16.268,-2.643 -0.243,0.967 1.179,1.247 0.603,1.952 -0.713,0.871 -1.367,-0.122 -2.04,-0.313 -2.526,-0.722 -5.129,-1.542 -7.712,-0.988 -3.215,0.688 -6.097,0.232 -8.922,-1.271 -0.742,-0.395 -1.48,-0.897 -2.399,-0.635 -3.843,1.098 -7.656,-0.604 -11.498,-0.146 -0.333,0.041 -0.74,-0.224 -1.061,-0.426 -2.796,-1.762 -6.071,-1.605 -9.136,-2.263 -1.485,-0.32 -3.021,-0.81 -4.566,-0.443 -0.604,0.142 -1.475,0.085 -1.73,0.819 -0.688,1.977 -1.363,2.337 -3.297,2.111 -1.431,-0.169 -3.075,-1.191 -4.25,-0.427 -3.176,2.061 -5.372,0.111 -7.684,-1.444 -1.842,-1.239 -3.735,-2.085 -6.006,-2.062 -3.912,0.038 -7.882,1.619 -11.737,-0.372 -0.168,-0.087 -0.469,-0.008 -0.671,0.081 -1.869,0.836 -3.693,0.66 -5.54,-0.125 -1.242,-0.527 -2.511,-0.312 -3.811,-0.029 -1.319,0.287 -2.991,1.704 -3.869,0.244 -0.375,-0.624 1.869,-1.615 3.066,-2.223 1.186,-0.6 1.375,-1.079 0.066,-1.831 -2.472,-1.421 -5.09,-1.602 -7.783,-1.052 -1.279,0.26 -2.283,0.07 -3.493,-0.527 -2.158,-1.064 -4.469,-1.969 -6.814,-2.462 -3.999,-0.84 -8.096,-1.145 -11.941,-2.735 -1.193,-0.491 -2.69,-0.883 -3.809,0.417 -0.211,0.247 -0.788,0.398 -0.507,0.872 0.13,0.219 0.514,0.436 0.761,0.412 3.505,-0.321 6.813,1.527 10.32,0.948 1.521,-0.25 1.986,0.456 1.792,2.149 1.475,-1.522 2.985,-1.195 4.426,-1.171 0.768,0.012 1.079,0.564 0.464,1.004 -1.413,1.009 -2.423,2.717 -4.778,2.021 -3.154,-0.932 -6.18,0.677 -9.271,1.109 -0.508,0.069 -0.923,0.244 -0.624,0.896 0.923,2.006 -1.021,1.938 -1.692,1.758 -2.374,-0.634 -3.941,0.493 -5.619,1.823 -1.293,1.025 -2.689,2.109 -4.523,1.82 -0.615,-0.097 -1.312,-0.464 -1.709,0.11 -0.471,0.676 0.176,1.32 0.497,1.903 0.389,0.709 1.136,1.032 1.835,1.363 1.303,0.618 2.14,1.612 2.006,3.068 -0.142,1.544 -1.252,2.36 -2.648,2.866 -0.553,0.202 -1.067,0.352 -1.478,-0.146 -0.428,-0.519 0.108,-0.865 0.38,-1.159 1.366,-1.481 0.852,-2.67 -0.382,-3.941 -0.792,-0.817 -1.242,-1.965 -2.038,-2.78 -0.91,-0.935 -1.303,-2.294 -2.577,-2.924 -1.473,-0.728 -4.069,-0.186 -4.658,1.314 -0.646,1.648 0.443,2.682 1.883,3.359 0.56,0.264 1.099,0.565 1.651,0.845 0.546,0.276 1.328,0.53 0.909,1.298 -0.355,0.657 -0.96,1.08 -1.909,0.629 -3.44,-1.628 -7.197,-2.054 -10.869,-2.794 z m -218.019,-0.968 c 1.916,1.928 1.598,3.134 -0.936,3.74 -0.77,0.185 -1.522,0.36 -2.111,0.854 -1.291,1.085 -2.536,1.618 -3.898,0.134 -0.539,-0.589 -1.335,-0.666 -1.944,-0.406 -1.896,0.812 -3.617,0.089 -5.399,-0.363 -2.787,-0.709 -5.257,-0.273 -7.119,2.146 -0.587,0.766 -1.194,1.096 -1.625,-0.113 -0.594,-1.664 -1.579,-2.02 -3.253,-1.388 -0.887,0.335 -1.992,0.103 -3,0.106 -1.73,0.004 -1.469,-0.76 -0.574,-1.778 -0.75,-0.06 -1.497,0.052 -2.092,-0.198 -2.944,-1.236 -5.872,-2.386 -9.146,-1.317 -0.255,0.083 -0.647,-0.019 -0.886,-0.172 -2.476,-1.58 -5.107,-0.648 -7.57,-0.23 -4.082,0.695 -8.001,1.941 -12.286,0.94 -8.18,-1.91 -16.335,-3.784 -24.941,-2.476 -4.972,0.756 -9.475,3.105 -14.494,3.509 -1.169,0.095 -1.592,0.942 -0.441,1.854 1.327,1.05 0.616,1.545 -0.479,2.051 -1.008,0.467 -1.95,0.76 -3.108,0.427 -2.581,-0.746 -4.735,0.336 -7.13,1.773 2.141,0.862 3.87,1.754 5.798,0.478 0.492,-0.325 1.117,-0.301 1.409,0.287 0.299,0.6 -0.357,0.688 -0.686,0.962 -1.197,0.998 -2.385,1.836 -4.085,1.919 -1.667,0.082 -3.339,0.461 -4.966,0.881 -1.171,0.303 -3.04,1.047 -2.752,2.012 0.835,2.805 -1.221,3.44 -2.854,4.555 1.264,0.937 2.392,1.718 3.84,0.709 0.412,-0.287 0.896,-0.45 1.222,0.039 0.459,0.69 -0.278,0.951 -0.638,1.24 -0.411,0.332 -0.97,0.473 -1.434,0.745 -2.784,1.631 -5.88,2.579 -9.304,4.081 1.159,0 1.841,0.18 2.375,-0.027 5.582,-2.169 11.429,-3.882 16.612,-6.781 4.114,-2.299 8.959,-0.443 12.704,-3.302 0.135,-0.102 0.554,0.223 0.852,0.273 4.536,0.788 8.857,2.127 12.827,4.556 1.307,0.799 1.858,1.8 1.727,3.227 -0.192,2.052 0.838,4.33 -1.201,6.063 -0.436,0.37 0.035,1.008 0.245,1.504 0.172,0.402 0.515,0.827 0.055,1.264 -1.473,1.399 -0.27,2.315 0.744,2.89 1.556,0.883 2.211,2.288 2.833,3.78 0.339,0.812 -1.468,3.94 -2.3,4.022 -0.359,0.038 -0.63,-0.188 -0.66,-0.487 -0.059,-0.587 0.149,-1.175 -0.873,-1.146 -0.973,0.028 -1.096,0.643 -1.313,1.304 -1.576,4.778 -6.223,7.648 -7.766,12.455 -0.063,0.199 -0.316,0.334 -0.474,0.504 -1.372,1.468 -1.868,4.483 -1.006,6.31 0.158,0.338 0.199,0.625 0.237,1 0.292,2.937 -0.596,6.314 3.272,7.922 1.239,0.516 2.082,2.238 1.631,3.562 -0.792,2.32 0.248,4.031 1.155,5.891 0.352,0.721 1.022,1.367 0.414,2.332 -0.85,1.35 -0.206,2.248 0.992,3.038 0.802,0.531 1.922,1.106 1.618,2.308 -0.693,2.73 1.643,3.436 2.83,4.911 -1.573,-4.818 -2.465,-9.82 -4.659,-14.379 -0.666,-1.384 -0.293,-2.678 1.039,-2.996 1.271,-0.306 2.083,0.574 2.356,2.146 0.819,4.701 3.317,8.646 6.071,12.453 1.884,2.604 4.068,5.183 2.54,8.778 -0.259,0.608 -0.178,1.026 0.268,1.439 1.296,1.201 2.36,2.641 4.058,3.41 3.234,1.464 6.432,3.011 9.612,4.587 0.909,0.45 1.684,0.428 2.628,0.102 3.434,-1.187 4.374,-0.852 6.527,2.073 1.338,1.822 5.946,4.045 7.499,3.257 1.312,-0.665 1.348,0.014 1.667,0.819 0.828,2.101 1.853,4.354 3.127,5.938 1.971,2.45 4.963,4.197 8.177,5.173 0.811,0.244 1.375,0.644 1.455,-0.789 0.092,-1.646 1.606,-1.669 2.811,-1.564 0.737,0.065 2.051,0.271 1.748,1.313 -0.37,1.27 0.217,2.156 0.535,3.178 1.014,3.251 0.871,6.269 -1.359,9.079 -1.81,2.283 -3.742,4.499 -4.875,7.265 -0.352,0.861 -0.703,1.942 0.081,2.307 2.699,1.258 0.778,2.382 0.047,3.532 -1.22,1.92 -0.933,4.049 0.892,5.363 1.048,0.756 1.657,1.764 2.307,2.834 1.409,2.32 1.628,5.164 3.36,7.33 1.432,1.794 2.926,3.515 3.678,5.799 0.645,1.959 2.161,3.18 4.102,4.104 5.045,2.402 9.222,5.589 9.484,11.911 0.133,3.211 -0.217,6.402 -0.03,9.646 0.177,3.089 0.203,6.23 0.639,9.327 0.557,3.962 1.818,7.974 0.854,11.908 -0.847,3.475 0.984,6.316 1.449,9.428 0.314,2.104 2.992,3.343 3.648,6.086 0.771,3.223 1.411,3.682 -1.089,6.009 1.172,0.736 2.531,1.255 3,2.733 1.104,3.479 2.882,6.492 5.672,8.947 1.267,1.115 4.466,1.546 5.731,0.361 0.381,-0.358 0.831,-0.633 0.377,-1.332 -1.227,-1.897 -0.476,-3.69 0.521,-5.385 1.076,-1.83 0.952,-3.256 -0.994,-4.442 -0.914,-0.557 -2.157,-1.869 -1.625,-2.534 1.497,-1.871 1.671,-4.21 2.75,-6.292 -1.146,-0.497 -2.167,-1.254 -2.575,-2.624 -0.129,-0.436 -0.47,-0.805 -0.066,-1.269 0.495,-0.569 0.938,-0.15 1.452,-0.028 0.79,0.188 1.487,1.525 2.377,0.438 0.666,-0.813 1.181,-1.776 0.429,-2.947 -0.728,-1.135 0.048,-1.525 1.056,-1.604 0.693,-0.054 1.417,0.096 2.088,-0.043 2.009,-0.411 4.127,-1.046 4.542,-3.315 0.346,-1.896 -0.999,-3.402 -2.339,-4.694 -0.46,-0.443 -1.657,-0.487 -1.3,-1.32 0.343,-0.807 1.331,-0.425 2.052,-0.185 0.656,0.22 1.349,0.396 1.937,0.743 1.81,1.062 3.414,0.219 4.287,-1.072 2.814,-4.16 5.197,-8.583 6.833,-13.371 0.39,-1.146 0.481,-2.264 -0.085,-3.331 -0.528,-0.99 -0.307,-1.684 0.461,-2.453 2.001,-2.005 4.851,-2.618 6.998,-4.371 0.19,-0.155 0.645,-0.147 0.899,-0.037 2.555,1.098 3.917,-0.633 4.68,-2.425 2.142,-5.023 3.908,-10.184 2.883,-15.827 -0.179,-0.993 -0.23,-2.195 0.548,-2.872 2.268,-1.977 2.953,-5.064 5.069,-7.059 1.441,-1.358 1.728,-3.08 2.113,-4.752 0.49,-2.136 -0.799,-3.789 -2.942,-4.39 -2.339,-0.656 -4.481,-1.651 -5.835,-3.837 -0.155,-0.251 -0.419,-0.6 -0.648,-0.614 -3.052,-0.18 -6.082,-2.034 -9.156,-0.228 -0.859,0.507 -1.362,0.074 -1.185,-0.58 0.776,-2.856 -1.762,-2.748 -3.132,-3.613 -1.493,-0.945 -2.446,0.262 -3.369,1.157 -1.053,1.025 -2.138,1.451 -3.516,0.551 0.689,-0.324 1.384,-0.612 1.86,-1.236 0.394,-0.516 1.233,-0.871 0.623,-1.719 -0.535,-0.738 -1.255,-1.216 -2.169,-0.814 -0.623,0.271 -1.187,0.712 -1.71,1.155 -0.591,0.498 -1.096,1.095 -1.662,1.627 -0.373,0.354 -0.753,0.966 -1.35,0.492 -0.711,-0.56 -0.133,-1.173 0.211,-1.59 0.634,-0.767 1.389,-1.414 2.212,-2.02 0.9,-0.664 1.931,-1.914 1.312,-2.872 -0.797,-1.237 -0.907,-2.582 -1.391,-3.846 -1.047,-2.738 -5.004,-5.639 -7.528,-5.144 -3.242,0.635 -5.708,-0.679 -7.287,-3.205 -1.138,-1.819 -2.646,-3.096 -4.365,-3.927 -1.812,-0.875 -3.511,-2.318 -5.736,-2.171 -2.937,0.195 -5.67,-0.158 -8.045,-2.202 -0.769,-0.66 -1.954,-1.83 -3.035,-0.707 -0.795,0.823 -3.301,0.965 -1.72,3.207 0.475,0.674 -0.204,1.276 -0.648,1.787 -0.252,0.292 -0.599,0.598 -0.953,0.167 -0.386,-0.475 -0.814,-1.027 -0.64,-1.663 0.428,-1.574 0.249,-3.318 1.525,-4.709 -2.112,-0.52 -2.517,1.829 -3.825,1.965 -2.721,0.282 -3.856,2.004 -5.029,4.125 -0.718,1.298 -1.954,2.679 -3.765,0.87 -1.528,-1.526 -3.343,-1.191 -5.164,-0.465 -2.981,1.185 -6.679,-1.869 -6.184,-5.111 0.347,-2.27 0.776,-4.527 1.179,-6.787 0.23,-1.283 -0.27,-1.806 -1.537,-2.31 -2.156,-0.855 -4.123,0.155 -6.166,0.193 -2.108,0.039 -2.013,-0.712 -1.361,-2.149 1.206,-2.654 2.323,-5.352 3.602,-7.972 0.78,-1.599 -0.165,-2.109 -1.321,-1.992 -1.98,0.203 -4.039,0.167 -4.875,2.898 -0.996,3.26 -4.267,3.574 -7.026,3.896 -2.163,0.254 -3.901,-1.32 -4.604,-3.264 -1.019,-2.821 -2.357,-5.71 -0.791,-8.865 0.676,-1.36 1.175,-2.865 1.445,-4.36 0.51,-2.806 1.765,-4.863 4.621,-5.729 0.508,-0.152 1.02,-0.416 1.43,-0.751 2.343,-1.92 4.688,-2.7 7.604,-0.938 0.697,0.423 2.243,1.684 3.371,-0.171 1.31,-2.153 2.967,-2.424 5.464,-1.612 1.303,0.423 2.442,1.508 4.149,0.817 1.07,-0.435 3.023,1.965 2.552,3.156 -0.864,2.19 0.283,3.929 1.003,5.729 0.456,1.136 1.198,1.463 2.067,0.015 1.377,-2.288 0.22,-4.5 0.016,-6.705 -0.174,-1.91 -0.325,-3.628 1.009,-5.235 2.006,-2.423 4.565,-4.103 7.331,-5.409 3.316,-1.568 4.604,-3.312 4.535,-6.942 -0.022,-1.183 0.345,-1.487 1.911,-1.438 0.356,0.012 0.285,-0.183 0.395,-0.342 2.236,-3.249 5.241,-5.445 8.977,-6.728 1.387,-0.476 3.143,-0.634 3.634,-2.416 0.368,-1.336 1.24,-2.021 2.425,-2.525 1.701,-0.726 3.35,-1.58 5.071,-2.254 1.567,-0.614 3.192,-1.093 4.811,-1.564 0.536,-0.155 1.224,-0.017 1.321,0.611 0.079,0.503 -0.531,0.615 -0.981,0.78 -0.792,0.291 -1.57,0.651 -2.303,1.071 -0.359,0.206 -0.961,0.535 -0.731,1.001 0.247,0.497 0.844,0.586 1.405,0.254 2.132,-1.272 4.533,-1.885 6.833,-2.743 0.704,-0.263 1.295,-0.698 1.724,-1.345 -0.786,-0.36 -1.384,0.209 -2.052,0.27 -1.663,0.153 -2.951,-0.446 -3.922,-1.89 -1.034,-1.538 -0.017,-2.126 0.996,-2.953 0.504,-0.412 1.02,-1.133 0.724,-1.997 -2.038,-0.311 -3.87,0.147 -5.618,1.086 -0.816,0.438 -1.668,0.81 -2.492,1.234 -0.405,0.209 -0.747,0.189 -0.99,-0.2 -0.256,-0.408 -0.073,-0.815 0.281,-0.99 3.838,-1.902 7.547,-4.62 12.08,-3.914 4.939,0.768 9,-1.218 13.105,-3.282 1.115,-0.562 2.453,-1.55 1.707,-3.021 -0.782,-1.543 -2.338,-1.555 -3.85,-0.875 -0.212,0.095 -0.439,0.162 -0.638,0.28 -0.464,0.279 -0.903,0.301 -1.184,-0.209 -0.252,-0.457 0.17,-0.771 0.457,-0.92 1.111,-0.582 0.594,-1.234 0.309,-2.061 -0.352,-1.021 -1.543,-1.665 -1.109,-3.08 0.503,-1.641 -0.246,-3.303 -0.391,-4.957 -0.121,-1.371 -1,-0.64 -1.416,-0.285 -1.248,1.059 -2.591,1.93 -4.049,2.656 -0.78,0.388 -1.453,0.855 -2.217,-0.081 -0.631,-0.77 -1.572,-1.326 -0.708,-2.534 0.81,-1.13 0.31,-2.055 -0.711,-2.73 -0.898,-0.595 -1.795,-1.271 -2.795,-1.611 -4.278,-1.454 -5.809,-0.821 -7.977,3.205 -0.463,0.859 -1.067,1.463 -1.904,1.94 -0.788,0.449 -1.327,1.196 -0.988,2.141 0.974,2.713 -0.896,4.206 -2.697,5.116 -2.948,1.49 -5.548,3.007 -6.072,6.606 -0.031,0.218 -0.146,0.472 -0.306,0.616 -0.925,0.826 -1.966,1.729 -3.227,1.436 -1.036,-0.239 -1.388,-1.535 -1.521,-2.438 -0.123,-0.811 0.368,-1.78 0.769,-2.589 0.781,-1.568 1.027,-2.678 -1.303,-2.923 -1.355,-0.144 -2.598,-0.764 -3.796,-1.556 -1.12,-0.739 -2.327,-1.515 -3.823,-1.519 -2.478,-0.006 -2.904,-2.423 -3.712,-3.879 -0.609,-1.1 0.886,-2.66 2.175,-3.436 2.567,-1.548 5.057,-3.256 7.94,-4.212 0.546,-0.18 1.358,-0.062 1.253,-1 -0.145,-1.316 0.407,-1.244 1.51,-1.105 2.281,0.288 4.364,-0.614 6.619,-1.426 -0.437,-0.487 -0.672,-0.695 -0.837,-0.949 -0.257,-0.395 -1.077,-0.61 -0.536,-1.286 0.487,-0.607 1.029,-0.141 1.44,0.128 0.932,0.613 1.777,0.375 2.589,-0.153 1.094,-0.71 2.281,-0.909 3.548,-0.802 2.866,0.243 5.337,-0.312 7.008,-3.002 0.378,-0.609 1.383,-1.056 1.025,-1.825 -0.309,-0.662 -1.255,-0.741 -2.068,-0.774 -1.075,-0.045 -1.974,0.16 -2.675,1.044 -0.935,1.179 -2.16,1.989 -3.543,2.541 -0.583,0.233 -1.181,0.959 -1.853,0.162 -0.555,-0.656 -0.009,-1.262 0.323,-1.657 0.845,-1.005 0.196,-1.552 -0.594,-1.457 -2.66,0.318 -2.456,-1.033 -1.775,-2.741 0.185,-0.462 0.363,-0.851 -0.08,-1.247 -0.482,-0.432 -0.975,-0.353 -1.5,-0.083 -1.297,0.664 -2.597,1.315 -3.938,1.995 z m 402.595,167.63 c -1.494,2.167 -2.187,4.566 -2.19,7.116 -0.005,2.8 -1.767,4.671 -3.62,6.104 -1.575,1.218 -2.617,-1.2 -4.003,-1.786 -0.963,-0.405 -1.746,-1.245 -2.601,-1.901 -2.177,-1.676 -2.243,-2.56 -0.824,-4.998 0.338,-0.577 2.098,-1.497 0.227,-2.291 -2.161,-0.914 -4.373,-2.043 -6.729,-0.346 -0.545,0.393 -1.244,0.695 -1.906,0.776 -2.016,0.249 -2.861,1.822 -3.533,3.308 -1.004,2.208 -1.343,2.438 -3.205,1.015 -2.037,-1.558 -4.127,-1.516 -5.503,0.667 -1.065,1.687 -3.697,2.196 -3.513,4.771 0.017,0.245 -0.474,0.381 -0.771,0.175 -1.582,-1.096 -1.97,0.208 -2.395,1.237 -0.91,2.202 -2.401,4.14 -4.688,4.448 -3.932,0.534 -7.25,2.438 -10.824,3.8 -1.615,0.615 -2.153,1.706 -2.906,2.976 -1.07,1.809 0.007,3.591 -0.227,5.409 -0.401,3.153 -1.291,6.359 -0.259,9.61 0.866,2.729 0.105,5.091 -2.096,6.957 -0.823,0.698 -0.334,1.349 0.261,1.657 1.125,0.585 2.222,1.198 3.691,0.632 2.638,-1.016 5.279,-2.063 8.164,-2.323 1.428,-0.129 2.937,0.168 4.289,-0.704 2.503,-1.607 5.339,-2.601 8.225,-2.868 3.193,-0.298 6.637,-2.003 9.605,1.089 1.247,1.296 1.695,2.875 2.535,4.368 0.982,-1.297 2.702,-1.619 3.812,-2.813 0.228,-0.246 0.767,-0.614 1.229,-0.115 0.439,0.477 0.175,0.876 -0.183,1.192 -0.729,0.647 -0.494,1.097 -0.24,2.021 0.368,1.341 1.44,2.617 1.008,4.147 -0.23,0.809 -1.241,1.604 0.063,2.363 1.551,0.898 3.072,2.373 4.979,1.394 1.191,-0.612 1.928,-0.711 2.698,0.386 0.713,1.016 1.282,0.761 2.197,0.055 1.499,-1.161 3.129,-2.341 5.272,-1.495 0.651,0.257 0.991,-0.209 1.259,-0.716 1.718,-3.257 5.393,-4.825 7.037,-8.161 0.178,-0.36 0.724,-0.543 1.107,-0.795 4.853,-3.19 7.606,-7.657 8.149,-13.451 0.165,-1.77 0.911,-3.622 -0.782,-5.149 -1.639,-1.477 -2.544,-3.414 -3.417,-5.418 -0.853,-1.96 -1.51,-4.137 -3.329,-5.493 -1.53,-1.139 -1.657,-2.465 -1.197,-4.18 0.585,-2.171 0.133,-4.421 -1.237,-6.046 -1.25,-1.481 -2.116,-2.977 -2.535,-4.806 -0.152,-0.669 -0.29,-1.347 -1.094,-1.818 z M 252.991,268.235 c -0.477,-0.023 -0.879,-0.136 -1.229,-0.044 -2.828,0.751 -5.472,0.457 -7.92,-1.233 -0.23,-0.158 -0.606,-0.087 -0.896,-0.18 -5.495,-1.785 -11.067,0.114 -16.622,-0.302 -3.261,-0.245 -6.615,1.242 -9.96,1.464 -2.95,0.194 -5.823,1.035 -8.921,0.355 -4.712,-1.035 -9.41,-0.68 -13.91,1.548 -2.164,1.07 -4.369,2.213 -6.916,2.398 -1.674,0.12 -3.36,0.109 -5.041,0.503 -0.974,0.229 -0.814,0.669 -1.037,1.287 -0.321,0.889 0.129,1.216 0.729,1.353 1.546,0.353 3.002,0.886 4.732,0.47 4.279,-1.028 8.179,1.109 8.833,6.416 0.076,0.615 0.385,0.733 0.73,0.988 2.444,1.796 2.406,4.461 -0.105,6.153 -0.764,0.514 -1.612,0.908 -2.361,1.442 -1.461,1.041 -2.569,2.261 -1.485,4.204 0.347,0.623 0.315,1.198 -0.088,1.734 -0.774,1.026 -0.359,2.04 -0.036,3.064 0.749,2.367 2.938,2.996 4.807,4.039 2.048,1.138 3.558,0.211 4.856,-1.244 0.76,-0.853 1.298,-1.904 1.927,-2.871 2.064,-3.17 4.631,-5.422 8.701,-5.675 1.451,-0.091 3.093,-0.258 4.403,-1.172 3.007,-2.094 5.774,-4.121 10.011,-3.589 2.763,0.346 5.758,-1.159 8.664,-1.837 -1.113,-1.246 -1.133,-1.315 -2.001,-1.11 -0.812,0.19 -1.792,0.853 -2.338,-0.003 -0.667,-1.044 0.83,-0.724 1.083,-1.199 0.955,-1.801 0.968,-1.871 2.695,-0.414 1.121,0.944 2.154,1.232 3.393,0.293 -0.886,-1.613 -2.649,-1.867 -3.941,-2.795 -0.33,-0.236 -0.88,-0.524 -0.539,-1.08 0.12,-0.196 0.527,-0.348 0.776,-0.316 4.928,0.633 7.312,-2.964 10.027,-6.005 0.129,-0.145 0.188,-0.398 0.191,-0.604 0.073,-2.609 1.304,-3.728 3.932,-4.312 1.612,-0.355 3.633,0.172 4.856,-1.726 z M 492.259,427.49 c -0.17,-0.237 -0.345,-0.488 -0.527,-0.737 -1.683,-2.272 -2.212,-4.386 0.105,-6.747 1.216,-1.24 -0.622,-1.913 -1.271,-2.699 -0.549,-0.664 -1.433,-1.852 -2.232,-0.857 -1.494,1.857 -4.332,2.67 -5.157,4.191 -1.465,2.701 -4.802,3.152 -5.775,5.987 -0.192,0.567 -0.678,0.359 -1.166,0.241 -1.679,-0.409 -2.592,0.431 -2.234,2.095 0.337,1.57 0.838,3.106 1.244,4.664 0.51,1.955 1.773,2.652 3.755,3.081 1.807,0.388 3.673,-0.571 5.335,0.478 1.805,1.14 2.623,0.019 3.379,-1.377 1.425,-2.631 1.639,-5.919 4.268,-7.9 0.113,-0.087 0.169,-0.252 0.276,-0.42 z M 166.601,300.631 c -0.326,-0.268 -0.694,-0.446 -0.862,-0.738 -0.355,-0.619 -1.863,-0.481 -1.319,-1.487 0.485,-0.904 1.467,-0.325 2.284,-0.047 0.704,0.238 1.377,1.345 2.222,0.359 0.808,-0.938 0.653,-1.95 0.036,-2.989 -0.312,-0.522 -1.022,-1.168 -0.149,-1.79 0.635,-0.453 1.324,-0.759 2.122,-0.2 0.501,0.351 1.124,0.524 1.641,0.858 1.604,1.038 2.449,-0.011 3.12,-1.193 0.802,-1.418 -0.556,-1.691 -1.366,-2.11 -1.313,-0.683 -2.649,-1.636 -2.278,-3.112 0.469,-1.861 -0.711,-2.035 -1.75,-2.261 -1.729,-0.37 -3.262,-0.87 -4.104,-2.6 -0.256,-0.527 -0.728,-0.854 -1.33,-0.441 -1.85,1.268 -3.224,0.1 -4.536,-0.953 -1.168,-0.935 -2.222,-1.31 -3.799,-0.861 -1.419,0.402 -2.537,1.001 -3.53,2.023 -0.308,0.319 -0.63,1.103 -1.27,0.422 -0.549,-0.588 0.067,-0.942 0.372,-1.36 0.42,-0.58 1.292,-0.847 1.282,-1.854 -2.208,0.098 -3.992,0.935 -5.601,2.378 -0.798,0.715 -2.203,1.351 -1.643,2.396 0.522,0.976 2.047,1.66 3.278,1.158 1.917,-0.779 3.646,0.04 5.441,0.246 0.6,0.068 1.106,0.293 1.765,0.053 3.267,-1.194 4.579,-0.646 6.404,2.475 0.654,1.119 1.228,2.332 2.588,2.819 0.427,0.151 0.979,0.326 0.87,0.885 -0.1,0.52 -0.688,0.512 -1.125,0.663 -0.658,0.227 -1.267,0.57 -1.969,0.092 -1.612,-1.101 -3.018,-0.125 -3.798,0.969 -1.02,1.427 -2.125,1.356 -3.417,0.988 -1.512,-0.432 -2.866,-0.402 -4.043,0.761 0.727,1.157 1.679,0.643 2.481,0.359 2.339,-0.826 3.962,-0.487 5.301,1.938 1.242,2.253 4.484,3.073 6.682,2.154 z m 190.681,155.654 c -1.004,3.629 -3.75,5.666 -6.593,7.167 -2.745,1.448 -4.07,2.703 -3.272,5.73 0.479,1.822 0.423,3.34 -0.851,4.719 -2.059,2.229 -1.626,4.849 -1.014,7.372 0.408,1.682 1.804,2.341 3.576,2.097 2.271,-0.313 3.748,-1.735 4.037,-3.807 0.782,-5.643 3.438,-10.646 5.133,-15.97 0.857,-2.696 0.39,-4.901 -1.016,-7.308 z M 113.844,280.492 c -5.897,-3.529 -10.472,0.021 -15.184,2.848 0.721,1.493 1.642,1.531 3.155,0.892 1.806,-0.765 3.688,-2.316 5.857,-0.67 0.302,0.229 0.758,0.334 0.648,0.775 -0.057,0.225 -0.426,0.398 -0.683,0.54 -0.406,0.224 -1.053,-0.26 -1.38,0.515 1.148,0 2.229,-0.009 3.311,0.003 0.611,0.006 1.488,-0.1 1.524,0.658 0.037,0.788 -0.832,0.724 -1.438,0.729 -1.43,0.011 -2.861,0.004 -4.875,0.004 3.985,2.467 7.508,3.672 11.448,1.54 0.904,-0.491 1.773,-0.781 2.851,-0.308 2.798,1.231 5.155,0.033 7.518,-1.512 -0.708,-1.05 -3.479,-1.004 -1.625,-3.245 0.393,-0.477 1.292,-1.286 0.369,-1.928 -0.708,-0.492 -1.443,0.133 -1.998,0.735 -0.367,0.398 -0.749,0.789 -1.17,1.128 -0.565,0.456 -1.169,0.269 -1.197,-0.387 -0.082,-1.815 -0.908,-1.489 -1.829,-0.694 -0.612,0.525 -1.1,0.167 -1.696,0.095 -1.76,-0.218 -3.321,-1.315 -5.229,-1.008 0.397,-0.817 1.253,-0.15 1.623,-0.71 z m 333.681,137.804 c 0.355,1.81 1.235,2.861 2.283,3.804 3.431,3.089 5.761,7.08 7.899,10.999 1.499,2.747 3.262,5.169 5.187,7.533 0.649,0.794 1.6,1.501 2.799,1.155 1.166,-0.335 1.88,-1.328 1.972,-2.375 0.106,-1.224 -0.123,-2.447 -1.142,-3.52 -1.526,-1.604 -3.052,-3.33 -4.048,-5.275 -0.556,-1.084 -0.877,-2.102 -1.964,-2.837 -1.831,-1.244 -4.024,-2.243 -5.169,-4.14 -1.779,-2.954 -4.431,-4.278 -7.817,-5.344 z m 65.064,-58.825 c 0.946,-2.591 0.946,-2.591 3.223,-2.913 3.052,-0.43 3.882,-1.945 2.822,-4.935 -0.272,-0.771 -0.771,-1.545 -0.546,-2.441 0.525,-2.098 -0.609,-3.469 -2.091,-4.631 -0.612,-0.48 -1.315,-1.349 -2.185,-0.615 -0.837,0.711 0.151,1.361 0.33,2.04 0.338,1.284 1.88,2.243 1.221,3.764 -1.168,2.701 -3.65,4.982 -6.066,5.077 -2.549,0.101 -3.557,1.739 -5.63,2.53 3.008,1.557 6.803,-2.854 8.922,2.124 z M 262.032,310.86 c -0.713,-0.595 -1.86,-0.025 -1.978,-1.167 -0.067,-0.654 -0.359,-0.488 -0.744,-0.308 -1.111,0.515 -1.93,1.965 -1.58,2.513 0.617,0.96 -0.597,3.188 1.788,2.944 1.002,-0.104 1.106,0.564 1.298,1.252 0.179,0.646 0.783,1.665 0.026,1.846 -1.801,0.425 -1.986,2.117 -2.933,3.086 0.517,1.089 2.582,0.075 2.444,1.445 -0.099,0.975 -1.824,0.793 -2.761,1.266 -0.251,0.126 -0.474,0.312 -1.08,0.722 3.378,-0.483 6.266,-1.197 9.216,-1.55 0.618,-0.074 1.135,-2.149 2.246,-2.902 -0.221,-0.198 -0.496,-0.606 -0.654,-0.564 -2.208,0.579 -2.237,-1.316 -2.78,-2.491 -0.588,-1.281 -1.151,-2.828 -2.393,-3.267 -2.397,-0.851 -1.382,-1.692 -0.115,-2.825 z m 27.299,-35.905 c -0.849,0.463 -1.857,-0.213 -2.424,0.738 1.019,0.591 1.937,1.133 2.865,1.659 0.648,0.367 1.398,0.604 1.765,-0.245 0.423,-0.979 1.369,-1.419 1.94,-2.239 1.15,-1.649 2.22,-1.475 2.952,0.499 0.14,0.379 0.211,0.884 0.549,0.636 1.174,-0.864 2.256,0.244 3.594,0.07 -1.209,-1.817 -3.685,-1.65 -4.858,-3.511 2.252,0.014 4.209,1.336 6.281,0.269 0.428,-0.221 0.949,-0.373 0.903,-0.888 -0.059,-0.636 -0.682,-0.49 -1.111,-0.5 -1.548,-0.034 -3.235,0.346 -4.614,-0.145 -1.984,-0.708 -2.647,0.163 -3.289,1.93 -0.577,-1.267 -1.066,-2.475 -2.555,-0.986 -0.383,0.384 -1.56,0.251 -2.243,0.002 -1.529,-0.557 -3.068,-0.256 -4.6,-0.331 -0.5,-0.023 -1.176,-0.171 -1.302,0.599 -0.12,0.728 0.548,0.913 1.007,1.082 1.207,0.443 2.335,1.379 3.778,0.438 0.69,-0.452 1.042,0.271 1.362,0.923 z m 266.576,252.837 c 0.653,0.076 1.463,-0.085 2.233,-0.509 4.638,-2.549 8.749,-5.937 13.431,-8.426 0.728,-0.386 1.03,-1.124 0.395,-2.137 -0.793,-1.259 -1.458,-0.424 -1.954,-0.014 -2.977,2.472 -6.175,4.544 -9.847,5.812 -1.899,0.655 -3.675,1.53 -5.353,2.635 -0.715,0.469 -1.758,0.903 -1.498,1.81 0.296,1.029 1.485,0.793 2.593,0.829 z m -55.16,-95.903 c -1.035,0.237 -2.096,0.396 -3.098,0.729 -1.268,0.422 -1.767,-0.582 -2.132,-1.279 -0.431,-0.826 0.158,-1.708 0.977,-2.045 1.189,-0.487 2.383,-0.893 3.767,-0.223 2.551,1.233 3.552,0.688 4.519,-2.673 -1.919,1.934 -3.87,1.629 -5.831,1.353 -2.629,-0.37 -3.64,0.2 -4.31,2.68 -0.549,2.033 -0.253,4.308 -1.842,6.04 -0.385,0.418 -0.009,0.957 0.239,1.264 0.635,0.781 1.014,1.495 0.444,2.5 -0.233,0.415 -0.004,0.906 0.424,1.213 0.485,0.352 0.862,-0.003 1.266,-0.199 0.529,-0.256 0.539,-0.688 0.412,-1.171 -0.175,-0.668 -0.277,-1.362 -0.541,-1.993 -0.482,-1.149 0.439,-1.667 1.072,-1.998 0.966,-0.505 1.094,0.639 1.256,1.147 0.396,1.251 0.935,2.186 2.518,2.291 -0.056,-0.978 0.206,-1.838 -0.328,-2.612 -1.455,-2.122 -1.063,-3.718 1.188,-5.024 z M 357.915,277.18 c -1.056,-0.85 -1.873,-0.508 -2.709,-0.467 -1.474,0.071 -2.779,1.043 -4.28,0.761 -4.584,-0.864 -7.038,2.146 -9.314,5.271 -0.193,0.265 -1.498,1.622 -0.326,2.035 1.805,0.634 3.511,2.042 5.703,1.39 -2.074,-2.125 -2.03,-2.848 0.179,-5.08 1.659,-1.677 3.821,-2.207 6.005,-2.666 1.533,-0.322 3.16,-0.278 4.742,-1.244 z m 221.983,226.589 c 0.05,0.96 0.002,1.663 0.137,2.331 0.65,3.224 0.441,3.756 -2.331,5.352 -0.814,0.47 -2.098,1.288 -1.772,1.881 1.051,1.913 -0.281,2.698 -1.545,3.695 2.026,0.31 9.841,-5.196 10.415,-7.097 -2.179,0.566 -4.331,-1.483 -3.773,-3.779 0.264,-1.087 0.245,-1.759 -1.131,-2.383 z m -94.646,-56.267 c -1.993,-1.36 -4.524,-1.72 -6.428,-3.268 -0.468,-0.382 -1.015,0.036 -1.534,0.125 -1.601,0.276 -3.127,0.754 -4.765,-0.391 -1.043,-0.726 -2.552,-1.152 -3.961,-0.722 -0.609,0.187 -1.521,0.358 -1.502,1.203 0.017,0.699 0.849,0.74 1.388,0.98 1.79,0.795 3.915,0.178 5.489,0.733 3.249,1.146 6.649,0.974 9.862,1.933 0.558,0.168 1.076,0.155 1.451,-0.593 z M 246.579,295.27 c -0.867,-1.032 -1.864,-1.775 -3.367,-1.335 -0.95,0.278 -1.941,1.09 -2.861,0.655 -2.047,-0.966 -3.51,0.699 -5.277,0.917 -0.917,0.113 -0.979,1.006 -0.9,1.806 1.86,-0.739 2.853,1.678 4.334,1.375 2.521,-0.515 5.193,-0.807 7.319,-2.559 0.292,-0.239 0.668,-0.363 0.752,-0.859 z m -143.737,88.217 c 0.764,-0.253 1.546,-0.458 2.284,-0.769 0.86,-0.361 1.619,-0.631 2.637,-0.34 2.746,0.786 2.766,0.711 6.322,4.744 0.083,0.093 0.298,0.142 0.427,0.11 2.253,-0.525 4.587,1.317 6.793,-0.247 -2.126,-2.35 -9.374,-5.665 -12.379,-5.775 -2.329,-0.082 -4.489,0.155 -6.084,2.277 z m 398.41,18.959 c -0.604,-1.807 -0.8,-2.036 -1.661,-2.099 -3.291,-0.235 -4.19,-1.58 -2.996,-4.562 0.777,-1.938 -0.356,-3.242 -1.577,-4.34 -0.968,-0.869 -1.523,-0.089 -1.618,0.946 -0.085,0.913 -0.016,1.807 -0.418,2.71 -0.845,1.898 2.674,6.965 4.745,6.944 0.071,-0.001 0.15,-0.036 0.214,-0.073 1.125,-0.688 2.058,0.13 3.311,0.474 z m -246.54,-87.751 c -2.109,-0.127 -3.108,1.69 -4.774,2.006 -0.091,0.017 -0.227,0.484 -0.151,0.565 1.051,1.126 0.034,2.003 -0.383,2.894 -0.29,0.623 -0.053,1.034 0.216,1.497 0.445,0.77 0.945,0.194 1.376,0.005 2.033,-0.896 4.773,-1.074 4.541,-4.35 -0.01,-0.137 0.084,-0.306 0.179,-0.421 1.465,-1.816 0.492,-2.224 -1.004,-2.196 z m -90.101,-37.021 c -0.996,-0.85 -2.038,-0.61 -3.029,-0.66 -2.979,-0.146 -6.076,1.003 -8.873,-1.145 -0.997,-0.767 -2.008,0.377 -2.89,0.913 -0.31,0.188 -0.558,0.816 -0.503,1.194 0.086,0.594 0.729,0.406 1.158,0.428 1.457,0.068 2.965,0.367 4.342,0.312 3.227,-0.129 6.726,1.722 9.795,-1.042 z M 499.25,414.333 c 2.306,-1.164 3.146,0.036 3.562,1.981 0.094,0.433 0.389,0.837 0.655,1.211 0.43,0.601 0.948,0.286 1.438,0.061 0.284,-0.132 0.923,0.01 0.649,-0.606 -1.26,-2.826 0.828,-1.222 1.75,-1.248 -0.048,-2.321 -1.14,-4.261 -2.058,-6.257 -1.197,2.764 -1.496,2.965 -4.491,2.98 -1.094,0.006 -1.368,0.719 -1.505,1.878 z M 159.805,544.8 c -2.467,-0.705 -4.212,-2.539 -6.368,-3.648 -0.761,-0.392 -1.606,-1.325 -2.473,-0.433 -0.479,0.496 -0.884,1.449 -0.742,2.061 0.197,0.853 1.068,1.333 1.944,1.779 2.527,1.286 5.086,0.264 7.639,0.241 z M 119.864,390.935 c 4.166,0.58 7.966,0.941 11.749,-0.707 -2.196,-2.325 -4.935,-2.123 -7.706,-1.945 0.81,4.052 -2.482,1.608 -4.043,2.652 z m 401.984,130.714 c 1.54,-0.654 2.977,-1.418 4.123,-2.568 0.504,-0.504 1.28,-1.232 1.009,-1.915 -0.4,-1.009 -1.298,-0.337 -2,-0.138 -0.816,0.232 -1.477,-0.365 -2.233,-0.445 -3.024,-0.317 -0.551,2.508 -1.866,3.303 -0.588,0.356 -0.626,1.231 0.357,1.567 0.212,0.072 0.428,0.138 0.61,0.196 z M 508.771,326.892 c -1.948,-2.435 -3.672,-3.628 -5.844,-3.965 2.225,2.584 3.548,5.441 5.006,8.229 0.512,0.976 1.312,2.092 2.894,1.456 -0.556,-1.791 -2.146,-2.56 -3.106,-3.84 -0.795,-1.057 -1.044,-1.954 1.05,-1.88 z m -90.857,83.296 c -1.165,1.789 -0.797,3.405 -0.401,5.064 0.217,0.903 0.043,1.982 1.552,1.512 1.154,-0.361 1.813,-0.817 1.436,-2.294 -0.425,-1.667 -1.652,-2.716 -2.587,-4.282 z M 138.545,280.024 c -2.891,-0.73 -4.707,2.956 -7.745,1.799 1.574,0.382 2.029,2.993 4.421,1.763 1.654,-0.851 3.054,-1.599 3.324,-3.562 z m 15.443,-8.844 c 2.498,0.11 4.453,1.646 6.425,-0.271 0.455,-0.44 1.649,-0.374 1.364,-1.225 -0.266,-0.792 -1.289,-1.155 -2.141,-0.991 -1.844,0.36 -3.67,0.847 -5.648,2.487 z m -7.794,26.481 c 0.062,-0.46 -0.229,-0.72 -0.488,-0.999 -1.608,-1.737 -4.162,-1.733 -5.807,0.04 -0.324,0.35 -1.035,0.617 -0.66,1.268 0.32,0.555 0.884,0.474 1.428,0.253 1.458,-0.592 2.887,-0.743 4.3,0.193 0.878,0.582 0.944,-0.319 1.227,-0.755 z m 346.109,79.516 c -1.229,0.565 -1.752,1.81 -1.965,2.929 -0.186,0.961 0.403,2.06 1.471,2.604 0.347,0.177 0.562,0.054 0.64,-0.34 0.287,-1.446 1.271,-2.805 0.526,-4.386 -0.157,-0.332 -0.125,-0.773 -0.672,-0.807 z M 55.461,327.129 c 0.101,-0.933 -2.347,-3.638 -3.245,-3.445 -0.675,0.144 -1.522,0.367 -0.917,1.539 0.693,1.34 1.908,1.897 3.139,2.452 0.361,0.161 0.944,0.124 1.023,-0.546 z m 91.202,-46.557 c -1.858,-0.919 -4.974,-0.552 -6.136,0.627 -0.249,0.252 -0.67,0.482 -0.382,0.933 0.109,0.17 0.467,0.397 0.534,0.35 1.723,-1.232 4.141,-0.233 5.984,-1.91 z m 427.47,189.297 c -0.307,2.902 2.071,6.106 5.254,7.283 -1.945,-2.112 -3.691,-4.375 -5.254,-7.283 z m -65.625,-21.171 c -3.836,-1.534 -5.64,-0.762 -7.509,2.973 2.522,-0.909 4.147,-3.182 7.509,-2.973 z m 48.333,-9.134 c -1.425,2.121 -3.678,2.649 -5.995,3.191 2.641,1.762 5.327,0.433 5.995,-3.191 z m -51.499,-75.481 c 1.414,-2.078 1.082,-3.441 -0.882,-4.603 -0.425,-0.251 -0.78,-0.862 -1.29,-0.096 -0.364,0.551 -0.271,0.988 0.221,1.378 0.996,0.79 1.438,1.925 1.951,3.321 z M 167.926,537.529 c -1.189,-0.689 -2.486,-0.416 -3.726,-0.54 -0.858,-0.087 -1.012,0.625 -1.134,1.08 -0.174,0.656 0.568,0.593 0.975,0.802 1.715,0.881 2.848,0.075 3.885,-1.342 z M 473.747,388.298 c -1.568,-0.173 -2.853,-0.093 -3.517,1.284 -0.359,0.746 0.353,1.553 0.932,1.604 1.915,0.168 1.758,-1.667 2.585,-2.888 z m 19.455,18.582 c -1.685,1.413 -2.983,2.896 -3.995,4.875 2.502,-0.659 3.979,-2.456 3.995,-4.875 z m 18.671,18.307 c -1.381,-0.457 -1.583,0.5 -1.979,1.195 -0.394,0.69 0.502,1.423 -0.144,2.156 -0.421,0.475 -0.478,1.112 0.19,1.569 0.313,0.212 0.658,0.541 0.968,0.113 0.342,-0.473 0.718,-0.96 0.337,-1.658 -0.66,-1.208 -0.696,-2.392 0.628,-3.375 z M 281.235,345.519 c -0.046,-0.741 0.133,-1.719 -0.91,-1.804 -0.707,-0.059 -1.44,0.638 -1.246,1.313 0.24,0.827 0.053,2.242 1.304,2.294 1.045,0.043 0.81,-1.067 0.852,-1.803 z m 5.769,4.812 c 1.04,0.548 1.908,1.029 2.8,1.471 0.549,0.271 1.028,0.582 1.309,-0.445 0.249,-0.905 0.173,-1.121 -0.779,-1.366 -1.105,-0.286 -2.083,-0.375 -3.33,0.34 z M 133.135,287.943 c -0.468,-0.264 -0.717,-0.456 -0.998,-0.554 -1.262,-0.434 -2.2,0.34 -3.137,0.951 -0.273,0.179 0.094,0.52 0.295,0.716 1.064,1.034 1.769,-0.228 2.633,-0.441 0.353,-0.086 0.658,-0.356 1.207,-0.672 z m 173.272,67.3 c 1.879,1.101 3.401,1.869 5.396,0.796 -1.671,-1.134 -3.347,-0.863 -5.396,-0.796 z m 192.675,93.274 c -0.753,-0.977 -1.818,-0.627 -2.624,-1.055 -0.572,-0.303 -1.362,-0.222 -1.377,0.573 -0.009,0.569 0.623,1.115 1.297,1.048 0.887,-0.088 1.759,-0.36 2.704,-0.566 z m -0.119,-130.163 c 1.013,1.47 1.473,2.824 3.232,3.353 -0.435,-1.77 -1.106,-2.922 -3.232,-3.353 z m -7.017,129.95 c -1.415,-0.751 -2.545,-0.718 -3.682,-0.204 -0.064,0.031 -0.074,0.439 0.024,0.538 0.972,0.972 1.98,0.061 2.978,0.014 0.133,-0.006 0.259,-0.128 0.68,-0.348 z m 17.643,-88.937 c 0.058,-0.586 -0.189,-0.931 -0.615,-0.862 -0.636,0.101 -1.476,0.158 -1.457,1.066 0.008,0.376 0.222,1.03 0.743,1.014 0.768,-0.024 1.135,-0.648 1.329,-1.218 z m -396.652,31.515 c 1.513,1.208 1.513,1.208 3.364,0.582 -1.085,-0.697 -2.05,-1.346 -3.364,-0.582 z m 389.474,13.247 c 1.034,2.197 1.203,2.336 2.794,2.391 -0.608,-1.051 -1.106,-2.208 -2.794,-2.391 z m 8.223,32.33 c 1.239,1.101 2.379,1.4 3.744,0.208 -1.249,0.002 -2.322,-0.998 -3.744,-0.208 z m 93.84,31.142 c -1.397,-0.379 -1.929,-1.409 -2.828,-0.752 -0.602,0.441 -0.124,1.063 0.194,1.366 0.876,0.837 1.354,-0.208 2.634,-0.614 z M 326.193,354.503 c -0.64,0.439 -0.861,0.647 -1.123,0.759 -0.405,0.171 -0.834,0.29 -1.261,0.401 -0.844,0.223 -0.782,0.852 -0.181,1.009 0.896,0.234 1.664,-0.398 2.25,-1.098 0.123,-0.146 0.124,-0.395 0.315,-1.071 z m -189.77,36.385 c -0.329,-0.418 -0.86,-0.348 -1.362,-0.342 -0.489,0.007 -1.062,0.19 -1.036,0.666 0.032,0.629 0.661,0.729 1.227,0.699 0.58,-0.029 1.02,-0.24 1.171,-1.023 z m 420.085,46.018 c -0.809,-0.569 -1.454,-1.048 -2.365,-0.888 0.663,0.436 1.192,1.192 2.365,0.888 z m 1.975,2.276 c -0.051,-0.408 -0.196,-0.648 -0.552,-0.62 -0.083,0.009 -0.203,0.214 -0.215,0.338 -0.036,0.33 0.146,0.579 0.462,0.628 0.093,0.013 0.229,-0.255 0.305,-0.346 z m -43,64.794 c 0.078,-0.286 0.163,-0.532 0.2,-0.784 0.007,-0.051 -0.161,-0.126 -0.249,-0.191 -0.13,0.246 -0.265,0.492 -0.38,0.746 -0.003,0.008 0.202,0.107 0.429,0.229 z"
       id="path5241"
       inkscape:connector-curvature="0"
       style="fill:#cc5252" /></g></svg>