<?xml version="1.0" encoding="UTF-8" standalone="no"?>
<!-- Created with Inkscape (http://www.inkscape.org/) -->

<svg
   xmlns:dc="http://purl.org/dc/elements/1.1/"
   xmlns:cc="http://creativecommons.org/ns#"
   xmlns:rdf="http://www.w3.org/1999/02/22-rdf-syntax-ns#"
   xmlns:svg="http://www.w3.org/2000/svg"
   xmlns="http://www.w3.org/2000/svg"
   xmlns:sodipodi="http://sodipodi.sourceforge.net/DTD/sodipodi-0.dtd"
   xmlns:inkscape="http://www.inkscape.org/namespaces/inkscape"
   width="1024"
   height="768"
   id="svg4152"
   version="1.1"
   inkscape:version="0.91 r"
   viewBox="0 0 1024 768"
   sodipodi:docname="main-options.svg">
  <defs
     id="defs4154" />
  <sodipodi:namedview
     id="base"
     pagecolor="#ffffff"
     bordercolor="#666666"
     borderopacity="1.0"
     inkscape:pageopacity="1"
     inkscape:pageshadow="2"
     inkscape:zoom="0.70710678"
     inkscape:cx="551.3217"
     inkscape:cy="382"
     inkscape:current-layer="layer2"
     inkscape:document-units="px"
     showgrid="false"
     inkscape:window-width="1366"
     inkscape:window-height="716"
     inkscape:window-x="0"
     inkscape:window-y="0"
     inkscape:window-maximized="1"
     inkscape:snap-bbox="true"
     inkscape:showpageshadow="false" />
  <metadata
     id="metadata4157">
    <rdf:RDF>
      <cc:Work
         rdf:about="">
        <dc:format>image/svg+xml</dc:format>
        <dc:type
           rdf:resource="http://purl.org/dc/dcmitype/StillImage" />
        <dc:title></dc:title>
      </cc:Work>
    </rdf:RDF>
  </metadata>
  <g
     inkscape:groupmode="layer"
     id="layer2"
     inkscape:label="Layer 2">
    <rect
       style="fill:#e9e9e9;fill-opacity:1;stroke:#656060;stroke-opacity:1"
       id="rect4808"
       width="1021.0621"
       height="767.91791"
       x="1.4142135"
       y="0.082034342"
       ry="0" />
  </g>
  <g
     id="layer1"
     inkscape:label="Layer 1"
     inkscape:groupmode="layer">
    <rect
       style="fill:#20a6e7;fill-opacity:1"
       id="rect4721"
       width="1020"
       height="108"
       x="2"
       y="2" />
    <text
       xml:space="preserve"
       style="color:#000000;font-style:normal;font-variant:normal;font-weight:normal;font-stretch:normal;font-size:50px;line-height:125%;font-family:'Open Sans';-inkscape-font-specification:'Open Sans';text-indent:0;text-align:start;text-decoration:none;text-decoration-line:none;text-decoration-style:solid;text-decoration-color:#000000;letter-spacing:0px;word-spacing:0px;text-transform:none;direction:ltr;block-progression:tb;writing-mode:lr-tb;baseline-shift:baseline;text-anchor:start;white-space:normal;clip-rule:nonzero;display:inline;overflow:visible;visibility:visible;opacity:1;isolation:auto;mix-blend-mode:normal;color-interpolation:sRGB;color-interpolation-filters:linearRGB;solid-color:#000000;solid-opacity:1;fill:#ffffff;fill-opacity:0.02439025;fill-rule:nonzero;stroke:#000000;stroke-width:1;stroke-linecap:butt;stroke-linejoin:miter;stroke-miterlimit:4;stroke-dasharray:none;stroke-dashoffset:0;stroke-opacity:1;color-rendering:auto;image-rendering:auto;shape-rendering:auto;text-rendering:auto;enable-background:accumulate"
       x="24"
       y="70"
       id="text4723"
       sodipodi:linespacing="125%"><tspan
         sodipodi:role="line"
         id="tspan4725"
         x="24"
         y="70"
         style="font-size:60px;fill:#ffffff;fill-opacity:1;stroke:#fff000;stroke-opacity:0">Worldly French</tspan></text>
    <text
       xml:space="preserve"
       style="color:#000000;font-style:normal;font-variant:normal;font-weight:normal;font-stretch:normal;font-size:27.5px;line-height:125%;font-family:'Open Sans';-inkscape-font-specification:'Open Sans';text-indent:0;text-align:start;text-decoration:none;text-decoration-line:none;text-decoration-style:solid;text-decoration-color:#000000;letter-spacing:0px;word-spacing:0px;text-transform:none;direction:ltr;block-progression:tb;writing-mode:lr-tb;baseline-shift:baseline;text-anchor:start;white-space:normal;clip-rule:nonzero;display:inline;overflow:visible;visibility:visible;opacity:1;isolation:auto;mix-blend-mode:normal;color-interpolation:sRGB;color-interpolation-filters:linearRGB;solid-color:#000000;solid-opacity:1;fill:#ffffff;fill-opacity:1;fill-rule:nonzero;stroke:#ffffff;stroke-width:1;stroke-linecap:butt;stroke-linejoin:miter;stroke-miterlimit:4;stroke-dasharray:none;stroke-dashoffset:0;stroke-opacity:1;color-rendering:auto;image-rendering:auto;shape-rendering:auto;text-rendering:auto;enable-background:accumulate"
       x="510"
       y="66"
       id="text4727"
       sodipodi:linespacing="125%"><tspan
         sodipodi:role="line"
         id="tspan4729"
         x="510"
         y="66"
         style="font-size:27.5px;fill:#ffffff;fill-opacity:1;stroke:#ffffff;stroke-opacity:1">Countries</tspan></text>
    <text
       xml:space="preserve"
       style="color:#000000;font-style:normal;font-variant:normal;font-weight:normal;font-stretch:normal;font-size:27.5px;line-height:125%;font-family:'Open Sans';-inkscape-font-specification:'Open Sans';text-indent:0;text-align:start;text-decoration:none;text-decoration-line:none;text-decoration-style:solid;text-decoration-color:#000000;letter-spacing:0px;word-spacing:0px;text-transform:none;direction:ltr;block-progression:tb;writing-mode:lr-tb;baseline-shift:baseline;text-anchor:start;white-space:normal;clip-rule:nonzero;display:inline;overflow:visible;visibility:visible;opacity:1;isolation:auto;mix-blend-mode:normal;color-interpolation:sRGB;color-interpolation-filters:linearRGB;solid-color:#000000;solid-opacity:1;fill:#ffffff;fill-opacity:1;fill-rule:nonzero;stroke:#ffffff;stroke-width:1;stroke-linecap:butt;stroke-linejoin:miter;stroke-miterlimit:4;stroke-dasharray:none;stroke-dashoffset:0;stroke-opacity:1;color-rendering:auto;image-rendering:auto;shape-rendering:auto;text-rendering:auto;enable-background:accumulate"
       x="674"
       y="66"
       id="text4731"
       sodipodi:linespacing="125%"><tspan
         sodipodi:role="line"
         id="tspan4733"
         x="674"
         y="66"
         style="font-size:27.5px;fill:#ffffff;fill-opacity:1;stroke:#ffffff;stroke-opacity:1">Nationalities</tspan></text>
    <text
       xml:space="preserve"
       style="color:#000000;font-style:normal;font-variant:normal;font-weight:normal;font-stretch:normal;font-size:27.5px;line-height:125%;font-family:'Open Sans';-inkscape-font-specification:'Open Sans';text-indent:0;text-align:start;text-decoration:none;text-decoration-line:none;text-decoration-style:solid;text-decoration-color:#000000;letter-spacing:0px;word-spacing:0px;text-transform:none;direction:ltr;block-progression:tb;writing-mode:lr-tb;baseline-shift:baseline;text-anchor:start;white-space:normal;clip-rule:nonzero;display:inline;overflow:visible;visibility:visible;opacity:1;isolation:auto;mix-blend-mode:normal;color-interpolation:sRGB;color-interpolation-filters:linearRGB;solid-color:#000000;solid-opacity:1;fill:#ffffff;fill-opacity:1;fill-rule:nonzero;stroke:#ffffff;stroke-width:1;stroke-linecap:butt;stroke-linejoin:miter;stroke-miterlimit:4;stroke-dasharray:none;stroke-dashoffset:0;stroke-opacity:1;color-rendering:auto;image-rendering:auto;shape-rendering:auto;text-rendering:auto;enable-background:accumulate"
       x="876"
       y="64"
       id="text4735"
       sodipodi:linespacing="125%"><tspan
         sodipodi:role="line"
         id="tspan4737"
         x="876"
         y="64"
         style="font-size:27.5px;fill:#ffffff;fill-opacity:1;stroke:#ffffff;stroke-opacity:1">Mix It Up</tspan></text>
    <rect
       style="fill:#ffffff;fill-opacity:1;stroke:#ffffff;stroke-opacity:1"
       id="rect4758"
       width="718.42047"
       height="485.07526"
       x="156.97771"
       y="205.14301"
       ry="50.91169" />
    <g
       id="g4349"
       transform="matrix(1.5005965,0,0,1.4862937,270.17377,246.21417)">
      <path
         id="path4333"
         d="M 49.439,0 C 22.178,0 0,22.178 0,49.439 0,76.699 22.178,98.877 49.439,98.877 76.7,98.877 98.877,76.699 98.877,49.439 98.877,22.178 76.7,0 49.439,0 Z m 18.069,91.119 -2.984,-0.928 -4,-0.667 -7.25,1.667 -2,1.333 -3.667,0 -2.251,0.084 -2.416,-1.084 -1.5,-2 -1.78,-0.5 0.28,1.917 -1.333,2.083 -4.5,-2.333 -1.431,0.968 C 15.896,84.974 4,68.574 4,49.439 4,46.804 4.238,44.226 4.67,41.712 l 3.937,1.312 2.667,1.667 0.833,1.759 1.5,2.988 2.667,1.253 -5.833,2.5 -0.167,7.833 0.728,3.5 3.106,1.834 1.833,2.666 4.833,8.667 2.077,5.667 4.257,4.166 3.667,1.5 1,-1.666 -1.5,-3.167 0.28,-5.5 0.887,-3.333 5.333,-2.5 -1.5,-3.834 c 0,0 2.167,-4.166 2,-5.166 -0.167,-1 3,-2.5 3,-2.5 L 41.82,60.656 42.942,57.858 42.4,55.762 40.442,55.191 35.609,49.438 31.276,46.45 20.109,45.691 l -2.167,2 -2.333,0.167 0.333,-2.167 -0.333,-1.5 1,-2.333 1.553,-0.988 -0.887,-1.345 -3.333,0 c 0,0 -1.667,-2.667 -2.833,-4 -1.166,-1.333 4.833,-9.667 4.833,-9.667 l 6,-0.167 0.91,3.333 1.59,1.667 2.333,0.833 -1.5,-4 0,-2.5 1.917,-3 2.083,-3.5 0,-1 0,-2 2,-1 3.667,-0.833 0.591,-1.902 c 0,0 -0.8,-1.768 -0.424,-2.098 0.376,-0.33 0.522,-2.667 2.045,-3.834 0.101,-0.077 0.18,-0.152 0.245,-0.225 1.556,-0.429 3.143,-0.78 4.761,-1.042 l -0.884,1.6 0,2.333 3,0 1.5,-1.833 3.665,-1.167 -0.084,-1.522 C 49.383,4.002 49.411,4 49.439,4 52.2,4 54.898,4.261 57.524,4.735 l -1.835,0.665 3.128,1.229 3.477,0.698 1.813,1.198 0.334,3.333 4.166,2.667 3.4,0.582 -1.4,1.918 -2.833,1.333 -1.667,1.667 0.5,2.167 4.31,1.493 2.19,-0.826 2.936,-1 1.564,-2.333 2.334,1.5 -0.834,2.333 4.583,0.667 3.584,2.333 0,1 -3.584,-3.333 -5.749,-0.333 -5.334,0.167 -3.5,1.833 -3.5,1.667 -3.666,3 -1.5,4.167 1.5,2.5 0.966,2.771 -1.966,2.253 1.666,3.142 4.667,2.333 3.5,2.833 5.27,0.667 3.397,0.667 3,-0.667 1.5,2.5 0.166,2.333 -1.166,4 1.083,1.667 -3.75,5 0,3.333 -1.602,5.269 -1.898,2.731 2.104,2.5 2.816,-0.026 1.063,-0.974 0.776,0.068 c -4.39,4.986 -9.851,9.006 -16.025,11.692 z"
         inkscape:connector-curvature="0" />
      <polygon
         id="polygon4335"
         points="25.607,36.524 22.941,35.524 20.274,35.524 20.274,36.524 21.774,36.524 24.107,37.524 " />
      <polygon
         id="polygon4337"
         points="29.274,35.524 27.774,34.524 26.274,35.524 28.44,36.524 " />
      <polygon
         id="polygon4339"
         points="32.94,37.024 31.274,36.524 31.274,37.524 " />
      <path
         id="path4341"
         d="m 62.941,10.524 c 0,0 -0.458,-1.125 -0.626,-2.125 -0.166,-1 -2.958,0.042 -2.958,0.042 l -1.25,0.804 3.167,1.279 1.667,0 z"
         inkscape:connector-curvature="0" />
    </g>
    <g
       id="g4376"
       transform="matrix(1.3762116,0,0,1.2136274,431.88983,477.5696)">
      <g
         id="g4358">
        <rect
           id="rect4360"
           height="42.099998"
           width="27.700001"
           y="57.5"
           x="13.9" />
        <rect
           id="rect4362"
           height="21"
           width="33"
           y="30.6"
           x="8.6000004" />
        <path
           id="path4364"
           d="m 28.2,24.4 c 2.6,1.8 6.9,2.6 13.3,2.6 3.8,0 13.3,0 17.1,0 l 0,0 C 64.9,27 69.3,26.1 71.9,24.4 78.3,20 80.3,11.6 76.2,5.7 73.9,2.3 69.9,0.3 65.6,0.3 c -3,0 -5.9,0.9 -8.4,2.6 -3,2 -5.4,6.6 -7.1,11 C 48.4,9.6 46,5 43,2.9 40.5,1.2 37.6,0.3 34.6,0.3 30.3,0.3 26.3,2.3 24,5.7 19.8,11.6 21.8,20 28.2,24.4 Z M 60.3,7.6 c 1.6,-1.1 3.4,-1.7 5.2,-1.7 2.5,0 4.7,1.1 6,3 2.3,3.4 1,8.2 -2.8,10.9 -0.7,0.5 -3.2,1.6 -10.1,1.6 -1.9,0 -3.7,-0.1 -5.1,-0.2 1.6,-5.5 4.3,-12 6.8,-13.6 z M 28.5,8.9 c 1.3,-1.9 3.5,-3 6,-3 1.8,0 3.6,0.6 5.2,1.7 2.4,1.7 5.2,8.2 6.9,13.6 -1.4,0.1 -3.2,0.2 -5.1,0.2 -6.9,0 -9.3,-1.1 -10.1,-1.6 -3.9,-2.7 -5.2,-7.6 -2.9,-10.9 z"
           inkscape:connector-curvature="0" />
      </g>
      <rect
         id="rect4366"
         height="42.099998"
         width="27.700001"
         y="57.5"
         x="58.299999" />
      <rect
         id="rect4368"
         height="21"
         width="33"
         y="30.6"
         x="58.299999" />
    </g>
    <g
       id="g4527"
       transform="matrix(2.8082502,0,0,3.0080111,618.68138,248.37525)">
      <path
         id="path4511"
         d="M 51.3,6.6 45,0 43.2,0 c -1.3,0 -1.9,0.7 -1.9,1.9 l 0,5.9 c -4.2,-4.1 -9.2,-6.3 -15,-6.3 -5.9,0 -11,2.3 -15.2,6.6 l 0,-6.2 C 11.1,0.7 10.4,0 9.1,0 L 7.3,0 1.1,6.6 1.1,8.2 C 1.101,9.4 1.7,10 3,10 l 6.101,0 c 0.1,0 0.2,0 0.2,0 -2.6,3.3 -4.2,7.1 -4.8,11.2 L 3.8,21.2 C 1.3,21.2 0,22.5 0,25 l 0,2.7 c 0,2.5 1.3,3.7 3.8,3.7 l 1,0 c 1,4.1 2.9,7.7 5.8,10.9 4.3,4.6 9.6,7 15.7,7 6.1,0 11.3,-2.4 15.7,-7 2.9,-3.2 4.9,-6.8 5.8,-10.9 l 0.8,0 c 2.5,0 3.8,-1.2 3.8,-3.7 l 0,-2.7 c 0,-2.5 -1.3,-3.8 -3.8,-3.8 l -0.5,0 C 47.499,17.1 45.9,13.3 43.3,10 l 6.1,0 c 1.2,0 1.9,-0.6 1.9,-1.8 l 0,-1.6 z m -2.699,16.1 c 1.5,0 2.3,0.8 2.3,2.3 l 0,2.7 c 0,1.5 -0.8,2.2 -2.3,2.2 l -0.5,0 c 0.3,-1.4 0.399,-2.9 0.399,-4.5 0,-0.9 -0.1,-1.8 -0.1,-2.7 l 0.201,0 z m -2,-0.7 c 0,0.2 0.1,0.3 0.2,0.4 0.1,1 0.2,2 0.2,3 0,6.2 -2.1,11.5 -6.1,15.8 -4,4.4 -8.9,6.6 -14.6,6.6 -5.7,0 -10.5,-2.2 -14.6,-6.6 -4,-4.3 -6.1,-9.6 -6.1,-15.8 0,-1.4 0.1,-2.7 0.399,-3.9 l 0,-0.1 0,0 c 0.101,0 0.2,0 0.3,0 5.3,0 10.1,-1.8 14.6,-5.5 2.8,-2.2 4.9,-4.7 6.2,-7.4 1.5,2.8 3.5,5.2 6.2,7.4 4.1,3.3 8.5,5.1 13.3,5.4 0,0.1 0,0.1 0,0.2 0,0 0,0.2 0.1,0.2 -0.099,0.1 -0.099,0.2 -0.099,0.3 z M 1.5,25 c 0,-1.5 0.8,-2.3 2.3,-2.3 l 0.5,0 c -0.1,0.9 -0.2,1.8 -0.2,2.7 0,1.6 0.2,3.1 0.399,4.5 l -0.699,0 c -1.5,0 -2.3,-0.7 -2.3,-2.2 l 0,-2.7 z"
         inkscape:connector-curvature="0" />
      <path
         id="path4513"
         d="m 40,30.9 c 1.4,-1.4 2,-2.9 2,-4.7 0,-1.8 -0.6,-3.4 -2,-4.7 -1.3,-1.3 -2.899,-2 -4.7,-2 -1.801,0 -3.4,0.7 -4.7,2 l 0,0 c -1,1 -1.7,2.3 -1.8,3.7 -1.7,-0.8 -3.4,-0.8 -5.2,0 -0.101,-1.4 -0.7,-2.7 -1.8,-3.7 -1.4,-1.3 -2.9,-2 -4.7,-2 -1.8,0 -3.4,0.7 -4.7,2 l 0,0 c -1.3,1.3 -2,2.9 -2,4.7 0,1.8 0.7,3.3 2,4.7 1.3,1.3 2.9,1.9 4.7,1.9 1.8,0 3.3,-0.6 4.7,-1.9 1.1,-1.2 1.8,-2.6 1.9,-4.2 0.1,0 0.2,0 0.2,0 1.6,-1 3.2,-1 4.8,0 0.1,1.6 0.7,3 1.9,4.2 1.3,1.3 2.899,1.9 4.7,1.9 1.801,0 3.4,-0.6 4.7,-1.9 z m -1.1,-8.3 c 1,1 1.5,2.2 1.5,3.6 0,1.3 -0.5,2.5 -1.5,3.5 -0.9,1 -2.1,1.5 -3.6,1.5 -1.4,0 -2.6,-0.5 -3.5,-1.5 -1,-1 -1.5,-2.2 -1.5,-3.5 0,-1.4 0.5,-2.6 1.5,-3.6 0.9,-1 2.1,-1.5 3.5,-1.5 1.5,0 2.7,0.5 3.6,1.5 z m -26.799,3.6 c 0,-1.4 0.5,-2.6 1.5,-3.6 0.899,-1 2.1,-1.5 3.5,-1.5 1.3,0 2.5,0.5 3.5,1.5 l 0,0 c 1,1 1.5,2.2 1.5,3.6 0,1.3 -0.5,2.5 -1.5,3.5 -1,1 -2.2,1.5 -3.5,1.5 -1.4,0 -2.601,-0.5 -3.5,-1.5 -1,-1 -1.5,-2.2 -1.5,-3.5 z"
         inkscape:connector-curvature="0" />
      <path
         id="path4515"
         d="m 35.3,24 c -0.5,-0.5 -1.1,-0.6 -1.8,-0.6 -0.6,0 -1.1,0.2 -1.6,0.6 -0.5,0.5 -0.8,1.1 -0.8,1.7 0,0.7 0.3,1.3 0.8,1.7 0,0.1 0,0.1 0,0.1 0.5,0.5 1,0.7 1.6,0.7 0.7,0 1.3,-0.3 1.8,-0.7 C 35.8,27 36,26.4 36,25.7 36,25.1 35.8,24.5 35.4,24 l -0.1,0 z m -1.8,0.9 c 0.3,0 0.5,0.1 0.601,0.3 0.2,0.2 0.3,0.3 0.3,0.5 0,0.3 0,0.5 -0.2,0.7 -0.2,0.1 -0.4,0.2 -0.7,0.2 -0.1,0 -0.3,-0.1 -0.5,-0.2 0,-0.1 0,-0.1 0,-0.1 -0.1,-0.1 -0.2,-0.3 -0.2,-0.6 0,-0.2 0.1,-0.3 0.2,-0.5 0.1,-0.2 0.299,-0.3 0.499,-0.3 z"
         inkscape:connector-curvature="0" />
      <path
         id="path4517"
         d="m 20.601,24 0,0 c -0.5,-0.5 -1.101,-0.6 -1.7,-0.6 -0.7,0 -1.3,0.2 -1.8,0.6 -0.5,0.5 -0.7,1.1 -0.7,1.7 0,0.7 0.2,1.3 0.7,1.7 0,0.1 0,0.1 0,0.1 0.5,0.5 1.1,0.7 1.8,0.7 0.6,0 1.2,-0.3 1.7,-0.7 0.5,-0.5 0.7,-1.1 0.7,-1.8 -10e-4,-0.6 -0.2,-1.2 -0.7,-1.7 z M 18.3,25.2 c 0.1,-0.2 0.3,-0.3 0.6,-0.3 0.2,0 0.4,0.1 0.5,0.3 0.2,0.2 0.2,0.3 0.2,0.5 0,0.3 0,0.5 -0.2,0.7 -0.1,0.1 -0.3,0.2 -0.5,0.2 -0.3,0 -0.5,-0.1 -0.5,-0.2 -0.1,-0.1 -0.1,-0.1 -0.1,-0.1 -0.2,-0.1 -0.2,-0.3 -0.2,-0.6 10e-4,-0.2 10e-4,-0.3 0.2,-0.5 z"
         inkscape:connector-curvature="0" />
      <path
         id="path4519"
         d="m 18.3,38 c 0.4,0.6 0.9,1.2 1.6,1.9 1.9,1.9 4.2,2.9 7,2.9 2.7,0 5.1,-1 7.1,-2.9 0.601,-0.7 1.101,-1.3 1.5,-1.9 0.101,-0.3 0.2,-0.5 0.101,-0.7 0,-0.3 -0.101,-0.4 -0.3,-0.6 -0.3,-0.1 -0.5,-0.1 -0.8,-0.1 -0.2,0.1 -0.399,0.2 -0.5,0.4 -0.399,0.6 -0.7,1.1 -1.2,1.6 -1.7,1.6 -3.6,2.4 -5.9,2.4 -2.3,0 -4.2,-0.8 -5.8,-2.4 l 0,0 c -0.5,-0.5 -1,-1 -1.2,-1.6 -0.2,-0.2 -0.4,-0.3 -0.6,-0.4 -0.3,0 -0.5,0 -0.7,0.1 -0.2,0.2 -0.3,0.3 -0.4,0.6 -0.1,0.2 -0.1,0.4 0.099,0.7 z"
         inkscape:connector-curvature="0" />
    </g>
    <text
       xml:space="preserve"
       style="color:#000000;font-style:normal;font-variant:normal;font-weight:normal;font-stretch:normal;font-size:50px;line-height:125%;font-family:'Open Sans';-inkscape-font-specification:'Open Sans';text-indent:0;text-align:start;text-decoration:none;text-decoration-line:none;text-decoration-style:solid;text-decoration-color:#000000;letter-spacing:0px;word-spacing:0px;text-transform:none;direction:ltr;block-progression:tb;writing-mode:lr-tb;baseline-shift:baseline;text-anchor:start;white-space:normal;clip-rule:nonzero;display:inline;overflow:visible;visibility:visible;opacity:1;isolation:auto;mix-blend-mode:normal;color-interpolation:sRGB;color-interpolation-filters:linearRGB;solid-color:#000000;solid-opacity:1;fill:#ffffff;fill-opacity:0.02439025;fill-rule:nonzero;stroke:#000000;stroke-width:1;stroke-linecap:butt;stroke-linejoin:miter;stroke-miterlimit:4;stroke-dasharray:none;stroke-dashoffset:0;stroke-opacity:1;color-rendering:auto;image-rendering:auto;shape-rendering:auto;text-rendering:auto;enable-background:accumulate"
       x="270.11478"
       y="439.90244"
       id="text4534"
       sodipodi:linespacing="125%"><tspan
         sodipodi:role="line"
         id="tspan4536"
         x="270.11478"
         y="439.90244"
         style="font-size:32.5px;fill:#000000;fill-opacity:1">Countries</tspan></text>
    <text
       xml:space="preserve"
       style="color:#000000;font-style:normal;font-variant:normal;font-weight:normal;font-stretch:normal;font-size:50px;line-height:125%;font-family:'Open Sans';-inkscape-font-specification:'Open Sans';text-indent:0;text-align:start;text-decoration:none;text-decoration-line:none;text-decoration-style:solid;text-decoration-color:#000000;letter-spacing:0px;word-spacing:0px;text-transform:none;direction:ltr;block-progression:tb;writing-mode:lr-tb;baseline-shift:baseline;text-anchor:start;white-space:normal;clip-rule:nonzero;display:inline;overflow:visible;visibility:visible;opacity:1;isolation:auto;mix-blend-mode:normal;color-interpolation:sRGB;color-interpolation-filters:linearRGB;solid-color:#000000;solid-opacity:1;fill:#ffffff;fill-opacity:0.02439025;fill-rule:nonzero;stroke:#000000;stroke-width:1;stroke-linecap:butt;stroke-linejoin:miter;stroke-miterlimit:4;stroke-dasharray:none;stroke-dashoffset:0;stroke-opacity:1;color-rendering:auto;image-rendering:auto;shape-rendering:auto;text-rendering:auto;enable-background:accumulate"
       x="598.15033"
       y="440.35571"
       id="text4534-3"
       sodipodi:linespacing="125%"><tspan
         sodipodi:role="line"
         id="tspan4536-4"
         x="598.15033"
         y="440.35571"
         style="font-size:32.5px;fill:#000000;fill-opacity:1">Nationalities</tspan></text>
    <text
       xml:space="preserve"
       style="font-style:normal;font-variant:normal;font-weight:normal;font-stretch:normal;font-size:32.5px;font-family:'Open Sans';-inkscape-font-specification:'Open Sans';fill:#000000;fill-opacity:1;stroke:#ffffff;stroke-opacity:1"
       x="280.01428"
       y="630.82129"
       id="text4556"><tspan
         sodipodi:role="line"
         id="tspan4558"
         x="280.01428"
         y="630.82129" /></text>
    <text
       xml:space="preserve"
       style="color:#000000;font-style:normal;font-variant:normal;font-weight:normal;font-stretch:normal;font-size:50px;line-height:125%;font-family:'Open Sans';-inkscape-font-specification:'Open Sans';text-indent:0;text-align:start;text-decoration:none;text-decoration-line:none;text-decoration-style:solid;text-decoration-color:#000000;letter-spacing:0px;word-spacing:0px;text-transform:none;direction:ltr;block-progression:tb;writing-mode:lr-tb;baseline-shift:baseline;text-anchor:start;white-space:normal;clip-rule:nonzero;display:inline;overflow:visible;visibility:visible;opacity:1;isolation:auto;mix-blend-mode:normal;color-interpolation:sRGB;color-interpolation-filters:linearRGB;solid-color:#000000;solid-opacity:1;fill:#ffffff;fill-opacity:0.02439025;fill-rule:nonzero;stroke:#000000;stroke-width:1;stroke-linecap:butt;stroke-linejoin:miter;stroke-miterlimit:4;stroke-dasharray:none;stroke-dashoffset:0;stroke-opacity:1;color-rendering:auto;image-rendering:auto;shape-rendering:auto;text-rendering:auto;enable-background:accumulate"
       x="428.44473"
       y="642.58826"
       id="text4534-34"
       sodipodi:linespacing="125%"><tspan
         sodipodi:role="line"
         id="tspan4536-7"
         x="428.44473"
         y="642.58826"
         style="font-size:32.5px;fill:#000000;fill-opacity:1">Mix It Up</tspan></text>
  </g>
</svg>
